<svg id="Capa_1" enable-background="new 0 0 512 512" height="512" viewBox="0 0 512 512" width="512" xmlns="http://www.w3.org/2000/svg"><g><circle cx="238.984" cy="234.508" fill="#eab14d" r="227.008"/><circle cx="238.984" cy="234.508" fill="#f4f8f8" r="187.32"/><path d="m238.984 47.189c-10.571 0-20.933.89-31.027 2.573 88.686 14.786 156.293 91.865 156.293 184.747s-67.607 169.961-156.293 184.747c10.094 1.683 20.456 2.573 31.027 2.573 103.454 0 187.32-83.866 187.32-187.32s-83.866-187.32-187.32-187.32z" fill="#e7ecf1"/><circle cx="238.984" cy="234.508" fill="#f6e266" r="20.92"/><path d="m485.393 504.5h-307.648c-8.08 0-14.631-6.551-14.631-14.631v-171.29c0-8.08 6.551-14.631 14.631-14.631h307.648c8.08 0 14.631 6.551 14.631 14.631v171.29c0 8.08-6.551 14.631-14.631 14.631z" fill="#78d0b1"/><path d="m485.393 303.948h-61.445c8.081 0 14.631 6.551 14.631 14.631v171.29c0 8.08-6.55 14.631-14.631 14.631h61.445c8.08 0 14.631-6.551 14.631-14.631v-171.29c0-8.081-6.55-14.631-14.631-14.631z" fill="#66b49d"/><path d="m359.903 330.432h87.262c2.465 0 4.782 1.231 6.108 3.308 4.35 6.811 10.146 12.608 16.957 16.957 2.077 1.327 3.308 3.644 3.308 6.109v94.618c0 2.463-1.228 4.781-3.304 6.106-6.876 4.391-12.718 10.257-17.081 17.152-1.323 2.091-3.649 3.332-6.124 3.332h-87.127-61.552-81.839c-2.471 0-4.798-1.235-6.119-3.324-4.439-7.016-10.411-12.965-17.444-17.38-2.102-1.319-3.348-3.653-3.348-6.135v-94.121c0-2.483 1.249-4.817 3.352-6.137 6.968-4.375 12.895-10.254 17.321-17.185 1.325-2.075 3.643-3.3 6.104-3.3h81.974z" fill="#b9f6d3"/><path d="m470.131 349.083c-7.017-4.481-12.988-10.453-17.469-17.469-1.366-2.14-3.754-3.408-6.293-3.408h-8.845v152.037h8.706c2.549 0 4.946-1.278 6.309-3.432 4.495-7.103 10.513-13.147 17.597-17.67 2.138-1.365 3.404-3.753 3.404-6.291v-97.474c-.001-2.539-1.269-4.927-3.409-6.293z" fill="#a2f4c1"/><path d="m238.991 103.864c-4.201 0-7.606 3.406-7.606 7.606v95.568c-12.042 3.338-20.91 14.389-20.91 27.479 0 15.724 12.793 28.517 28.517 28.517 13.093 0 24.146-8.872 27.481-20.918l51.703-.015c4.201-.001 7.605-3.408 7.604-7.608s-3.406-7.604-7.606-7.604c-.001 0-.002 0-.002 0l-51.704.015c-2.668-9.615-10.254-17.2-19.87-19.865v-95.569c0-4.2-3.406-7.606-7.607-7.606zm13.305 130.654c0 7.336-5.968 13.304-13.305 13.304-7.336 0-13.304-5.968-13.304-13.304s5.968-13.305 13.304-13.305c7.337 0 13.305 5.968 13.305 13.305z"/><path d="m368.327 432.073c2.57-16.18-6.486-30.202-23.072-35.723-2.236-.744-4.524-1.525-6.806-2.337v-33.906c6.025 1.297 9.613 4.167 9.912 4.414 3.171 2.705 7.937 2.353 10.677-.801 2.755-3.171 2.418-7.976-.755-10.731-.437-.38-7.801-6.629-19.834-8.314v-2.546c0-4.201-3.405-7.606-7.606-7.606s-7.606 3.406-7.606 7.606v3.098c-1.143.236-2.303.509-3.489.846-11.281 3.2-19.601 12.408-21.715 24.03-1.868 10.273 1.697 20.144 9.302 25.762 4.03 2.977 9.044 5.705 15.902 8.585v43.125c-6.163-.4-10.369-1.777-17.31-6.053-3.575-2.204-8.262-1.091-10.466 2.486s-1.09 8.262 2.487 10.466c9.863 6.076 16.587 7.874 25.289 8.327v3.394c0 4.201 3.405 7.606 7.606 7.606s7.606-3.406 7.606-7.606v-3.987c17.018-3.236 27.757-16.784 29.878-30.135zm-51.954-48.446c-3.469-2.563-4.017-7.261-3.373-10.803.809-4.445 3.929-9.811 10.237-11.899v26.799c-2.591-1.306-4.932-2.67-6.864-4.097zm36.929 46.059c-1.085 6.829-6.108 14.077-14.853 16.849v-36.425c.661.224 1.316.447 2.001.675 9.43 3.138 14.234 10.204 12.852 18.901z"/><path d="m485.295 296.321h-307.516c-12.258 0-22.231 9.973-22.231 22.231v171.217c0 12.258 9.973 22.231 22.231 22.231h307.516c12.258 0 22.231-9.973 22.231-22.231v-171.217c0-12.258-9.973-22.231-22.231-22.231zm7.018 193.448c0 3.87-3.149 7.019-7.018 7.019h-307.516c-3.87 0-7.019-3.148-7.019-7.019v-171.217c0-3.87 3.149-7.019 7.019-7.019h307.516c3.87 0 7.018 3.148 7.018 7.019z"/><path d="m295.215 470.313h-78.515c-4.957-7.763-11.68-14.461-19.466-19.395v-93.732c7.713-4.887 14.39-11.511 19.331-19.18h78.555c4.201 0 7.606-3.406 7.606-7.606 0-4.201-3.405-7.606-7.606-7.606h-78.727c-5.111 0-9.788 2.546-12.512 6.812-3.797 5.946-8.965 11.074-14.947 14.829-4.329 2.718-6.913 7.419-6.913 12.577v94.081c0 5.159 2.583 9.859 6.909 12.574 6.039 3.791 11.244 8.977 15.053 14.997 2.718 4.297 7.408 6.862 12.545 6.862h78.687c4.201 0 7.606-3.406 7.606-7.606s-3.405-7.607-7.606-7.607z"/><path d="m474.233 344.247c-5.842-3.731-10.902-8.791-14.634-14.635-2.728-4.27-7.406-6.818-12.516-6.818h-80.681c-4.201 0-7.606 3.406-7.606 7.606 0 4.201 3.405 7.606 7.606 7.606h80.507c4.856 7.538 11.394 14.075 18.93 18.93v94.232c-7.608 4.901-14.192 11.512-19.065 19.145h-80.191c-4.201 0-7.606 3.406-7.606 7.606s3.405 7.606 7.606 7.606h80.365c5.137 0 9.829-2.569 12.549-6.869 3.745-5.917 8.841-11.035 14.74-14.802 4.268-2.726 6.815-7.404 6.815-12.514v-94.578c0-5.108-2.549-9.787-6.819-12.515z"/><path d="m135.439 381.305c-6.335-4.477-12.319-9.339-17.953-14.524l8.859-8.859c2.971-2.97 2.971-7.787 0-10.757-2.97-2.97-7.787-2.97-10.757 0l-8.856 8.856c-28.435-31.003-45.379-71.328-47.191-113.897h12.538c4.201 0 7.606-3.406 7.606-7.606 0-4.201-3.406-7.606-7.606-7.606h-12.548c1.834-43.802 19.423-83.598 47.241-113.856l8.815 8.815c1.485 1.485 3.432 2.228 5.378 2.228s3.893-.743 5.378-2.228c2.971-2.97 2.971-7.787 0-10.757l-8.815-8.815c30.258-27.819 70.054-45.407 113.856-47.242v12.547c0 4.201 3.406 7.606 7.606 7.606s7.606-3.406 7.606-7.606v-12.547c43.802 1.834 83.598 19.423 113.856 47.242l-8.816 8.815c-2.97 2.97-2.97 7.787 0 10.757 2.972 2.971 7.786 2.97 10.758 0l8.815-8.815c27.818 30.258 45.407 70.054 47.241 113.856h-12.547c-4.201 0-7.606 3.406-7.606 7.606 0 4.201 3.405 7.606 7.606 7.606h12.549c-.393 9.383-1.502 18.722-3.331 27.855-.826 4.119 1.844 8.127 5.963 8.953 4.126.828 8.127-1.845 8.952-5.964 2.521-12.581 3.799-25.517 3.799-38.451 0-107.438-87.408-194.846-194.846-194.846s-194.846 87.408-194.846 194.846c0 63.179 30.846 122.697 82.513 159.211 3.432 2.425 8.179 1.607 10.602-1.822 2.427-3.43 1.612-8.177-1.819-10.601z"/><path d="m134.353 427.28c-70.729-38.474-114.666-112.337-114.666-192.763 0-121.203 98.085-219.305 219.305-219.305 121.203 0 219.305 98.085 219.305 219.305 0 11.908-.966 23.861-2.871 35.528-.676 4.146 2.135 8.055 6.281 8.732 4.159.679 8.057-2.136 8.733-6.281 2.036-12.475 3.069-25.253 3.069-37.98 0-129.609-104.888-234.516-234.518-234.516-129.609 0-234.517 104.889-234.517 234.517 0 86.004 46.982 164.987 122.61 206.126 3.697 2.01 8.313.637 10.317-3.047 2.007-3.69.643-8.308-3.048-10.316z"/></g></svg>