<svg id="Capa_1" enable-background="new 0 0 512 512" height="512" viewBox="0 0 512 512" width="512" xmlns="http://www.w3.org/2000/svg"><g><g><g><g><g><g><g><path d="m477.772 470.053h-443.544c-14.761 0-26.728-11.966-26.728-26.728v-293.733c0-14.761 11.966-26.728 26.728-26.728h443.545c14.761 0 26.728 11.966 26.728 26.728v293.734c-.001 14.761-11.967 26.727-26.729 26.727z" fill="#8c9ba6"/><path d="m477.772 122.864h-61.445c14.761 0 26.728 11.966 26.728 26.728v293.734c0 14.761-11.966 26.728-26.728 26.728h61.445c14.761 0 26.728-11.966 26.728-26.728v-293.734c0-14.762-11.966-26.728-26.728-26.728z" fill="#7c8b96"/><path d="m45.745 210.018v207.69c0 8.337 6.758 15.095 15.095 15.095h390.32c8.337 0 15.095-6.758 15.095-15.095v-207.69c0-8.337-6.758-15.095-15.095-15.095h-390.32c-8.336 0-15.095 6.758-15.095 15.095z" fill="#f4f8f8"/><path d="m451.16 194.923h-61.445c8.337 0 15.095 6.758 15.095 15.095v207.69c0 8.337-6.758 15.095-15.095 15.095h61.445c8.337 0 15.095-6.758 15.095-15.095v-207.69c0-8.337-6.758-15.095-15.095-15.095z" fill="#e7ecf1"/></g></g><path d="m290.474 41.947h-68.948c-6.926 0-12.541 5.615-12.541 12.541v67.765c0 25.966 21.049 47.015 47.015 47.015 25.966 0 47.015-21.049 47.015-47.015v-67.765c0-6.926-5.615-12.541-12.541-12.541z" fill="#fc8086"/><path d="m290.474 41.947h-48.781v80.306c0 14.247-6.346 27.003-16.354 35.625 8.233 7.092 18.942 11.39 30.661 11.39 25.966 0 47.015-21.049 47.015-47.015v-67.765c0-6.926-5.615-12.541-12.541-12.541z" fill="#fb636f"/><circle cx="256" cy="120.609" fill="#f5f5f5" r="18.472"/></g></g><g><g><g><path d="m149.868 299.964c-29.666 0-53.765 24.683-54.222 55.309v3.954c0 6.506 5.274 11.78 11.78 11.78h84.884c6.506 0 11.78-5.274 11.78-11.78v-3.954c-.457-30.627-24.555-55.309-54.222-55.309z" fill="#9cabb8"/><ellipse cx="149.868" cy="282.728" fill="#7c8b96" rx="29.155" ry="30.138"/></g></g></g></g></g><g><g><g><path d="m265.412 268.005h150.941c4.143 0 7.5-3.358 7.5-7.5s-3.357-7.5-7.5-7.5h-150.941c-4.143 0-7.5 3.358-7.5 7.5s3.358 7.5 7.5 7.5z"/><path d="m265.412 304.839h150.941c4.143 0 7.5-3.358 7.5-7.5s-3.357-7.5-7.5-7.5h-150.941c-4.143 0-7.5 3.358-7.5 7.5s3.358 7.5 7.5 7.5z"/><path d="m265.412 341.672h150.941c4.143 0 7.5-3.358 7.5-7.5s-3.357-7.5-7.5-7.5h-150.941c-4.143 0-7.5 3.358-7.5 7.5s3.358 7.5 7.5 7.5z"/><path d="m265.412 378.506h75.471c4.143 0 7.5-3.358 7.5-7.5s-3.357-7.5-7.5-7.5h-75.471c-4.143 0-7.5 3.358-7.5 7.5s3.358 7.5 7.5 7.5z"/><path d="m38.245 210.018v207.69c0 12.459 10.136 22.595 22.595 22.595h390.32c12.459 0 22.595-10.136 22.595-22.595v-207.69c0-12.459-10.136-22.595-22.595-22.595h-390.32c-12.459 0-22.595 10.136-22.595 22.595zm420.51 0v207.69c0 4.188-3.407 7.595-7.595 7.595h-390.32c-4.188 0-7.595-3.407-7.595-7.595v-207.69c0-4.188 3.407-7.595 7.595-7.595h390.32c4.188 0 7.595 3.407 7.595 7.595z"/><path d="m477.772 115.364h-139.579c-4.143 0-7.5 3.358-7.5 7.5s3.357 7.5 7.5 7.5h139.579c10.603 0 19.228 8.625 19.228 19.228v293.734c0 10.602-8.625 19.228-19.228 19.228h-443.544c-10.603 0-19.228-8.625-19.228-19.228v-293.735c0-10.602 8.625-19.228 19.228-19.228h139.579c4.143 0 7.5-3.358 7.5-7.5s-3.357-7.5-7.5-7.5h-139.579c-18.874.001-34.228 15.355-34.228 34.228v293.734c0 18.873 15.354 34.228 34.228 34.228h443.545c18.873 0 34.228-15.354 34.228-34.228v-293.734c-.001-18.873-15.355-34.227-34.229-34.227z"/><path d="m107.426 378.506h84.885c10.631 0 19.279-8.649 19.279-19.28v-3.954c0-.037 0-.075-.001-.112-.332-22.269-11.836-42.432-29.982-53.641 3.12-5.535 4.916-11.95 4.916-18.792 0-20.754-16.443-37.638-36.655-37.638-20.211 0-36.654 16.884-36.654 37.638 0 6.842 1.796 13.257 4.916 18.792-18.146 11.209-29.651 31.373-29.982 53.642-.001.037-.001.075-.001.112v3.954c-.001 10.63 8.648 19.279 19.279 19.279zm42.442-118.417c11.94 0 21.655 10.155 21.655 22.638s-9.715 22.638-21.655 22.638-21.654-10.155-21.654-22.638 9.714-22.638 21.654-22.638zm-46.722 95.243c.286-17.951 9.964-34.076 25.021-42.296 6.08 4.602 13.585 7.329 21.701 7.329s15.621-2.727 21.701-7.329c15.057 8.22 24.734 24.344 25.02 42.295v3.895c0 2.36-1.92 4.28-4.279 4.28h-84.885c-2.359 0-4.279-1.92-4.279-4.28z"/><path d="m256 176.768c30.06 0 54.515-24.455 54.515-54.515v-67.765c0-11.05-8.99-20.041-20.041-20.041h-68.947c-11.051 0-20.041 8.99-20.041 20.041v67.766c-.001 30.059 24.454 54.514 54.514 54.514zm-39.515-122.28c0-2.779 2.262-5.041 5.041-5.041h68.947c2.779 0 5.041 2.261 5.041 5.041v67.766c0 21.789-17.727 39.515-39.515 39.515s-39.515-17.726-39.515-39.515v-67.766z"/><path d="m256 146.581c14.321 0 25.973-11.651 25.973-25.972s-11.652-25.972-25.973-25.972-25.973 11.651-25.973 25.972 11.652 25.972 25.973 25.972zm0-36.944c6.051 0 10.973 4.922 10.973 10.972s-4.922 10.972-10.973 10.972-10.973-4.922-10.973-10.972 4.922-10.972 10.973-10.972z"/></g></g></g></g></svg>