<svg id="Capa_1" enable-background="new 0 0 512 512" height="512" viewBox="0 0 512 512" width="512" xmlns="http://www.w3.org/2000/svg"><g><g><g><g><g><g><g><g><g><g><g><g><g><path d="m79.419 7.5c-20.745 0-37.563 16.817-37.563 37.563v321.898c0 20.745 16.817 37.563 37.563 37.563h353.162c20.745 0 37.563-16.817 37.563-37.563v-243.631c0-7.547-2.998-14.785-8.335-20.122l-87.373-87.373c-5.337-5.337-12.575-8.335-20.122-8.335h-274.895z" fill="#f4f8f8"/><path d="m461.809 103.208-87.373-87.373c-2.433-2.433-5.263-4.373-8.335-5.771v63.916c0 20.745 16.818 37.563 37.563 37.563h63.916c-1.398-3.072-3.338-5.902-5.771-8.335z" fill="#fc8086"/><path d="m408.699 111.543v255.418c0 20.745-16.817 37.563-37.563 37.563h61.445c20.745 0 37.563-16.818 37.563-37.563v-243.631c0-4.107-.894-8.12-2.564-11.787z" fill="#e7ecf1"/></g></g></g></g></g></g></g></g></g><path d="m491.179 249.847h-106.764c-6.205 0-11.235 5.03-11.235 11.235v9.269c0 8.28-6.712 14.992-14.992 14.992h-204.376c-8.28 0-14.992-6.712-14.992-14.992v-9.269c0-6.205-5.03-11.235-11.235-11.235h-106.765c-7.351 0-13.31 5.959-13.31 13.31v203.058c0 21.144 17.141 38.285 38.285 38.285h420.408c21.144 0 38.285-17.141 38.285-38.285v-203.058c.001-7.351-5.958-13.31-13.309-13.31zm-149.906 121.134c0 11.051-8.959 20.01-20.01 20.01h-130.526c-11.051 0-20.01-8.959-20.01-20.01 0-11.051 8.959-20.01 20.01-20.01h130.526c11.051 0 20.01 8.959 20.01 20.01z" fill="#b78e8e"/><g fill="#aa8080"><path d="m491.179 249.847h-61.445c7.351 0 13.31 5.959 13.31 13.31v203.058c0 21.144-17.141 38.286-38.285 38.286h61.445c21.144 0 38.286-17.141 38.286-38.286v-203.058c0-7.351-5.96-13.31-13.311-13.31z"/><path d="m77.376 261.082v9.269c0 8.28 6.712 14.992 14.992 14.992h61.445c-8.28 0-14.992-6.712-14.992-14.992v-9.269c0-6.205-5.03-11.235-11.235-11.235h-61.445c6.205 0 11.235 5.03 11.235 11.235z"/></g></g></g></g><g><g><g><path d="m182.003 51.019h-85.996c-4.142 0-7.5 3.358-7.5 7.5s3.358 7.5 7.5 7.5h85.996c4.142 0 7.5-3.358 7.5-7.5s-3.358-7.5-7.5-7.5z"/><path d="m182.003 90.517h-85.996c-4.142 0-7.5 3.358-7.5 7.5s3.358 7.5 7.5 7.5h85.996c4.142 0 7.5-3.358 7.5-7.5s-3.358-7.5-7.5-7.5z"/><path d="m491.18 242.347h-106.765c-10.331 0-18.735 8.404-18.735 18.735v9.269c0 4.131-3.361 7.492-7.492 7.492h-204.376c-4.131 0-7.492-3.361-7.492-7.492v-9.269c0-10.331-8.404-18.735-18.735-18.735h-106.765c-11.475 0-20.81 9.335-20.81 20.81v203.058c0 25.246 20.54 45.785 45.786 45.785h420.409c25.246 0 45.785-20.539 45.785-45.785v-203.058c0-11.475-9.336-20.81-20.81-20.81zm5.81 223.868c0 16.975-13.81 30.786-30.786 30.786h-420.408c-16.975 0-30.786-13.81-30.786-30.786v-203.058c0-3.204 2.606-5.81 5.81-5.81h106.765c2.059 0 3.735 1.676 3.735 3.736v9.269c0 12.402 10.09 22.491 22.492 22.491h204.376c12.402 0 22.491-10.089 22.491-22.491v-9.269c0-2.06 1.676-3.736 3.735-3.736h106.766c3.204 0 5.81 2.606 5.81 5.81z"/><path d="m321.263 343.472h-130.526c-15.169 0-27.51 12.341-27.51 27.51s12.341 27.51 27.51 27.51h130.526c15.169 0 27.511-12.341 27.511-27.51s-12.342-27.51-27.511-27.51zm0 40.02h-130.526c-6.899 0-12.511-5.612-12.511-12.51 0-6.899 5.612-12.511 12.511-12.511h130.526c6.899 0 12.511 5.612 12.511 12.511 0 6.898-5.612 12.51-12.511 12.51z"/><path d="m41.856 222.17c4.142 0 7.5-3.358 7.5-7.5v-169.607c0-16.577 13.486-30.064 30.063-30.064h274.895c1.458 0 2.891.155 4.287.444v58.537c0 24.848 20.215 45.063 45.063 45.063h58.536c.289 1.396.444 2.829.444 4.287v91.36c0 4.142 3.357 7.5 7.5 7.5 4.142 0 7.5-3.358 7.5-7.5v-91.36c0-9.604-3.74-18.634-10.53-25.425l-87.374-87.374c-6.794-6.791-15.823-10.531-25.426-10.531h-274.895c-24.848 0-45.063 20.215-45.063 45.063v169.607c0 4.142 3.358 7.5 7.5 7.5zm410.182-118.127h-48.374c-16.576 0-30.063-13.486-30.063-30.063v-48.375z"/></g></g></g></g></svg>