<svg id="Capa_1" enable-background="new 0 0 512 512" height="512" viewBox="0 0 512 512" width="512" xmlns="http://www.w3.org/2000/svg"><g><path d="m486.194 349.746h-384.917c-10.11 0-18.306-8.196-18.306-18.306v-223.312c0-10.11 8.196-18.306 18.306-18.306h384.917c10.11 0 18.306 8.196 18.306 18.306v223.313c0 10.109-8.196 18.305-18.306 18.305z" fill="#66b49d"/><path d="m448.458 385.962h-384.916c-10.11 0-18.306-8.196-18.306-18.306v-223.312c0-10.11 8.196-18.306 18.306-18.306h384.917c10.11 0 18.306 8.196 18.306 18.306v223.313c-.001 10.109-8.197 18.305-18.307 18.305z" fill="#a2f4c1"/><path d="m410.723 422.178h-384.917c-10.11 0-18.306-8.196-18.306-18.306v-223.313c0-10.11 8.196-18.306 18.306-18.306h384.917c10.11 0 18.306 8.196 18.306 18.306v223.312c-.001 10.111-8.197 18.307-18.306 18.307z" fill="#78d0b1"/><path d="m410.723 162.254h-64.7c10.11 0 18.306 8.196 18.306 18.306v223.313c0 10.11-8.196 18.306-18.306 18.306h64.7c10.11 0 18.306-8.196 18.306-18.306v-223.313c-.001-10.11-8.196-18.306-18.306-18.306z" fill="#66b49d"/><path d="m360.588 201.514c0-.005 0-.01 0-.016 0-.851-.676-1.547-1.527-1.547h-281.594c-.851 0-1.528.696-1.527 1.547v.016c0 15.859-12.168 28.871-27.677 30.221-.777.068-1.363.738-1.363 1.518v111.265c0 .78.586 1.45 1.363 1.518 15.509 1.35 27.677 14.362 27.677 30.221 0 2.191-.237 4.326-.681 6.384-.204.948.518 1.839 1.488 1.839h283.035c.97 0 1.692-.891 1.488-1.839-.444-2.058-.681-4.193-.681-6.384 0-15.859 12.168-28.871 27.677-30.221.777-.068 1.363-.738 1.363-1.518v-111.265c0-.78-.586-1.45-1.363-1.518-15.51-1.35-27.678-14.362-27.678-30.221z" fill="#b9f6d3"/><path d="m131.995 296.005c4.143 0 7.501-3.358 7.501-7.501s-3.358-7.501-7.501-7.501h-35.345c-4.143 0-7.501 3.358-7.501 7.501s3.358 7.501 7.501 7.501z"/><path d="m338.685 296.005c4.143 0 7.501-3.358 7.501-7.501s-3.358-7.501-7.501-7.501h-35.345c-4.143 0-7.501 3.358-7.501 7.501s3.358 7.501 7.501 7.501z"/><path d="m196.89 326.007c-3.72-2.435-8.804-1.137-10.842 2.974-1.702 3.434-.368 7.632 2.846 9.721 8.274 5.378 14.053 7.109 21.273 7.604v6.116c0 4.107 3.165 7.689 7.27 7.812 4.248.128 7.732-3.278 7.732-7.497v-7.105c14.382-3.247 23.616-15.352 25.623-27.292 2.561-15.234-5.402-28.477-20.287-33.739-1.755-.62-3.546-1.267-5.336-1.939v-29.869c4.178 1.222 6.63 3.316 6.808 3.473l1.471 1.18c3.067 2.46 7.514 2.127 10.18-.763 3.005-3.259 2.515-8.378-1.013-11.062-5.021-3.819-10.251-6.956-17.446-8.187v-5.424c0-4.107-3.165-7.689-7.27-7.812-4.248-.128-7.732 3.278-7.732 7.497v6.287c-.799.19-1.606.397-2.428.645-9.838 2.963-17.186 11.373-19.178 21.947-1.822 9.668 1.294 19.006 8.131 24.368 3.449 2.705 7.705 5.184 13.475 7.784v38.537c-4.739-.46-7.959-1.779-13.277-5.256zm9.06-52.87c-2.377-1.864-3.416-5.706-2.647-9.786.651-3.456 2.788-7.553 6.864-9.604v22.182c-1.564-.902-2.992-1.831-4.217-2.792zm19.555 25.609c11.709 4.139 10.992 14.14 10.492 17.107-.928 5.521-4.608 11.361-10.829 14.072v-31.3c.115.041.222.08.337.121z"/><path d="m388.224 233.341c-10.648-.927-19.761-7.194-24.659-16.104v149.959c4.899-8.911 14.012-15.178 24.659-16.104.8-.07 1.404-.76 1.404-1.564v-114.624c0-.803-.604-1.494-1.404-1.563z" fill="#a2f4c1"/><path d="m390.566 223.676c-11.829-1.03-21.095-11.151-21.095-23.058 0-4.997-4.057-9.063-9.043-9.063h-284.327c-4.957 0-9.046 4.008-9.043 9.079 0 11.891-9.266 22.012-21.091 23.042-4.615.399-8.23 4.355-8.23 9.005v38.266c0 4.143 3.358 7.501 7.501 7.501s7.501-3.358 7.501-7.501v-33.214c14.911-3.572 26.425-16.033 28.849-31.176h273.352c2.419 15.137 13.934 27.601 28.852 31.175v102.242c-17.148 4.107-29.707 19.924-29.313 37.901h-272.428c.363-18.095-12.241-33.811-29.313-37.901v-33.957c0-4.143-3.358-7.501-7.501-7.501s-7.501 3.358-7.501 7.501v39.008c0 4.65 3.615 8.606 8.227 9.005 11.829 1.03 21.095 11.151 21.095 23.042 0 1.63-.175 3.267-.52 4.868-1.212 5.632 3.082 10.936 8.835 10.936h285.782c5.75 0 10.048-5.299 8.834-10.94-.344-1.596-.519-3.233-.519-4.864 0-11.891 9.266-22.012 21.091-23.042 4.615-.399 8.23-4.355 8.23-9.005v-112.345c.002-4.65-3.614-8.606-8.225-9.004z"/><path d="m504.499 209.766c4.143 0 7.501-3.358 7.501-7.501v-94.137c0-14.23-11.577-25.807-25.807-25.807h-384.915c-14.23 0-25.807 11.577-25.807 25.807v10.409h-11.929c-14.23 0-25.807 11.577-25.807 25.807v10.409h-11.93c-14.228 0-25.805 11.577-25.805 25.807v223.312c0 14.23 11.577 25.807 25.806 25.807h384.916c14.23 0 25.807-11.577 25.807-25.807v-10.409h11.929c14.23 0 25.807-11.577 25.807-25.807v-10.409h11.929c14.23 0 25.807-11.577 25.807-25.807v-93.442c0-4.143-3.358-7.501-7.501-7.501s-7.501 3.358-7.501 7.501v93.442c0 5.958-4.847 10.805-10.805 10.805h-11.929v-197.901c0-14.23-11.577-25.807-25.807-25.807h-357.985v-10.409c0-5.958 4.847-10.805 10.805-10.805h384.915c5.958 0 10.805 4.847 10.805 10.805v94.137c0 4.143 3.358 7.501 7.501 7.501zm-82.972 194.105c0 5.958-4.847 10.805-10.805 10.805h-384.916c-5.958 0-10.804-4.847-10.804-10.805v-223.311c0-5.958 4.847-10.805 10.804-10.805h384.916c5.958 0 10.805 4.847 10.805 10.805zm37.736-259.527v223.312c0 5.958-4.847 10.805-10.805 10.805h-11.929v-197.901c0-14.23-11.577-25.807-25.807-25.807h-357.985v-10.409c0-5.958 4.847-10.805 10.805-10.805h384.915c5.958 0 10.806 4.847 10.806 10.805z"/></g></svg>