<svg id="Capa_1" enable-background="new 0 0 512 512" height="512" viewBox="0 0 512 512" width="512" xmlns="http://www.w3.org/2000/svg"><g><g><g><g><g><g><g><g><g><g><path d="m53.901 7.5c-18.445 0-33.398 14.953-33.398 33.398v430.204c0 18.445 14.953 33.398 33.398 33.398h314.002c18.445 0 33.398-14.953 33.398-33.398v-360.616c0-6.71-2.666-13.146-7.411-17.891l-77.685-77.685c-4.745-4.745-11.18-7.411-17.891-7.411h-244.413z" fill="#f4f8f8"/><path d="m342.192 100.006c-.786 0-1.564-.037-2.336-.09v371.187c0 18.445-14.953 33.398-33.398 33.398h61.445c18.445 0 33.398-14.953 33.398-33.398v-360.617c0-3.652-.795-7.219-2.279-10.48z" fill="#e7ecf1"/><path d="m393.89 92.595-77.685-77.685c-2.163-2.163-4.679-3.888-7.411-5.131v56.829c0 18.445 14.953 33.398 33.398 33.398h56.829c-1.243-2.731-2.968-5.248-5.131-7.411z" fill="#fc8086"/></g></g></g></g></g></g></g></g><g><path d="m472.49 343.989h-246.942v-85.426h235.94c6.076 0 11.002 4.926 11.002 11.002z" fill="#ddeafb"/><path d="m461.488 258.563h-61.108c6.076 0 11.002 4.926 11.002 11.002v74.424h61.108v-74.424c0-6.076-4.925-11.002-11.002-11.002z" fill="#bed8fb"/><path d="m286.543 296.75c-3.686 0-6.925-2.443-7.937-5.987l-12.159-42.548c-2.395-8.38-10.052-14.16-18.768-14.165l-69.503-.05c-12.206-.008-22.106 9.884-22.108 22.09l-.042 232.389c0 8.701 6.994 16.02 15.667 16.02-1.587 0 294.814-.007 308.969 0 5.983.002 10.835-4.848 10.835-10.831v-185.957c0-6.053-4.907-10.96-10.96-10.96h-193.994z" fill="#f6e266"/><g fill="#ffd064"><path d="m186.235 234.05c8.716.006 16.373 5.785 18.768 14.165l12.159 42.548c1.013 3.544 4.252 5.987 7.937 5.987h61.445c-3.686 0-6.925-2.443-7.937-5.987l-12.159-42.548c-2.395-8.38-10.052-14.16-18.768-14.165l-69.504-.05c-.449 0-.895.017-1.338.043z"/><path d="m171.67 504.499c.008 0 .015.001.023.001-.93 0 100.424-.002 187.376-.003-54.14 0-133.032.001-187.399.002z"/><path d="m480.536 296.75h-61.445c6.053 0 10.96 4.907 10.96 10.96v185.958c0 5.964-4.821 10.8-10.779 10.829 33.352 0 57.581.001 61.388.003 5.983.002 10.835-4.848 10.835-10.831v-185.958c.002-6.054-4.905-10.961-10.959-10.961z"/></g><path d="m446.583 387.052h-70.402c-2.389 0-4.325-1.936-4.325-4.325v-29.747c0-2.389 1.936-4.325 4.325-4.325h70.402c2.389 0 4.325 1.936 4.325 4.325v29.747c0 2.389-1.937 4.325-4.325 4.325z" fill="#66b49d"/></g></g><g><g><g><path d="m159.283 47.393h-86.153c-4.142 0-7.5 3.358-7.5 7.5s3.358 7.5 7.5 7.5h86.153c4.142 0 7.5-3.358 7.5-7.5s-3.358-7.5-7.5-7.5z"/><path d="m159.283 82h-86.153c-4.142 0-7.5 3.358-7.5 7.5s3.358 7.5 7.5 7.5h86.153c4.142 0 7.5-3.358 7.5-7.5s-3.358-7.5-7.5-7.5z"/><path d="m480.537 289.25h-.546v-19.686c0-10.202-8.3-18.502-18.502-18.502h-186.428l-1.402-4.908c-3.296-11.535-13.977-19.597-25.974-19.605l-69.504-.05c-.007 0-.013 0-.02 0-7.9 0-15.328 3.075-20.917 8.66-5.594 5.589-8.675 13.022-8.676 20.929l-.042 232.391c0 12.893 10.393 23.382 23.167 23.382.08 0 .159-.001.238-.004.098.003.197.004.297.004l308.431.139h.006c4.895 0 9.498-1.906 12.96-5.367 3.464-3.462 5.372-8.066 5.372-12.964v-185.959c0-10.179-8.281-18.46-18.46-18.46zm-19.049-23.187c1.931 0 3.502 1.571 3.502 3.502v19.686h-178.447c-.335 0-.634-.225-.726-.547l-6.47-22.64h182.141zm22.509 227.605c0 1.201-.611 1.991-.976 2.355-.365.365-1.155.976-2.355.976 0 0 0 0-.001 0 0 0-306.082-.136-308.938-.138-.012 0-.023 0-.035 0-4.503 0-8.167-3.76-8.167-8.38l.042-232.39c0-3.899 1.52-7.564 4.279-10.321 2.756-2.754 6.418-4.271 10.314-4.271h.01l69.504.05c5.34.003 10.094 3.592 11.561 8.726l12.159 42.548c1.922 6.728 8.152 11.426 15.149 11.426h193.993c1.908 0 3.46 1.552 3.46 3.46v185.959z"/><path d="m126.917 497h-73.016c-14.28 0-25.898-11.618-25.898-25.898v-430.204c0-14.28 11.618-25.898 25.898-25.898h244.414c1.01 0 2.003.101 2.98.265v51.343c0 22.551 18.347 40.897 40.897 40.897h51.343c.164.977.265 1.97.265 2.98v112.926c0 4.142 3.358 7.5 7.5 7.5s7.5-3.358 7.5-7.5v-112.925c0-8.762-3.412-16.999-9.607-23.194l-77.684-77.685c-6.196-6.195-14.432-9.607-23.194-9.607h-244.414c-22.551 0-40.898 18.347-40.898 40.898v430.204c0 22.551 18.347 40.898 40.898 40.898h73.016c4.142 0 7.5-3.358 7.5-7.5s-3.358-7.5-7.5-7.5zm256.276-404.494h-41.001c-14.28 0-25.897-11.618-25.897-25.897v-41.002z"/><path d="m446.583 341.155h-70.402c-6.521 0-11.825 5.305-11.825 11.825v29.747c0 6.52 5.305 11.825 11.825 11.825h70.402c6.52 0 11.825-5.305 11.825-11.825v-29.747c0-6.52-5.305-11.825-11.825-11.825zm-3.175 38.397h-64.052v-23.396h64.052z"/></g></g></g></g></svg>