<svg id="Capa_1" enable-background="new 0 0 512 512" height="512" viewBox="0 0 512 512" width="512" xmlns="http://www.w3.org/2000/svg"><g><g><g><g><g><g><g><g><g><g><g><g><g><g><path d="m64.532 461.428 102.548 38.17c8.709 3.242 17.928 4.902 27.221 4.902h105.684c14.79 0 29.275-4.203 41.767-12.119l132.326-74.655c8.73-7.752 10.349-20.78 3.781-30.432-7.186-10.561-19.074-12.397-32.156-6.211l-128.833 56.725.152-12.262c-1.706-17.156-14.916-30.925-31.987-33.341l-78.455-9.033c-18.098-2.561-27.142-8.626-42.919-17.855-21.54-12.6-46.045-19.242-71-19.242h-28.129z" fill="#ffece3"/></g></g></g><path d="m445.702 381.082-128.832 56.726s-6.181 6.398-33.848 6.398h-88.721c-9.293 0-18.511-1.66-27.221-4.902l-102.548-38.17v60.295l102.548 38.17c8.709 3.242 17.928 4.902 27.221 4.902h105.684c14.79 0 29.275-4.203 41.767-12.119l132.326-74.655c8.73-7.752 10.349-20.78 3.781-30.432-7.188-10.563-19.076-12.399-32.157-6.213z" fill="#ffddce"/><path d="m80.115 476.994c0 7.459-6.047 13.506-13.506 13.506h-22.941c-7.459 0-13.506-6.047-13.506-13.506v-146.506c0-7.459 6.047-13.506 13.506-13.506h22.941c7.459 0 13.506 6.047 13.506 13.506z" fill="#7c8b96"/></g></g></g></g></g></g></g></g></g><g><g><g><g><g><g><g><circle cx="256.022" cy="170.965" fill="#f5f5f5" r="163.465"/><path d="m256.022 7.5c-10.503 0-20.77 1.003-30.722 2.895 75.591 14.377 132.742 80.793 132.742 160.569s-57.152 146.193-132.742 160.57c9.952 1.893 20.219 2.895 30.722 2.895 90.279 0 163.465-73.186 163.465-163.465s-73.186-163.464-163.465-163.464z" fill="#eaeaea"/><g><g><g><g><g><g><g><g><g><g><g><g><g><g><g><g><g><path d="m296.133 239.925c-4.746-.595-8.314-4.615-8.334-9.398l-.183-43.507-66.475.28.183 43.507c.02 4.783-3.514 8.833-8.254 9.468 0 0-12.275 41.952 41.708 41.724 53.983-.227 41.355-42.074 41.355-42.074z" fill="#ffece3"/><g><path d="m296.133 239.925c-4.746-.595-8.314-4.615-8.334-9.398l-.183-43.507-42.764.18.175 81.946c.02 4.783 3.588 8.803 8.334 9.398 0 0 .392 1.305.743 3.45.227.001.445.006.674.005 53.983-.227 41.355-42.074 41.355-42.074z" fill="#ffddce"/></g><path d="m317.121 126.193-4.021.017-.02-4.722-.048-11.287c-.067-15.937-6.675-31.352-18.796-41.7-9.503-8.113-22.842-15.173-40.424-15.295-17.58.27-30.859 7.442-40.293 15.635-12.033 10.449-18.51 25.92-18.443 41.857l.048 11.287.02 4.722-4.021.017c-5.895.025-10.654 4.824-10.629 10.719l.05 11.829c.025 5.895 4.824 10.654 10.719 10.629l4.037-.017c.398 15.49 6.971 30.374 18.774 40.451 9.503 8.113 22.842 15.173 40.424 15.295 17.58-.27 30.86-7.442 40.293-15.635 11.718-10.176 18.165-25.115 18.432-40.608l4.037-.017c5.895-.025 10.654-4.824 10.629-10.719l-.05-11.829c-.023-5.895-4.822-10.654-10.718-10.629z" fill="#ffece3"/><path d="m327.841 136.822c-.025-5.895-4.824-10.654-10.719-10.629l-4.021.017-.02-4.722-.048-11.287c-.067-15.937-6.675-31.352-18.796-41.7-9.503-8.113-22.842-15.173-40.424-15.295-.526.008-1.036.042-1.555.062l.141 106.118c-.267 15.493-6.714 30.431-18.432 40.608-2.987 2.594-6.362 5.083-10.133 7.285 8.261 4.819 18.434 8.265 30.665 8.35 17.581-.27 30.86-7.442 40.293-15.635 11.718-10.176 18.165-25.115 18.433-40.608l4.037-.017c5.895-.025 10.654-4.824 10.629-10.719z" fill="#ffddce"/><path d="m256.022 334.429c48.994 0 92.944-21.561 122.901-55.707-4.305-11.448-13.048-20.968-24.651-26.076-15.23-6.704-43.985-10.946-58.14-12.723l-41.422 26.151-41.641-25.801c-14.139 1.896-42.857 6.38-58.03 13.213-10.635 4.789-18.82 13.293-23.342 23.566 29.979 35.106 74.542 57.377 124.325 57.377z" fill="#ddeafb"/><path d="m378.923 278.723c-4.305-11.448-13.048-20.968-24.651-26.076-4.246-1.869-9.543-3.547-15.282-5.033-22.861 42.975-64.348 74.535-113.691 83.92.087.017.175.037.262.059 9.868 1.862 20.05 2.836 30.46 2.836 48.995 0 92.945-21.561 122.902-55.706z" fill="#bed8fb"/></g></g></g></g></g></g><path d="m276.768 49.597-46.36.195c-8.463.036-15.633 5.491-18.242 13.064-.978 2.839-3.676 4.724-6.678 4.737-10.789.045-19.499 8.829-19.453 19.618l.172 40.735s17.141-.276 22.963 5.417c1.224 1.197 3.28.341 3.273-1.371l-.113-26.779c-.039-9.298 7.466-16.867 16.764-16.906l.202-.001c2.786-.012 5.542.406 8.179 1.225 5.017 1.557 10.209 2.481 15.462 2.459l2.08-.009c5.253-.022 10.437-.99 15.441-2.589 2.63-.841 5.383-1.282 8.168-1.294l.202-.001c9.298-.039 16.867 7.466 16.906 16.764l.113 26.779c.007 1.712 10.21 2.517 11.424 1.309 5.774-5.742 14.776-5.576 14.776-5.576l-.139-33.015c-.103-24.824-20.314-44.865-45.14-44.761z" fill="#aa8080"/><path d="m321.909 94.36c-.105-24.826-20.315-44.867-45.142-44.763l-24.514.103.056 42.279c.209.002.418.012.627.011l2.08-.009c5.253-.022 10.437-.99 15.441-2.589 2.63-.841 5.383-1.282 8.168-1.294l.202-.001c9.298-.039 16.867 7.466 16.906 16.764l.113 26.779c.007 1.712 10.211 2.517 11.424 1.309 5.774-5.742 14.776-5.576 14.776-5.576z" fill="#9d6b6b"/></g><g fill="#bed8fb"><path d="m184.358 245.047 27.043 29.546c5.063 5.532 13.203 6.988 19.87 3.554l23.44-12.072-41.641-25.801c-7.088.951-17.84 2.552-28.712 4.773z"/><path d="m324.884 244.455-26.776 29.819c-5.023 5.594-13.175 7.119-19.88 3.721l-23.516-11.919 41.422-26.151c7.095.89 17.859 2.4 28.75 4.53z"/></g></g><path d="m256.022 334.429c6.986 0 13.861-.464 20.616-1.315l-8.621-35.76-26.371.111-8.216 35.393c7.386 1.023 14.924 1.571 22.592 1.571z" fill="#fc8086"/><path d="m276.313 333.182c.108-.031.217-.053.325-.067l-4.408-18.285c-11.872 6.42-24.628 11.415-38.039 14.753l-.761 3.277c.099.014.198.034.297.06 7.289.995 14.732 1.51 22.295 1.51 6.871-.001 13.643-.425 20.291-1.248z" fill="#fb636f"/></g></g></g></g></g></g></g></g></g><g><path d="m278.227 277.994-23.516-11.919-23.439 12.072c-.041.021-.084.037-.125.058l10.499 19.261 26.371-.111 10.353-19.296c-.047-.023-.096-.041-.143-.065z" fill="#fb636f"/></g></g></g></g></g></g></g></g></g><g><g><g><path d="m256.022 342.037c87.138 0 160.195-65.204 169.936-151.671.474-4.202-2.549-7.993-6.752-8.466-4.197-.473-7.993 2.549-8.466 6.752-3.228 28.651-14.099 54.732-30.439 76.325-5.665-8.425-13.646-15.215-23.005-19.334-15.889-6.994-44.559-11.338-60.234-13.304-.923-.116-1.621-.901-1.625-1.827l-.089-21.127c1.505-1.126 2.988-2.309 4.441-3.571 11.303-9.815 18.57-23.743 20.53-38.99 3.727-.64 7.155-2.416 9.871-5.154 3.447-3.476 5.334-8.086 5.313-12.98l-.05-11.822c-.022-5.135-2.166-9.907-5.805-13.301l-.123-29.133c-.12-28.639-23.297-52.359-52.574-52.359-.075 0-.153 0-.227 0l-46.331.194c-11.327.048-21.431 7.179-25.287 17.794-14.81.269-26.745 12.432-26.683 27.292l.156 36.848c-3.612 3.425-5.715 8.216-5.692 13.35l.05 11.822c.039 9.195 6.786 16.611 15.336 18.007 2.089 15.229 9.473 29.095 20.859 38.815 1.463 1.249 2.956 2.42 4.47 3.533l.089 21.127c.004.926-.688 1.718-1.609 1.841-15.661 2.1-44.295 6.686-60.12 13.811-8.444 3.802-15.679 9.672-21.117 17.001-19.172-25.879-30.527-57.882-30.527-92.489 0-85.856 69.849-155.705 155.705-155.705 79.541 0 146.488 60.089 154.836 139.154.445 4.205 4.21 7.239 8.42 6.81 4.205-.445 7.254-4.213 6.81-8.42-9.147-86.611-82.44-152.86-170.067-152.86-94.3 0-171.019 76.718-171.019 171.019 0 94.318 76.751 171.018 171.019 171.018zm-13.174-15.877 4.895-21.088 14.242-.06 5.14 21.321c-8.239.58-16.22.506-24.277-.173zm20.571-36.468-17.228.073-4.551-8.35 13.101-6.747 13.161 6.67zm-34.469-71.348c7.99 3.231 16.506 4.906 25.497 4.968h.053c.039 0 .079 0 .118-.001 8.989-.138 17.491-1.885 25.453-5.182l.052 12.445c.013 3.207.923 6.232 2.499 8.82l-27.947 17.644-28.096-17.408c1.554-2.601 2.438-5.633 2.425-8.84zm122.176 41.313c8.075 3.554 14.722 9.887 18.749 17.708-22.799 24.381-53.309 41.298-87.443 47.121l-6.295-26.111 6.021-11.221c1.177.173 2.359.269 3.539.269 6.734 0 13.366-2.796 18.08-8.047l23.83-26.537c8.846 1.866 17.45 4.147 23.519 6.818zm-53.26-11.776c3.322.437 7.477 1.019 12.051 1.741l-17.533 19.525c-2.672 2.974-7.006 3.807-10.588 2.06-.005-.003-.01-.006-.015-.009-.067-.033-.133-.063-.2-.094l-11.371-5.763zm-92.314-172.511c6.273-.027 11.851-4.005 13.88-9.897 1.619-4.7 6.05-7.872 11.024-7.893l46.33-.194h.163c20.513 0 37.175 16.553 37.262 37.109l.112 26.309c-3.311.837-7.183 2.366-10.643 5.152-.073-.001-.148-.003-.223-.005l-.089-21.024c-.056-13.233-10.726-24.408-24.591-24.378l-.194.001c-9.243.036-13.439 3.839-23.597 3.88l-2.079.009c-.05 0-.099 0-.149 0-10.499 0-13.466-3.631-23.483-3.682l-.196.001c-13.499.057-24.436 11.086-24.379 24.586l.074 17.332c-3.669-1.116-7.544-1.704-10.896-2.007l-.142-33.381c-.028-6.545 5.273-11.891 11.816-11.918zm-2.56 84.379c-.107-4.152-3.503-7.46-7.653-7.46-.011 0-.022 0-.033 0l-4.034.017c-.005 0-.009 0-.013 0-1.655 0-3.004-1.342-3.011-2.998l-.05-11.822c-.003-.719.239-1.312.583-1.776 6.091.208 13.311 1.494 15.063 3.208 6.053 5.918 16.317 1.647 16.282-6.878l-.114-26.76c-.021-5.056 4.075-9.186 9.135-9.207l.197-.001c6.51.03 11.378 3.785 23.626 3.682l2.079-.009c12.456-.052 17.285-3.855 23.6-3.88l.197-.001h.041c2.433 0 4.724.943 6.453 2.658 1.74 1.724 2.703 4.022 2.713 6.47l.113 26.761c.041 10.852 19.579 11.573 24.474 6.706 1.924-1.913 4.867-2.783 7.015-3.135.285.436.481.972.483 1.608l.05 11.821c.02 4.31-5.944 2.737-7.033 3.04-4.165.018-7.552 3.361-7.624 7.525-.235 13.694-5.989 26.426-15.785 34.933-10.163 8.827-22.068 13.527-35.279 13.75-13.433-.113-25.334-4.863-35.395-13.451-9.867-8.427-15.728-21.11-16.08-34.801zm8.415 88.496 27.776 17.209-11.321 5.831c-.066.031-.136.064-.189.091-.003.001-.005.003-.008.005-3.559 1.767-7.895.971-10.586-1.969l-17.69-19.327c4.56-.759 8.703-1.376 12.018-1.84zm-53.16 12.226c6.046-2.723 14.633-5.077 23.465-7.016l24.069 26.296c4.707 5.143 11.272 7.872 17.93 7.872 1.238 0 2.478-.104 3.711-.295l6.115 11.219-5.935 25.568c-34.014-6.299-64.185-23.685-86.605-48.262 4.033-6.751 10.022-12.128 17.25-15.382z"/><path d="m442.405 374.036-117.77 51.855.004-.357c.004-.284-.008-.569-.037-.852-2.06-20.718-17.897-37.227-38.513-40.143-.066-.01-.132-.018-.197-.026l-78.304-9.016c-35.65-5.081-51.644-37.135-114.825-37.135h-4.881v-7.921c0-11.665-9.489-21.154-21.154-21.154h-22.927c-11.665 0-21.154 9.489-21.154 21.154v146.413c0 11.665 9.489 21.155 21.154 21.155h22.927c11.247 0 20.445-8.829 21.091-19.917 72.178 25.418 81.347 33.908 106.52 33.908h105.617c16.19 0 31.977-4.561 45.67-13.193l132.075-74.514c9.169-5.184 17.392-25.157 6.346-41.39-9.186-13.503-24.746-16.816-41.642-8.867zm26.989 37.361-131.459 74.166c-.114.064-.225.132-.336.201-11.276 7.145-24.293 10.922-37.642 10.922h-105.618c-21.12 0-27.246-6.709-106.457-34.911v-55.532c0-4.229-3.428-7.657-7.657-7.657s-7.657 3.428-7.657 7.657v70.611c0 3.221-2.62 5.841-5.84 5.841h-22.927c-3.22 0-5.84-2.62-5.84-5.841v-146.413c0-3.22 2.62-5.84 5.84-5.84h22.927c3.22 0 5.84 2.62 5.84 5.84v40.007c0 4.229 3.428 7.657 7.657 7.657s7.657-3.428 7.657-7.657v-16.772h4.881c59.922 0 71.105 31.1 112.775 36.997.066.01.132.018.197.026l78.301 9.016c13.429 1.941 23.766 12.625 25.285 26.081l-.052 4.24h-54.271c-12.554 0-25.217-.92-37.634-2.734l-13.554-1.979c-4.181-.609-8.073 2.285-8.683 6.469-.611 4.184 2.285 8.073 6.469 8.683l13.554 1.979c13.148 1.921 26.555 2.895 39.848 2.895h61.833c.977 0 2.089-.216 3.058-.639.743-.324 128.674-56.654 128.779-56.7 8.943-3.974 17.169-4.65 22.719 3.506 4.246 6.242 3.36 14.655-1.993 19.881z"/></g></g></g></g></svg>