<svg id="Capa_1" enable-background="new 0 0 512 512" height="512" viewBox="0 0 512 512" width="512" xmlns="http://www.w3.org/2000/svg"><g><g><g><g><g><g><path d="m300.761 480.146h-89.522l28.603-390.732 3.31-8.147h25.428l3.578 8.147z" fill="#fceeac"/><path d="m253.434 24.935-22.931 26.11c-9.469 10.782-7.671 27.359 3.89 35.86l5.436 3.998h16.179 16.158l5.442-4.002c11.558-8.499 13.358-25.073 3.893-35.855l-22.919-26.11c-1.364-1.554-3.784-1.554-5.148-.001z" fill="#ffd064"/></g><g><g><g><g><g><path d="m22.272 285.753c8.85 28.858 35.701 49.842 67.459 49.842s58.609-20.985 67.459-49.842z" fill="#ffc250"/></g><path d="m95.745 285.753c-5.781 18.85-19.244 34.336-36.737 42.813 9.287 4.501 19.709 7.029 30.722 7.029 31.758 0 58.609-20.985 67.459-49.842z" fill="#eab14d"/></g></g><g><g><g><path d="m354.81 285.753c8.85 28.858 35.701 49.842 67.459 49.842s58.609-20.985 67.459-49.842z" fill="#ffc250"/></g><path d="m428.069 285.753c-5.769 18.811-19.19 34.27-36.629 42.759 9.315 4.534 19.773 7.083 30.83 7.083 31.758 0 58.609-20.985 67.459-49.842z" fill="#eab14d"/></g></g></g><path d="m496.623 135.541c.245-10.841-6.784-20.669-16.972-23.182-13.267-3.272-25.336 5.688-27.601 18.302-.525 2.921-3.165 4.909-6.029 4.723-10.672-.693-17.761-5.205-18.283-5.418-32.61-17.493-72.614-22.747-109.753-14.407l-39.836 8.941c-14.503 3.256-29.835 3.254-44.338 0l-39.835-8.941c-61.843-13.884-110.407 14.864-110.884 15.015-5.276 2.832-11.179 4.422-17.156 4.81-2.87.186-5.461-1.833-5.992-4.759-2.07-11.413-12.165-19.829-23.914-18.868-10.426.853-19.045 9.277-20.45 20.007-1.288 9.836 3.465 19.181 11.685 23.734 20.716 12.337 47.504 12.963 69.024 1.413.785-.248 39.325-24.093 91.616-12.356l39.835 8.941c18.475 4.148 38.007 4.147 56.481 0l39.836-8.941c51.615-11.586 91.063 12.183 91.624 12.361 10.299 5.526 21.804 8.265 33.277 8.265 16.744-.002 47.153-7.007 47.665-29.64z" fill="#f6e266"/></g></g></g><g><path d="m348.944 439.38h-185.888c-18.721 0-33.896 15.176-33.896 33.896 0 8.258 6.695 14.953 14.953 14.953h223.775c8.258 0 14.953-6.695 14.953-14.953 0-18.72-15.176-33.896-33.897-33.896z" fill="#fbe77b"/></g><path d="m348.944 439.38h-61.445c18.721 0 33.896 15.176 33.896 33.896v14.953h46.492c8.259 0 14.953-6.695 14.953-14.953.001-18.72-15.175-33.896-33.896-33.896z" fill="#ffd064"/><path d="m300.746 439.38h-89.492c-11.962 0-21.659-9.697-21.659-21.659 0-11.962 9.697-21.659 21.659-21.659h89.492c11.962 0 21.659 9.697 21.659 21.659 0 11.962-9.697 21.659-21.659 21.659z" fill="#fbe77b"/><path d="m300.746 396.062h-61.445c11.962 0 21.659 9.697 21.659 21.659v21.659h39.786c11.962 0 21.659-9.697 21.659-21.659 0-11.962-9.697-21.659-21.659-21.659z" fill="#f6e266"/></g></g><g><g><path d="m504.494 278.246h-10.211l-55.107-106.167c3.232.402 6.497.608 9.776.608 21.84 0 54.555-9.846 55.169-36.973.563-24.896-25.991-39.765-45.994-26.784-6.609 4.289-11.337 11.09-13.146 18.834-6.099-.668-9.747-2.428-13.842-4.486-34.153-18.274-75.988-23.757-114.8-15.041l-34.733 7.796-1.64-21.546 2.088-1.535c15.09-11.095 17.441-32.777 5.088-46.853l-22.919-26.108c-2.075-2.364-5.068-3.721-8.214-3.722 0 0-.001 0-.002 0-3.144 0-6.137 1.356-8.212 3.718l-22.93 26.11c-12.362 14.076-10.008 35.763 5.082 46.859l2.083 1.532-1.638 21.554-34.77-7.803c-39.773-8.933-82.191-2.052-116.076 15.724-3.75 2.013-8.053 3.315-12.528 3.799-7.643-32.923-54.468-30.633-58.875 3.031-1.678 12.812 4.359 25.051 15.384 31.215 12.053 7.153 25.735 10.746 39.457 10.745 3.276 0 6.553-.21 9.811-.62l-55.079 106.113h-10.21c-4.145 0-7.506 3.36-7.506 7.506s3.36 7.506 7.506 7.506h9.449c11.44 29.367 39.756 49.841 72.779 49.841 9.779 0 19.319-1.788 28.355-5.313 3.862-1.507 5.771-5.859 4.264-9.72s-5.857-5.773-9.721-4.265c-7.29 2.844-14.994 4.286-22.899 4.286-24.345 0-45.897-13.642-56.415-34.83h112.792c-2.148 4.286-4.773 8.329-7.887 12.073-2.651 3.187-2.216 7.919.97 10.57 3.193 2.656 7.925 2.21 10.57-.97 5.443-6.543 9.7-13.82 12.74-21.672h9.458c4.145 0 7.506-3.36 7.506-7.506s-3.36-7.506-7.506-7.506h-10.211l-60.06-115.709c10.707-5.639 43.336-19.914 84.569-10.657l39.833 8.939c.325.073.654.135.98.206l-16.658 227.549c-15.694.446-28.326 13.343-28.326 29.142 0 5.134 1.338 9.959 3.677 14.153h-22.71c-22.829 0-41.401 18.573-41.401 41.401 0 12.383 10.075 22.458 22.459 22.458h223.77c12.383 0 22.458-10.075 22.458-22.458 0-22.829-18.573-41.401-41.401-41.401h-22.71c2.338-4.195 3.677-9.02 3.677-14.153 0-15.799-12.632-28.696-28.326-29.142l-16.659-227.557c.313-.068.627-.127.939-.197l39.835-8.94c40.915-9.188 73.652 4.969 84.598 10.678l-60.048 115.687h-10.211c-4.146 0-7.506 3.36-7.506 7.506s3.36 7.506 7.506 7.506h9.448c11.441 29.369 39.758 49.841 72.78 49.841 10.505 0 20.702-2.054 30.307-6.105 3.82-1.611 5.611-6.012 3.999-9.832-1.611-3.82-6.014-5.609-9.832-3.999-7.75 3.267-15.984 4.925-24.475 4.925-24.345 0-45.897-13.642-56.414-34.83h112.793c-1.897 3.783-4.165 7.382-6.816 10.749-2.564 3.256-2.003 7.976 1.254 10.54 3.241 2.553 7.965 2.017 10.54-1.254 4.817-6.118 8.632-12.843 11.418-20.036h9.455c4.146 0 7.506-3.36 7.506-7.506.002-4.144-3.358-7.504-7.504-7.504zm-268.351-222.243 19.863-22.618 19.853 22.617c6.516 7.423 5.384 18.911-2.698 24.857l-3.459 2.542h-27.411l-3.452-2.538c-7.975-5.866-9.305-17.334-2.696-24.86zm30.62 62.815c-7.139.819-14.386.82-21.528.004l1.551-20.41h18.423zm-121.923 159.428h-110.211l55.105-106.163zm204.102 168.635c14.552 0 26.39 11.838 26.39 26.39 0 4.107-3.34 7.447-7.447 7.447h-223.77c-4.107 0-7.448-3.34-7.448-7.447 0-14.552 11.839-26.39 26.39-26.39h48.198 89.489zm-34.044-29.164c0 7.804-6.35 14.153-14.153 14.153h-89.489c-7.804 0-14.153-6.35-14.153-14.153 0-7.804 6.349-14.152 14.153-14.152h89.489c7.803 0 14.153 6.348 14.153 14.152zm-28.367-29.164h-61.06l16.483-225.165c9.327.955 18.765.953 28.092-.004zm35.88-251.32-39.835 8.941c-17.402 3.905-35.794 3.906-53.192-.001l-39.834-8.94c-33.109-7.429-67.225-2.838-96.807 13.067-19.022 10.21-43.214 9.72-61.632-1.249-.067-.039-.135-.078-.203-.116-5.664-3.137-8.757-9.494-7.879-16.194 2.295-17.529 26.381-18.163 29.535-.775 1.206 6.653 7.168 11.35 13.863 10.911 7.123-.462 14.076-2.409 20.117-5.632 35.047-17.821 72.275-21.884 105.79-14.359l39.834 8.94c16.014 3.594 32.6 3.374 47.625 0l39.836-8.941c33.95-7.623 69.071-4.041 104.772 13.809.3.109 8.689 5.374 21.13 6.183 6.727.441 12.709-4.242 13.902-10.886.777-4.325 3.28-8.14 6.867-10.468 9.814-6.367 23.11.837 22.815 13.851-.157 6.96-4.676 12.573-13.43 16.682-8.83 4.144-19.598 5.62-26.731 5.62-16.198 0-24.885-5.466-30.106-7.572-10.519-5.735-48.561-23.614-96.437-12.871zm44.749 141.013 55.105-106.164 55.106 106.164z"/></g></g></g></svg>