<svg id="Capa_1" enable-background="new 0 0 512 512" height="512" viewBox="0 0 512 512" width="512" xmlns="http://www.w3.org/2000/svg"><g><g><g><path d="m504.5 273.56v-35.12c0-16.376-13.275-29.651-29.651-29.651h-.454c-12.645 0-23.817-8.048-28.023-19.972-2.397-6.794-5.147-13.421-8.228-19.859-5.469-11.428-3.292-25.041 5.667-34l.323-.323c11.58-11.58 11.58-30.354 0-41.933l-24.834-24.834c-11.58-11.58-30.354-11.58-41.934 0l-.323.323c-8.959 8.959-22.572 11.136-34 5.667-6.438-3.081-13.065-5.831-19.859-8.228-11.924-4.207-19.972-15.379-19.972-28.023v-.454c0-16.376-13.275-29.651-29.651-29.651h-35.121c-16.376 0-29.651 13.275-29.651 29.651v.454c0 12.645-8.048 23.817-19.972 28.023-6.794 2.397-13.421 5.147-19.859 8.228-11.428 5.469-25.041 3.292-34-5.667l-.323-.323c-11.58-11.58-30.354-11.58-41.934 0l-24.834 24.833c-11.58 11.58-11.58 30.354 0 41.933l.323.323c8.959 8.959 11.136 22.572 5.667 34-3.081 6.438-5.831 13.065-8.228 19.859-4.207 11.924-15.379 19.972-28.023 19.972h-.454c-16.376 0-29.651 13.275-29.651 29.651v35.121c0 16.376 13.275 29.651 29.651 29.651h.454c12.645 0 23.817 8.048 28.023 19.972 2.397 6.794 5.147 13.421 8.228 19.859 5.47 11.428 3.292 25.041-5.667 34l-.323.323c-11.58 11.58-11.58 30.354 0 41.934l24.834 24.834c11.58 11.58 30.354 11.58 41.934 0l.323-.323c8.959-8.959 22.572-11.136 34-5.667 6.438 3.081 13.065 5.831 19.859 8.228 11.924 4.207 19.972 15.379 19.972 28.023v.454c0 16.376 13.275 29.651 29.651 29.651h35.121c16.376 0 29.651-13.275 29.651-29.651v-.454c0-12.645 8.048-23.817 19.972-28.023 6.794-2.397 13.421-5.147 19.859-8.228 11.428-5.47 25.041-3.292 34 5.667l.323.323c11.58 11.58 30.354 11.58 41.934 0l24.834-24.834c11.58-11.58 11.58-30.354 0-41.934l-.323-.323c-8.959-8.959-11.136-22.572-5.667-34 3.081-6.438 5.831-13.065 8.228-19.859 4.207-11.924 15.379-19.972 28.023-19.972h.454c16.376.001 29.651-13.275 29.651-29.651z" fill="#e7ecf1"/><path d="m474.849 208.788h-.454c-12.645 0-23.817-8.048-28.023-19.972-2.396-6.794-5.146-13.421-8.228-19.859-5.469-11.428-3.292-25.041 5.667-34l.323-.323c11.58-11.58 11.58-30.354 0-41.934l-24.834-24.834c-11.58-11.58-30.354-11.58-41.934 0l-.323.323c-8.959 8.959-22.572 11.136-34 5.667-6.438-3.081-13.065-5.831-19.859-8.228-11.925-4.207-19.972-15.379-19.972-28.023v-.454c0-16.376-13.275-29.651-29.651-29.651h-35.121c-9.422 0-17.812 4.4-23.243 11.251 101.029 31.54 174.358 125.83 174.358 237.249s-73.329 205.709-174.359 237.249c5.431 6.852 13.821 11.251 23.243 11.251h35.121c16.376 0 29.651-13.275 29.651-29.651v-.454c0-12.645 8.048-23.817 19.972-28.023 6.794-2.397 13.421-5.146 19.859-8.228 11.428-5.469 25.041-3.292 34 5.667l.323.323c11.58 11.58 30.354 11.58 41.934 0l24.834-24.834c11.58-11.58 11.58-30.354 0-41.934l-.323-.323c-8.958-8.958-11.136-22.571-5.667-34 3.081-6.438 5.831-13.065 8.228-19.859 4.207-11.924 15.379-19.972 28.023-19.972h.454c16.376 0 29.651-13.275 29.651-29.651v-35.121c.001-16.377-13.274-29.652-29.65-29.652z" fill="#dae4ea"/><circle cx="256" cy="256" fill="#eab14d" r="161.153"/><circle cx="256" cy="256" fill="#fbe77b" r="123"/><path d="m256 133c-10.608 0-20.902 1.343-30.722 3.868 53.065 13.645 92.278 61.809 92.278 119.132s-39.213 105.487-92.278 119.132c9.82 2.525 20.114 3.868 30.722 3.868 67.931 0 123-55.069 123-123s-55.069-123-123-123z" fill="#ffd064"/></g></g><g><g><g><path d="m272.537 248.141c-3.251-1.082-6.589-2.222-9.905-3.421v-46.302c9.568 1.392 15.318 6.053 15.733 6.399 3.125 2.68 7.836 2.336 10.54-.778 2.717-3.127 2.384-7.864-.744-10.58-.545-.474-10.045-8.534-25.529-10.157v-4.969c0-4.143-3.357-7.5-7.5-7.5s-7.5 3.357-7.5 7.5v5.55c-1.897.337-3.841.768-5.841 1.336-13.375 3.794-23.241 14.715-25.748 28.501-2.199 12.097 1.961 23.693 10.857 30.264 5.158 3.811 11.655 7.3 20.731 11.031v57.477c-9.295-.33-14.885-1.911-24.759-7.993-3.525-2.17-8.146-1.075-10.319 2.452-2.173 3.526-1.074 8.146 2.452 10.319 12.769 7.866 20.929 9.834 32.626 10.215v6.182c0 4.143 3.357 7.5 7.5 7.5s7.5-3.357 7.5-7.5v-6.705c21.34-3.302 34.829-19.938 37.433-36.331 3.055-19.229-7.751-35.906-27.527-42.49zm-36.724-16.223c-4.26-3.146-6.18-9.091-5.012-15.515 1.156-6.359 5.727-14.1 15.084-16.755.589-.167 1.171-.318 1.747-.457v39.459c-4.521-2.105-8.591-4.347-11.819-6.732zm49.437 56.359c-1.57 9.887-9.218 20.448-22.618 23.443v-51.103c1.666.576 3.372 1.158 5.167 1.756 19.006 6.327 18.163 21.427 17.451 25.904z"/><path d="m474.849 201.288h-.454c-9.373 0-17.792-6.015-20.95-14.967-2.463-6.981-5.335-13.913-8.536-20.603-4.114-8.597-2.425-18.828 4.206-25.458l.322-.322c14.485-14.485 14.485-38.056 0-52.541l-24.834-24.834c-14.487-14.484-38.057-14.482-52.532-.008l-.332.331c-6.629 6.63-16.858 8.323-25.458 4.204-6.688-3.2-13.62-6.072-20.602-8.534-8.952-3.159-14.967-11.578-14.967-20.951v-.454c0-20.485-16.666-37.151-37.151-37.151h-35.121c-20.485 0-37.151 16.666-37.151 37.151v.454c0 9.373-6.015 17.792-14.967 20.95-6.981 2.463-13.913 5.335-20.603 8.536-8.598 4.113-18.829 2.425-25.458-4.206l-.322-.322c-7.018-7.017-16.348-10.881-26.271-10.881-9.924 0-19.254 3.864-26.271 10.881l-24.834 24.834c-14.485 14.485-14.485 38.056 0 52.541l.322.322c6.631 6.63 8.32 16.861 4.205 25.459-3.2 6.688-6.072 13.62-8.534 20.602-3.159 8.952-11.578 14.967-20.951 14.967h-.454c-20.485 0-37.151 16.666-37.151 37.151v35.121c0 20.485 16.666 37.151 37.151 37.151h.454c9.373 0 17.792 6.015 20.95 14.967 2.463 6.981 5.335 13.913 8.536 20.603 4.114 8.597 2.425 18.828-4.206 25.458l-.322.322c-14.485 14.485-14.485 38.056 0 52.541l24.834 24.833c7.017 7.018 16.347 10.882 26.271 10.882 9.923 0 19.253-3.864 26.271-10.881l.322-.322c6.63-6.629 16.86-8.321 25.459-4.205 6.688 3.2 13.62 6.072 20.602 8.534 8.952 3.159 14.967 11.578 14.967 20.951v.454c0 20.485 16.666 37.151 37.151 37.151h35.121c20.485 0 37.151-16.666 37.151-37.151v-.454c0-9.373 6.015-17.792 14.967-20.95 6.981-2.463 13.913-5.335 20.603-8.536 8.597-4.114 18.827-2.426 25.458 4.206l.322.322c14.486 14.484 38.055 14.484 52.541 0l24.834-24.834c14.485-14.485 14.485-38.056 0-52.541l-.322-.322c-6.631-6.63-8.32-16.861-4.205-25.459 3.2-6.688 6.072-13.62 8.534-20.602 3.159-8.952 11.578-14.967 20.951-14.967h.454c20.485 0 37.151-16.666 37.151-37.151v-35.121c0-20.485-16.666-37.151-37.151-37.151zm22.151 72.273c0 12.214-9.938 22.151-22.151 22.151h-.454c-15.722 0-29.825 10.037-35.097 24.977-2.285 6.479-4.949 12.91-7.919 19.116-6.856 14.325-3.992 31.421 7.128 42.542l.322.322c8.638 8.637 8.638 22.689 0 31.326l-24.834 24.834c-8.637 8.639-22.689 8.639-31.326 0l-.322-.322c-11.12-11.118-28.215-13.983-42.541-7.129-6.207 2.971-12.639 5.635-19.117 7.921-14.939 5.271-24.977 19.374-24.977 35.096v.454c0 12.214-9.938 22.151-22.151 22.151h-35.121c-12.214 0-22.151-9.938-22.151-22.151v-.454c0-15.722-10.037-29.825-24.977-35.097-6.479-2.285-12.91-4.949-19.116-7.919-5.194-2.486-10.751-3.694-16.257-3.694-9.679 0-19.196 3.734-26.285 10.822l-.322.322c-4.184 4.185-9.746 6.488-15.663 6.488s-11.479-2.304-15.663-6.488l-24.834-24.834c-8.638-8.637-8.638-22.689 0-31.326l.322-.322c11.12-11.121 13.984-28.217 7.129-42.541-2.971-6.207-5.635-12.639-7.921-19.117-5.271-14.939-19.374-24.977-35.096-24.977h-.454c-12.214 0-22.151-9.938-22.151-22.151v-35.121c0-12.214 9.938-22.151 22.151-22.151h.454c15.722 0 29.825-10.037 35.097-24.977 2.285-6.479 4.949-12.91 7.919-19.116 6.856-14.325 3.992-31.421-7.128-42.542l-.322-.322c-8.638-8.637-8.638-22.689 0-31.326l24.833-24.836c4.184-4.184 9.746-6.487 15.663-6.487s11.479 2.304 15.663 6.488l.322.322c11.121 11.12 28.217 13.985 42.541 7.129 6.207-2.971 12.639-5.635 19.117-7.921 14.939-5.271 24.977-19.374 24.977-35.096v-.454c0-12.214 9.938-22.151 22.151-22.151h35.121c12.214 0 22.151 9.938 22.151 22.151v.454c0 15.722 10.037 29.825 24.977 35.097 6.479 2.285 12.91 4.949 19.116 7.919 14.324 6.857 31.422 3.992 42.532-7.12l.332-.33c8.637-8.639 22.689-8.639 31.326 0l24.834 24.834c8.638 8.637 8.638 22.689 0 31.326l-.322.322c-11.12 11.121-13.984 28.217-7.129 42.541 2.971 6.207 5.635 12.639 7.921 19.117 5.271 14.939 19.374 24.977 35.096 24.977h.454c12.214 0 22.151 9.938 22.151 22.151v35.122z"/><path d="m102.347 256c0-84.725 68.929-153.653 153.653-153.653 34.779 0 67.581 11.331 94.86 32.769 3.256 2.56 7.97 1.993 10.53-1.262 2.56-3.257 1.994-7.973-1.262-10.531-29.947-23.536-65.954-35.976-104.128-35.976-92.996 0-168.653 75.657-168.653 168.653 0 38.461 12.609 74.683 36.466 104.75 1.48 1.866 3.669 2.838 5.88 2.838 1.633 0 3.278-.531 4.657-1.625 3.244-2.574 3.788-7.292 1.213-10.537-21.73-27.387-33.216-60.385-33.216-95.426z"/><path d="m376.277 148.481c-3.212 2.616-3.694 7.341-1.079 10.552 22.219 27.277 34.455 61.715 34.455 96.967 0 84.725-68.929 153.653-153.653 153.653-35.263 0-69.708-12.243-96.991-34.475-3.212-2.616-7.937-2.134-10.552 1.077-2.616 3.211-2.135 7.935 1.077 10.552 29.951 24.405 67.761 37.846 106.466 37.846 92.996 0 168.653-75.657 168.653-168.653 0-38.693-13.433-76.494-37.824-106.439-2.615-3.211-7.338-3.695-10.552-1.08z"/><path d="m256 125.5c-71.958 0-130.5 58.542-130.5 130.5s58.542 130.5 130.5 130.5 130.5-58.542 130.5-130.5-58.542-130.5-130.5-130.5zm0 246c-63.687 0-115.5-51.813-115.5-115.5s51.813-115.5 115.5-115.5 115.5 51.813 115.5 115.5-51.813 115.5-115.5 115.5z"/></g></g></g></g></svg>