<svg id="Capa_1" enable-background="new 0 0 512 512" height="512" viewBox="0 0 512 512" width="512" xmlns="http://www.w3.org/2000/svg"><g><g><g><g><g><g><g><path d="m482.458 116.16c-17.425-.066-26.132-21.152-13.791-33.492 8.568-8.568 8.568-22.459 0-31.027l-8.665-8.665c-8.567-8.567-22.149-8.14-30.748.395-12.367 12.275-33.434 3.521-33.434-13.93 0-12.117-9.823-21.939-21.939-21.939h-11.778c-12.117 0-21.939 9.823-21.939 21.939 0 17.479-21.133 26.232-33.492 13.873-8.568-8.568-22.459-8.568-31.027 0l-8.328 8.328c-8.568 8.568-8.568 22.459 0 31.027 12.34 12.34 3.633 33.426-13.791 33.492-12.116.046-22.021 9.347-22.021 21.463v12.255c0 12.117 9.823 21.939 21.939 21.939 17.479 0 26.232 21.133 13.873 33.492-8.568 8.568-8.568 22.459 0 31.027l8.328 8.328c8.568 8.568 22.459 8.568 31.027 0 12.359-12.359 33.492-3.606 33.492 13.873 0 12.117 9.823 21.94 21.94 21.94h11.778c12.117 0 21.939-9.823 21.939-21.939 0-17.479 21.133-26.232 33.492-13.873 8.568 8.568 22.459 8.568 31.027 0l8.328-8.328c8.568-8.568 8.568-22.459 0-31.027-12.34-12.34-3.633-33.426 13.791-33.492 12.116-.046 22.021-9.347 22.021-21.463v-12.731c-.001-12.118-9.906-21.419-22.022-21.465zm-110.635 86.703c-35.604 2.25-64.956-27.103-62.706-62.706 1.855-29.362 25.68-53.186 55.042-55.042 35.604-2.25 64.955 27.103 62.706 62.706-1.856 29.362-25.681 53.186-55.042 55.042z" fill="#8c9ba6"/></g></g></g></g><path d="m482.458 116.16c-17.425-.066-26.132-21.152-13.791-33.492 8.568-8.568 8.568-22.459 0-31.027l-8.665-8.665c-8.567-8.567-22.149-8.14-30.748.395-12.367 12.274-33.434 3.521-33.434-13.931 0-12.117-9.823-21.939-21.939-21.939h-11.778c-5.439 0-10.413 1.984-14.246 5.262 55.251 18.024 95.179 69.958 95.179 131.227s-39.928 113.203-95.179 131.227c3.834 3.278 8.807 5.261 14.246 5.261h11.778c12.117 0 21.939-9.823 21.939-21.939 0-17.479 21.133-26.232 33.492-13.873 8.568 8.568 22.459 8.568 31.027 0l8.328-8.328c8.568-8.568 8.568-22.459 0-31.027-12.34-12.34-3.633-33.427 13.791-33.492 12.116-.046 22.021-9.347 22.021-21.463v-12.731c0-12.118-9.905-21.419-22.021-21.465z" fill="#7c8b96"/><g><g><g><g><g><g><g><g><g><g><g><path d="m245.65 320.045c-6.699-.869-11.714-6.568-11.714-13.323v-61.447h-93.886v61.447c0 6.755-5.015 12.454-11.714 13.323 0 0-17.585 59.177 58.657 59.177s58.657-59.177 58.657-59.177z" fill="#ffece3"/><path d="m172.492 245.275v87.398c0 6.755 5.015 12.454 11.714 13.323 13.76 1.786 37.293 5.265 57.625 10.38 9.662-16.66 3.819-36.331 3.819-36.331-6.699-.869-11.714-6.568-11.714-13.323v-61.447z" fill="#ffddce"/><path d="m275.97 159.544h-5.679v-6.669-15.941c0-22.508-9.241-44.319-26.297-59.006-13.372-11.515-32.17-21.565-57.001-21.842-24.831.277-43.628 10.327-57.001 21.842-17.057 14.686-26.297 36.497-26.297 59.006v15.941 6.669h-5.679c-8.326 0-15.076 6.75-15.076 15.076v16.706c0 8.326 6.75 15.076 15.076 15.076h5.702c.47 21.88 9.664 42.939 26.275 57.242 13.373 11.514 32.17 21.565 57.001 21.842 24.831-.277 43.628-10.327 57.001-21.842 16.611-14.302 25.805-35.362 26.275-57.242h5.702c8.326 0 15.076-6.75 15.076-15.076v-16.706c-.002-8.326-6.752-15.076-15.078-15.076z" fill="#ffece3"/><g><path d="m275.97 159.544h-5.679v-6.669-15.941c0-22.508-9.241-44.319-26.297-59.006-9.084-7.822-20.674-14.964-34.954-18.83l-.014 147.304c-.47 21.88-9.664 42.939-26.275 57.242-7.192 6.192-15.955 11.958-26.379 16.011 8.959 3.483 19.145 5.702 30.622 5.831 24.831-.277 43.628-10.328 57.001-21.842 16.611-14.302 25.805-35.362 26.275-57.242h5.702c8.326 0 15.076-6.75 15.076-15.076v-16.706c-.002-8.327-6.752-15.076-15.078-15.076z" fill="#ffddce"/></g><path d="m334.608 504.5c17.594 0 31.857-14.263 31.857-31.857v-74.569c0-25.816-15.194-49.214-38.778-59.714-21.47-9.559-62.056-15.722-82.037-18.315l-58.657 36.687-58.657-36.687c-19.98 2.593-60.566 8.756-82.036 18.315-23.584 10.5-38.778 33.898-38.778 59.714v74.569c0 17.594 14.263 31.857 31.857 31.857z" fill="#f6f9f9"/><g><path d="m327.687 338.36c-21.47-9.559-62.056-15.722-82.037-18.315l-45.18 28.258c21.102 3.249 49.157 8.611 65.771 16.008 23.584 10.5 38.778 33.898 38.778 59.714v74.57c0 2.019-.196 3.991-.555 5.906h30.143c17.594 0 31.857-14.263 31.857-31.857v-74.57c.001-25.816-15.193-49.214-38.777-59.714z" fill="#e7ecf1"/></g></g></g></g></g></g></g><path d="m219.433 51.125h-65.477c-11.953 0-22.111 7.662-25.841 18.343-1.398 4.004-5.219 6.65-9.46 6.65-15.238 0-27.591 12.353-27.591 27.591v57.533s24.21-.288 32.399 7.788c1.722 1.698 4.63.5 4.63-1.917v-37.821c0-13.132 10.646-23.777 23.777-23.777h.286c3.934 0 7.825.607 11.544 1.778 7.077 2.229 14.404 3.565 21.823 3.565h2.938c7.419 0 14.747-1.336 21.823-3.565 3.719-1.171 7.61-1.778 11.544-1.778h.286c13.132 0 23.777 10.646 23.777 23.777v35.081c0 3.542 2.871 6.413 6.413 6.413h.027c5.436 0 10.717-1.58 15.405-4.332 7.336-4.306 15.184-5.212 15.184-5.212v-46.628c.002-35.064-28.423-63.489-63.487-63.489z" fill="#aa8080"/><g><path d="m219.433 51.125h-10.393l-.005 56.539c.417-.125.836-.241 1.251-.372 3.719-1.171 7.61-1.778 11.544-1.778h.286c13.132 0 23.777 10.646 23.777 23.777v35.081c0 3.542 2.871 6.413 6.413 6.413h.027c5.436 0 10.717-1.58 15.405-4.332 7.336-4.306 15.184-5.212 15.184-5.212v-46.628c0-35.063-28.425-63.488-63.489-63.488z" fill="#9d6b6b"/></g></g><path d="m110.123 345.812 33.713 28.937c4.853 4.166 11.928 4.468 17.119.73l26.038-18.747-58.657-36.687c-3.243.421-7.029.936-11.188 1.544-11.761 1.72-16.044 16.482-7.025 24.223z" fill="#e7ecf1"/><path d="m263.863 345.812-33.713 28.937c-4.853 4.166-11.928 4.468-17.119.73l-26.038-18.747 58.657-36.687c3.243.421 7.029.936 11.188 1.544 11.761 1.72 16.044 16.482 7.025 24.223z" fill="#e7ecf1"/><path d="m186.993 356.732-26.038 18.748 12.315 17.3h27.445l12.316-17.3z" fill="#fb636f"/></g><path d="m215.831 504.5-15.116-111.72h-27.445l-15.115 111.72z" fill="#fc8086"/></g></g></g></g></g><g><g><g><path d="m363.686 77.63c-33.274 2.102-59.951 28.779-62.054 62.053-2.53 40.03 30.522 73.208 70.664 70.664 33.273-2.102 59.95-28.779 62.053-62.053 2.53-40.023-30.511-73.207-70.663-70.664zm55.695 69.718c-1.628 25.754-22.276 46.402-48.031 48.03-31.238 1.954-56.704-23.805-54.749-54.749 1.628-25.755 22.276-46.403 48.031-48.031 31.071-1.954 56.713 23.656 54.749 54.75z"/><path d="m482.487 108.66c-10.809-.041-16.159-13.047-8.517-20.69 5.561-5.56 8.623-12.953 8.623-20.817s-3.062-15.256-8.623-20.816l-8.665-8.665c-11.439-11.439-29.596-11.275-41.333.374-7.672 7.613-20.652 2.201-20.652-8.608-.001-16.232-13.207-29.438-29.44-29.438h-11.778c-16.233 0-29.439 13.206-29.439 29.439 0 10.819-13.017 16.243-20.69 8.57-5.56-5.561-12.953-8.623-20.816-8.623-7.864 0-15.256 3.062-20.816 8.623l-8.328 8.328c-2.287 2.287-4.15 4.901-5.553 7.735-10.787-6.622-23.467-10.448-37.025-10.448h-65.477c-14.81 0-28.04 9.391-32.922 23.369-.339.971-1.295 1.624-2.38 1.624-19.349 0-35.091 15.742-35.091 35.091 0 4.142 3.358 7.499 7.499 7.499 4.142 0 7.499-3.358 7.499-7.499 0-11.079 9.013-20.092 20.092-20.092 7.453 0 14.1-4.692 16.54-11.677 2.782-7.965 10.321-13.316 18.762-13.316h65.477c30.873 0 55.99 25.117 55.99 55.989v40.564c-11.614 3.263-13.165 7.614-22.03 8.08v-33.966c0-17.246-14.031-31.277-31.277-31.277h-.286c-12.842 0-18.087 5.343-33.367 5.343h-2.938c-15.121 0-20.627-5.343-33.367-5.343h-.286c-17.246 0-31.277 14.031-31.277 31.277v29.237c-7.1-3.004-15.769-4.14-22.03-4.558v-14.779c0-4.142-3.358-7.499-7.499-7.499-4.142 0-7.499 3.358-7.499 7.499v18.096c-5.097 4.235-8.124 10.53-8.124 17.332v16.706c0 11.998 9.408 21.839 21.234 22.536 2.248 21.735 12.379 41.649 28.424 55.465 2.43 2.092 4.917 4.035 7.451 5.852v31.544c0 2.972-2.226 5.502-5.179 5.886-.001 0-.001 0-.002 0-21.965 2.85-62.101 9.096-84.122 18.901-26.26 11.692-43.227 37.82-43.227 66.565v74.57c-.002 21.702 17.653 39.357 39.354 39.357h295.231c21.701 0 39.356-17.655 39.356-39.356v-25.326c0-4.142-3.358-7.499-7.499-7.499s-7.499 3.358-7.499 7.499v25.326c0 13.431-10.927 24.357-24.357 24.357h-19.269v-40.895c0-4.142-3.358-7.499-7.499-7.499s-7.499 3.358-7.499 7.499v40.895h-77.957l-13.839-102.288 7.022-9.864c1.825.495 3.693.757 5.563.757 4.962 0 9.908-1.736 13.905-5.167l33.713-28.937c5.654-4.853 8.288-11.999 7.239-19.188 17.292 3.127 36.466 7.471 48.651 12.896 20.854 9.285 34.329 30.035 34.329 52.863v14.199c0 4.142 3.358 7.499 7.499 7.499s7.499-3.358 7.499-7.499v-14.199c0-28.745-16.968-54.873-43.227-66.565-22.021-9.804-62.157-16.05-84.122-18.901h-.001c-2.953-.384-5.179-2.913-5.179-5.886v-31.544c2.534-1.817 5.021-3.76 7.451-5.852 7.4-6.372 13.523-14.052 18.214-22.598l3.239 3.239c11.505 11.505 30.127 11.507 41.633 0 7.651-7.651 20.69-2.282 20.69 8.57 0 16.233 13.206 29.439 29.439 29.439h11.778c16.233 0 29.439-13.206 29.439-29.439 0-10.824 13.022-16.239 20.69-8.57 5.56 5.561 12.953 8.623 20.817 8.623s15.256-3.062 20.816-8.622l8.328-8.328c11.478-11.479 11.478-30.155 0-41.633-7.643-7.643-2.291-20.649 8.517-20.69 16.538-.062 29.492-12.785 29.492-28.962v-12.731c-.001-16.178-12.955-28.9-29.493-28.963zm-285.638 276.62h-19.711l-5.747-8.073 15.603-11.234 15.603 11.234zm-40.275-15.886c-2.389 1.722-5.618 1.583-7.853-.335l-33.714-28.937c-2.877-2.47-2.229-5.667-1.962-6.588.265-.914 1.413-3.913 5.086-4.504 3.145-.462 6.021-.863 8.513-1.197l46.906 29.338zm-141.554 103.25v-74.57c0-22.828 13.475-43.577 34.329-52.863 12.185-5.425 31.359-9.769 48.651-12.896-1.05 7.189 1.585 14.335 7.238 19.188l33.714 28.937c3.997 3.431 8.942 5.167 13.904 5.167 1.869 0 3.738-.262 5.563-.757l7.022 9.864-13.839 102.288h-77.957v-40.895c0-4.142-3.358-7.499-7.499-7.499s-7.499 3.358-7.499 7.499v40.895h-19.27c-13.43-.001-24.357-10.928-24.357-24.358zm151.717 24.357 13.086-96.722h14.339l13.086 96.722zm94.204-163.468c.267.921.914 4.119-1.963 6.588l-33.713 28.937c-2.235 1.917-5.464 2.056-7.852.335l-16.977-12.224 46.906-29.338c2.492.334 5.369.735 8.515 1.197 3.671.593 4.819 3.592 5.084 4.505zm-29.591-13.39-44.357 27.744-44.358-27.744c3.069-3.66 4.914-8.353 4.914-13.421v-22.685c25.168 11.929 53.716 11.93 78.888 0v22.685c0 5.068 1.845 9.762 4.913 13.421zm7.751-62.183c-30.967 26.664-73.243 26.669-104.215 0-14.607-12.577-23.234-31.429-23.67-51.72-.087-4.078-3.418-7.338-7.497-7.338h-5.702c-4.178 0-7.577-3.399-7.577-7.577v-16.706c0-2.311 1.057-4.438 2.815-5.862 8.627.194 21.214 1.934 24.943 5.612 2.948 2.907 7.317 3.755 11.132 2.159 3.805-1.592 6.264-5.288 6.264-9.416v-37.821c0-8.976 7.302-16.278 16.278-16.278 13.79 1.013 17.013 5.343 33.653 5.343h2.938c17.214 0 23.722-5.343 33.367-5.343h.286c8.976 0 16.278 7.302 16.278 16.278v35.082c0 7.671 6.241 13.912 13.939 13.912 14.193 0 18.026-6.594 28.895-9.104 1.461 1.406 2.319 3.351 2.319 5.439v16.706c0 4.178-3.399 7.577-7.577 7.577h-5.702c-4.079 0-7.41 3.26-7.497 7.338-.436 20.291-9.063 39.142-23.67 51.719zm257.879-107.606c0 7.799-6.391 13.933-14.55 13.964-24.127.091-36.111 29.25-19.066 46.295 5.63 5.63 5.63 14.791 0 20.422l-8.328 8.328c-2.727 2.727-6.353 4.23-10.211 4.23-3.857 0-7.483-1.502-10.211-4.23-17.078-17.078-46.294-5.012-46.294 19.176 0 7.962-6.478 14.44-14.44 14.44h-11.778c-7.962 0-14.44-6.478-14.44-14.44 0-24.158-29.194-36.276-46.295-19.176-5.644 5.644-14.777 5.644-20.421 0l-7.457-7.456c1.878-5.803 3.181-11.845 3.822-18.044 11.826-.697 21.234-10.538 21.234-22.536v-16.706c0-6.801-3.027-13.097-8.124-17.332v-42.674c0-19.955-8.289-38.001-21.59-50.911.619-2.546 1.907-4.881 3.785-6.759l8.329-8.328c2.727-2.727 6.353-4.23 10.21-4.23s7.484 1.502 10.211 4.23c17.079 17.078 46.294 5.012 46.294-19.176 0-7.962 6.478-14.44 14.44-14.44h11.778c7.962 0 14.44 6.478 14.44 14.44 0 24.136 29.115 36.226 46.216 19.253 5.792-5.746 14.648-5.929 20.162-.415l8.665 8.666c2.727 2.727 4.23 6.353 4.23 10.21s-1.502 7.484-4.23 10.211c-17.068 17.067-5.029 46.203 19.066 46.294 8.159.031 14.55 6.165 14.55 13.964v12.73z"/></g></g></g></g></svg>