<svg id="Capa_1" enable-background="new 0 0 512 512" height="512" viewBox="0 0 512 512" width="512" xmlns="http://www.w3.org/2000/svg"><g><g><g><g><g><g><path d="m468.529 54.786h-210.159c-11.926 0-23.067-5.947-29.703-15.857l-4.863-7.261c-6.632-9.902-17.762-15.849-29.68-15.856l-96.946-.062c-15.19-.01-27.509 12.3-27.512 27.49l-.052 289.195c0 10.828 8.704 19.611 19.496 19.764-.06 0-.117.009-.177.009h.359c.034 0 .067.005.101.005.066 0 .13-.004.196-.005l384.015.163c7.447.003 13.485-6.033 13.485-13.479v-265.548c-.001-10.249-8.31-18.558-18.56-18.558z" fill="#fceeac"/></g><g fill="#fbe77b"><path d="m132.01 15.812c11.918.008 23.048 5.954 29.68 15.856l4.863 7.261c6.636 9.909 17.777 15.857 29.703 15.857h62.114c-11.926 0-23.067-5.947-29.703-15.857l-4.863-7.261c-6.632-9.902-17.762-15.849-29.68-15.856z"/><path d="m468.529 54.786h-62.114c10.25 0 18.559 8.309 18.559 18.559v265.548c0 7.27-5.76 13.179-12.962 13.453l61.592.026c7.447.003 13.485-6.033 13.485-13.479v-265.549c-.001-10.249-8.31-18.558-18.56-18.558z"/></g><g><path d="m428.16 97.976h-210.158c-11.926 0-23.067-5.947-29.703-15.857l-4.863-7.261c-6.632-9.902-17.762-15.849-29.68-15.856l-96.946-.062c-15.19-.01-27.509 12.3-27.512 27.49l-.052 289.195c0 10.828 8.703 19.764 19.496 19.764-2.071 0 403.641.18 384.493.172 7.447.003 13.485-6.033 13.485-13.479v-265.547c-.001-10.249-8.31-18.559-18.56-18.559z" fill="#f6e266"/></g><g fill="#ffd064"><path d="m92.311 59.003c11.918.008 23.048 5.954 29.68 15.856l4.863 7.261c6.636 9.909 17.777 15.857 29.703 15.857h61.445c-11.926 0-23.067-5.947-29.703-15.857l-4.863-7.261c-6.632-9.902-17.762-15.849-29.68-15.856z"/><path d="m428.16 97.976h-61.445c10.25 0 18.559 8.309 18.559 18.559v265.548c0 7.262-5.748 13.166-12.939 13.452 33.379.015 56.774.025 60.9.027 7.446.003 13.484-6.033 13.484-13.479v-265.548c0-10.249-8.309-18.559-18.559-18.559z"/><path d="m433.795 395.562h.029c-.006 0-.021 0-.029 0z"/><path d="m433.795 395.562c-.102 0-.29 0-.56 0 0 0 0 0-.001 0z"/></g><g fill="#f6e266"><path d="m433.795 395.562h.029c-.006 0-.021 0-.029 0z"/><path d="m433.795 395.562c-.102 0-.29 0-.56 0 0 0 0 0-.001 0z"/></g></g><path d="m491.189 241.586h-106.769c-6.205 0-11.236 5.03-11.236 11.236v9.269c0 8.28-6.712 14.992-14.992 14.992h-204.384c-8.28 0-14.992-6.712-14.992-14.992v-9.269c0-6.205-5.031-11.236-11.236-11.236h-106.769c-7.351 0-13.311 5.959-13.311 13.311v203.066c0 21.145 17.142 38.287 38.287 38.287h420.426c21.145 0 38.287-17.142 38.287-38.287v-203.067c0-7.351-5.959-13.31-13.311-13.31zm-149.912 121.14c0 11.052-8.959 20.011-20.011 20.011h-130.532c-11.052 0-20.011-8.959-20.011-20.011 0-11.052 8.959-20.011 20.011-20.011h130.532c11.052 0 20.011 8.959 20.011 20.011z" fill="#b78e8e"/><g fill="#aa8080"><path d="m491.189 241.586h-61.445c7.351 0 13.311 5.959 13.311 13.311v203.066c0 21.145-17.142 38.287-38.287 38.287h61.445c21.145 0 38.287-17.142 38.287-38.287v-203.067c0-7.351-5.959-13.31-13.311-13.31z"/><path d="m77.371 252.822v9.269c0 8.28 6.712 14.992 14.992 14.992h61.445c-8.28 0-14.992-6.712-14.992-14.992v-9.269c0-6.205-5.031-11.236-11.236-11.236h-61.445c6.205 0 11.236 5.03 11.236 11.236z"/></g></g></g></g><g><g><g><path d="m70.923 181.071h97.614c4.143 0 7.5-3.358 7.5-7.5s-3.357-7.5-7.5-7.5h-97.614c-4.143 0-7.5 3.358-7.5 7.5s3.357 7.5 7.5 7.5z"/><path d="m70.923 140.082h97.614c4.143 0 7.5-3.358 7.5-7.5s-3.357-7.5-7.5-7.5h-97.614c-4.143 0-7.5 3.358-7.5 7.5s3.357 7.5 7.5 7.5z"/><path d="m321.266 335.215h-130.532c-15.17 0-27.512 12.341-27.512 27.511 0 15.169 12.342 27.511 27.512 27.511h130.531c15.17 0 27.512-12.341 27.512-27.511s-12.341-27.511-27.511-27.511zm0 40.022h-130.532c-6.899 0-12.512-5.612-12.512-12.511s5.612-12.511 12.512-12.511h130.531c6.899 0 12.512 5.612 12.512 12.511s-5.612 12.511-12.511 12.511z"/><path d="m491.189 234.086h-36.971v-117.551c0-14.369-11.689-26.059-26.059-26.059h-210.157c-9.443 0-18.218-4.684-23.472-12.53l-4.863-7.261c-8.038-12.002-21.461-19.174-35.906-19.183l-76.596-.049.001-8.212c.002-11.042 8.938-19.991 19.994-19.991h.013l96.946.062c9.436.006 18.203 4.69 23.453 12.53l4.863 7.261c8.044 12.012 21.478 19.183 35.935 19.183h210.159c6.098 0 11.059 4.961 11.059 11.059v132.552c0 4.142 3.357 7.5 7.5 7.5s7.5-3.358 7.5-7.5v-132.553c0-14.369-11.689-26.059-26.059-26.059h-210.159c-9.443 0-18.218-4.684-23.472-12.53l-4.863-7.261c-8.038-12.002-21.461-19.174-35.906-19.183l-96.946-.061c-.008 0-.016 0-.023 0-19.328 0-34.989 15.639-34.993 34.989l-.001 8.206-5.35-.003c-.008 0-.016 0-.023 0-19.329 0-34.991 15.641-34.993 34.988l-.03 119.47c-.001 4.142 3.356 7.501 7.498 7.502h.002c4.142 0 7.499-3.357 7.5-7.498l.028-119.472c.002-11.045 8.938-19.991 19.994-19.991h.013c11.624.007 82.356.052 96.946.062 9.436.006 18.202 4.69 23.453 12.53l4.863 7.261c8.044 12.012 21.478 19.183 35.935 19.183h210.158c6.098 0 11.059 4.961 11.059 11.059v117.551h-54.799c-10.331 0-18.735 8.405-18.735 18.736v9.269c0 4.131-3.361 7.493-7.492 7.493h-204.385c-4.131 0-7.492-3.361-7.492-7.493v-9.269c0-10.331-8.404-18.736-18.735-18.736h-106.77c-11.475-.001-20.811 9.334-20.811 20.809v203.066c0 25.247 20.54 45.787 45.787 45.787h420.426c25.247 0 45.787-20.54 45.787-45.787v-203.066c0-11.475-9.336-20.81-20.811-20.81zm5.811 223.877c0 16.976-13.811 30.787-30.787 30.787h-420.426c-16.976 0-30.787-13.811-30.787-30.787v-203.067c0-3.204 2.606-5.811 5.811-5.811h106.77c2.06 0 3.735 1.676 3.735 3.736v9.269c0 12.402 10.09 22.493 22.492 22.493h204.385c12.402 0 22.492-10.09 22.492-22.493v-9.269c0-2.06 1.676-3.736 3.735-3.736h106.77c3.204 0 5.811 2.606 5.811 5.811v203.067z"/></g></g></g></g></svg>