<svg id="Capa_1" enable-background="new 0 0 512 512" height="512" viewBox="0 0 512 512" width="512" xmlns="http://www.w3.org/2000/svg"><g><g><g><g><g><g><g><path d="m445.413 443.333h-378.826c-14.359 0-25.999-11.64-25.999-25.999v-272.482c0-14.359 11.64-25.999 25.999-25.999h378.826c14.359 0 25.999 11.64 25.999 25.999v272.483c0 14.358-11.64 25.998-25.999 25.998z" fill="#8c9ba6"/><path d="m445.413 118.853h-35.409v298.481c0 14.359-11.64 25.999-25.999 25.999h61.408c14.359 0 25.999-11.64 25.999-25.999v-272.482c0-14.359-11.64-25.999-25.999-25.999z" fill="#7c8b96"/><path d="m75.794 363.565v-202.645c0-3.789 3.072-6.861 6.861-6.861h346.69c3.789 0 6.861 3.072 6.861 6.861v202.645c0 3.789-3.072 6.861-6.861 6.861h-346.69c-3.789.001-6.861-3.071-6.861-6.861z" fill="#ddeafb"/><path d="m456.771 465.786h-401.542c-26.36 0-47.729-21.369-47.729-47.729 0-6.862 5.563-12.425 12.425-12.425h472.15c6.862 0 12.425 5.563 12.425 12.425 0 26.36-21.369 47.729-47.729 47.729z" fill="#e7ecf1"/><path d="m492.075 405.632h-49.02v12.425c0 26.36-21.369 47.729-47.729 47.729h61.445c26.36 0 47.729-21.369 47.729-47.729 0-6.862-5.563-12.425-12.425-12.425z" fill="#dae4ea"/></g><path d="m176.2 405.632v15.039c0 8.306 6.733 15.039 15.039 15.039h129.522c8.306 0 15.039-6.733 15.039-15.039v-15.039z" fill="#c2d0da"/></g></g><path d="m119.173 59.282v311.144h273.654v-311.144c0-7.218-5.851-13.069-13.069-13.069h-247.516c-7.218.001-13.069 5.852-13.069 13.069z" fill="#f4f8f8"/><path d="m379.758 46.214h-61.445c7.218 0 13.069 5.851 13.069 13.069v311.144h61.445v-311.145c0-7.217-5.851-13.068-13.069-13.068z" fill="#e7ecf1"/></g><g><path d="m197.432 333.436h-37.816v-74.345c0-4.276 3.466-7.742 7.742-7.742h22.332c4.276 0 7.742 3.466 7.742 7.742z" fill="#ffd064"/><path d="m274.908 333.436h-37.816v-140.109c0-4.276 3.466-7.742 7.742-7.742h22.332c4.276 0 7.742 3.466 7.742 7.742z" fill="#78d0b1"/><path d="m352.384 333.436h-37.816v-200.706c0-4.276 3.466-7.742 7.742-7.742h22.332c4.276 0 7.742 3.466 7.742 7.742z" fill="#fc8086"/></g><path d="m119.173 333.436h273.654v36.99h-273.654z" fill="#dae4ea"/><path d="m333.476 333.436h59.351v36.99h-59.351z" fill="#c2d0da"/></g></g><g><g><g><path d="m82.655 146.558c-7.919 0-14.361 6.443-14.361 14.362v202.645c0 7.919 6.442 14.361 14.361 14.361h346.689c7.919 0 14.361-6.442 14.361-14.361v-202.645c0-7.919-6.442-14.362-14.361-14.362h-29.018v-87.276c0-11.342-9.227-20.569-20.569-20.569h-247.515c-11.342 0-20.569 9.227-20.569 20.569v87.276zm.639 15h28.379v201.368h-28.379zm43.379 179.378h258.654v21.99h-258.654zm63.259-15h-22.815v-66.845c0-.133.108-.242.242-.242h22.332c.133 0 .242.109.242.242v66.845zm154.952 0h-22.815v-193.205c0-.134.108-.242.242-.242h22.332c.133 0 .242.108.242.242v193.205zm83.822-164.378v201.368h-28.379v-201.368zm-302.033-102.276c0-3.071 2.498-5.569 5.569-5.569h247.517c3.071 0 5.569 2.498 5.569 5.569v266.654h-25.443v-193.205c0-8.405-6.837-15.242-15.242-15.242h-22.333c-8.404 0-15.242 6.837-15.242 15.242v193.206h-24.661v-132.61c0-8.404-6.837-15.242-15.242-15.242h-22.332c-8.404 0-15.242 6.837-15.242 15.242v40.501c0 4.142 3.358 7.5 7.5 7.5s7.5-3.358 7.5-7.5v-40.501c0-.133.108-.242.242-.242h22.332c.133 0 .242.108.242.242v132.609h-22.815v-57.045c0-4.142-3.358-7.5-7.5-7.5s-7.5 3.358-7.5 7.5v57.045h-24.661v-66.845c0-8.405-6.837-15.242-15.242-15.242h-22.332c-8.404 0-15.242 6.837-15.242 15.242v66.845h-25.443v-266.654z"/><path d="m492.075 398.132h-13.163v-253.28c0-18.471-15.027-33.499-33.499-33.499h-17.374c-4.142 0-7.5 3.358-7.5 7.5s3.358 7.5 7.5 7.5h17.374c10.2 0 18.499 8.299 18.499 18.499v253.28h-415.824v-253.28c0-10.2 8.298-18.499 18.499-18.499h17.434c4.142 0 7.5-3.358 7.5-7.5s-3.358-7.5-7.5-7.5h-17.434c-18.471 0-33.499 15.028-33.499 33.499v253.28h-13.163c-10.987 0-19.925 8.939-19.925 19.925 0 30.453 24.776 55.229 55.229 55.229h401.542c30.453 0 55.229-24.776 55.229-55.229 0-10.986-8.938-19.925-19.925-19.925zm-308.375 15h144.6v7.539c0 4.157-3.382 7.539-7.539 7.539h-129.522c-4.157 0-7.539-3.382-7.539-7.539zm273.071 45.154h-401.542c-22.182 0-40.229-18.046-40.229-40.229 0-2.716 2.209-4.925 4.925-4.925h148.775v7.539c0 12.428 10.111 22.539 22.539 22.539h129.522c12.428 0 22.539-10.111 22.539-22.539v-7.539h148.775c2.716 0 4.925 2.209 4.925 4.925 0 22.183-18.047 40.229-40.229 40.229z"/></g></g></g></g></svg>