<svg id="Capa_1" enable-background="new 0 0 512 512" height="512" viewBox="0 0 512 512" width="512" xmlns="http://www.w3.org/2000/svg"><g><g><g><g><g><g><g><g><g><g><g><g><path d="m66.052 7.5c-18.445 0-33.398 14.953-33.398 33.398v430.204c0 18.445 14.953 33.398 33.398 33.398h314.002c18.445 0 33.398-14.953 33.398-33.398v-360.616c0-6.71-2.666-13.146-7.411-17.891l-77.685-77.685c-4.745-4.745-11.18-7.411-17.891-7.411h-244.413z" fill="#f4f8f8"/><path d="m354.344 100.006c-.725 0-1.442-.031-2.155-.077v371.173c0 18.445-14.953 33.398-33.398 33.398h61.264c18.445 0 33.398-14.953 33.398-33.398v-360.616c0-3.652-.795-7.219-2.279-10.48z" fill="#e7ecf1"/><path d="m406.042 92.595-77.685-77.685c-2.163-2.163-4.679-3.888-7.411-5.131v56.829c0 18.445 14.953 33.398 33.398 33.398h56.829c-1.244-2.731-2.969-5.248-5.131-7.411z" fill="#fc8086"/></g></g></g></g></g></g></g><g><g><g><path d="m306.599 402.215-23.076-18.31c-10.768 13.571-21.603 18.999-33.176 19.332-.916.026-1.671.726-1.769 1.637l-5.223 49.01c-.248 2.33 2.014 4.125 4.226 3.353l46.54-16.226c.865-.302 1.374-1.196 1.192-2.094-2.305-11.346.518-23.131 11.286-36.702z" fill="#c2d0da"/><g fill="#7c8b96"><path d="m444.621 228.41-22.388-17.764-13.329 1.19-63.168 70.928c-14.471 16.249-27.45 33.766-38.781 52.342l-26.875 44.058c-2.193 3.596-1.363 8.263 1.937 10.881l18.945 15.032c3.3 2.618 8.033 2.366 11.036-.587l36.796-36.186c15.514-15.256 29.623-31.878 42.157-49.663l54.714-77.637z"/><path d="m471.57 170.608c-8.533-6.771-20.868-5.705-28.113 2.43l-15.73 17.663-.453 10.263 24.035 19.071 10.66-2.164 13.625-19.333c6.274-8.904 4.509-21.159-4.024-27.93z"/></g></g><path d="m408.904 211.836 36.761 29.169 16.304-23.134-34.243-27.17z" fill="#c2d0da"/></g></g></g></g><path d="m161.094 90.504h-78.456c-2.912 0-5.272-2.36-5.272-5.272v-28.567c0-2.912 2.36-5.272 5.272-5.272h78.456c2.912 0 5.272 2.36 5.272 5.272v28.567c0 2.911-2.36 5.272-5.272 5.272z" fill="#bed8fb"/></g></g><g><g><g><path d="m477.379 236.654-12.486-9.908 3.21-4.555 13.625-19.333c8.558-12.145 6.145-28.892-5.493-38.125-11.636-9.233-28.495-7.777-38.376 3.317l-15.725 17.657c-.001.002-.003.003-.005.005l-18.823 21.135c-.001.002-.003.003-.004.005l-63.164 70.924c-14.732 16.542-28.05 34.516-39.583 53.424-2.156 3.536-1.038 8.151 2.498 10.308 1.22.744 2.566 1.098 3.898 1.098 2.528 0 4.997-1.279 6.41-3.596 11.065-18.142 23.843-35.388 37.978-51.259l58.456-65.637 25.661 20.361-50.632 71.845c-12.241 17.371-26.131 33.734-41.284 48.636l-36.795 36.185c-.303.297-.785.324-1.117.06l-18.945-15.033c-.333-.264-.417-.737-.195-1.1l8.307-13.618c2.156-3.537 1.038-8.152-2.498-10.309-3.534-2.156-8.151-1.04-10.309 2.497l-8.306 13.618c-2.015 3.303-2.671 7.091-2.112 10.683-6.762 6.439-13.656 9.574-21.435 9.799-4.645.134-8.518 3.719-9.011 8.339l-5.222 49.009c-.819 7.672 6.642 13.848 14.153 11.231l46.541-16.227c4.388-1.53 6.998-6.118 6.072-10.67-1.551-7.627-.064-15.053 4.671-23.102 3.626-.272 7.164-1.771 9.923-4.483l36.796-36.186c15.793-15.532 30.271-32.586 43.028-50.69l54.714-77.637 4.439-6.298 11.818 9.377c1.871 1.485 2.186 4.216.701 6.087l-35.126 44.268c-2.575 3.245-2.031 7.962 1.213 10.537 1.379 1.094 3.023 1.625 4.657 1.625 2.21 0 4.399-.973 5.88-2.839l35.127-44.269c6.624-8.347 5.22-20.532-3.13-27.156zm-212.606 206.648 12.452-15.693c2.575-3.245 2.031-7.962-1.213-10.537-3.245-2.575-7.963-2.032-10.537 1.213l-12.452 15.693 2.522-23.661c8.944-1.256 17.126-5.235 24.775-12.049l13.023 10.334c-4.896 8.997-6.911 17.869-6.101 26.865zm184.287-265.276c4.597-5.16 12.439-5.838 17.852-1.543s6.536 12.085 2.555 17.734l-9.051 12.843-21.806-17.3zm-20.442 22.954 23.142 18.362-7.649 10.853-24.323-19.3z"/><path d="m66.489 452.255c1.45 3.879 5.769 5.851 9.648 4.4.393-.146 7.19-2.699 15.952-6.819 4.895 3.782 10.852 6.063 17.482 6.525 18.783 1.307 27.768-2.408 33.714-4.866 4.995-2.065 5.518-2.281 11.844 2.182 8.058 5.684 19.44 7.546 28.999 7.546 4.874 0 9.274-.484 12.514-1.193 4.046-.885 6.609-4.883 5.724-8.93-.885-4.046-4.881-6.609-8.93-5.724-6.402 1.4-21.673 1.677-29.66-3.956-12.164-8.581-18.279-7.071-26.222-3.787-5.201 2.15-11.675 4.828-26.941 3.764-.698-.048-1.367-.13-2.009-.241 16.493-9.809 24.893-19.243 25.629-28.743.431-5.562-1.574-13.607-13.571-20.351-15.827-8.896-26.345-3.595-31.206.357-10.039 8.162-13.865 25.016-9.098 40.074.584 1.847 1.282 3.604 2.084 5.267-6.638 2.995-11.477 4.814-11.555 4.843-3.879 1.453-5.848 5.773-4.398 9.652zm32.43-48.196c1.495-1.215 3.275-1.823 5.329-1.823 2.593 0 5.623.968 9.065 2.903 1.855 1.042 6.15 3.726 5.965 6.115-.265 3.431-6.482 10.658-23.131 19.734-.082.044-.165.09-.247.134-.539-1.128-.942-2.208-1.242-3.156-2.838-8.965-.927-19.69 4.261-23.907z"/><path d="m280.114 150.724h-202.745c-4.142 0-7.5 3.358-7.5 7.5s3.358 7.5 7.5 7.5h202.745c4.143 0 7.5-3.358 7.5-7.5s-3.357-7.5-7.5-7.5z"/><path d="m280.114 194.721h-202.745c-4.142 0-7.5 3.358-7.5 7.5s3.358 7.5 7.5 7.5h202.745c4.143 0 7.5-3.358 7.5-7.5s-3.357-7.5-7.5-7.5z"/><path d="m287.614 246.217c0-4.142-3.357-7.5-7.5-7.5h-202.745c-4.142 0-7.5 3.358-7.5 7.5s3.358 7.5 7.5 7.5h202.745c4.143 0 7.5-3.358 7.5-7.5z"/><path d="m77.369 297.714h86.153c4.142 0 7.5-3.358 7.5-7.5s-3.358-7.5-7.5-7.5h-86.153c-4.142 0-7.5 3.358-7.5 7.5s3.358 7.5 7.5 7.5z"/><path d="m413.455 321.25c-4.143 0-7.5 3.358-7.5 7.5v142.352c0 14.28-11.617 25.898-25.897 25.898h-314.003c-14.28 0-25.898-11.618-25.898-25.898v-430.204c0-14.28 11.618-25.898 25.898-25.898h244.414c1.01 0 2.004.101 2.98.265v51.343c0 22.551 18.347 40.897 40.897 40.897h51.343c.164.977.265 1.97.265 2.98v57.764c0 4.142 3.357 7.5 7.5 7.5s7.5-3.358 7.5-7.5v-57.764c0-8.762-3.412-16.999-9.607-23.194l-77.684-77.684c-6.195-6.195-14.433-9.607-23.194-9.607h-244.414c-22.551 0-40.898 18.347-40.898 40.898v430.204c0 22.551 18.347 40.898 40.898 40.898h314.002c22.551 0 40.897-18.347 40.897-40.898v-142.352c.001-4.142-3.356-7.5-7.499-7.5zm-18.107-228.744h-41.001c-14.28 0-25.897-11.618-25.897-25.897v-41.002z"/><path d="m82.641 98.004h78.456c7.043 0 12.772-5.729 12.772-12.772v-28.567c0-7.043-5.729-12.772-12.772-12.772h-78.456c-7.042 0-12.772 5.729-12.772 12.772v28.567c0 7.042 5.73 12.772 12.772 12.772zm2.228-39.111h74v24.111h-74z"/></g></g></g></g></svg>