<svg id="Capa_1" enable-background="new 0 0 512 512" height="512" viewBox="0 0 512 512" width="512" xmlns="http://www.w3.org/2000/svg"><g><g><g><g><g><path d="m314.941 163.495c-8.527 0-15.44-6.913-15.44-15.44v-53.58c0-11.888-9.671-21.559-21.559-21.559h-84.516c-11.888 0-21.559 9.671-21.559 21.559v53.58c0 8.527-6.913 15.44-15.44 15.44s-15.44-6.913-15.44-15.44v-53.58c0-28.915 23.524-52.438 52.438-52.438h84.516c28.915 0 52.438 23.524 52.438 52.438v53.58c.001 8.527-6.911 15.44-15.438 15.44z" fill="#c3a2a2"/></g><path d="m417.738 275.101h-364.108c-25.477 0-46.13-20.653-46.13-46.13v180.275c0 25.477 20.653 46.13 46.13 46.13h364.108c25.477 0 46.13-20.653 46.13-46.13v-180.276c.001 25.477-20.653 46.131-46.13 46.131z" fill="#b78e8e"/><path d="m417.738 135.452h-364.108c-25.477 0-46.13 20.653-46.13 46.13v57.393c0 25.477 20.653 46.13 46.13 46.13h364.108c25.477 0 46.13-20.653 46.13-46.13v-57.393c.001-25.477-20.652-46.13-46.13-46.13z" fill="#aa8080"/><path d="m417.739 135.452h-61.445c25.477 0 46.13 20.653 46.13 46.13v57.393c0 25.477-20.653 46.13-46.13 46.13h61.445c25.477 0 46.13-20.653 46.13-46.13v-57.393c0-25.477-20.653-46.13-46.13-46.13z" fill="#9d6b6b"/></g><g><g><g><circle cx="381.679" cy="347.142" fill="#f9c301" r="122.821"/><circle cx="381.679" cy="347.142" fill="#f4f8f8" r="94.804"/><path d="m381.279 252.339c-6.83.029-13.486.786-19.901 2.185 42.444 9.264 74.306 46.969 74.497 92.218.192 45.528-31.743 83.689-74.502 93.017 6.669 1.456 13.596 2.215 20.705 2.185 52.358-.221 94.624-42.844 94.403-95.202-.22-52.358-42.844-94.624-95.202-94.403z" fill="#e7ecf1"/></g></g><circle cx="381.679" cy="347.142" fill="#fc8086" r="15.814"/></g><g><g><path d="m95.267 329.033c-15.711 0-28.448-12.737-28.448-28.448v-54.003c0-5.644 4.576-10.22 10.22-10.22h36.456c5.644 0 10.22 4.576 10.22 10.22v54.003c0 15.711-12.737 28.448-28.448 28.448z" fill="#fceeac"/><path d="m66.819 271.006v29.578c0 15.711 12.737 28.448 28.448 28.448 15.711 0 28.448-12.737 28.448-28.448v-29.578z" fill="#ffd064"/></g></g></g></g><g><g><g><path d="m381.693 216.818c-.188 0-.378 0-.565.001-45.997.194-86.474 24.085-109.719 60.783h-140.189v-6.595-24.424c0-9.773-7.951-17.723-17.723-17.723h-36.456c-9.773 0-17.723 7.951-17.723 17.723v24.424 6.595h-5.685c-21.299 0-38.626-17.328-38.626-38.627v-57.392c0-21.299 17.327-38.627 38.626-38.627h364.105c21.299 0 38.626 17.328 38.626 38.627v39.974c0 4.144 3.359 7.503 7.503 7.503s7.503-3.359 7.503-7.503v-39.974c0-29.573-24.06-53.633-53.633-53.633h-79.854v-33.473c0-33.051-26.889-59.941-59.941-59.941h-84.515c-33.051 0-59.941 26.89-59.941 59.941v33.473h-79.853c-29.574 0-53.633 24.06-53.633 53.633v227.66c0 29.573 24.059 53.633 53.633 53.633h227.784c4.144 0 7.503-3.359 7.503-7.503s-3.359-7.503-7.503-7.503h-227.784c-21.299 0-38.626-17.328-38.626-38.627v-133.117c9.764 10.148 23.465 16.482 38.626 16.482h5.685v7.976c0 19.74 16.045 35.95 35.951 35.95 19.741 0 35.951-16.045 35.951-35.95v-7.976h132.024c-7.862 17.047-11.97 35.751-11.888 55.082.302 71.675 58.706 129.776 130.313 129.774.185 0 .374 0 .558-.001 72.026-.304 130.076-58.836 129.773-130.872-.3-70.954-57.728-129.773-130.307-129.773zm-89.696-88.868h-112.625v-33.473c0-7.75 6.305-14.056 14.056-14.056h84.515c7.75 0 14.056 6.305 14.056 14.056v33.473zm-143.504-33.473c0-24.777 20.158-44.935 44.935-44.935h84.515c24.777 0 44.935 20.158 44.935 44.935v33.473h-15.873v-33.473c0-16.025-13.037-29.062-29.062-29.062h-84.515c-16.025 0-29.062 13.037-29.062 29.062v33.473h-15.873zm-71.452 149.389h36.456c1.498 0 2.717 1.219 2.717 2.717v16.921h-41.89v-16.921c0-1.499 1.219-2.717 2.717-2.717zm-2.717 56.718v-22.075h41.889v22.075c0 11.549-9.396 20.944-20.945 20.944s-20.944-9.395-20.944-20.944zm307.84 161.873c-.167.001-.327.001-.494.001-63.356-.003-115.04-51.412-115.308-114.831-.268-63.613 50.947-115.532 114.829-115.802.168-.001.333-.001.5-.001 62.622 0 115.03 50.461 115.302 114.831.268 63.731-51.089 115.533-114.829 115.802z"/><path d="m381.684 244.835c-.145 0-.293 0-.438.001-50.922.215-93.843 37.888-100.875 87.953-.576 4.104 2.282 7.897 6.386 8.474 4.097.57 7.897-2.283 8.473-6.386 6.012-42.798 42.721-74.852 86.078-75.035.127 0 .252-.001.379-.001 47.408 0 87.082 38.201 87.288 86.932.204 48.246-38.677 87.463-86.931 87.666-.13 0-.257.001-.386.001-42.077 0-76.103-29.486-84.971-67.255-.949-4.035-4.991-6.533-9.02-5.589-4.034.947-6.536 4.985-5.589 9.02 10.588 45.08 51.107 78.831 99.602 78.831.142 0 .285 0 .427-.001 56.541-.239 102.113-46.187 101.874-102.736-.236-56.267-46.083-101.875-102.297-101.875z"/><path d="m358.36 347.239c.055 12.824 10.504 23.219 23.316 23.219h.1c3.8-.016 7.455-.939 10.725-2.657l18.953 18.039c3.015 2.869 7.764 2.727 10.608-.262 2.857-3.001 2.739-7.751-.262-10.607l-18.95-18.036c1.418-3.06 2.159-6.419 2.144-9.892-.044-10.229-6.704-18.906-15.899-22.002l-.167-43.871c-.016-4.135-3.372-7.475-7.502-7.475-.01 0-.02 0-.029 0-4.144.016-7.49 3.388-7.475 7.532l.167 43.871c-9.176 3.168-15.771 11.906-15.729 22.141zm23.282-8.409h.035c4.566 0 8.292 3.706 8.311 8.276.02 4.593-3.683 8.327-8.276 8.346-.013 0-.023 0-.035 0-4.566 0-8.292-3.705-8.311-8.275-.018-4.583 3.694-8.328 8.276-8.347z"/></g></g></g></g></svg>