<svg id="Capa_1" enable-background="new 0 0 512 512" height="512" viewBox="0 0 512 512" width="512" xmlns="http://www.w3.org/2000/svg"><g><g><g><g><g><g><g><g><g><circle cx="237.939" cy="240.168" fill="#fbe77b" r="230.439"/><circle cx="237.939" cy="240.168" fill="#f4f8f8" r="187.059"/><path d="m237.939 53.109c-10.537 0-20.865.885-30.927 2.56 88.591 14.741 156.133 91.726 156.133 184.5s-67.542 169.758-156.133 184.5c10.062 1.674 20.39 2.56 30.927 2.56 103.31 0 187.059-83.749 187.059-187.059s-83.749-187.061-187.059-187.061z" fill="#e7ecf1"/></g></g></g></g></g><g><path d="m465.45 502.271h-115.814c-21.566 0-39.05-17.483-39.05-39.05v-115.814c0-21.566 17.483-39.05 39.05-39.05h115.814c21.566 0 39.05 17.483 39.05 39.05v115.815c0 21.566-17.483 39.049-39.05 39.049z" fill="#ddeafb"/><path d="m465.45 308.357h-61.445c21.567 0 39.05 17.483 39.05 39.049v115.815c0 21.566-17.483 39.05-39.05 39.05h61.445c21.566 0 39.05-17.483 39.05-39.05v-115.814c0-21.567-17.483-39.05-39.05-39.05z" fill="#bed8fb"/></g></g><circle cx="237.939" cy="240.168" fill="#fc8086" r="23.145"/></g></g><g><g><g><path d="m460.273 458.4h.066c4.166 0 7.561-3.359 7.598-7.533.03-3.481.089-10.615.153-19.352h4.099c4.197 0 7.599-3.402 7.599-7.599s-3.402-7.599-7.599-7.599h-3.997c.138-22.517.222-47.619-.053-50.926-.514-6.174-4.146-11.185-9.252-12.767-2.413-.747-8.66-1.712-14.506 5.46-5.17 6.342-30.936 52.893-36.049 62.161-1.298 2.354-1.257 5.219.111 7.534 1.366 2.315 3.855 3.736 6.543 3.736h37.905c-.048 6.814-.101 13.374-.151 19.221-.036 4.196 3.335 7.627 7.533 7.664zm-32.387-42.083c9.994-17.94 20.067-35.609 25.214-43.979.06 8.773-.003 26.085-.11 43.979z"/><path d="m373.591 403.279c-14.462 20.663-23.095 31.966-27.733 38.039-5.579 7.306-7.458 9.766-6.11 14.15.772 2.51 2.682 4.439 5.241 5.291 3.669 1.224 38.141.668 48.92.533 4.196-.053 7.555-3.498 7.502-7.694-.052-4.197-3.527-7.563-7.694-7.503-11.44.144-23.687.226-32.551.206 5.115-6.752 13.089-17.467 24.876-34.308 4.938-7.055 11.508-18.601 11.508-27.657 0-17.043-13.865-30.908-30.907-30.908-14.736 0-27.491 10.483-30.327 24.926-.808 4.118 1.874 8.112 5.992 8.921 4.118.808 8.112-1.874 8.921-5.992 1.441-7.334 7.923-12.657 15.415-12.657 8.517 0 15.472 6.812 15.704 15.274-.128.38.303 6.433-8.757 19.379z"/><path d="m452.287 248.428c-2.455-3.406-7.207-4.173-10.607-1.719l-9.621 6.938c.307-4.483.471-8.981.471-13.472 0-107.293-87.29-194.583-194.583-194.583-107.294 0-194.584 87.29-194.584 194.583s87.29 194.583 194.584 194.583c13.586 0 27.154-1.408 40.331-4.187 4.107-.866 6.734-4.897 5.868-9.003-.867-4.107-4.898-6.733-9.003-5.868-9.692 2.044-19.617 3.269-29.598 3.687v-12.526c0-4.197-3.402-7.599-7.599-7.599s-7.599 3.402-7.599 7.599v12.527c-43.74-1.832-83.479-19.396-113.695-47.174l8.801-8.802c2.967-2.968 2.967-7.779-.001-10.747-2.966-2.967-7.778-2.967-10.746 0l-8.801 8.801c-27.779-30.216-45.342-69.954-47.174-113.694h12.529c4.197 0 7.599-3.402 7.599-7.599s-3.402-7.599-7.599-7.599h-12.528c1.832-43.74 19.396-83.479 47.174-113.694l8.801 8.801c2.968 2.967 7.778 2.968 10.746 0s2.968-7.779.001-10.747l-8.801-8.802c30.216-27.779 69.955-45.342 113.695-47.174v12.527c0 4.197 3.402 7.599 7.599 7.599s7.599-3.402 7.599-7.599v-12.524c43.74 1.832 83.479 19.396 113.694 47.174l-8.802 8.802c-2.967 2.967-2.967 7.779 0 10.746 2.969 2.968 7.779 2.967 10.747 0l8.801-8.801c29.38 31.957 47.346 74.564 47.346 121.293 0 3.814-.126 7.632-.366 11.44l-7.509-8.584c-2.764-3.16-7.565-3.479-10.722-.716-3.159 2.763-3.48 7.564-.717 10.722l18.264 20.88c2.356 3.554 7.347 4.547 10.891 1.991l23.396-16.871c3.403-2.456 4.173-7.206 1.718-10.609z"/><path d="m324.404 232.576h-56.675c-2.77-10.852-11.331-19.413-22.183-22.183v-88.083c0-4.197-3.402-7.599-7.599-7.599s-7.599 3.402-7.599 7.599v88.083c-13.284 3.391-23.135 15.457-23.135 29.782 0 16.947 13.787 30.734 30.734 30.734 14.325 0 26.391-9.852 29.782-23.135h56.675c4.197 0 7.599-3.402 7.599-7.599-.001-4.197-3.402-7.599-7.599-7.599zm-86.457 23.135c-8.567 0-15.537-6.97-15.537-15.537s6.969-15.537 15.537-15.537c8.567 0 15.537 6.97 15.537 15.537-.001 8.567-6.97 15.537-15.537 15.537z"/><path d="m504.401 397.3c4.197 0 7.599-3.402 7.599-7.599v-42.331c0-24.803-19.465-45.138-43.921-46.548 5.183-19.717 7.814-40.07 7.814-60.648 0-131.503-106.422-237.946-237.946-237.946-131.506 0-237.947 106.422-237.947 237.946 0 131.505 106.423 237.946 237.947 237.946 22.245 0 44.198-3.068 65.401-9.12 2.894 22.955 22.524 40.771 46.252 40.771h115.768c25.714 0 46.633-20.92 46.633-46.633v-37.912c0-4.197-3.402-7.599-7.599-7.599s-7.599 3.402-7.599 7.599v37.912c0 17.333-14.102 31.436-31.436 31.436h-115.768c-17.333 0-31.436-14.102-31.436-31.436 0-19.98 0-99.693 0-115.768 0-17.334 14.102-31.436 31.436-31.436h108.415.072 7.281c17.333 0 31.436 14.102 31.436 31.436v42.331c0 4.197 3.401 7.599 7.598 7.599zm-201.435-49.929v105.894c-21.015 6.406-42.859 9.658-65.019 9.658-123.106 0-222.749-99.625-222.749-222.749 0-123.106 99.626-222.749 222.749-222.749 123.105 0 222.748 99.625 222.748 222.749 0 20.59-2.81 40.934-8.344 60.563h-102.752c-25.714.001-46.633 20.92-46.633 46.634z"/></g></g></g></g></svg>