<svg id="Capa_1" enable-background="new 0 0 512 512" height="512" viewBox="0 0 512 512" width="512" xmlns="http://www.w3.org/2000/svg"><g><g><g><g><g><g><g><path d="m477.423 399.368h-442.846c-14.954 0-27.077-12.123-27.077-27.077v-293.305c0-14.954 12.123-27.077 27.077-27.077h442.845c14.954 0 27.077 12.123 27.077 27.077v293.304c.001 14.955-12.122 27.078-27.076 27.078z" fill="#f6e266"/><path d="m86.756 355.163c-4.072-17.065-17.255-30.487-34.253-34.854-3.13-.804-5.275-3.693-5.275-6.925v-175.493c0-3.232 2.144-6.12 5.275-6.925 16.998-4.367 30.181-17.789 34.253-34.854.763-3.195 3.674-5.413 6.959-5.413h324.57c3.285 0 6.197 2.217 6.959 5.413 4.073 17.065 17.255 30.487 34.253 34.854 3.13.804 5.275 3.693 5.275 6.925v175.495c0 3.232-2.144 6.12-5.275 6.925-16.998 4.367-30.181 17.789-34.253 34.854-.763 3.195-3.674 5.413-6.959 5.413h-324.57c-3.285-.002-6.197-2.219-6.959-5.415z" fill="#f5f5f5"/><path d="m459.497 130.966c-16.998-4.367-30.181-17.789-34.253-34.854-.763-3.195-3.674-5.413-6.959-5.413h-61.445c3.285 0 6.197 2.217 6.959 5.413 4.073 17.065 17.255 30.487 34.253 34.854 3.13.804 5.275 3.693 5.275 6.925v175.495c0 3.232-2.144 6.12-5.275 6.925-16.998 4.367-30.181 17.789-34.253 34.854-.763 3.195-3.674 5.413-6.959 5.413h61.445c3.285 0 6.197-2.217 6.959-5.413 4.072-17.065 17.255-30.487 34.253-34.854 3.13-.804 5.275-3.693 5.275-6.925v-175.495c0-3.232-2.144-6.121-5.275-6.925z" fill="#eaeaea"/></g></g><g><g><path d="m366.553 458.328-9.269-14.233c-.918-1.41-2.639-2.067-4.263-1.629l-16.381 4.421c-3.062.827-5.769-2.17-4.636-5.133l31.035-81.179 41.428 15.838-31.036 81.182c-1.134 2.963-5.148 3.39-6.878.733z" fill="#eab14d"/></g><g><path d="m415.331 458.328 9.269-14.233c.918-1.41 2.639-2.067 4.263-1.629l16.381 4.421c3.062.827 5.769-2.17 4.636-5.133l-31.035-81.179-41.428 15.838 31.036 81.182c1.133 2.963 5.147 3.39 6.878.733z" fill="#e7a52e"/></g></g><g><g><path d="m402.953 266.159c3.067 7.364 11.978 10.26 18.788 6.105 9.875-6.025 22.113 2.867 19.435 14.12-1.847 7.761 3.66 15.341 11.612 15.982 11.53.93 16.205 15.317 7.423 22.847-6.056 5.193-6.056 14.562 0 19.755 8.781 7.53 4.107 21.917-7.423 22.847-7.952.641-13.459 8.222-11.612 15.982 2.678 11.253-9.56 20.145-19.435 14.12-6.81-4.155-15.721-1.26-18.788 6.105-4.448 10.678-19.575 10.678-24.023 0-3.067-7.364-11.978-10.26-18.788-6.105-9.875 6.025-22.113-2.867-19.435-14.12 1.847-7.761-3.66-15.341-11.612-15.982-11.53-.93-16.205-15.317-7.423-22.847 6.056-5.193 6.056-14.562 0-19.755-8.781-7.53-4.107-21.917 7.423-22.847 7.952-.641 13.459-8.222 11.612-15.982-2.678-11.253 9.56-20.145 19.435-14.12 6.81 4.155 15.721 1.26 18.788-6.105 4.448-10.678 19.575-10.678 24.023 0z" fill="#fc8086"/></g><path d="m460.212 344.969c-6.056-5.193-6.056-14.563 0-19.755 8.781-7.53 4.107-21.917-7.423-22.847-7.952-.641-13.459-8.222-11.612-15.982 2.678-11.253-9.56-20.145-19.435-14.12-6.81 4.155-15.721 1.259-18.788-6.105-4.448-10.678-19.575-10.678-24.023 0-1.376 3.304-3.932 5.698-6.943 6.97 19.004 14.009 31.34 36.541 31.34 61.962s-12.335 47.953-31.34 61.962c3.011 1.272 5.567 3.667 6.943 6.97 4.448 10.678 19.575 10.678 24.023 0 3.067-7.364 11.978-10.26 18.788-6.105 9.875 6.025 22.113-2.867 19.435-14.12-1.847-7.761 3.66-15.341 11.612-15.982 11.529-.932 16.204-15.319 7.423-22.848z" fill="#fb636f"/><circle cx="390.942" cy="335.091" fill="#fdf3c4" r="36.438"/></g></g></g><path d="m310.727 159.592h-109.454c-4.786 0-8.666-3.88-8.666-8.666v-13.197c0-4.786 3.88-8.666 8.666-8.666h109.454c4.786 0 8.666 3.88 8.666 8.666v13.197c0 4.786-3.88 8.666-8.666 8.666z" fill="#ffc250"/><path d="m310.727 129.063h-52.779v21.863c0 4.786-3.88 8.666-8.666 8.666h61.445c4.786 0 8.666-3.88 8.666-8.666v-13.197c0-4.786-3.88-8.666-8.666-8.666z" fill="#eab14d"/></g></g><g><g><g><path d="m419.497 204.456h-326.994c-4.145 0-7.506 3.36-7.506 7.506s3.36 7.506 7.506 7.506h326.994c4.145 0 7.506-3.36 7.506-7.506s-3.361-7.506-7.506-7.506z"/><path d="m303.036 242.318h-210.533c-4.145 0-7.506 3.36-7.506 7.506s3.36 7.506 7.506 7.506h210.533c4.145 0 7.506-3.36 7.506-7.506-.001-4.146-3.361-7.506-7.506-7.506z"/><path d="m279.017 295.191c4.145 0 7.506-3.36 7.506-7.506s-3.36-7.506-7.506-7.506h-186.514c-4.145 0-7.506 3.36-7.506 7.506s3.36 7.506 7.506 7.506z"/><path d="m310.726 167.099c8.917 0 16.171-7.255 16.171-16.171v-13.196c0-8.917-7.254-16.171-16.171-16.171h-109.452c-8.917 0-16.171 7.255-16.171 16.171v13.196c0 8.917 7.254 16.171 16.171 16.171zm-110.611-16.171v-13.196c0-.64.52-1.16 1.16-1.16h109.452c.639 0 1.16.52 1.16 1.16v13.196c0 .64-.52 1.16-1.16 1.16h-109.453c-.639 0-1.159-.52-1.159-1.16z"/><path d="m282.603 353.068h-188.628c-4.798-19.543-19.784-34.796-39.237-39.934v-69.956c0-4.146-3.36-7.506-7.506-7.506s-7.506 3.36-7.506 7.506v70.206c0 6.708 4.488 12.545 10.912 14.193 14.339 3.684 25.382 14.921 28.82 29.326 1.57 6.581 7.434 11.176 14.26 11.176h188.884c4.145 0 7.506-3.36 7.506-7.506.001-4.145-3.36-7.505-7.505-7.505z"/><path d="m461.36 123.7c-14.338-3.684-25.382-14.921-28.819-29.326-1.57-6.581-7.434-11.176-14.26-11.176h-324.562c-6.826 0-12.69 4.595-14.259 11.175-3.438 14.405-14.481 25.642-28.818 29.326-6.426 1.65-10.914 7.486-10.914 14.194v70.195c0 4.146 3.36 7.506 7.506 7.506s7.506-3.36 7.506-7.506v-69.943c19.451-5.139 34.438-20.391 39.237-39.935h324.048c4.799 19.543 19.784 34.796 39.237 39.934v133.279c0 4.146 3.36 7.506 7.506 7.506s7.506-3.36 7.506-7.506v-133.53c-.001-6.707-4.49-12.544-10.914-14.193z"/><path d="m477.418 44.407h-442.836c-19.068 0-34.582 15.514-34.582 34.583v293.298c0 19.069 15.514 34.583 34.582 34.583h302.719l-12.31 32.2c-3.321 8.686 4.621 17.479 13.603 15.059l13.836-3.735 7.831 12.025c5.08 7.801 16.86 6.534 20.177-2.148l10.5-27.467 10.501 27.467c3.323 8.695 15.104 9.94 20.177 2.148l7.831-12.025 13.835 3.735c8.976 2.424 16.926-6.37 13.604-15.06l-12.31-32.199h32.841c19.069 0 34.582-15.514 34.582-34.583v-293.298c.001-19.069-15.513-34.583-34.581-34.583zm-150.862 275.107c-3.744-3.21-1.727-9.274 3.142-9.667 12.543-1.013 21.218-12.976 18.309-25.202-1.131-4.75 4.012-8.544 8.224-5.974 10.743 6.553 24.793 1.974 29.625-9.626 1.882-4.52 8.272-4.545 10.165 0 4.836 11.613 18.899 16.173 29.626 9.626 4.178-2.549 9.363 1.185 8.223 5.974-2.913 12.241 5.781 24.19 18.31 25.202 4.891.395 6.87 6.469 3.141 9.667-9.553 8.19-9.54 22.97 0 31.15 3.744 3.21 1.727 9.274-3.142 9.667-12.543 1.013-21.218 12.976-18.309 25.202 1.137 4.775-4.028 8.531-8.223 5.974-10.741-6.552-24.795-1.975-29.625 9.626-1.876 4.505-8.269 4.554-10.165 0-4.833-11.604-18.899-16.171-29.625-9.625-4.192 2.554-9.362-1.196-8.224-5.975 2.913-12.241-5.781-24.19-18.31-25.202-4.891-.395-6.87-6.469-3.141-9.667 9.551-8.19 9.539-22.97-.001-31.15zm42.401 128.751-5.385-8.27c-2.701-4.148-7.728-6.066-12.509-4.78l-9.508 2.566 11.625-30.407c3.722.029 7.465-.975 10.87-3.052 2.881-1.758 6.65-.536 7.95 2.584 1.846 4.432 4.994 7.905 8.917 10.078zm61.856-13.05c-4.781-1.291-9.806.633-12.507 4.78l-5.386 8.27-11.959-31.281c3.923-2.174 7.071-5.646 8.918-10.078 1.295-3.111 5.058-4.347 7.95-2.583 3.405 2.078 7.148 3.081 10.869 3.052l11.625 30.407zm66.176-62.927c0 10.791-8.78 19.571-19.571 19.571h-28.97c.778-3.12.822-6.456.026-9.801-.51-2.143.346-3.747.902-4.511.556-.765 1.816-2.075 4.011-2.253 18.178-1.466 25.567-24.14 11.706-36.025-2.563-2.197-2.566-6.159 0-8.359 13.842-11.871 6.494-34.557-11.706-36.025-3.366-.273-5.696-3.476-4.913-6.764 4.222-17.738-15.057-31.776-30.646-22.264-2.88 1.758-6.651.536-7.949-2.584-.001 0-.001 0-.001 0-7.012-16.834-30.858-16.856-37.88 0-1.298 3.115-5.064 4.345-7.95 2.584-15.577-9.508-34.87 4.516-30.646 22.264.781 3.283-1.543 6.491-4.912 6.764-18.179 1.466-25.567 24.14-11.706 36.025 2.563 2.198 2.566 6.159 0 8.359-13.843 11.872-6.493 34.558 11.706 36.025 3.365.273 5.696 3.475 4.913 6.764-.796 3.345-.752 6.682.026 9.801h-298.847c-10.791 0-19.571-8.78-19.571-19.571v-293.298c0-10.791 8.78-19.571 19.571-19.571h442.835c10.791 0 19.571 8.78 19.571 19.571v293.298z"/><path d="m390.938 379.032c24.23 0 43.943-19.712 43.943-43.942s-19.713-43.943-43.943-43.943-43.942 19.713-43.942 43.943 19.713 43.942 43.942 43.942zm0-72.874c15.953 0 28.932 12.979 28.932 28.932 0 15.952-12.979 28.931-28.932 28.931-15.952 0-28.931-12.979-28.931-28.931 0-15.954 12.979-28.932 28.931-28.932z"/></g></g></g></g></svg>