<svg id="Capa_1" enable-background="new 0 0 512 512" height="512" viewBox="0 0 512 512" width="512" xmlns="http://www.w3.org/2000/svg"><g><g><g><g><g><g><g><path d="m413.783 346.371h-315.566c-22.08 0-39.98-17.9-39.98-39.98v158.129c0 22.081 17.9 39.98 39.98 39.98h315.566c22.08 0 39.98-17.9 39.98-39.98v-158.129c0 22.08-17.9 39.98-39.98 39.98z" fill="#b78e8e"/><path d="m413.783 346.371h-315.566c-22.08 0-39.98-17.9-39.98-39.98v158.129c0 22.081 17.9 39.98 39.98 39.98h315.566c22.08 0 39.98-17.9 39.98-39.98v-158.129c0 22.08-17.9 39.98-39.98 39.98z" fill="#b78e8e"/><path d="m413.783 346.371h-21.464v118.149c0 22.081-17.9 39.98-39.98 39.98h61.445c22.081 0 39.98-17.9 39.98-39.98v-158.129c-.001 22.08-17.901 39.98-39.981 39.98z" fill="#aa8080"/><path d="m413.783 236.731h-315.566c-22.08 0-39.98 17.9-39.98 39.98v33.7c0 22.08 17.9 39.98 39.98 39.98h315.566c22.081 0 39.98-17.9 39.98-39.98v-33.7c0-22.08-17.9-39.98-39.98-39.98z" fill="#aa8080"/><path d="m413.783 236.731h-61.445c22.081 0 39.98 17.9 39.98 39.98v73.681h21.464c22.081 0 39.98-17.9 39.98-39.98v-33.7c.001-22.081-17.899-39.981-39.979-39.981z" fill="#9d6b6b"/></g></g></g><g><g><g><path d="m133.312 390.55c-13.617 0-24.655-11.039-24.655-24.655v-46.803c0-4.892 3.966-8.858 8.858-8.858h31.596c4.892 0 8.858 3.966 8.858 8.858v46.803c-.001 13.616-11.04 24.655-24.657 24.655z" fill="#fceeac"/></g></g><g><g><path d="m378.688 390.55c-13.617 0-24.655-11.039-24.655-24.655v-46.803c0-4.892 3.966-8.858 8.858-8.858h31.596c4.892 0 8.858 3.966 8.858 8.858v46.803c-.002 13.616-11.041 24.655-24.657 24.655z" fill="#fceeac"/></g></g><path d="m108.657 338.66v27.235c0 13.617 11.039 24.655 24.655 24.655 13.617 0 24.655-11.039 24.655-24.655v-27.235z" fill="#ffd064"/></g></g><g><path d="m330.26 145.735h.054c2.813.008 5.134-2.176 5.131-4.988l-.01-10.774c-.224-16.208-2.292-22.625-12.975-31.038l-11.644-9.169c-7.086-5.58-11.222-14.101-11.222-23.12v-13.617h-103.101v25.68c0 3.73-.709 7.426-2.089 10.891l-9.676 24.289c-4.378 12.844-6.613 26.32-6.613 39.889v26.602c0 7.082 5.741 12.823 12.823 12.823h8.199c7.082 0 12.822-5.741 12.822-12.822v8.218c0 7.082 5.741 12.822 12.822 12.822h8.199c7.082 0 12.823-5.741 12.823-12.823v6.531c0 7.082 5.741 12.822 12.822 12.822h8.199c7.082 0 12.822-5.741 12.822-12.822v4.474c0 7.082 5.741 12.822 12.822 12.822h8.199c7.082 0 12.822-5.741 12.822-12.822l.014-42.497c.001-6.279 5.092-11.369 11.371-11.369.671-.001 5.691-.002 5.386-.002z" fill="#ffece3"/><g><path d="m335.435 129.973c-.225-16.208-2.292-22.625-12.975-31.038l-11.644-9.169c-7.086-5.58-11.221-14.101-11.221-23.12v-13.617h-61.445v13.617c0 9.019 4.136 17.54 11.222 23.12l11.644 9.169c10.684 8.413 12.751 14.83 12.975 31.038l.008 75.785c3.408-2.305 5.649-6.205 5.649-10.63v4.474c0 7.082 5.741 12.822 12.822 12.822h8.199c7.082 0 12.822-5.741 12.822-12.822l.014-42.497c.001-6.279 5.092-11.369 11.372-11.369.668 0 5.689-.001 5.383-.001h.054c2.813.008 5.134-2.176 5.131-4.988z" fill="#ffddce"/></g></g><g><g><g><g><g><g><g><g><g><g><g><path d="m317.478 59.987v-47.284c0-2.874-2.33-5.203-5.203-5.203h-126.303c-2.874 0-5.203 2.33-5.203 5.203v47.284c0 6.816 5.525 12.341 12.341 12.341h112.027c6.816.001 12.341-5.525 12.341-12.341z" fill="#8c9ba6"/><path d="m312.275 7.5h-56.275v52.487c0 6.816-5.525 12.341-12.341 12.341h61.478c6.816 0 12.341-5.525 12.341-12.341v-47.284c0-2.873-2.329-5.203-5.203-5.203z" fill="#7c8b96"/></g></g></g></g></g></g></g></g></g></g></g></g><g><path d="m354.032 338.66v27.235c0 13.617 11.039 24.655 24.655 24.655 13.617 0 24.655-11.039 24.655-24.655v-27.235z" fill="#ffd064"/></g></g><g><g><g><path d="m413.784 229.232h-56.547v-64.019c0-10.301-5.816-19.248-14.325-23.79.012-.228.033-.454.033-.684l-.012-10.869c-.235-17.03-2.578-26.389-15.835-36.827l-11.644-9.169c-1.774-1.397-3.29-3.064-4.542-4.909 8.131-2.48 14.065-10.046 14.065-18.978v-47.285c0-7.004-5.697-12.702-12.702-12.702h-72.639c-4.142 0-7.499 3.357-7.499 7.499s3.357 7.499 7.499 7.499h70.342v44.988c0 2.67-2.172 4.842-4.841 4.842-15.983 0-101.923 0-112.027 0-2.67 0-4.842-2.173-4.842-4.842v-44.987h16.309c4.142 0 7.499-3.357 7.499-7.499s-3.357-7.5-7.499-7.5h-18.605c-7.004 0-12.703 5.698-12.703 12.702v47.284c0 9.517 6.738 17.484 15.692 19.397-.352 11.518-13.619 27.017-17.414 58.851h-3.561c-14.875 0-26.976 12.102-26.976 26.977v64.019h-42.794c-26.181 0-47.48 21.299-47.48 47.48v128.735c0 4.142 3.357 7.499 7.499 7.499s7.499-3.357 7.499-7.499v-60.45c8.5 7.988 19.924 12.896 32.481 12.896h2.94v8.002c0 17.731 14.425 32.156 32.156 32.156 17.73 0 32.155-14.425 32.155-32.156v-8.002h181.067v8.002c0 17.731 14.425 32.156 32.155 32.156s32.155-14.425 32.155-32.156v-8.002h2.941c12.556 0 23.981-4.908 32.481-12.896v119.525c0 17.91-14.571 32.481-32.481 32.481h-315.568c-17.91 0-32.481-14.571-32.481-32.481v-23.897c0-4.142-3.357-7.499-7.499-7.499s-7.499 3.357-7.499 7.499v23.897c0 26.181 21.299 47.48 47.48 47.48h315.568c26.181 0 47.48-21.299 47.48-47.48 0-8.496 0-174.231 0-187.809-.002-26.18-21.301-47.479-47.481-47.479zm-228.169-75.455c0-38.754 17.807-55.769 18.351-73.949h90.578c2.368 6.199 6.371 11.687 11.632 15.83l11.644 9.169c8.305 6.54 9.912 10.552 10.115 25.154l.008 8.254-3.066.001c-10.402 0-18.869 8.463-18.872 18.867l-.014 42.5c0 2.935-2.388 5.323-5.323 5.323h-8.2c-2.935 0-5.323-2.387-5.323-5.323v-4.474c0-9.914-14.999-9.93-14.999 0 0 2.935-2.388 5.324-5.323 5.324h-8.2c-2.935 0-5.323-2.388-5.323-5.324v-6.531c0-9.914-14.999-9.93-14.999 0 0 2.935-2.388 5.323-5.323 5.323h-8.2c-2.935 0-5.323-2.388-5.323-5.323v-8.218c0-9.914-14.999-9.93-14.999 0 0 2.935-2.388 5.323-5.323 5.323h-8.2c-2.935 0-5.323-2.388-5.323-5.324v-26.602zm-29.606 11.435c0-6.605 5.374-11.979 11.978-11.979h2.64c-.019 4.795-.008 19.163-.011 27.144 0 11.206 9.116 20.323 20.322 20.323h8.2c2.909 0 5.677-.614 8.181-1.72 3.55 5.947 10.049 9.938 17.463 9.938h8.2c3.238 0 6.301-.762 9.021-2.114 3.681 5.225 9.761 8.646 16.624 8.646h8.2c3.692 0 7.159-.99 10.146-2.719 3.73 4.397 9.294 7.192 15.499 7.192h8.2c11.205 0 20.322-9.116 20.322-20.32l.014-42.498c.001-2.135 1.738-3.872 3.873-3.872l4.646-.001h.737c6.605 0 11.978 5.374 11.978 11.979v64.019h-186.233zm-5.541 200.683c0 9.46-7.696 17.157-17.156 17.157s-17.157-7.697-17.157-17.157v-19.735h34.313zm0-34.734h-34.313v-12.069c0-.749.609-1.358 1.358-1.358h31.596c.749 0 1.358.609 1.358 1.358v12.069zm245.376 34.734c0 9.46-7.696 17.157-17.156 17.157s-17.156-7.697-17.156-17.157v-19.735h34.312zm0-34.734h-34.312v-12.069c0-.749.609-1.358 1.358-1.358h31.595c.749 0 1.358.609 1.358 1.358v12.069zm50.421-20.749c0 17.911-14.571 32.482-32.481 32.482h-2.941c0-8.65 0-14.879 0-23.802 0-9.02-7.337-16.357-16.357-16.357h-31.596c-9.02 0-16.357 7.337-16.357 16.357v23.802h-181.066c0-8.65 0-14.879 0-23.802 0-9.02-7.337-16.357-16.357-16.357h-31.596c-9.02 0-16.357 7.337-16.357 16.357v23.802h-2.94c-17.91 0-32.481-14.571-32.481-32.482v-33.7c0-17.91 14.571-32.481 32.481-32.481h315.568c17.91 0 32.481 14.571 32.481 32.481v33.7z"/></g></g></g></g></svg>