<svg id="Capa_1" enable-background="new 0 0 512 512" height="512" viewBox="0 0 512 512" width="512" xmlns="http://www.w3.org/2000/svg"><g><g><g><g><g><g><g><g><g><path d="m481.984 317.518c16.104 0 26.705-16.792 19.779-31.331l-22.73-47.716c-1.354-2.843-2.076-5.946-2.115-9.095l-.434-35.046c0-102.148-82.021-186.475-184.169-186.828-102.376-.356-185.478 82.528-185.478 184.821 0 42.03 14.03 80.784 37.661 111.832 18.179 23.884 27.862 53.155 27.862 83.171v106.629h176.207v-50.612c0-11.657 10.347-20.597 21.881-18.906l53.202 7.803c19.157 2.81 36.344-12.04 36.345-31.402l.003-61.548c.001-12.107 9.879-21.889 21.986-21.772z" fill="#ffece3"/></g><g fill="#ffddce"><path d="m287.396 434.343v59.612h61.172v-50.612c0-11.657 10.347-20.597 21.881-18.906l-61.172-9c-11.534-1.691-21.881 7.249-21.881 18.906z"/><path d="m501.764 286.187-22.73-47.716c-1.354-2.843-2.076-5.946-2.115-9.095l-.434-35.046c0-102.148-82.021-186.475-184.169-186.828-1.656-.006-3.307.012-4.953.05 74.421 24.385 127.95 95.262 127.95 177.779l.434 35.046c.039 3.149.761 6.252 2.115 9.095l22.73 47.716c6.926 14.539-3.675 31.331-19.779 31.331-12.108-.117-21.986 9.665-21.987 21.774l-.003 61.547c-.001 19.362-9.218 35.408-28.374 32.599l53.202 7.803c19.157 2.81 36.344-12.04 36.345-31.401l.003-61.547c.001-12.108 9.879-21.891 21.987-21.774 16.103-.002 26.704-16.794 19.778-31.333z"/></g><path d="m359.808 504.5-200.244-.192c-9.939-.01-17.991-8.069-17.991-18.008v-24.768c0-10.6 9.111-18.907 19.666-17.931l200.244 18.516c9.264.857 16.35 8.628 16.35 17.931v6.444c0 9.952-8.073 18.018-18.025 18.008z" fill="#8c9ba6"/><g><path d="m361.483 462.117-45.095-4.17v28.545c0 9.559-7.454 17.356-16.862 17.95l60.281.058c9.952.01 18.025-8.056 18.025-18.008v-6.444c.001-9.303-7.085-17.075-16.349-17.931z" fill="#7c8b96"/></g></g></g></g></g><g><g><path d="m89.561 141.279-26.089 26.089-37.499-37.499c-4.586-4.586-4.586-12.022 0-16.608l9.482-9.482c4.586-4.586 12.022-4.586 16.608 0z" fill="#daeaef"/></g><g><path d="m257.588 167.368-26.089-26.089 37.499-37.499c4.586-4.586 12.022-4.586 16.608 0l9.482 9.482c4.586 4.586 4.586 12.022 0 16.608z" fill="#daeaef"/></g><path d="m139.775 41.993h41.509v53.235h-41.509z" fill="#daeaef"/><g><g><g><g><circle cx="160.53" cy="238.337" fill="#f6e266" r="152.449"/><circle cx="160.53" cy="238.337" fill="#f5f5f5" r="118.337"/><path d="m160.53 120c-10.627 0-20.924 1.409-30.722 4.036 50.459 13.529 87.615 59.572 87.615 114.301s-37.155 100.772-87.615 114.301c9.798 2.627 20.095 4.036 30.722 4.036 65.356 0 118.337-52.981 118.337-118.337s-52.982-118.337-118.337-118.337z" fill="#eaeaea"/></g><circle cx="160.53" cy="238.337" fill="#fc8086" r="16.337"/></g></g></g><path d="m185.375 57.83h-49.691c-6.158 0-11.151-4.992-11.151-11.151v-13.262c0-6.158 4.992-11.151 11.151-11.151h49.691c6.158 0 11.151 4.992 11.151 11.151v13.263c0 6.158-4.993 11.15-11.151 11.15z" fill="#9d6b6b"/></g></g></g></g><g><g><g><path d="m212.51 230.822s-.001 0-.002 0l-29.364.008c-2.368-7.116-8.002-12.749-15.119-15.115v-50.9c0-4.143-3.358-7.5-7.5-7.5s-7.5 3.357-7.5 7.5v50.9c-9.479 3.151-16.337 12.098-16.337 22.621 0 13.145 10.693 23.838 23.837 23.838 10.526 0 19.474-6.861 22.624-16.344l29.363-.008c4.142-.001 7.499-3.36 7.498-7.502s-3.359-7.498-7.5-7.498zm-51.985 16.353c-4.873 0-8.837-3.965-8.837-8.838s3.964-8.837 8.837-8.837 8.837 3.964 8.837 8.837-3.965 8.838-8.837 8.838z"/><path d="m319.425 256.754c.472-4.115-2.481-7.834-6.597-8.306-4.119-.477-7.834 2.48-8.306 6.597-8.386 73.11-70.291 128.242-143.998 128.242-79.925 0-144.95-65.024-144.95-144.95 0-79.925 65.024-144.949 144.95-144.949 6.747 0 13.393.466 19.91 1.362.034.004.067.01.101.013 64.768 8.942 116.418 60.647 123.993 126.925.47 4.115 4.187 7.063 8.303 6.6 4.115-.47 7.07-4.188 6.6-8.303-3.193-27.931-13.463-53.483-28.897-74.961l9.85-9.85c7.52-7.52 7.523-19.693 0-27.214l-9.482-9.483c-7.521-7.52-19.693-7.52-27.214 0l-9.871 9.871c-19.038-13.658-41.163-23.207-65.039-27.46v-15.885c8.66-1.608 15.242-9.205 15.242-18.324v-13.262c0-10.284-8.367-18.65-18.651-18.65h-49.691c-10.284 0-18.651 8.366-18.651 18.65v13.263c0 9.119 6.582 16.715 15.242 18.324v15.883c-23.902 4.278-45.976 13.889-64.954 27.545l-9.956-9.956c-7.503-7.502-19.711-7.503-27.215.001l-9.481 9.481c-7.521 7.521-7.522 19.693 0 27.215l9.955 9.955c-18.896 26.262-30.043 58.457-30.043 93.209 0 88.197 71.753 159.95 159.95 159.95 81.333 0 149.645-60.846 158.9-141.533zm-45.129-147.671c1.654-1.656 4.347-1.655 6-.001l9.482 9.483c.802.801 1.243 1.867 1.243 3s-.441 2.199-1.243 3l-8.628 8.628c-4.808-5.509-9.985-10.678-15.491-15.473zm-142.268-75.666c0-2.013 1.638-3.65 3.651-3.65h49.691c2.013 0 3.651 1.638 3.651 3.65v13.263c0 2.013-1.638 3.65-3.651 3.65h-49.691c-2.013 0-3.651-1.638-3.651-3.65zm15.242 31.913h26.509v13.611c-4.375-.359-8.794-.553-13.254-.553-4.464 0-8.883.193-13.255.553zm-116 59.235c-1.658-1.656-1.66-4.342 0-6.001l9.481-9.481c1.655-1.657 4.348-1.653 6.001 0l8.731 8.731c-5.505 4.804-10.679 9.978-15.483 15.483z"/><path d="m508.53 282.961-22.731-47.716c-.881-1.851-1.361-3.912-1.386-5.962l-.434-34.953c0-106.787-85.971-193.962-191.643-194.329-.227-.001-.454-.001-.682-.001-22.471 0-44.482 3.843-65.435 11.424-3.895 1.409-5.91 5.71-4.5 9.604 1.41 3.896 5.71 5.909 9.604 4.501 19.506-7.06 39.992-10.603 60.961-10.528 97.43.338 176.695 80.785 176.695 179.422l.435 35.045c.052 4.204 1.035 8.433 2.843 12.229l22.73 47.716c4.607 9.673-2.524 20.605-12.937 20.605-.096-.001-.192-.001-.289-.001-16.133 0-29.269 13.057-29.27 29.274l-.003 61.548c0 14.814-13.17 26.127-27.756 23.98l-53.202-7.803c-16.101-2.353-30.469 10.14-30.469 26.327v9.353l-161.208-14.906v-12.244c0-4.143-3.358-7.5-7.5-7.5s-7.5 3.357-7.5 7.5v10.857l-2.931-.271c-14.932-1.385-27.856 10.395-27.856 25.399v24.769c0 14.051 11.432 25.494 25.483 25.508l200.247.192h.026c14.085 0 25.506-11.398 25.506-25.508v-6.444c0-13.258-9.956-24.178-23.159-25.399l-6.106-.565v-10.74c0-7.097 6.305-12.511 13.292-11.485l53.202 7.803c23.692 3.472 44.932-14.91 44.933-38.822l.003-61.547c.001-7.904 6.425-14.375 14.487-14.274 21.593-.001 35.855-22.523 26.55-42.058zm-138.202 197.087v6.444c0 5.801-4.695 10.508-10.507 10.508-.003 0-.007 0-.011 0l-200.244-.191c-5.789-.006-10.498-4.72-10.498-10.508v-24.769c0-5.983 4.886-10.51 10.476-10.51 1.011 0 200.267 18.471 201.243 18.562 5.439.504 9.541 5.002 9.541 10.464z"/><path d="m160.525 112.5c-69.331 0-125.837 56.417-125.837 125.837 0 69.333 56.418 125.838 125.837 125.838 69.331 0 125.837-56.418 125.837-125.838 0-69.331-56.418-125.837-125.837-125.837zm105.49 133.337h5.087c-1.674 24.927-11.622 47.622-27.119 65.353l-3.562-3.562c-2.928-2.929-7.677-2.93-10.606-.001s-2.929 7.678 0 10.606l3.563 3.563c-17.731 15.498-40.426 25.445-65.353 27.119v-5.087c0-4.143-3.358-7.5-7.5-7.5s-7.5 3.357-7.5 7.5v5.087c-24.927-1.674-47.622-11.622-65.353-27.12l3.562-3.563c2.929-2.929 2.929-7.678 0-10.606s-7.678-2.929-10.606.001l-3.562 3.562c-15.498-17.731-25.445-40.426-27.119-65.353h5.087c4.142 0 7.5-3.357 7.5-7.5s-3.358-7.5-7.5-7.5h-5.087c1.674-24.927 11.622-47.621 27.119-65.352l3.562 3.562c1.464 1.465 3.384 2.197 5.303 2.197s3.839-.732 5.303-2.196c2.929-2.929 2.929-7.678 0-10.606l-3.562-3.563c17.731-15.498 40.426-25.446 65.353-27.12v5.087c0 4.143 3.358 7.5 7.5 7.5s7.5-3.357 7.5-7.5v-5.087c24.927 1.674 47.622 11.622 65.353 27.119l-3.563 3.563c-2.929 2.929-2.929 7.678 0 10.606s7.678 2.929 10.606-.001l3.562-3.562c15.497 17.731 25.445 40.426 27.119 65.352h-5.087c-4.142 0-7.5 3.357-7.5 7.5s3.358 7.502 7.5 7.502z"/></g></g></g></g></svg>