<svg id="Capa_1" enable-background="new 0 0 512 512" height="512" viewBox="0 0 512 512" width="512" xmlns="http://www.w3.org/2000/svg"><g><g><g><g><g><g><g><g><path d="m306.621 165.527c-8.296 0-15.022-6.726-15.022-15.022v-52.13c0-11.566-9.41-20.976-20.976-20.976h-82.229c-11.566 0-20.976 9.41-20.976 20.976v52.13c0 8.296-6.726 15.022-15.022 15.022s-15.022-6.726-15.022-15.022v-52.13c0-28.132 22.887-51.019 51.019-51.019h82.229c28.132 0 51.019 22.887 51.019 51.019v52.13c.002 8.296-6.724 15.022-15.02 15.022z" fill="#c3a2a2"/></g><path d="m406.637 449.509h-354.255c-24.788 0-44.882-20.094-44.882-44.882v-221.503c0-24.788 20.094-44.882 44.882-44.882h354.255c24.788 0 44.882 20.094 44.882 44.882v221.502c0 24.788-20.094 44.883-44.882 44.883z" fill="#b78e8e"/><g fill="#b57e73"><path d="m406.637 138.242h-354.255c-24.788 0-44.882 20.094-44.882 44.882v55.84c0 24.788 20.094 44.882 44.882 44.882h354.255c24.788 0 44.882-20.094 44.882-44.882v-55.84c0-24.787-20.094-44.882-44.882-44.882z"/><path d="m406.637 138.242h-40.673c24.788 0 44.882 20.094 44.882 44.882v221.502c0 24.788-20.094 44.882-44.882 44.882h40.673c24.788 0 44.882-20.094 44.882-44.882v-221.502c0-24.787-20.094-44.882-44.882-44.882z"/><path d="m406.637 138.242h-354.255c-24.788 0-44.882 20.094-44.882 44.882v55.84c0 24.788 20.094 44.882 44.882 44.882h354.255c24.788 0 44.882-20.094 44.882-44.882v-55.84c0-24.787-20.094-44.882-44.882-44.882z"/></g><path d="m406.637 138.242h-354.255c-24.788 0-44.882 20.094-44.882 44.882v55.84c0 24.788 20.094 44.882 44.882 44.882h354.255c24.788 0 44.882-20.094 44.882-44.882v-55.84c0-24.787-20.094-44.882-44.882-44.882z" fill="#aa8080"/><path d="m406.637 138.242h-61.493c24.788 0 44.882 20.094 44.882 44.882v100.721h16.611c24.788 0 44.882-20.094 44.882-44.882v-55.84c0-24.786-20.094-44.881-44.882-44.881z" fill="#9d6b6b"/></g></g><g><g><g><path d="m96.062 326.585c-15.286 0-27.678-12.392-27.678-27.678v-52.541c0-5.492 4.452-9.943 9.943-9.943h35.469c5.492 0 9.943 4.452 9.943 9.943v52.541c.001 15.286-12.391 27.678-27.677 27.678z" fill="#fceeac"/><path d="m68.384 265.286v33.621c0 15.286 12.392 27.678 27.678 27.678 15.286 0 27.678-12.392 27.678-27.678v-33.621z" fill="#ffd064"/></g></g></g></g></g></g><g><g><g><g><g><g><g><g><g><g><circle cx="388.134" cy="348.279" fill="#ddeafb" r="116.366"/></g></g><path d="m388.134 231.913c-10.635 0-20.934 1.435-30.722 4.107 49.358 13.477 85.643 58.627 85.643 112.258 0 53.632-36.285 98.781-85.643 112.258 9.788 2.673 20.087 4.107 30.722 4.107 64.267 0 116.366-52.099 116.366-116.366 0-64.265-52.099-116.364-116.366-116.364z" fill="#bed8fb"/></g></g></g></g></g></g></g></g></g><g><g><g><path d="m512 348.29c0-67.987-55.249-123.85-123.85-123.85-41.498 0-78.292 20.518-100.777 51.939h-156.178v-30.014c0-9.603-7.812-17.415-17.415-17.415h-35.474c-9.603 0-17.415 7.812-17.415 17.415v30.014h-8.534c-20.632 0-37.417-16.785-37.417-37.417v-55.847c0-20.632 16.786-37.417 37.417-37.417h354.298c20.632 0 37.418 16.785 37.418 37.417v33.807c0 4.126 3.344 7.47 7.47 7.47s7.47-3.344 7.47-7.47v-33.807c0-28.869-23.488-52.357-52.358-52.357h-77.534v-32.402c0-32.254-26.241-58.495-58.495-58.495h-82.239c-32.255 0-58.495 26.241-58.495 58.495v32.403h-77.535c-28.869-.001-52.357 23.487-52.357 52.356v221.529c0 28.87 23.488 52.358 52.357 52.358h238.752c4.126 0 7.47-3.344 7.47-7.47s-3.344-7.47-7.47-7.47h-238.752c-20.632 0-37.417-16.786-37.417-37.418v-129.11c9.512 9.73 22.768 15.785 37.417 15.785h8.534v7.593c0 19.382 15.769 35.151 35.152 35.151s35.152-15.769 35.152-35.151v-7.593h147.012c-8.879 17.065-13.906 36.441-13.906 56.971 0 68.004 55.266 123.85 123.85 123.85 68.525 0 123.849-55.796 123.849-123.85zm-227.866-217.532h-109.255v-32.402c0-7.449 6.06-13.508 13.508-13.508h82.239c7.449 0 13.508 6.06 13.508 13.508zm-139.302-32.402c0-24.017 19.539-43.555 43.555-43.555h82.239c24.017 0 43.555 19.539 43.555 43.555v32.403h-15.107v-32.403c0-15.686-12.762-28.448-28.448-28.448h-82.239c-15.686 0-28.448 12.762-28.448 28.448v32.403h-15.107zm-66.526 145.534h35.474c1.365 0 2.475 1.111 2.475 2.475v11.452h-40.424v-11.452c0-1.365 1.111-2.475 2.475-2.475zm37.949 55.022c0 11.145-9.067 20.211-20.212 20.211s-20.212-9.066-20.212-20.211v-26.156h40.423v26.156zm369.438 97.782c-9.525-2.698-21.429-4.923-34.986-6.592 4.985-26.767 4.994-56.809 0-83.625 13.557-1.669 25.461-3.894 34.986-6.592 7.27 14.59 11.368 31.026 11.368 48.404-.001 17.379-4.099 33.815-11.368 48.405zm-53.428-103.379c-11.506.941-23.875 1.518-36.645 1.681v-54.341c19.116 6.459 31.11 33.253 36.645 52.66zm-51.585-52.705v54.386c-12.764-.163-25.126-.739-36.628-1.679 7.875-27.707 21.384-47.699 36.628-52.707zm-36.654 162.656c11.509-.941 23.881-1.519 36.655-1.681v54.374c-15.234-4.986-28.774-24.87-36.655-52.693zm51.594 52.659v-54.341c12.77.163 25.139.74 36.645 1.681-5.533 19.4-17.526 46.2-36.645 52.66zm0-69.282v-76.705c14.1-.171 27.63-.824 40.143-1.906 4.972 25.698 5.012 54.613 0 80.517-12.513-1.082-26.043-1.736-40.143-1.906zm82.182-100.115c-8.454 2.12-18.789 3.903-30.409 5.28-4.934-18.386-12.239-34.01-21.213-45.572 21.053 7.871 39.036 22.079 51.622 40.292zm-127.779-40.255c-8.921 11.508-16.202 27.078-21.128 45.534-11.616-1.378-21.947-3.16-30.397-5.279 12.567-18.185 30.514-32.376 51.525-40.255zm-59.415 53.614c9.526 2.698 21.431 4.923 34.991 6.592-1.578 8.517-2.693 17.504-3.28 26.878-.258 4.117 2.871 7.665 6.988 7.922 4.109.254 7.664-2.87 7.923-6.989.573-9.144 1.708-17.947 3.322-26.257 12.509 1.081 26.034 1.734 40.128 1.905v76.705c-14.095.171-27.619.824-40.129 1.905-1.263-6.528-2.243-13.358-2.879-20.442-.369-4.109-4.001-7.152-8.108-6.773-4.109.369-7.141 3.999-6.773 8.107.634 7.06 1.594 13.969 2.851 20.657-13.578 1.669-25.499 3.896-35.035 6.598-7.27-14.59-11.368-31.026-11.368-48.404.002-17.379 4.1-33.815 11.369-48.404zm7.891 110.165c8.472-2.125 18.832-3.91 30.482-5.289 4.266 15.867 11.017 32.535 21.132 45.578-21.05-7.872-39.03-22.078-51.614-40.289zm127.681 40.292c8.974-11.562 16.279-27.186 21.213-45.572 11.62 1.378 21.955 3.16 30.409 5.28-12.586 18.213-30.569 32.421-51.622 40.292z"/></g></g></g></g></svg>