<svg id="Capa_1" enable-background="new 0 0 512 512" height="512" viewBox="0 0 512 512" width="512" xmlns="http://www.w3.org/2000/svg"><g><g><g><g><g><g><path d="m386.665 495.716h-338.297c-9.597 0-17.376-7.78-17.376-17.376v-121.385h355.673z" fill="#fdcb82"/><g><g><g><g><g><g><g><g><g><g><g><g><g><g><g><g><g><g><path d="m250.595 210.54c-4.844-.608-8.485-4.711-8.506-9.592l-.187-44.405-67.847.286.187 44.405c.021 4.882-3.586 9.015-8.425 9.664 0 0-12.528 42.818 42.569 42.586s42.209-42.944 42.209-42.944z" fill="#ffece3"/><path d="m272.017 94.461-4.104.017-.02-4.819-.049-11.52c-.069-16.266-6.813-31.999-19.183-42.56-9.699-8.28-23.313-15.486-41.258-15.61-17.943.276-31.496 7.596-41.125 15.958-12.281 10.665-18.893 26.455-18.824 42.721l.049 11.52.02 4.819-4.104.017c-6.017.025-10.874 4.924-10.849 10.94l.051 12.073c.025 6.017 4.924 10.874 10.94 10.849l4.12-.017c.406 15.81 7.115 31.001 19.162 41.286 9.699 8.28 23.313 15.486 41.258 15.61 17.943-.276 31.497-7.596 41.125-15.958 11.96-10.386 18.54-25.633 18.813-41.446l4.12-.017c6.017-.025 10.874-4.924 10.849-10.94l-.051-12.073c-.025-6.018-4.923-10.875-10.94-10.85z" fill="#ffece3"/><path d="m208.101 185.744c17.943-.276 31.497-7.596 41.125-15.958 11.96-10.386 18.54-25.633 18.813-41.446l4.12-.018c6.017-.025 10.874-4.924 10.849-10.94l-.051-12.073c-.025-6.017-4.924-10.874-10.94-10.849l-4.104.017-.02-4.819-.049-11.52c-.069-16.266-6.813-31.999-19.183-42.56-7.02-5.993-16.103-11.408-27.384-13.998l.107 106.76c-.273 15.813-6.853 31.059-18.813 41.446-4.959 4.306-10.969 8.324-18.076 11.256 6.833 2.825 14.683 4.64 23.606 4.702z" fill="#ffddce"/><path d="m338.464 343.468-.324-76.909c-.079-18.656-11.13-35.518-28.205-43.034-15.545-6.843-44.893-11.172-59.34-12.985l-42.277 26.691-42.501-26.333c-14.431 1.935-43.742 6.512-59.228 13.485-17.011 7.66-27.92 24.615-27.841 43.271l.324 76.909z" fill="#f6f9f9"/><g><path d="m248.49 241.329c17.075 7.516 28.126 24.378 28.205 43.034l.25 59.365 61.519-.26-.324-76.909c-.079-18.656-11.13-35.518-28.205-43.034-15.545-6.843-44.893-11.172-59.34-12.985l-34.729 21.926c11.89 2.226 24.257 5.18 32.624 8.863z" fill="#e7ecf1"/></g></g></g></g></g></g></g><path d="m230.83 16.284-47.317.199c-8.638.036-15.955 5.605-18.619 13.334-.998 2.897-3.751 4.822-6.816 4.835-11.012.046-19.901 9.011-19.855 20.023l.175 41.576s17.495-.282 23.437 5.529c1.249 1.222 3.348.348 3.34-1.4l-.115-27.331c-.04-9.49 7.621-17.215 17.11-17.255l.207-.001c2.843-.012 5.656.415 8.348 1.25 5.121 1.589 10.42 2.532 15.782 2.51l2.123-.009c5.362-.023 10.653-1.011 15.76-2.643 2.684-.858 5.494-1.308 8.337-1.32l.207-.001c9.49-.04 17.215 7.621 17.255 17.11l.115 27.331c.007 1.747 10.421 2.569 11.66 1.336 5.893-5.861 15.081-5.692 15.081-5.692l-.142-33.696c-.106-25.337-20.734-45.792-46.073-45.685z" fill="#aa8080"/><path d="m221.313 57.79c1.032-.272 2.059-.563 3.078-.889 2.684-.858 5.494-1.308 8.337-1.32l.207-.001c9.49-.04 17.215 7.62 17.255 17.11l.115 27.331c.007 1.747 10.421 2.569 11.66 1.336 5.893-5.861 15.081-5.691 15.081-5.691l-.142-33.696c-.107-25.339-20.735-45.793-46.074-45.687l-9.559.04z" fill="#9d6b6b"/></g><path d="m142.941 224.524 20.655 28.136c5.171 7.045 15.174 8.352 21.982 2.872l22.74-18.302-42.501-26.333c-4.857.651-11.401 1.602-18.535 2.843-4.998.869-7.343 6.694-4.341 10.784z" fill="#e7ecf1"/><path d="m273.581 223.974-20.471 28.366c-5.122 7.098-15.136 8.477-21.986 3.029l-22.806-18.139 42.277-26.691c4.862.61 11.412 1.505 18.555 2.686 5.007.827 7.401 6.635 4.431 10.749z" fill="#e7ecf1"/><g><path d="m208.318 237.23-22.455 18.074 11.232 19.356 22.688-.095 11.083-19.401z" fill="#a2f4c1"/></g></g><path d="m232.668 351.595-12.885-77.028-22.688.096-12.106 77.133z" fill="#b9f6d3"/></g></g></g></g></g></g></g></g></g><path d="m392.53 387.737h-374.421c-5.859 0-10.609-4.75-10.609-10.609v-40.347c0-5.859 4.75-10.609 10.609-10.609h374.421c5.859 0 10.609 4.75 10.609 10.609v40.347c0 5.859-4.75 10.609-10.609 10.609z" fill="#f9c301"/></g></g></g></g><g><g><g><g><g><g><g><g><g><g><g><g><g><g><g><g><g><path d="m416.682 361.745c-4.844-.608-8.485-4.711-8.506-9.592l-.187-44.405-67.847.286.187 44.405c.021 4.882-3.586 9.015-8.425 9.664 0 0-12.528 42.818 42.569 42.586 55.097-.233 42.209-42.944 42.209-42.944z" fill="#ffece3"/><path d="m492.425 495.716c6.697-.028 12.103-6.471 12.075-13.168l-.273-64.783c-.079-18.656-11.13-35.518-28.205-43.034-15.545-6.843-44.893-11.172-59.34-12.985-25.864 16.329-58.777 16.467-84.778.357-14.431 1.935-43.742 6.512-59.228 13.485-17.011 7.66-27.92 24.615-27.841 43.271l.273 64.783c.028 6.697 5.48 12.103 12.177 12.074z" fill="#8c9ba6"/><path d="m476.022 374.73c-15.545-6.843-44.893-11.172-59.34-12.985-25.863 16.329-58.777 16.467-84.777.358 0 0 0 0-.001 0 0 13.194 9.581 24.434 22.608 26.525l.725.116c14.447 1.813 43.795 6.143 59.34 12.985 17.075 7.516 28.126 24.378 28.205 43.034l.156 50.953h49.487c6.697-.028 12.103-6.471 12.074-13.168l-.273-64.784c-.078-18.655-11.13-35.517-28.204-43.034z" fill="#7c8b96"/></g></g></g></g></g></g><g><path d="m396.917 167.489-47.317.199c-8.615.036-15.917 5.575-18.597 13.273-1.012 2.905-3.763 4.883-6.839 4.896-11.011.047-19.899 9.012-19.853 20.023 0 0 .056 17.599.106 38.914.025 10.583 1.428 21.124 4.174 31.344.623 2.317 2.728 3.924 5.127 3.914h.05c.406 15.81 7.115 31.001 19.162 41.286 9.699 8.28 23.313 15.486 41.258 15.611 17.943-.276 31.497-7.596 41.125-15.958 11.96-10.386 18.54-25.633 18.813-40.915 2.422-.01 4.528-1.666 5.109-4.017l.26-1.053c2.382-9.635 3.577-19.531 3.561-29.456-.032-18.814-.066-32.374-.066-32.374-.106-25.339-20.734-45.793-46.073-45.687z" fill="#aa8080"/></g><path d="m442.99 213.176c-.107-25.339-20.735-45.793-46.074-45.687l-47.317.2c-1.471.006-2.899.184-4.277.495 21.492 3.734 37.879 22.418 37.974 44.993 0 0 .01 3.771.023 10.095.032 14.774-1.825 29.498-5.524 43.801-1.68 6.494-2.967 13.081-3.89 19.725-1.797 12.938-8.085 25.334-18.287 34.194-3.359 2.917-7.212 5.695-11.549 8.1 8.216 4.565 18.207 7.775 30.117 7.858 17.943-.276 31.497-7.596 41.125-15.958 11.96-10.386 18.541-25.633 18.813-40.915 2.422-.01 4.528-1.666 5.109-4.017l.26-1.053c2.382-9.634 3.578-19.531 3.561-29.456-.03-18.814-.064-32.375-.064-32.375z" fill="#9d6b6b"/></g></g></g></g></g></g></g></g></g></g></g></g></g><g><g><path d="m511.727 417.721c-.091-21.6-12.924-41.179-32.693-49.881-16.19-7.128-45.433-11.556-61.425-13.563-.001 0-.002 0-.002 0-1.092-.137-1.919-1.066-1.923-2.164l-.092-21.724c1.573-1.173 3.122-2.408 4.639-3.726 12.003-10.425 19.53-25.265 21.101-41.31 2.523-1.73 4.412-4.353 5.187-7.49l.26-1.053c1.837-7.425 3.017-15.063 3.512-22.705.268-4.144-2.874-7.72-7.017-7.989-4.147-.283-7.72 2.872-7.989 7.017-.428 6.611-1.436 13.218-3 19.646-3.225.806-5.628 3.693-5.691 7.161-.246 13.736-6.159 26.628-16.223 35.368-3.254 2.826-5.531 4.254-6.612 5.01-18.194 11.959-40.863 12.145-59.294.255-.101-.069-3.191-1.996-6.661-4.959-10.14-8.656-16.163-21.69-16.525-35.757-.089-3.474-2.56-6.347-5.81-7.12-2.325-9.128-3.515-18.527-3.537-27.96-.05-21.317-.106-38.917-.106-38.926-.029-6.846 5.518-12.441 12.364-12.47 6.257-.025 11.847-4.021 13.908-9.941 1.705-4.899 6.338-8.205 11.527-8.227l47.313-.2h.166c21.119 0 38.265 17.051 38.354 38.185l.012 5.206c.009 4.147 3.373 7.503 7.519 7.503h.016c4.152-.009 7.512-3.381 7.503-7.534l-.012-5.226c-.123-29.367-24.053-53.171-53.392-53.171-.075 0-.153 0-.228 0l-47.313.2c-11.5.048-21.772 7.342-25.612 18.168-15.057.162-27.225 12.493-27.16 27.563 0 .001.006 1.966.016 5.364-8.48-2.225-17.852-4.041-26.405-5.455-.009-.001-.017-.004-.026-.005-.006-.001-.012-.001-.018-.002-7.202-1.191-13.819-2.098-18.824-2.725h-.001c-1.092-.137-1.918-1.067-1.923-2.163l-.092-21.725c1.573-1.173 3.122-2.408 4.639-3.726 11.542-10.024 18.944-24.267 20.893-39.853 8.792-1.416 15.513-9.076 15.476-18.255l-.051-12.074c-.023-5.204-2.215-10.034-5.927-13.449l-.126-29.885c-.125-29.442-24.176-53.255-53.621-53.17l-47.313.2c-11.511.048-21.771 7.34-25.613 18.168-15.056.162-27.224 12.492-27.16 27.57l.159 37.764c-3.685 3.447-5.836 8.297-5.814 13.501l.051 12.072c.039 9.18 6.824 16.784 15.628 18.125 2.081 15.568 9.602 29.749 21.229 39.675 1.528 1.305 3.087 2.527 4.67 3.686l.092 21.724c.005 1.096-.814 2.033-1.905 2.179h-.001c-15.977 2.142-45.184 6.819-61.31 14.08-19.695 8.869-32.362 28.556-32.271 50.155l.215 50.967h-53.331c-9.995 0-18.127 8.132-18.127 18.126v40.343c0 9.995 8.132 18.126 18.127 18.126h5.363v23.785c0 4.153 3.366 7.519 7.519 7.519s7.519-3.366 7.519-7.519v-23.785h204.06c-3.434 7.253-5.305 15.298-5.27 23.632l.273 64.779c.007 1.545.211 3.056.562 4.523h-189.77c-5.434 0-9.856-4.421-9.856-9.857v-24.152c0-4.153-3.366-7.519-7.519-7.519s-7.519 3.366-7.519 7.519v24.153c0 13.727 11.167 24.894 24.893 24.894h444.025.032c10.65-.045 19.606-9.532 19.559-20.717zm-163.941-78.478c16.496 6.796 35.219 7.196 52.805-.223l.056 13.157c.012 3.017.827 5.865 2.23 8.351-18.152 7.845-38.979 7.932-57.196.241 1.382-2.497 2.173-5.352 2.161-8.369zm-68.109-110.866c1.133-1.57 1.915-3.31 2.342-5.121 5.156 1.074 10.221 2.283 14.831 3.629.014 5.382.03 11.483.045 17.928.027 11.239 1.517 22.435 4.431 33.275.827 3.077 2.737 5.639 5.254 7.321 1.276 12.33 5.954 23.873 13.376 33.241h-85.172l-7.14-42.684 6.169-10.8c3.257 1.028 6.58 1.31 9.979.841 6.249-.862 11.724-4.152 15.415-9.268zm-27.354-10.032c4.164.545 9.167 1.253 14.519 2.121l-19.827 27.475c-1.263 1.749-3.136 2.876-5.274 3.171-2.142.295-4.245-.283-5.934-1.627l-14.518-11.547zm-36.913 48.72-13.99.059-5.809-10.011 12.738-10.253 12.79 10.173zm4.127 51.585h-21.731l5.728-36.497 9.891-.041zm-11.252-90.286-29.111-18.037c1.655-2.666 2.607-5.798 2.593-9.12l-.055-13.158c8.244 3.397 17.044 5.155 26.342 5.22h.052c.039 0 .077 0 .116-.001 9.296-.143 18.081-1.975 26.296-5.441l.055 13.158c.014 3.323.992 6.446 2.67 9.099zm-50.167-186.177c6.277-.026 11.861-4.006 13.892-9.904 1.696-4.921 6.333-8.242 11.54-8.264l47.313-.2h.164c21.074 0 38.266 17.101 38.356 38.197l.115 27.101c-3.423.84-7.471 2.408-11.068 5.331-.2-.001-.411-.006-.631-.014l-.091-21.763c-.058-13.585-11.126-24.595-24.702-24.595-.035 0-.071 0-.106 0l-.202.001c-3.592.015-7.157.58-10.595 1.678-9.579 3.06-19.73 3.044-29.145.122-3.444-1.07-7.029-1.623-10.611-1.588l-.203.001c-13.62.058-24.654 11.185-24.596 24.804l.076 18.108c-3.935-1.242-8.141-1.871-11.729-2.181l-.145-34.362c-.027-6.848 5.521-12.442 12.368-12.472zm-2.912 86.477c-.105-4.078-3.44-7.326-7.516-7.326-.011 0-.022 0-.033 0l-4.12.018c-.005 0-.01 0-.015 0-1.854 0-3.367-1.505-3.375-3.36l-.051-12.072c-.004-.874.315-1.582.752-2.118 6.426.203 13.869 1.534 15.737 3.36 5.992 5.862 16.152 1.629 16.116-6.805l-.116-27.33c-.023-5.329 4.294-9.681 9.626-9.704l.202-.001c2.112-.001 4.109.299 6.088.912 12.512 3.882 25.688 3.83 38.178-.161 1.976-.631 4.022-.956 6.084-.964l.203-.001h.042c5.309 0 9.639 4.308 9.662 9.622l.115 27.33c.005 1.286.429 5.651 5.658 7.811 1.553.641 13.73 3.894 18.823-1.176 2.074-2.063 5.261-2.966 7.517-3.313.381.514.65 1.17.654 1.965l.051 12.071c.008 1.862-1.5 3.382-3.362 3.39l-4.121.018c-4.089.018-7.415 3.3-7.485 7.389-.242 14.069-6.155 27.152-16.223 35.895-2.034 1.766-4.132 3.364-6.287 4.801-9.272 5.788-18.064 9.114-29.936 9.314-13.606-.113-25.862-4.862-36.342-13.809-10.142-8.656-16.165-21.69-16.526-35.756zm8.958 90.053 31.173 19.314-14.468 11.645c-1.678 1.351-3.779 1.942-5.916 1.661-2.137-.279-4.015-1.389-5.29-3.126l-19.999-27.242c5.542-.949 10.595-1.706 14.5-2.252zm-54.476 12.523c6.375-2.87 15.503-5.34 24.82-7.357.442 1.804 1.237 3.534 2.381 5.093l20.653 28.134c3.727 5.076 9.219 8.321 15.463 9.138 3.286.429 6.624.175 9.99-.915l6.264 10.794-6.674 42.522h-96.089l-.215-51.029c-.067-15.667 9.121-29.947 23.407-36.38zm-91.561 148.968c-1.703 0-3.089-1.385-3.089-3.089v-40.343c0-1.703 1.386-3.089 3.089-3.089h314.598l.08 18.775c.005 1.096-.815 2.034-1.905 2.18-.001 0-.002 0-.003 0-15.977 2.142-45.183 6.819-61.308 14.079-6.274 2.825-11.831 6.752-16.494 11.486h-234.968zm474.258 107.972h-235.1-.032-.02c-2.535 0-4.594-2.047-4.605-4.587l-.273-64.778c-.066-15.668 9.122-29.947 23.407-36.38 13.955-6.283 41.1-10.654 54.545-12.533 27.094 15.607 61.057 15.465 88.021-.371 13.458 1.764 40.636 5.905 54.649 12.073 14.339 6.313 23.648 20.514 23.713 36.181l.273 64.779c.01 2.604-2.176 5.599-4.578 5.616z"/></g></g></g></svg>