<svg id="Capa_1" enable-background="new 0 0 512 512" height="512" viewBox="0 0 512 512" width="512" xmlns="http://www.w3.org/2000/svg"><g><g><g><g><path d="m73.465 372.309c-6.973 0-13.689 1.09-19.998 3.095.008.003.016.006.024.008-26.663 8.465-45.991 33.397-45.991 62.862s19.328 54.397 45.991 62.862c-.008.003-.016.006-.024.008 6.309 2.005 13.025 3.095 19.998 3.095 36.432 0 65.965-29.534 65.965-65.965s-29.534-65.965-65.965-65.965z" fill="#fc8086"/><path d="m73.465 372.309c-6.973 0-13.689 1.09-19.998 3.095.008.003.016.006.024.008-3.732 1.185-7.314 2.703-10.726 4.501 20.941 11.054 35.22 33.035 35.22 58.361s-14.28 47.306-35.22 58.361c3.412 1.797 6.994 3.316 10.726 4.501-.008.003-.016.006-.024.008 6.309 2.005 13.025 3.095 19.998 3.095 36.432 0 65.965-29.534 65.965-65.965s-29.534-65.965-65.965-65.965z" fill="#fb636f"/><g><g><g><g><path d="m73.465 442.94c-21.883 0-39.66 18.207-39.997 40.799v6.99c11.096 8.474 24.957 13.51 39.997 13.51s28.901-5.037 39.997-13.51v-6.99c-.337-22.592-18.114-40.799-39.997-40.799z" fill="#fbe77b"/><path d="m77.802 443.187c-1.712 23.235-15.463 43.115-35.037 53.448 3.412 1.797 6.994 3.316 10.726 4.501-.008.003-.016.006-.024.008 6.309 2.005 13.025 3.095 19.998 3.095 15.042 0 28.9-5.045 39.997-13.521v-6.98c-.315-21.078-15.812-38.333-35.66-40.551z" fill="#ffd064"/><ellipse cx="73.465" cy="430.226" fill="#ffece3" rx="21.506" ry="22.231"/><path d="m73.465 407.994c-.93 0-1.844.068-2.743.186 4.638 9.022 7.263 19.249 7.263 30.094 0 4.79-.513 9.459-1.483 13.958 10.438-1.526 18.468-10.795 18.468-22.006.001-12.278-9.628-22.232-21.505-22.232z" fill="#ffddce"/></g></g></g></g></g></g><g><g><path d="m438.535 372.309c-6.973 0-13.689 1.09-19.998 3.095.008.003.016.006.024.008-26.663 8.465-45.991 33.396-45.991 62.862 0 29.465 19.328 54.397 45.991 62.862-.008.003-.016.006-.024.008 6.309 2.005 13.025 3.095 19.998 3.095 36.432 0 65.965-29.534 65.965-65.965s-29.533-65.965-65.965-65.965z" fill="#fc8086"/><path d="m438.535 372.309c-6.973 0-13.689 1.09-19.998 3.095.008.003.016.006.024.008-3.732 1.185-7.314 2.703-10.726 4.501 20.941 11.054 35.22 33.035 35.22 58.361s-14.28 47.306-35.22 58.361c3.412 1.797 6.994 3.316 10.726 4.501-.008.003-.016.006-.024.008 6.309 2.005 13.025 3.095 19.998 3.095 36.432 0 65.965-29.534 65.965-65.965s-29.533-65.965-65.965-65.965z" fill="#fb636f"/><g><g><g><g><path d="m438.535 442.94c-21.883 0-39.66 18.207-39.997 40.799v6.99c11.096 8.474 24.957 13.51 39.997 13.51s28.901-5.037 39.997-13.51v-6.99c-.337-22.592-18.113-40.799-39.997-40.799z" fill="#fbe77b"/><path d="m442.872 443.187c-1.712 23.235-15.463 43.115-35.037 53.448 3.412 1.797 6.994 3.316 10.726 4.501-.008.003-.016.006-.024.008 6.309 2.005 13.025 3.095 19.998 3.095 15.042 0 28.9-5.045 39.997-13.521v-6.98c-.315-21.078-15.812-38.333-35.66-40.551z" fill="#ffd064"/><ellipse cx="438.535" cy="430.226" fill="#ffece3" rx="21.506" ry="22.231"/><path d="m438.535 407.994c-.93 0-1.844.068-2.743.186 4.638 9.022 7.263 19.249 7.263 30.094 0 4.79-.513 9.459-1.483 13.958 10.438-1.526 18.468-10.795 18.468-22.006.001-12.278-9.628-22.232-21.505-22.232z" fill="#ffddce"/></g></g></g></g></g></g><g><g><path d="m256 372.309c-6.973 0-13.689 1.09-19.998 3.095.008.003.016.006.024.008-26.663 8.465-45.991 33.396-45.991 62.862 0 29.465 19.328 54.397 45.991 62.862-.008.003-.016.006-.024.008 6.309 2.005 13.025 3.095 19.998 3.095 36.432 0 65.965-29.534 65.965-65.965s-29.534-65.965-65.965-65.965z" fill="#fc8086"/><path d="m256 372.309c-6.973 0-13.689 1.09-19.998 3.095.008.003.016.006.024.008-3.732 1.185-7.314 2.703-10.726 4.501 20.941 11.054 35.22 33.035 35.22 58.361s-14.28 47.306-35.22 58.361c3.412 1.797 6.994 3.316 10.726 4.501-.008.003-.016.006-.024.008 6.309 2.005 13.025 3.095 19.998 3.095 36.432 0 65.965-29.534 65.965-65.965s-29.534-65.965-65.965-65.965z" fill="#fb636f"/><g><g><g><g><path d="m256 442.94c-21.883 0-39.66 18.207-39.997 40.799v6.99c11.096 8.474 24.957 13.51 39.997 13.51s28.901-5.037 39.997-13.51v-6.99c-.337-22.592-18.114-40.799-39.997-40.799z" fill="#fbe77b"/><path d="m260.337 443.187c-1.712 23.235-15.463 43.115-35.037 53.448 3.412 1.797 6.994 3.316 10.726 4.501-.008.003-.016.006-.024.008 6.309 2.005 13.025 3.095 19.998 3.095 15.042 0 28.9-5.045 39.997-13.521v-6.98c-.315-21.078-15.812-38.333-35.66-40.551z" fill="#ffd064"/><ellipse cx="256" cy="430.226" fill="#ffece3" rx="21.506" ry="22.231"/><path d="m256 407.994c-.93 0-1.844.068-2.743.186 4.638 9.022 7.263 19.249 7.263 30.094 0 4.79-.513 9.459-1.483 13.958 10.438-1.526 18.468-10.795 18.468-22.006.001-12.278-9.628-22.232-21.505-22.232z" fill="#ffddce"/></g></g></g></g></g></g><g><g><g><g><g><g><circle cx="255.906" cy="140.752" fill="#f5f5f5" r="132.992"/></g></g></g></g><path d="m255.906 7.761c-10.575 0-20.86 1.241-30.722 3.573 58.636 13.867 102.269 66.544 102.269 129.418s-43.633 115.551-102.269 129.418c9.862 2.332 20.147 3.573 30.722 3.573 73.449 0 132.992-59.542 132.992-132.991-.001-73.449-59.543-132.991-132.992-132.991z" fill="#eaeaea"/><g><g><g><g><g><g><g><g><g><g><g><g><g><g><g><g><g><g><path d="m286.306 191.442c-3.602-.452-6.311-3.503-6.326-7.134l-.139-33.025-50.46.213.139 33.025c.015 3.631-2.667 6.705-6.266 7.187 0 0-9.317 31.845 31.66 31.672 40.978-.173 31.392-31.938 31.392-31.938z" fill="#ffece3"/><path d="m302.238 105.111-3.052.013-.015-3.584-.036-8.568c-.051-12.097-5.067-23.799-14.267-31.653-7.213-6.158-17.339-11.517-30.685-11.61-13.345.205-23.425 5.649-30.586 11.868-9.134 7.932-14.051 19.675-14 31.772l.036 8.568.015 3.584-3.052.013c-4.475.019-8.087 3.662-8.068 8.137l.038 8.979c.019 4.475 3.662 8.087 8.137 8.068l3.064-.013c.302 11.758 5.291 23.056 14.251 30.705 7.213 6.158 17.339 11.517 30.685 11.61 13.345-.205 23.425-5.649 30.586-11.868 8.895-7.725 13.789-19.064 13.992-30.824l3.064-.013c4.475-.019 8.087-3.662 8.068-8.137l-.038-8.979c-.019-4.474-3.662-8.087-8.137-8.068z" fill="#ffece3"/><g><path d="m310.375 113.18c-.019-4.475-3.662-8.087-8.137-8.068l-3.052.013-.015-3.584-.036-8.568c-.051-12.097-5.067-23.799-14.267-31.653-7.213-6.158-17.339-11.517-30.685-11.61-1.716.026-3.375.142-4.984.332l.081 80.267c-.203 11.76-5.097 23.1-13.992 30.824-1.749 1.519-3.674 2.989-5.776 4.35 6.592 4.262 14.937 7.447 25.19 7.518 13.345-.205 23.425-5.649 30.586-11.868 8.895-7.724 13.789-19.064 13.992-30.824l3.064-.013c4.475-.019 8.087-3.662 8.068-8.137z" fill="#ffddce"/></g><path d="m341.208 208.497c-3.04-3.064-6.671-5.594-10.77-7.398-11.561-5.089-33.388-8.309-44.132-9.657l-31.442 19.851-31.609-19.585c-10.733 1.439-32.532 4.843-44.049 10.029-.473.213-.94.436-1.4.668-11.376 5.737-18.077 17.846-17.706 30.578 24.193 25.125 58.172 40.761 95.805 40.761 36.915 0 70.313-15.044 94.409-39.331.022-.696.052-1.376.069-2.085.214-8.841-2.946-17.552-9.175-23.831z" fill="#8c9ba6"/><path d="m350.383 232.329c.214-8.842-2.946-17.552-9.175-23.831-3.04-3.064-6.671-5.594-10.77-7.398-4.086-1.798-9.455-3.362-15.162-4.694-16.908 36.639-49.989 64.281-90.093 73.765 9.862 2.332 20.147 3.573 30.722 3.573 37.386 0 71.163-15.433 95.325-40.269-.539-.663-.849-1.076-.847-1.146z" fill="#7c8b96"/></g></g></g></g></g></g><path d="m271.606 46.969-35.191.148c-6.411.027-11.845 4.152-13.835 9.883-.739 2.129-2.661 3.619-4.915 3.629l-.165.001c-8.19.035-14.801 6.702-14.766 14.891l.13 30.921s11.073-.178 16.258 3.187c.903.586 2.008.767 3.065.566l.056-.011c2.046-.389 3.523-2.181 3.514-4.263l-.083-19.707c-.023-5.418 4.347-9.831 9.765-9.861l.132-.001c2.219-.009 4.414.341 6.505 1.024 3.371 1.102 6.863 1.791 10.409 1.777l1.734-.007c4.17-.018 8.349-.543 12.302-1.872 2.085-.701 4.277-1.07 6.496-1.079 5.428-.03 9.851 4.35 9.874 9.778l.083 19.689c.009 2.079 1.497 3.857 3.542 4.232 1.092.2 2.209-.039 3.144-.64 5.214-3.352 16.318-3.246 16.318-3.246l-.106-25.061c-.079-18.844-15.42-34.057-34.266-33.978z" fill="#aa8080"/><g><path d="m305.873 80.948c-.08-18.845-15.421-34.058-34.266-33.978l-22.411.094.032 31.905c1.08.12 2.166.19 3.258.185l1.734-.007c4.17-.018 8.349-.543 12.302-1.872 2.085-.701 4.277-1.07 6.496-1.079 5.428-.03 9.851 4.35 9.874 9.778l.083 19.689c.009 2.079 1.497 3.857 3.542 4.232 1.092.2 2.209-.039 3.144-.64 5.214-3.352 16.318-3.246 16.318-3.246z" fill="#9d6b6b"/></g></g><g fill="#7c8b96"><path d="m201.461 195.33 19.081 27.62c4.236 6.132 12.874 7.196 18.472 2.275l15.85-13.933-31.609-19.585c-5.38.722-13.541 1.937-21.794 3.623z"/><path d="m308.13 194.881-18.903 27.824c-4.195 6.174-12.841 7.298-18.475 2.401l-15.889-13.812 31.442-19.851c5.387.675 13.559 1.821 21.825 3.438z"/></g></g><path d="m235.145 272.132c6.765 1.061 13.698 1.612 20.761 1.612 6.489 0 12.865-.474 19.105-1.372l-10.046-31.288-20.018.084z" fill="#fc8086"/><path d="m235.146 272.127c6.764 1.062 13.697 1.617 20.759 1.617 6.41 0 12.714-.454 18.882-1.331.074-.017.149-.031.223-.042l-6.738-20.984c-9.666 6.462-20.226 11.69-31.456 15.46z" fill="#fb636f"/></g></g></g></g></g></g></g></g></g><g><path d="m270.439 224.832-15.575-13.54s-15.454 13.597-15.486 13.613l5.568 16.263 20.018-.084s5.511-16.234 5.475-16.252z" fill="#fb636f"/></g></g></g></g></g><g><g><g><g><path d="m505.592 447.247c-4.021-1.002-8.095 1.44-9.102 5.461-1.995 7.98-5.572 15.218-10.34 21.428-2.657-12.532-9.992-23.508-20.433-30.532 1.93-3.98 3.022-8.46 3.022-13.199 0-16.409-13.024-29.759-29.033-29.759s-29.034 13.349-29.034 29.759c0 4.738 1.091 9.218 3.022 13.199-10.415 7.006-17.74 17.946-20.413 30.44-7.581-9.868-12.103-22.204-12.103-35.582 0-32.273 26.255-58.528 58.528-58.528 25.608 0 48.654 17.105 56.042 41.594 1.197 3.968 5.382 6.213 9.353 5.018 3.968-1.197 6.215-5.385 5.018-9.353-4.468-14.806-13.76-28.115-26.166-37.474-10.822-8.163-23.402-13.066-36.742-14.406v-38.909c0-10.13-8.241-18.37-18.37-18.37h-164.448v-26.968c74.137-3.917 133.129-65.494 133.129-140.432 0-77.546-63.088-140.634-140.634-140.634-69.351 0-128.636 50.742-139.038 119.394-.621 4.098 2.198 7.924 6.295 8.545 4.103.618 7.924-2.199 8.545-6.295 9.184-60.608 61.548-106.634 124.198-106.634 69.269 0 125.624 56.355 125.624 125.624 0 28.78-9.736 55.326-26.077 76.532-1.933-5.262-4.92-10.063-8.828-14.003-9.108-9.181-21.828-14.503-59.115-19.203l-.063-14.993c10.907-8.369 16.952-19.643 18.803-31.781 2.704-.691 5.181-2.102 7.197-4.135 2.937-2.962 4.546-6.891 4.527-11.061l-.037-8.99c-.018-4.119-1.641-7.959-4.417-10.808l-.09-21.456c-.098-22.914-18.767-41.486-41.659-41.486-.058 0-.119 0-.179 0l-35.227.149c-8.928.037-16.946 5.435-20.386 13.578-11.635.791-20.853 10.492-20.805 22.391l.115 27.324c-2.752 2.873-4.342 6.727-4.324 10.846l.038 8.987c.03 7.29 5.077 13.408 11.851 15.091 1.937 12.036 8.021 23.294 19.071 31.628l.064 14.992c-12.987 1.749-35.969 5.516-47.642 11.414-8.633 4.353-15.222 11.793-18.815 20.659-13.142-17.416-21.878-38.441-24.463-61.534-.461-4.12-4.183-7.085-8.293-6.622-4.12.461-7.085 4.174-6.623 8.292 7.696 68.744 63.984 121.032 132.249 124.618v26.971h-164.259c-10.13 0-18.37 8.241-18.37 18.37v38.899c-37.037 3.771-66.033 35.142-66.033 73.158 0 40.533 33.006 73.539 73.538 73.539 40.384 0 73.538-32.897 73.538-73.538 0-38.016-28.996-69.387-66.033-73.158v-38.899c0-1.853 1.508-3.361 3.361-3.361h164.258v42.26c-37.037 3.771-66.033 35.142-66.033 73.158 0 40.532 33.006 73.538 73.538 73.538 40.384 0 73.538-32.897 73.538-73.538 0-38.016-28.996-69.387-66.033-73.158v-42.26h164.448c1.853 0 3.361 1.508 3.361 3.361v38.899c-37.037 3.771-66.033 35.142-66.033 73.158 0 40.555 33.047 73.538 73.538 73.538 33.816 0 63.154-22.885 71.346-55.651 1.003-4.022-1.442-8.097-5.462-9.102zm-270.292-227.932-.276.242c-1.455 1.277-3.057 1.299-3.884 1.197-.826-.102-2.376-.51-3.477-2.104l-12.495-18.086c2.385-.387 4.842-.762 7.381-1.12l20.739 12.849-7.887 6.934c-.034.03-.068.059-.101.088zm53.741-20.15c2.539.336 4.996.69 7.381 1.057l-12.385 18.23c-1.091 1.606-2.639 2.026-3.466 2.133-.822.107-2.431.097-3.896-1.176l-8.288-7.205zm-37.768 34.461-2.202-6.431 6.802-5.98 6.862 5.965c-.641 1.902-1.41 4.177-2.165 6.406zm.148 15.009 9.071-.038 5.563 17.325c-6.592.478-13.126.458-20.062-.137zm85.53-34.901c4.399 4.434 6.92 10.716 7.01 17.362-17.042 16.409-38.692 28.059-62.793 32.798l-7.308-22.761c.603-1.777 1.912-5.643 2.009-5.932 2.161.45 4.311.572 6.637.269 5.658-.736 10.741-3.864 13.948-8.583l16.104-23.703c9.711 2.145 18.176 4.283 24.393 10.55zm-118.465-145.8.155-.001c5.372-.023 10.184-3.511 11.977-8.676 1.003-2.889 3.732-4.837 6.792-4.85l35.227-.149h.001.114c14.643 0 26.588 11.882 26.65 26.54l.076 18.008c-2.533.317-5.362.848-8.009 1.734l-.063-14.773c-.04-9.561-7.794-17.262-17.323-17.262-.033 0-.066 0-.1 0-8.004.036-9.38 2.914-18.818 2.954l-1.733.008c-.027 0-.054 0-.081 0-6.738 0-8.734-2.766-16.875-2.804l-.117.001c-9.545.052-17.279 7.861-17.24 17.408l.064 14.81c-2.623-.866-5.416-1.379-7.917-1.681l-.101-23.897c-.015-4.041 3.233-7.354 7.321-7.37zm-.282 62.429c-.104-4.07-3.434-7.312-7.501-7.312-.012 0-.023 0-.034 0l-3.065.014c-.001 0-.002 0-.002 0-.334 0-.606-.27-.607-.604l-.036-8.579c3.418.225 7.435.862 9.025 1.893 7.62 4.945 18.273-.482 18.232-10.04l-.084-19.727c-.006-1.28 1.032-2.328 2.327-2.335l.109-.001h.058c4.376 0 7.986 2.804 16.736 2.804h.139l1.733-.008c11.45-.048 14.151-2.935 18.828-2.954h.015c1.272 0 2.318 1.024 2.323 2.315l.083 19.708c.024 5.688 4.102 10.562 9.692 11.586 2.957.546 6.001-.062 8.562-1.707 1.536-.987 5.477-1.701 9.177-1.955l.035 8.593c.002.333-.27.606-.603.607l-3.067.013c-4.082.017-7.402 3.294-7.473 7.375-.365 21.2-18.271 35.034-37.15 35.361-18.775-.167-36.905-13.739-37.452-35.047zm37.429 50.057h.051c.039 0 .078 0 .117-.001 6.111-.094 12.037-1.194 17.653-3.221l.03 7.068c.01 2.169.506 4.235 1.373 6.103l-19.048 12.025-19.149-11.864c.852-1.875 1.331-3.946 1.322-6.115l-.03-7.067c5.633 1.98 11.569 3.03 17.681 3.072zm-73.546 28.631c4.574-2.312 11.979-4.239 16.978-5.388l16.248 23.519c3.237 4.687 8.337 7.774 13.991 8.47 2.327.288 4.491.151 6.686-.327l2.027 5.918-7.069 22.333c-23.966-5.019-45.512-16.862-62.391-33.517.632-9.016 5.74-17.08 13.53-21.008zm-140.36 278.038c.136-.546-2.091-20.943 16.39-31.962 4.619 3.179 10.173 5.037 16.143 5.037s11.523-1.858 16.142-5.038c18.136 10.814 16.324 31.696 16.391 31.962-9.31 6.249-20.502 9.901-32.533 9.901s-23.223-3.651-32.533-9.9zm32.533-41.934c-7.733 0-14.024-6.617-14.024-14.75 0-8.132 6.291-14.749 14.024-14.749s14.023 6.617 14.023 14.749c0 8.133-6.291 14.75-14.023 14.75zm58.528-6.693c0 13.378-4.522 25.714-12.104 35.583-2.673-12.495-9.998-23.435-20.413-30.441 1.93-3.98 3.021-8.46 3.021-13.199 0-16.409-13.024-29.759-29.033-29.759s-29.034 13.349-29.034 29.759c0 4.738 1.091 9.218 3.022 13.199-10.415 7.006-17.74 17.946-20.413 30.441-7.582-9.868-12.104-22.204-12.104-35.583 0-32.273 26.255-58.528 58.528-58.528s58.53 26.255 58.53 58.528zm91.567 48.627c.136-.547-2.091-20.942 16.391-31.962 4.619 3.179 10.173 5.038 16.142 5.038 5.97 0 11.523-1.858 16.142-5.038 18.136 10.814 16.324 31.696 16.391 31.962-9.31 6.249-20.502 9.901-32.533 9.901s-23.223-3.652-32.533-9.901zm32.533-41.934c-7.733 0-14.023-6.617-14.023-14.75 0-8.132 6.29-14.749 14.023-14.749s14.023 6.617 14.023 14.749c0 8.133-6.29 14.75-14.023 14.75zm58.529-6.693c0 13.378-4.522 25.714-12.104 35.583-2.673-12.495-9.998-23.435-20.413-30.441 1.93-3.98 3.021-8.46 3.021-13.199 0-16.409-13.024-29.759-29.033-29.759s-29.033 13.349-29.033 29.759c0 4.738 1.091 9.218 3.021 13.199-10.416 7.006-17.741 17.947-20.413 30.441-7.582-9.869-12.104-22.204-12.104-35.583 0-32.273 26.255-58.528 58.528-58.528s58.53 26.255 58.53 58.528zm124.289-22.806c7.733 0 14.023 6.617 14.023 14.749 0 8.133-6.29 14.75-14.023 14.75s-14.024-6.617-14.024-14.75c.001-8.132 6.292-14.749 14.024-14.749zm-32.533 71.432c.136-.546-2.089-20.942 16.391-31.961 4.619 3.179 10.173 5.037 16.143 5.037s11.523-1.858 16.142-5.038c18.173 10.837 16.324 31.757 16.391 32.024-9.375 6.255-20.601 9.84-32.533 9.84-12.032 0-23.224-3.652-32.534-9.902z"/></g></g></g></g></g></svg>