<svg id="Capa_1" enable-background="new 0 0 512 512" height="512" viewBox="0 0 512 512" width="512" xmlns="http://www.w3.org/2000/svg"><g><g><g><g><path d="m448.872 75.558v39.995c0 20.608 10.621 23.682 31.768 23.682 13.12 0 23.86-10.165 23.86-23.199v-30.58c0-5.466-4.431-9.898-9.898-9.898z" fill="#e7ecf1"/><path d="m458.084 116.036v-72.389c-.424-12.445-10.64-22.405-23.188-22.405-32.42 0-32.42 30.057-32.42 38.502v79.501h78.816c-12.817-.001-23.208-10.392-23.208-23.209z" fill="#f4f8f8"/></g><g><g><g><g><g><g><g><g><g><path d="m441.563 490.758h-401.002c-18.259 0-33.061-14.802-33.061-33.061v-321.157c0-18.259 14.802-33.061 33.061-33.061h401.003c18.259 0 33.06 14.802 33.06 33.061v321.158c0 18.259-14.802 33.06-33.061 33.06z" fill="#8c9ba6"/></g></g><path d="m441.563 103.479h-61.445c18.259 0 33.061 14.802 33.061 33.061v321.158c0 18.259-14.802 33.061-33.061 33.061h61.445c18.259 0 33.061-14.802 33.061-33.061v-321.158c0-18.259-14.802-33.061-33.061-33.061z" fill="#7c8b96"/><g fill="#586b76"><g><path d="m248.896 294.949h-15.547c-9.5 0-17.202-7.702-17.202-17.202 0-9.5 7.702-17.202 17.202-17.202h15.547c9.5 0 17.202 7.702 17.202 17.202 0 9.5-7.702 17.202-17.202 17.202z"/><path d="m334.388 294.949h-15.547c-9.5 0-17.202-7.702-17.202-17.202 0-9.5 7.702-17.202 17.202-17.202h15.547c9.5 0 17.202 7.702 17.202 17.202 0 9.5-7.701 17.202-17.202 17.202z"/><path d="m419.881 294.949h-15.547c-9.5 0-17.202-7.702-17.202-17.202 0-9.5 7.702-17.202 17.202-17.202h15.547c9.5 0 17.202 7.702 17.202 17.202 0 9.5-7.702 17.202-17.202 17.202z"/></g><g><path d="m248.896 360.73h-15.547c-9.5 0-17.202-7.702-17.202-17.202 0-9.5 7.702-17.202 17.202-17.202h15.547c9.5 0 17.202 7.702 17.202 17.202 0 9.501-7.702 17.202-17.202 17.202z"/><path d="m334.388 360.73h-15.547c-9.5 0-17.202-7.702-17.202-17.202 0-9.5 7.702-17.202 17.202-17.202h15.547c9.5 0 17.202 7.702 17.202 17.202 0 9.501-7.701 17.202-17.202 17.202z"/><path d="m419.881 360.73h-15.547c-9.5 0-17.202-7.702-17.202-17.202 0-9.5 7.702-17.202 17.202-17.202h15.547c9.5 0 17.202 7.702 17.202 17.202 0 9.501-7.702 17.202-17.202 17.202z"/></g><g><path d="m248.896 426.512h-15.547c-9.5 0-17.202-7.702-17.202-17.202 0-9.5 7.702-17.202 17.202-17.202h15.547c9.5 0 17.202 7.702 17.202 17.202 0 9.5-7.702 17.202-17.202 17.202z"/><path d="m334.388 426.512h-15.547c-9.5 0-17.202-7.702-17.202-17.202 0-9.5 7.702-17.202 17.202-17.202h15.547c9.5 0 17.202 7.702 17.202 17.202 0 9.5-7.701 17.202-17.202 17.202z"/><path d="m419.881 426.512h-15.547c-9.5 0-17.202-7.702-17.202-17.202 0-9.5 7.702-17.202 17.202-17.202h15.547c9.5 0 17.202 7.702 17.202 17.202 0 9.5-7.702 17.202-17.202 17.202z"/></g></g></g></g></g><path d="m170.869 132.812v-42.361c0-19.004-15.406-34.409-34.409-34.409h-52.256c-19.004 0-34.409 15.406-34.409 34.409v42.361c0 6.758 1.452 13.437 4.259 19.585 2.806 6.148 4.259 12.827 4.259 19.585v156.788c0 6.758-1.452 13.437-4.259 19.585-2.806 6.148-4.259 12.827-4.259 19.585v42.361c0 19.004 15.406 34.409 34.409 34.409h52.255c19.004 0 34.409-15.406 34.409-34.409v-42.361c0-6.758-1.452-13.438-4.259-19.585-2.807-6.148-4.259-12.827-4.259-19.585v-156.787c0-6.758 1.452-13.437 4.259-19.585 2.807-6.149 4.26-12.828 4.26-19.586z" fill="#7c8b96"/><path d="m170.869 367.942c0-6.758-1.453-13.438-4.259-19.586-2.807-6.148-4.259-12.827-4.259-19.585v-156.788c0-6.758 1.452-13.438 4.259-19.585 2.807-6.148 4.259-12.827 4.259-19.585v-42.362c0-19.004-15.406-34.409-34.41-34.409h-52.255c-1.575 0-3.123.115-4.642.32 16.807 2.268 29.767 16.661 29.767 34.089v42.361c0 6.758-1.452 13.437-4.259 19.585-2.806 6.148-4.259 12.827-4.259 19.585v156.788c0 6.758 1.453 13.438 4.259 19.586 2.807 6.147 4.259 12.827 4.259 19.585v42.361c0 17.428-12.96 31.821-29.768 34.089 1.519.205 3.067.321 4.642.321h52.255c19.004 0 34.41-15.406 34.41-34.41v-42.36z" fill="#586b76"/></g></g><path d="m426.815 216.808h-200.4c-5.671 0-10.268-4.597-10.268-10.268v-34.675c0-5.671 4.597-10.268 10.268-10.268h200.4c5.671 0 10.268 4.597 10.268 10.268v34.675c0 5.671-4.598 10.268-10.268 10.268z" fill="#586b76"/><g><g><g><g><g><path d="m411.688 44.45c0-12.817 10.391-23.208 23.208-23.208h-167.127c-13.669 0-24.749 11.081-24.749 24.749v170.817h168.668z" fill="#f4f8f8"/></g></g></g></g></g><path d="m373.396 21.242c-12.817 0-23.208 10.391-23.208 23.208v172.358h61.5v-172.358c0-12.817 10.391-23.208 23.208-23.208z" fill="#e7ecf1"/></g></g></g></g><g><g><g><path d="m291.139 75.09h76.229c4.138 0 7.491-3.353 7.491-7.491s-3.353-7.491-7.491-7.491h-76.229c-4.138 0-7.491 3.353-7.491 7.491s3.353 7.491 7.491 7.491z"/><path d="m291.139 119.031h76.229c4.138 0 7.491-3.353 7.491-7.491s-3.353-7.491-7.491-7.491h-76.229c-4.138 0-7.491 3.353-7.491 7.491s3.353 7.491 7.491 7.491z"/><path d="m291.139 162.971h76.229c4.138 0 7.491-3.353 7.491-7.491s-3.353-7.491-7.491-7.491h-76.229c-4.138 0-7.491 3.353-7.491 7.491 0 4.137 3.353 7.491 7.491 7.491z"/><path d="m248.895 253.053h-15.547c-13.616 0-24.693 11.078-24.693 24.693 0 13.617 11.078 24.694 24.693 24.694h15.547c13.617 0 24.694-11.078 24.694-24.694 0-13.615-11.078-24.693-24.694-24.693zm0 34.405h-15.547c-5.355 0-9.711-4.357-9.711-9.712s4.356-9.711 9.711-9.711h15.547c5.355 0 9.712 4.356 9.712 9.711s-4.357 9.712-9.712 9.712z"/><path d="m334.391 253.053h-15.548c-13.616 0-24.693 11.078-24.693 24.693 0 13.617 11.078 24.694 24.693 24.694h15.548c13.616 0 24.693-11.078 24.693-24.694 0-13.615-11.077-24.693-24.693-24.693zm0 34.405h-15.548c-5.355 0-9.711-4.357-9.711-9.712s4.356-9.711 9.711-9.711h15.548c5.355 0 9.711 4.356 9.711 9.711s-4.356 9.712-9.711 9.712z"/><path d="m419.887 253.053h-15.548c-13.616 0-24.693 11.078-24.693 24.693 0 13.617 11.078 24.694 24.693 24.694h15.548c13.616 0 24.693-11.078 24.693-24.694 0-13.615-11.078-24.693-24.693-24.693zm0 34.405h-15.548c-5.355 0-9.711-4.357-9.711-9.712s4.356-9.711 9.711-9.711h15.548c5.355 0 9.711 4.356 9.711 9.711s-4.357 9.712-9.711 9.712z"/><path d="m248.895 318.837h-15.547c-13.616 0-24.693 11.078-24.693 24.694s11.078 24.693 24.693 24.693h15.547c13.617 0 24.694-11.078 24.694-24.693 0-13.616-11.078-24.694-24.694-24.694zm0 34.405h-15.547c-5.355 0-9.711-4.356-9.711-9.711s4.356-9.712 9.711-9.712h15.547c5.355 0 9.712 4.357 9.712 9.712s-4.357 9.711-9.712 9.711z"/><path d="m334.391 318.837h-15.548c-13.616 0-24.693 11.078-24.693 24.694s11.078 24.693 24.693 24.693h15.548c13.616 0 24.693-11.078 24.693-24.693 0-13.616-11.077-24.694-24.693-24.694zm0 34.405h-15.548c-5.355 0-9.711-4.356-9.711-9.711s4.356-9.712 9.711-9.712h15.548c5.355 0 9.711 4.357 9.711 9.712s-4.356 9.711-9.711 9.711z"/><path d="m419.887 318.837h-15.548c-13.616 0-24.693 11.078-24.693 24.694s11.078 24.693 24.693 24.693h15.548c13.616 0 24.693-11.078 24.693-24.693 0-13.616-11.078-24.694-24.693-24.694zm0 34.405h-15.548c-5.355 0-9.711-4.356-9.711-9.711s4.356-9.712 9.711-9.712h15.548c5.355 0 9.711 4.357 9.711 9.712s-4.357 9.711-9.711 9.711z"/><path d="m248.895 384.622h-15.547c-13.616 0-24.693 11.078-24.693 24.693 0 13.617 11.078 24.694 24.693 24.694h15.547c13.617 0 24.694-11.078 24.694-24.694s-11.078-24.693-24.694-24.693zm0 34.405h-15.547c-5.355 0-9.711-4.357-9.711-9.712s4.356-9.711 9.711-9.711h15.547c5.355 0 9.712 4.356 9.712 9.711s-4.357 9.712-9.712 9.712z"/><path d="m334.391 384.622h-15.548c-13.616 0-24.693 11.078-24.693 24.693 0 13.617 11.078 24.694 24.693 24.694h15.548c13.616 0 24.693-11.078 24.693-24.694s-11.077-24.693-24.693-24.693zm0 34.405h-15.548c-5.355 0-9.711-4.357-9.711-9.712s4.356-9.711 9.711-9.711h15.548c5.355 0 9.711 4.356 9.711 9.711s-4.356 9.712-9.711 9.712z"/><path d="m419.887 384.622h-15.548c-13.616 0-24.693 11.078-24.693 24.693 0 13.617 11.078 24.694 24.693 24.694h15.548c13.616 0 24.693-11.078 24.693-24.694s-11.078-24.693-24.693-24.693zm0 34.405h-15.548c-5.355 0-9.711-4.357-9.711-9.712s4.356-9.711 9.711-9.711h15.548c5.355 0 9.711 4.356 9.711 9.711s-4.357 9.712-9.711 9.712z"/><path d="m494.611 68.06h-29.029v-24.422c0-.085-.001-.17-.004-.255-.566-16.622-14.04-29.641-30.675-29.641h-167.133c-17.778 0-32.241 14.463-32.241 32.241v4.098c0 4.138 3.353 7.491 7.491 7.491s7.491-3.353 7.491-7.491v-4.098c0-9.517 7.742-17.259 17.259-17.259h140.767c-2.908 4.871-4.333 10.359-4.333 15.718v164.873h-153.693v-124.213c0-4.138-3.353-7.491-7.491-7.491s-7.491 3.353-7.491 7.491v10.88h-57.172v-5.536c0-23.105-18.797-41.902-41.902-41.902h-52.257c-23.105 0-41.902 18.797-41.902 41.902v5.536h-1.744c-22.361-.001-40.552 18.192-40.552 40.552v321.171c0 22.361 18.191 40.553 40.552 40.553h401.018c22.361 0 40.553-18.192 40.553-40.553v-311.027c16.589-.76 29.877-14.25 29.877-30.648v-30.581c0-9.588-7.801-17.389-17.389-17.389zm-44.011-24.283v53.23c-2.906-.664-5.926-1.026-9.03-1.026h-22.384v-51.54c0-8.646 7.056-15.718 15.718-15.718 8.476.001 15.349 6.603 15.696 15.054zm-31.415 125.306h7.635c1.531 0 2.777 1.247 2.777 2.778v34.676c0 1.531-1.246 2.777-2.777 2.777h-7.635zm-192.771 40.232c-1.531 0-2.777-1.246-2.777-2.777v-34.676c0-1.531 1.246-2.778 2.777-2.778h9.115v40.231zm215.156 273.961h-401.018c-14.099 0-25.57-11.471-25.57-25.571v-321.171c0-14.1 11.471-25.571 25.57-25.571h1.744v21.843c0 19.698 8.518 23.174 8.518 39.173v61.905c0 4.138 3.353 7.491 7.491 7.491s7.491-3.353 7.491-7.491v-61.905c0-19.698-8.518-23.174-8.518-39.173v-42.361c0-14.844 12.076-26.92 26.92-26.92h52.257c14.844 0 26.92 12.076 26.92 26.92v42.361c0 16.162-8.519 19.266-8.519 39.173v156.794c0 19.704 8.519 23.171 8.519 39.172v42.362c0 14.844-12.076 26.92-26.92 26.92h-52.257c-14.844 0-26.92-12.076-26.92-26.92v-42.362c0-16.156 8.518-19.266 8.518-39.172v-59.868c0-4.138-3.353-7.491-7.491-7.491s-7.491 3.353-7.491 7.491v59.868c0 16.158-8.518 19.263-8.518 39.172v42.362c0 23.105 18.797 41.902 41.902 41.902h52.257c23.105 0 41.902-18.797 41.902-41.902v-42.362c0-19.704-8.519-23.171-8.519-39.172v-156.794c0-16.159 8.519-19.267 8.519-39.173v-21.843h57.172v43.138h-9.115c-9.792 0-17.759 7.967-17.759 17.76v34.676c0 9.792 7.967 17.759 17.759 17.759h200.407c9.792 0 17.759-7.967 17.759-17.759v-34.676c0-9.793-7.967-17.76-17.759-17.76h-7.635v-43.138h22.384c14.1 0 25.571 11.471 25.571 25.571v321.171c0 14.1-11.471 25.571-25.571 25.571zm55.448-367.246c0 8.406-6.595 15.083-15.196 15.649-1.365-11.375-7.448-21.315-16.24-27.798v-20.839h29.029c1.328 0 2.407 1.08 2.407 2.407z"/></g></g></g></g></svg>