<svg id="Capa_1" enable-background="new 0 0 512 512" height="512" viewBox="0 0 512 512" width="512" xmlns="http://www.w3.org/2000/svg"><g><g><g><g><g><g><path d="m241.055 338.331h29.89v95.773h-29.89z" fill="#dae4ea"/><g><g><g><g><path d="m422.433 363.362h-332.867c-13.33 0-24.175-10.845-24.175-24.175v-47.369c0-7.731 6.267-13.998 13.998-13.998s13.998 6.267 13.998 13.998v43.547h325.226v-43.547c0-7.731 6.267-13.998 13.998-13.998s13.998 6.267 13.998 13.998v47.369c0 13.331-10.845 24.175-24.176 24.175z" fill="#dae4ea"/></g><g><path d="m228.854 238.461h54.291v94.897h-54.291z" fill="#dae4ea"/><path d="m320.26 260.441h-128.52c-36.172 0-64.565-31.01-61.384-67.041l11.45-129.696c2.808-31.81 29.451-56.204 61.384-56.204h105.62c31.933 0 58.576 24.394 61.384 56.203l11.45 129.696c3.18 36.033-25.212 67.042-61.384 67.042z" fill="#7c8b96"/><path d="m381.643 193.4-11.45-129.696c-2.808-31.81-29.45-56.204-61.383-56.204h-61.445c31.933 0 58.576 24.394 61.384 56.203l11.45 129.696c3.181 36.032-25.212 67.041-61.384 67.041h61.445c36.172.001 64.564-31.008 61.383-67.04z" fill="#586b76"/><path d="m385.798 363.362h-259.597c-4.878 0-8.832-3.954-8.832-8.832 0-22.771 18.46-41.23 41.23-41.23h194.8c22.771 0 41.23 18.46 41.23 41.23.001 4.878-3.953 8.832-8.831 8.832z" fill="#7c8b96"/><path d="m353.4 313.3h-61.445c22.771 0 41.23 18.459 41.23 41.23v8.832h52.613c4.878 0 8.832-3.954 8.832-8.832 0-22.77-18.459-41.23-41.23-41.23z" fill="#586b76"/></g></g></g></g><g><circle cx="256" cy="485.619" fill="#7c8b96" r="18.881"/></g><g fill="#7c8b96"><circle cx="147.372" cy="485.619" r="18.881"/><circle cx="364.627" cy="485.619" r="18.881"/></g></g><g><g><path d="m417.219 309.275h32.341c12.803 0 23.182-10.379 23.182-23.182v-7.147c0-5.361-4.346-9.707-9.707-9.707h-45.817c-5.361 0-9.707 4.346-9.707 9.707v20.623c.001 5.36 4.347 9.706 9.708 9.706z" fill="#7c8b96"/></g><g><path d="m94.781 309.275h-32.341c-12.803 0-23.182-10.379-23.182-23.182v-7.147c0-5.361 4.346-9.707 9.707-9.707h45.817c5.361 0 9.707 4.346 9.707 9.707v20.623c-.001 5.36-4.347 9.706-9.708 9.706z" fill="#7c8b96"/></g></g></g></g></g></g><g><g><g><path d="m317.83 86.54c4.142 0 7.499-3.357 7.499-7.499s-3.358-7.499-7.499-7.499h-123.66c-4.142 0-7.499 3.357-7.499 7.499s3.358 7.499 7.499 7.499z"/><path d="m183.035 129.209c0 4.142 3.358 7.499 7.499 7.499h130.931c4.142 0 7.499-3.357 7.499-7.499s-3.358-7.499-7.499-7.499h-130.93c-4.142 0-7.5 3.357-7.5 7.499z"/><path d="m178.946 185.646c0 4.142 3.358 7.499 7.499 7.499h139.109c4.142 0 7.499-3.357 7.499-7.499s-3.358-7.499-7.499-7.499h-139.108c-4.142 0-7.5 3.357-7.5 7.499z"/><path d="m463.036 261.739h-45.817c-9.488 0-17.206 7.719-17.206 17.207v20.622c0 7.336 4.623 13.596 11.101 16.067v12.232h-16.957c-8.715-13.276-23.725-22.067-40.757-22.067h-62.755v-37.86h29.615c40.544 0 72.419-34.825 68.854-75.2l-11.45-129.697c-3.147-35.65-33.004-63.043-68.854-63.043h-105.621c-35.789 0-65.702 27.332-68.854 63.044l-2.062 23.352c-.364 4.126 2.685 7.765 6.811 8.129 4.134.377 7.766-2.684 8.13-6.811l2.062-23.352c2.465-27.92 25.847-49.363 53.913-49.363h105.621c28.025 0 51.444 21.402 53.914 49.363l11.449 129.697c2.775 31.428-21.86 58.883-53.913 58.883h-128.52c-31.551 0-56.732-26.954-53.914-58.883l6.261-70.916c.364-4.126-2.685-7.765-6.811-8.129-4.128-.375-7.766 2.684-8.13 6.811l-6.261 70.916c-3.565 40.386 28.322 75.2 68.854 75.2h29.615v37.86h-62.754c-17.033 0-32.043 8.791-40.757 22.067h-16.956v-12.232c6.478-2.471 11.101-8.731 11.101-16.067v-20.622c0-9.488-7.719-17.207-17.206-17.207h-45.818c-9.488 0-17.206 7.719-17.206 17.207v7.147c0 15.373 11.365 28.139 26.134 30.343v22.753c0 17.464 14.209 31.673 31.674 31.673h143.99v55.744h-60.066c-18.537 0-33.617 15.081-33.617 33.617v.1c-10.366 3.06-18.318 12.438-18.853 24.087-.667 14.529 10.611 26.894 25.142 27.563 14.628.661 26.899-10.695 27.563-25.142.58-12.623-7.726-23.233-18.853-26.51v-.097c0-10.267 8.352-18.619 18.619-18.619h75.011v18.719c-10.369 3.062-18.318 12.439-18.853 24.086-.667 14.529 10.611 26.894 25.142 27.563 14.654.662 26.9-10.723 27.563-25.142 0 0 0 0 0-.001.58-12.622-7.726-23.233-18.853-26.51v-18.716h75.01c10.266 0 18.619 8.352 18.619 18.619v.1c-10.369 3.061-18.318 12.44-18.853 24.086-.667 14.529 10.611 26.894 25.142 27.563 14.628.661 26.899-10.695 27.563-25.142.58-12.623-7.726-23.233-18.853-26.51v-.097c0-18.537-15.081-33.617-33.617-33.617h-60.065v-55.744h21.852c4.142 0 7.499-3.357 7.499-7.499s-3.358-7.499-7.499-7.499h-174.098c-.734 0-1.332-.598-1.332-1.332 0-18.6 15.132-33.732 33.731-33.732h194.8c18.6 0 33.731 15.132 33.731 33.732 0 .734-.598 1.332-1.332 1.332h-50.437c-4.142 0-7.499 3.357-7.499 7.499s3.358 7.499 7.499 7.499h87.072c17.465 0 31.675-14.209 31.675-31.673v-22.753c14.769-2.204 26.134-14.97 26.134-30.343v-7.147c-.001-9.489-7.719-17.208-17.207-17.208zm-304.295 224.404c-.288 6.269-5.636 11.106-11.891 10.847-6.269-.288-11.135-5.624-10.847-11.893.281-6.12 5.326-10.858 11.356-10.858 6.52-.001 11.68 5.423 11.382 11.904zm108.628-.001c-.288 6.27-5.612 11.126-11.891 10.848-6.27-.288-11.136-5.624-10.848-11.892.281-6.106 5.312-10.859 11.356-10.859 6.582-.001 11.678 5.488 11.383 11.903zm108.628.001c-.288 6.269-5.631 11.106-11.891 10.847-6.269-.288-11.135-5.624-10.847-11.893.281-6.12 5.326-10.858 11.356-10.858 6.583-.001 11.677 5.489 11.382 11.904zm-112.551-59.538h-14.891v-55.744h14.891zm-216.689-140.513v-7.147c0-1.218.99-2.208 2.207-2.208h45.817c1.217 0 2.207.99 2.207 2.208v20.622c0 1.218-.99 2.208-2.207 2.208h-32.342c-8.647.001-15.682-7.035-15.682-15.683zm42.809 69.771c-9.195 0-16.675-7.48-16.675-16.674v-22.414h12.997v18.592c0 4.142 3.358 7.499 7.499 7.499h17.904c-1.228 4.981-1.586 10.147-1.354 12.997zm146.787-87.923h39.293v37.86h-39.293zm186.081 87.923h-20.372c.232-2.85-.115-7.973-1.354-12.997h17.905c4.142 0 7.499-3.357 7.499-7.499v-18.592h12.997v22.414c.001 9.194-7.48 16.674-16.675 16.674zm42.809-69.771c0 8.648-7.035 15.683-15.683 15.683h-32.342c-1.217 0-2.207-.99-2.207-2.208v-20.622c0-1.218.99-2.208 2.207-2.208h45.817c1.217 0 2.207.99 2.207 2.208v7.147z"/></g></g></g></g></svg>