<svg id="Capa_1" enable-background="new 0 0 512 512" height="512" viewBox="0 0 512 512" width="512" xmlns="http://www.w3.org/2000/svg"><g><path d="m331.716 504.5h-293.858c-14.615 0-26.463-11.848-26.463-26.463v-444.074c0-14.615 11.848-26.463 26.463-26.463h293.858c14.615 0 26.463 11.848 26.463 26.463v444.074c0 14.615-11.848 26.463-26.463 26.463z" fill="#f5f5f5"/><path d="m53.754 424.071v-361.8c0-6.855 5.557-12.412 12.412-12.412h237.243c6.855 0 12.412 5.557 12.412 12.412v361.8c0 6.855-5.557 12.412-12.412 12.412h-237.243c-6.855-.001-12.412-5.557-12.412-12.412z" fill="#bed8fb"/><path d="m303.408 49.859h-61.445c6.855 0 12.412 5.557 12.412 12.412v361.8c0 6.855-5.557 12.412-12.412 12.412h61.445c6.855 0 12.412-5.557 12.412-12.412v-361.8c0-6.855-5.557-12.412-12.412-12.412z" fill="#9dc6fb"/><path d="m483.049 115.536h-298.262v259.421h298.262c9.696 0 17.557-7.861 17.557-17.557v-224.308c-.001-9.696-7.861-17.556-17.557-17.556z" fill="#78d0b1"/><path d="m483.049 115.536h-61.445c9.696 0 17.557 7.861 17.557 17.557v224.307c0 9.696-7.86 17.557-17.557 17.557h61.445c9.696 0 17.557-7.861 17.557-17.557v-224.308c-.001-9.696-7.861-17.556-17.557-17.556z" fill="#66b49d"/><path d="m456.323 176.094c-8.799-5.619-16.289-13.109-21.908-21.908-1.714-2.684-4.708-4.274-7.892-4.274h-241.736v190.669h241.562c3.197 0 6.202-1.603 7.912-4.304 5.637-8.908 13.184-16.487 22.068-22.16 2.682-1.713 4.269-4.707 4.269-7.889v-122.242c-.001-3.184-1.591-6.178-4.275-7.892z" fill="#b9f6d3"/><path d="m290.518 237.658c-2.174-.724-4.399-1.483-6.617-2.273v-32.96c5.847 1.257 9.335 4.039 9.64 4.29 3.08 2.629 7.708 2.287 10.369-.776 2.675-3.079 2.347-7.745-.733-10.419-.425-.369-7.583-6.444-19.276-8.08v-2.478c0-4.08-3.307-7.386-7.386-7.386s-7.386 3.306-7.386 7.386v3.015c-1.113.23-2.242.496-3.396.824-10.96 3.108-19.044 12.054-21.097 23.345-1.815 9.981 1.647 19.572 9.037 25.03 3.916 2.893 8.788 5.543 15.455 8.342v41.921c-5.991-.388-10.085-1.731-16.831-5.887-3.473-2.142-8.023-1.06-10.162 2.415-2.139 3.473-1.058 8.022 2.415 10.162 9.585 5.905 16.119 7.651 24.579 8.09v3.304c0 4.08 3.307 7.386 7.386 7.386s7.386-3.306 7.386-7.386v-3.88c16.537-3.14 26.973-16.303 29.034-29.277 2.497-15.721-6.302-29.344-22.417-34.708zm-21.388-8.38c-2.522-1.27-4.8-2.597-6.679-3.986-3.374-2.492-3.906-7.06-3.28-10.504.786-4.323 3.822-9.543 9.959-11.571zm29.216 40.77c-1.055 6.64-5.94 13.687-14.445 16.379v-35.413c.645.219 1.283.436 1.951.658 9.167 3.053 13.837 9.921 12.494 18.376z"/><path d="m390.316 237.308h-31.72c-4.079 0-7.386 3.306-7.386 7.386s3.307 7.386 7.386 7.386h31.72c4.079 0 7.386-3.306 7.386-7.386 0-4.079-3.307-7.386-7.386-7.386z"/><path d="m174.166 459.375c-8.918 0-16.174 7.256-16.174 16.174 0 4.079 3.307 7.386 7.386 7.386s7.386-3.306 7.386-7.386c0-.773.629-1.402 1.402-1.402h21.176c.773 0 1.402.629 1.402 1.402 0 4.079 3.307 7.386 7.386 7.386s7.386-3.306 7.386-7.386c0-8.918-7.256-16.174-16.173-16.174z"/><path d="m358.226 402.29c-4.079 0-7.386 3.306-7.386 7.386v68.463c0 10.526-8.563 19.09-19.089 19.09h-293.993c-10.526 0-19.089-8.564-19.089-19.09v-444.278c0-10.526 8.563-19.09 19.089-19.09h293.993c10.526 0 19.089 8.564 19.089 19.09v46.926c0 4.08 3.307 7.386 7.386 7.386s7.386-3.306 7.386-7.386v-46.926c0-18.671-15.19-33.861-33.861-33.861h-293.993c-18.671 0-33.861 15.19-33.861 33.861v444.277c0 18.672 15.19 33.862 33.861 33.862h293.993c18.671 0 33.861-15.19 33.861-33.861v-68.463c0-4.08-3.307-7.386-7.386-7.386z"/><path d="m315.847 88.199c4.079 0 7.386-3.306 7.386-7.386v-18.631c0-10.919-8.884-19.803-19.803-19.803h-237.352c-10.919 0-19.803 8.884-19.803 19.803v361.966c0 10.919 8.884 19.803 19.803 19.803h237.352c10.92 0 19.803-8.884 19.803-19.803v-14.459c0-4.08-3.307-7.386-7.386-7.386s-7.386 3.306-7.386 7.386v14.459c0 2.775-2.257 5.032-5.032 5.032h-237.351c-2.774 0-5.031-2.257-5.031-5.032v-361.966c0-2.774 2.257-5.032 5.031-5.032h237.352c2.774 0 5.032 2.257 5.032 5.032v18.631c0 4.08 3.306 7.386 7.385 7.386z"/><path d="m456.194 174.145c-6.714-4.288-12.682-9.637-17.681-15.804v173.81c5.001-6.172 10.968-11.528 17.686-15.818 2.763-1.765 4.398-4.85 4.398-8.127v-125.931c0-3.28-1.638-6.364-4.403-8.13z" fill="#a2f4c1"/><path d="m483.153 108.085h-291.013v-24.205c0-4.08-3.307-7.386-7.386-7.386s-7.386 3.306-7.386 7.386v321.894c0 4.079 3.307 7.386 7.386 7.386s7.386-3.306 7.386-7.386v-23.377h291.013c13.758 0 24.95-11.192 24.95-24.95v-224.412c0-13.758-11.193-24.95-24.95-24.95zm-291.013 49.164h234.461c.69 0 1.33.332 1.671.866 6.163 9.65 14.519 18.007 24.167 24.168.534.34.866.981.866 1.67v122.297c0 .69-.329 1.329-.859 1.668-9.742 6.22-18.161 14.674-24.344 24.445-.34.537-.981.87-1.674.87h-234.288zm301.192 200.198c0 5.612-4.566 10.179-10.179 10.179h-291.013v-19.62h234.287c5.796 0 11.088-2.895 14.156-7.743 5.033-7.953 11.884-14.832 19.811-19.894 4.81-3.071 7.682-8.349 7.682-14.119v-122.297c0-5.768-2.874-11.047-7.687-14.121-7.852-5.014-14.653-11.815-19.669-19.67-3.074-4.812-8.352-7.686-14.12-7.686h-234.46v-19.621h291.013c5.612 0 10.179 4.566 10.179 10.179z"/></g></svg>