<svg id="Capa_1" enable-background="new 0 0 512 512" height="512" viewBox="0 0 512 512" width="512" xmlns="http://www.w3.org/2000/svg"><g><g><g><g><g><g><g><path d="m366.966 504.5h-316.597c-10.14 0-18.359-8.22-18.359-18.359v-419.391c0-10.14 8.22-18.359 18.359-18.359h316.597c10.14 0 18.359 8.22 18.359 18.359v419.391c.001 10.139-8.219 18.359-18.359 18.359z" fill="#eab14d"/><path d="m62.017 467.93v-382.97c0-3.624 2.938-6.562 6.562-6.562h280.176c3.624 0 6.562 2.938 6.562 6.562v382.97c0 3.624-2.938 6.562-6.562 6.562h-280.175c-3.625 0-6.563-2.938-6.563-6.562z" fill="#f4f8f8"/><path d="m348.756 78.398h-60.878c3.624 0 6.562 2.938 6.562 6.563v382.969c0 3.625-2.938 6.563-6.562 6.563h60.878c3.624 0 6.562-2.938 6.562-6.563v-382.97c0-3.624-2.938-6.562-6.562-6.562z" fill="#e7ecf1"/><path d="m157.436 215.107h-22.361c-2.583 0-4.677 2.094-4.677 4.677v56.662h31.715v-56.662c0-2.583-2.094-4.677-4.677-4.677z" fill="#8c9ba6"/><path d="m223.599 189.11h-22.361c-2.583 0-4.677 2.094-4.677 4.677v82.658h31.715v-82.658c0-2.583-2.094-4.677-4.677-4.677z" fill="#66b49d"/><path d="m289.763 153.768h-22.361c-2.583 0-4.677 2.094-4.677 4.677v118h31.715v-118c0-2.583-2.094-4.677-4.677-4.677z" fill="#fc8086"/><path d="m247.67 30.348v-9.665c0-7.281-5.902-13.183-13.183-13.183h-51.638c-7.281 0-13.183 5.902-13.183 13.183v9.665c0 2.977-2.414 5.391-5.391 5.391h-21.491c-7.149 0-12.945 5.796-12.945 12.945v29.713h157.66v-29.712c0-7.149-5.796-12.945-12.945-12.945h-21.491c-2.979 0-5.393-2.414-5.393-5.392z" fill="#c2d0da"/></g></g></g></g><g><g><path d="m369.516 368.754h33.294v83.837h-33.294z" fill="#e7ecf1" transform="matrix(.707 -.707 .707 .707 -177.285 393.342)"/><path d="m474.013 498.523c-7.969 7.969-20.889 7.969-28.858 0l-57.205-57.205c-3.452-3.451-3.452-9.047 0-12.499l16.359-16.359c3.452-3.452 9.047-3.452 12.499 0l57.205 57.205c7.969 7.969 7.969 20.889 0 28.858z" fill="#9d6b6b"/></g><circle cx="303.467" cy="327.977" fill="#818181" r="102.21"/><circle cx="303.467" cy="327.977" fill="#ddeafb" r="73.967"/><path d="m303.467 254.01c-10.965 0-21.363 2.405-30.722 6.686 25.51 11.668 43.245 37.396 43.245 67.282s-17.734 55.613-43.245 67.281c9.36 4.281 19.757 6.686 30.722 6.686 40.851 0 73.967-33.116 73.967-73.967.001-40.852-33.116-73.968-73.967-73.968z" fill="#bed8fb"/></g></g></g><g><g><g><path d="m165.58 337.293h-65.654c-4.142 0-7.5 3.357-7.5 7.5s3.358 7.5 7.5 7.5h65.654c4.142 0 7.5-3.357 7.5-7.5s-3.358-7.5-7.5-7.5z"/><path d="m165.58 376.637h-65.654c-4.142 0-7.5 3.357-7.5 7.5s3.358 7.5 7.5 7.5h65.654c4.142 0 7.5-3.357 7.5-7.5s-3.358-7.5-7.5-7.5z"/><path d="m165.58 415.979h-65.654c-4.142 0-7.5 3.357-7.5 7.5s3.358 7.5 7.5 7.5h65.654c4.142 0 7.5-3.357 7.5-7.5s-3.358-7.5-7.5-7.5z"/><path d="m479.324 464.361-57.205-57.205c-2.795-2.795-6.36-4.362-10.019-4.704l-15.871-15.871c23.611-37.361 22.478-85.978-3.397-122.26v-197.571c0-14.259-11.601-25.859-25.859-25.859h-73.52c-3.071-7.417-10.379-12.651-18.893-12.651h-19.383v-7.556c-.001-11.406-9.279-20.684-20.684-20.684h-51.638c-11.405 0-20.683 9.278-20.683 20.684v7.556h-19.382c-8.514 0-15.822 5.234-18.893 12.651h-73.521c-14.259 0-25.859 11.601-25.859 25.859v419.391c0 14.259 11.601 25.859 25.859 25.859h316.597c14.259 0 25.859-11.601 25.859-25.859v-29.34l47.026 47.026c5.44 5.439 12.587 8.16 19.732 8.16 7.146 0 14.293-2.721 19.733-8.16 10.881-10.881 10.881-28.585.001-39.466zm-108.88-69.414c-36.928 36.929-97.014 36.928-133.94 0s-36.927-97.013 0-133.939c18.466-18.467 42.715-27.696 66.971-27.696 24.25 0 48.509 9.234 66.97 27.696 36.927 36.927 36.927 97.013-.001 133.939zm-149.653-139.073c-3.633 4.16-6.898 8.531-9.797 13.071h-6.926v-72.335h16.715v59.094c0 .057.007.113.008.17zm49.44-32.429v-62.176h16.715v58.298c-5.645.853-11.235 2.145-16.715 3.878zm-132.887-174.597c.005-.103.011-.205.013-.309 0-.024-.002-.048-.002-.072.115-2.902 2.505-5.228 5.434-5.228h21.491c7.108 0 12.891-5.782 12.891-12.891v-9.665c0-3.134 2.549-5.684 5.683-5.684h51.638c3.134 0 5.683 2.55 5.683 5.684v9.665c0 7.108 5.783 12.891 12.891 12.891h21.492c2.94 0 5.337 2.344 5.435 5.261.001.038-.003.075-.002.113.003.077.007.156.012.235v22.05h-142.659zm240.488 437.293c0 5.988-4.871 10.859-10.859 10.859h-316.597c-5.988 0-10.859-4.871-10.859-10.859v-419.391c0-5.988 4.872-10.859 10.859-10.859h71.969v15.008h-53.759c-7.754 0-14.062 6.308-14.062 14.062v382.97c0 7.754 6.308 14.063 14.062 14.063h280.176c7.754 0 14.063-6.309 14.063-14.063v-15.505c0-4.143-3.357-7.5-7.5-7.5s-7.5 3.357-7.5 7.5v14.567h-278.301v-381.095h278.301v117.922c0 4.143 3.357 7.5 7.5 7.5s7.5-3.357 7.5-7.5v-118.86c0-7.754-6.309-14.062-14.063-14.062h-53.759v-15.007h71.969c5.988 0 10.859 4.871 10.859 10.859v180.569c-21.346-19.697-48.671-29.358-75.886-28.982v-59.892c0-6.714-5.463-12.177-12.177-12.177h-22.36c-6.715 0-12.178 5.463-12.178 12.177v70.994c-6.799 3.322-13.322 7.389-19.448 12.2v-47.852c0-6.714-5.462-12.177-12.177-12.177h-22.361c-6.714 0-12.177 5.463-12.177 12.177v75.158h-19.449v-49.162c0-6.714-5.462-12.177-12.177-12.177h-22.361c-6.714 0-12.177 5.463-12.177 12.177v49.162h-12.15c-1.835 0-3.329-1.493-3.329-3.328v-138.212c0-4.143-3.358-7.5-7.5-7.5s-7.5 3.357-7.5 7.5v138.212c0 10.106 8.222 18.328 18.329 18.328h92.233c-17.546 40.172-9.911 88.787 22.91 121.609 21.391 21.39 49.479 32.081 77.577 32.081 20.387 0 40.777-5.639 58.604-16.904l15.754 15.754v49.656zm-223.213-263.535v46.339h-16.714v-46.339zm229.746 199.198-10.053-10.053c2.311-1.956 4.562-4.017 6.74-6.196s4.24-4.429 6.196-6.74l10.053 10.053zm84.351 71.416c-5.03 5.032-13.219 5.034-18.251 0l-57.205-57.205c-.522-.521-.522-1.37 0-1.892l16.359-16.359c.261-.262.604-.392.945-.392.343 0 .686.13.946.392l57.205 57.205c5.034 5.031 5.034 13.219.001 18.251z"/><path d="m303.474 246.51c-44.921 0-81.467 36.546-81.467 81.468 0 44.921 36.546 81.467 81.467 81.467s81.467-36.546 81.467-81.467c0-44.922-36.546-81.468-81.467-81.468zm0 147.934c-36.65 0-66.467-29.816-66.467-66.467s29.817-66.468 66.467-66.468 66.467 29.817 66.467 66.468-29.816 66.467-66.467 66.467z"/></g></g></g></g></svg>