<svg id="Capa_1" enable-background="new 0 0 512 512" height="512" viewBox="0 0 512 512" width="512" xmlns="http://www.w3.org/2000/svg"><g><g><g><g><path d="m504.5 156.219c0-6.344-5.143-11.487-11.487-11.487h-474.026c-6.344 0-11.487 5.143-11.487 11.487v257.869c0 6.344 5.143 11.487 11.487 11.487h404.779c3.396 0 6.654-1.349 9.056-3.751l67.928-67.928c2.402-2.402 3.751-5.659 3.751-9.056v-188.621z" fill="#f4f8f8"/><path d="m504.38 346.49c.071-.545.12-1.094.12-1.649v-188.622c0-6.344-5.143-11.487-11.487-11.487h-49.958v201.758z" fill="#e7ecf1"/><path d="m436.826 346.49c-7.369 0-13.342 5.974-13.342 13.342v65.743h.281c3.396 0 6.654-1.349 9.055-3.751l67.928-67.928c2.009-2.009 3.269-4.619 3.631-7.406z" fill="#a8ecdc"/></g><g><path d="m459.175 233.06h-406.35c-2.615 0-4.736-2.12-4.736-4.736v-34.782c0-2.615 2.12-4.736 4.736-4.736h406.351c2.615 0 4.736 2.12 4.736 4.736v34.782c-.001 2.616-2.121 4.736-4.737 4.736z" fill="#ddeafb"/><g><path d="m459.175 188.807h-59.675v44.253h59.675c2.615 0 4.736-2.12 4.736-4.736v-34.782c0-2.615-2.12-4.735-4.736-4.735z" fill="#bed8fb"/></g><g><g><g><g><path d="m314.376 322.483-23.076-18.31c-10.768 13.571-21.603 18.999-33.176 19.332-.916.026-1.671.726-1.769 1.637l-5.223 49.01c-.248 2.33 2.014 4.125 4.226 3.353l46.54-16.226c.865-.302 1.374-1.196 1.192-2.094-2.305-11.346.518-23.131 11.286-36.702z" fill="#dae4ea"/><g fill="#7c8b96"><path d="m452.398 148.678-22.388-17.764-13.329 1.19-63.168 70.928c-14.471 16.249-27.45 33.766-38.781 52.342l-26.875 44.058c-2.193 3.596-1.363 8.263 1.937 10.881l18.945 15.032c3.3 2.618 8.033 2.366 11.036-.587l36.796-36.186c15.514-15.256 29.623-31.878 42.157-49.663l54.714-77.637z"/><path d="m479.347 90.876c-8.533-6.771-20.868-5.705-28.113 2.43l-15.73 17.663-.453 10.263 24.035 19.071 10.66-2.164 13.625-19.333c6.275-8.904 4.509-21.159-4.024-27.93z"/></g></g><path d="m416.681 132.104 36.761 29.169 16.304-23.134-34.243-27.17z" fill="#dae4ea"/></g></g></g></g></g></g><g><g><g><path d="m201.189 316.47h-157.369c-4.143 0-7.5 3.357-7.5 7.5s3.357 7.5 7.5 7.5h157.369c4.143 0 7.5-3.357 7.5-7.5s-3.357-7.5-7.5-7.5z"/><path d="m201.189 364.972h-157.369c-4.143 0-7.5 3.357-7.5 7.5s3.357 7.5 7.5 7.5h157.369c4.143 0 7.5-3.357 7.5-7.5s-3.357-7.5-7.5-7.5z"/><path d="m493.014 137.229h-13.454l9.941-14.106c8.558-12.144 6.146-28.89-5.492-38.125-11.639-9.234-28.495-7.776-38.376 3.317-2.958 3.321-31.327 35.174-34.553 38.797l-9.01 10.117h-383.084c-10.468 0-18.986 8.518-18.986 18.987v257.869c0 10.469 8.518 18.986 18.986 18.986h404.498c.169-.033 8.182.509 14.641-5.947l67.928-67.928c3.835-3.836 5.947-8.936 5.947-14.359v-188.621c0-10.469-8.518-18.987-18.986-18.987zm-36.18-38.938c4.597-5.16 12.438-5.837 17.851-1.544 5.414 4.296 6.536 12.086 2.555 17.734l-9.051 12.843-21.804-17.301zm-20.441 22.954 23.142 18.361-7.649 10.854-24.323-19.3zm-5.409 291.805v-53.222c0-3.221 2.621-5.842 5.842-5.842h53.222zm66.016-74.063h-60.174c-11.492 0-20.842 9.35-20.842 20.842v58.243h-396.998c-2.198 0-3.986-1.788-3.986-3.986v-257.87c0-2.198 1.788-3.987 3.986-3.987h369.725l-25.893 29.074h-222.765c-4.143 0-7.5 3.357-7.5 7.5s3.357 7.5 7.5 7.5h209.407c-1.542 1.812-10.732 11.459-23.762 29.254h-270.109v-29.254h49.4c4.143 0 7.5-3.357 7.5-7.5s-3.357-7.5-7.5-7.5h-52.165c-6.747 0-12.235 5.488-12.235 12.235v34.782c0 6.747 5.488 12.236 12.235 12.236h262.452c-2.375 3.602-4.704 7.232-6.947 10.908l-26.876 44.058c-2.016 3.306-2.671 7.095-2.109 10.69-6.75 6.413-13.701 9.569-21.437 9.792-4.642.134-8.515 3.717-9.011 8.339l-5.223 49.012c-.817 7.685 6.684 13.836 14.153 11.229l46.541-16.226c4.383-1.529 6.994-6.112 6.072-10.671-1.542-7.584-.048-15.07 4.663-23.101 3.629-.271 7.17-1.77 9.931-4.484l17.397-17.109c2.953-2.904 2.993-7.653.089-10.606s-7.653-2.991-10.606-.089l-13.802 13.573-21.226-16.844 24.249-39.751c25.758-42.229 48.3-61.214 96.433-116.896l25.661 20.361c-43.64 60.386-55.665 83.372-86.487 115.025-2.89 2.968-2.827 7.716.141 10.605 1.458 1.42 3.346 2.127 5.231 2.127 1.953 0 3.904-.758 5.374-2.268 23.144-23.768 38.296-46.418 39.251-47.673h52.436c6.747 0 12.235-5.489 12.235-12.236v-34.782c0-6.747-5.488-12.235-12.235-12.235h-10.677l11.074-15.714 9.416-13.36h24.025c2.198 0 3.986 1.789 3.986 3.987v182.77zm-201.983 16.746-22.47 7.834 12.452-15.693c2.575-3.245 2.031-7.963-1.213-10.537-3.244-2.576-7.962-2.031-10.537 1.213l-12.452 15.693 2.521-23.662c8.928-1.257 17.124-5.246 24.775-12.047l13.024 10.334c-4.885 8.997-6.906 17.887-6.1 26.865zm161.394-159.43v29.254h-39.1l20.616-29.254z"/></g></g></g></g></svg>