<svg id="Capa_1" enable-background="new 0 0 512 512" height="512" viewBox="0 0 512 512" width="512" xmlns="http://www.w3.org/2000/svg"><g><g><g><g><g><g><g><g><g><g><g><g><g><path d="m43.414 7.5c-18.445 0-33.398 14.953-33.398 33.398v430.204c0 18.445 14.953 33.398 33.398 33.398h314.002c18.445 0 33.398-14.953 33.398-33.398v-360.616c0-6.71-2.666-13.146-7.411-17.891l-77.685-77.685c-4.745-4.745-11.18-7.411-17.891-7.411h-244.413z" fill="#f4f8f8"/><path d="m331.705 100.006c-.786 0-1.564-.037-2.336-.091v404.585h28.047c18.445 0 33.398-14.953 33.398-33.398v-360.616c0-3.652-.795-7.219-2.279-10.48z" fill="#e7ecf1"/><path d="m383.403 92.595-77.685-77.685c-2.163-2.163-4.679-3.888-7.411-5.131v56.829c0 18.445 14.953 33.398 33.398 33.398h56.829c-1.243-2.731-2.968-5.248-5.131-7.411z" fill="#fc8086"/></g></g></g></g></g></g></g></g></g><path d="m169.038 182.672h-101.548c-7.997 0-14.479-6.483-14.479-14.479v-101.547c0-7.997 6.483-14.479 14.479-14.479h101.547c7.997 0 14.479 6.483 14.479 14.479v101.547c.001 7.997-6.482 14.479-14.478 14.479z" fill="#78d0b1"/><path d="m169.038 52.167h-46.966v116.027c0 7.997-6.483 14.479-14.479 14.479h61.445c7.997 0 14.479-6.483 14.479-14.479v-101.548c0-7.997-6.483-14.479-14.479-14.479z" fill="#66b49d"/></g><g><g><path d="m408.249 399.166c-10.098-12.997-15.58-28.986-15.58-45.445v-.179c0-19.21 6.311-38.033 18.542-52.846 9.016-10.919 14.241-25.082 13.655-40.481-1.177-30.924-26.186-56.152-57.099-57.577-34.418-1.587-62.821 25.848-62.821 59.917 0 14.126 4.886 27.106 13.058 37.352 12.177 15.266 19.182 34.006 19.182 53.533v.281c0 16.458-5.482 32.448-15.58 45.445-10.098 12.997-15.58 28.986-15.58 45.445v6.988h117.802v-6.988c0-16.458-5.481-32.448-15.579-45.445z" fill="#b78e8e"/></g><path d="m392.669 353.721v-.179c0-19.21 6.311-38.033 18.542-52.846 9.016-10.919 14.241-25.082 13.655-40.481-1.177-30.924-26.186-56.152-57.099-57.577-12.01-.554-23.283 2.435-32.877 7.998 17.293 10.046 29.191 28.483 29.994 49.579.054 1.409.042 2.804 0 4.191v187.194h58.945v-6.989c0-16.458-5.482-32.448-15.58-45.445-10.098-12.996-15.58-28.986-15.58-45.445z" fill="#aa8080"/><g><path d="m478.306 504.5h-226.757c-6.28 0-11.372-5.091-11.372-11.372v-30.649h249.5v30.649c.001 6.281-5.091 11.372-11.371 11.372z" fill="#8c9ba6"/><path d="m428.233 462.479v30.649c0 6.28-5.091 11.372-11.372 11.372h61.445c6.28 0 11.372-5.091 11.372-11.372v-30.649z" fill="#7c8b96"/><path d="m494.025 477.938h-258.195c-4.396 0-7.959-3.563-7.959-7.959v-16.397c0-16.607 13.463-30.069 30.069-30.069h213.974c16.607 0 30.069 13.462 30.069 30.069v16.397c.001 4.395-3.562 7.959-7.958 7.959z" fill="#aa8080"/><path d="m471.915 423.512h-50.779c10.716 0 19.403 8.687 19.403 19.403v35.022h53.486c4.396 0 7.959-3.563 7.959-7.959v-16.397c0-16.607-13.462-30.069-30.069-30.069z" fill="#9d6b6b"/></g></g></g></g><g><g><g><path d="m157.826 85.379c-3.26-2.555-7.976-1.981-10.529 1.28l-34.705 44.308-19.344-14.296c-3.331-2.462-8.027-1.758-10.489 1.574-2.462 3.331-1.757 8.027 1.574 10.489l25.209 18.631c3.266 2.414 7.858 1.79 10.362-1.407l39.202-50.05c2.554-3.261 1.981-7.974-1.28-10.529z"/><path d="m67.49 44.667c-12.119 0-21.979 9.86-21.979 21.979v101.547c0 12.119 9.86 21.979 21.979 21.979h101.547c12.119 0 21.979-9.86 21.979-21.979v-101.547c0-12.12-9.86-21.979-21.979-21.979zm108.527 21.979v101.547c0 3.848-3.131 6.979-6.979 6.979h-101.548c-3.848 0-6.979-3.131-6.979-6.979v-101.547c0-3.849 3.131-6.979 6.979-6.979h101.547c3.849 0 6.98 3.13 6.98 6.979z"/><path d="m206.959 497h-163.545c-14.28 0-25.898-11.618-25.898-25.898v-430.205c0-14.279 11.617-25.897 25.898-25.897h244.414c1.01 0 2.004.101 2.98.265v51.343c0 22.551 18.347 40.897 40.897 40.897h51.343c.164.977.265 1.97.265 2.98v62.346c0 4.142 3.358 7.5 7.5 7.5s7.5-3.358 7.5-7.5v-62.346c0-8.761-3.412-16.999-9.607-23.194l-77.685-77.684c-6.195-6.195-14.432-9.607-23.194-9.607h-244.413c-22.552 0-40.898 18.347-40.898 40.897v430.205c0 22.551 18.346 40.898 40.898 40.898h163.545c4.142 0 7.5-3.358 7.5-7.5s-3.358-7.5-7.5-7.5zm165.748-404.494h-41.002c-14.28 0-25.897-11.618-25.897-25.897v-41.002z"/><path d="m471.915 416.012h-45.786c-8.606-23.019-25.959-30.829-25.959-62.291v-.179c0-17.858 5.975-34.93 16.825-48.071 35.465-42.951 5.939-107.798-48.883-110.325-58.593-2.715-91.527 64.864-55.971 109.438 11.314 14.185 17.546 31.536 17.546 48.856v.281c0 31.481-17.389 39.364-25.96 62.291h-45.787c-20.716 0-37.569 16.854-37.569 37.569v16.397c0 7.444 5.289 13.674 12.307 15.134v8.016c0 10.406 8.466 18.872 18.872 18.872h226.757c10.406 0 18.872-8.466 18.872-18.872v-8.016c7.017-1.46 12.307-7.69 12.307-15.134v-16.397c-.002-20.716-16.855-37.569-37.571-37.569zm-127.229-62.291v-.281c0-20.706-7.394-41.379-20.819-58.21-27.655-34.669-2.039-87.204 43.554-85.1 42.598 1.963 65.585 52.389 38.007 85.791-13.064 15.822-20.258 36.285-20.258 57.621v.179c0 33.69 17.78 47.761 24.689 62.291h-89.862c6.946-14.609 24.689-28.537 24.689-62.291zm-109.315 99.86c0-12.445 10.125-22.569 22.569-22.569h213.975c12.445 0 22.569 10.125 22.569 22.569v16.397c0 .253-.206.459-.459.459h-258.195c-.253 0-.459-.206-.459-.459zm242.935 43.419h-226.757c-2.135 0-3.872-1.737-3.872-3.872v-7.691h234.5v7.691c.001 2.135-1.736 3.872-3.871 3.872z"/></g></g></g></g></svg>