<svg id="Capa_1" enable-background="new 0 0 512 512" height="512" viewBox="0 0 512 512" width="512" xmlns="http://www.w3.org/2000/svg"><g><g><g><g><path d="m367.586 482.916h-319.588c-20.018 0-36.246-16.228-36.246-36.246v-402.924c0-20.018 16.228-36.246 36.246-36.246h319.588c20.018 0 36.246 16.228 36.246 36.246v402.924c0 20.018-16.228 36.246-36.246 36.246z" fill="#8c9ba6"/><path d="m367.586 7.5h-61.445c20.018 0 36.246 16.228 36.246 36.246v402.924c0 20.018-16.228 36.246-36.246 36.246h61.445c20.018 0 36.246-16.228 36.246-36.246v-402.924c0-20.018-16.228-36.246-36.246-36.246z" fill="#7c8b96"/><path d="m52.337 131.488v-75.455c0-3.34 2.707-6.047 6.047-6.047h298.816c3.34 0 6.047 2.707 6.047 6.047v75.456c0 3.34-2.707 6.047-6.047 6.047h-298.816c-3.34-.001-6.047-2.708-6.047-6.048z" fill="#ddeafb"/><path d="m357.2 49.986h-61.445c3.34 0 6.047 2.707 6.047 6.047v75.456c0 3.34-2.707 6.047-6.047 6.047h61.445c3.34 0 6.047-2.707 6.047-6.047v-75.456c0-3.34-2.708-6.047-6.047-6.047z" fill="#bed8fb"/><g fill="#dae4ea"><g><path d="m96.89 235.232h-37.069c-2.672 0-4.838-2.166-4.838-4.838v-37.068c0-2.672 2.166-4.838 4.838-4.838h37.069c2.672 0 4.838 2.166 4.838 4.838v37.068c0 2.671-2.166 4.838-4.838 4.838z"/><path d="m183.181 235.232h-37.068c-2.672 0-4.838-2.166-4.838-4.838v-37.068c0-2.672 2.166-4.838 4.838-4.838h37.068c2.672 0 4.838 2.166 4.838 4.838v37.068c0 2.671-2.166 4.838-4.838 4.838z"/><path d="m269.471 235.232h-37.068c-2.672 0-4.838-2.166-4.838-4.838v-37.068c0-2.672 2.166-4.838 4.838-4.838h37.068c2.672 0 4.838 2.166 4.838 4.838v37.068c.001 2.671-2.165 4.838-4.838 4.838z"/><path d="m355.762 235.232h-37.068c-2.672 0-4.838-2.166-4.838-4.838v-37.068c0-2.672 2.166-4.838 4.838-4.838h37.068c2.672 0 4.838 2.166 4.838 4.838v37.068c.001 2.671-2.166 4.838-4.838 4.838z"/></g><g><path d="m96.89 326.519h-37.069c-2.672 0-4.838-2.166-4.838-4.838v-37.068c0-2.672 2.166-4.838 4.838-4.838h37.069c2.672 0 4.838 2.166 4.838 4.838v37.068c0 2.672-2.166 4.838-4.838 4.838z"/><path d="m183.181 326.519h-37.068c-2.672 0-4.838-2.166-4.838-4.838v-37.068c0-2.672 2.166-4.838 4.838-4.838h37.068c2.672 0 4.838 2.166 4.838 4.838v37.068c0 2.672-2.166 4.838-4.838 4.838z"/><path d="m269.471 326.519h-37.068c-2.672 0-4.838-2.166-4.838-4.838v-37.068c0-2.672 2.166-4.838 4.838-4.838h37.068c2.672 0 4.838 2.166 4.838 4.838v37.068c.001 2.672-2.165 4.838-4.838 4.838z"/></g><g><path d="m96.89 417.807h-37.069c-2.672 0-4.838-2.166-4.838-4.838v-37.068c0-2.672 2.166-4.838 4.838-4.838h37.069c2.672 0 4.838 2.166 4.838 4.838v37.068c0 2.672-2.166 4.838-4.838 4.838z"/><path d="m183.181 417.807h-37.068c-2.672 0-4.838-2.166-4.838-4.838v-37.068c0-2.672 2.166-4.838 4.838-4.838h37.068c2.672 0 4.838 2.166 4.838 4.838v37.068c0 2.672-2.166 4.838-4.838 4.838z"/><path d="m269.471 417.807h-37.068c-2.672 0-4.838-2.166-4.838-4.838v-37.068c0-2.672 2.166-4.838 4.838-4.838h37.068c2.672 0 4.838 2.166 4.838 4.838v37.068c.001 2.672-2.165 4.838-4.838 4.838z"/></g></g></g><g><g><circle cx="378.124" cy="382.376" fill="#eab14d" r="122.124"/><circle cx="378.124" cy="382.376" fill="#fbe77b" r="92.011"/><path d="m378.124 290.365c-10.767 0-21.099 1.855-30.701 5.254 35.719 12.641 61.31 46.708 61.31 86.757s-25.591 74.117-61.31 86.757c9.603 3.398 19.934 5.254 30.701 5.254 50.816 0 92.011-41.195 92.011-92.011s-41.195-92.011-92.011-92.011z" fill="#ffd064"/></g></g></g></g><g><g><g><path d="m392.194 374.647c-2.394-.797-4.845-1.634-7.287-2.506v-35.773c6.588 1.311 10.52 4.464 10.849 4.735 3.128 2.671 7.829 2.325 10.531-.786 2.716-3.127 2.383-7.864-.744-10.579-.452-.392-8.12-6.89-20.635-8.551v-2.957c0-4.142-3.358-7.499-7.499-7.499s-7.499 3.358-7.499 7.499v3.5c-1.267.254-2.557.557-3.875.931-11.529 3.271-20.034 12.682-22.194 24.561-1.907 10.485 1.724 20.555 9.476 26.281 4.188 3.094 9.414 5.928 16.593 8.928v45.229c-6.654-.383-11.063-1.783-18.459-6.339-3.527-2.173-8.146-1.074-10.318 2.452s-1.075 8.146 2.452 10.318c10.257 6.319 17.219 8.133 26.326 8.57v3.861c0 4.142 3.358 7.499 7.499 7.499s7.499-3.358 7.499-7.499v-4.433c17.602-3.212 28.716-17.159 30.9-30.906 2.626-16.544-6.642-30.886-23.615-36.536zm-29.968-13.209c-3.723-2.75-4.316-7.76-3.63-11.532.875-4.814 4.311-10.656 11.312-12.744v28.813c-2.912-1.439-5.535-2.951-7.682-4.537zm38.767 47.392c-1.161 7.309-6.594 15.09-16.087 17.88v-38.692c.836.284 1.677.569 2.55.86 9.936 3.308 14.997 10.766 13.537 19.952z"/><path d="m370.746 56.033c0-7.47-6.077-13.546-13.546-13.546h-298.817c-7.469 0-13.546 6.077-13.546 13.546v20.212c0 4.142 3.358 7.499 7.499 7.499s7.499-3.358 7.499-7.499v-18.76h295.911v72.55h-295.91v-18.727c0-4.142-3.358-7.499-7.499-7.499s-7.499 3.358-7.499 7.499v20.18c0 7.469 6.077 13.546 13.546 13.546h298.816c7.47 0 13.546-6.077 13.546-13.546z"/><path d="m109.227 193.325c0-6.803-5.535-12.337-12.337-12.337h-37.069c-6.803 0-12.337 5.535-12.337 12.337v37.068c0 6.803 5.535 12.338 12.337 12.338h37.069c6.803 0 12.337-5.535 12.337-12.338zm-14.999 34.407h-31.746v-31.746h31.746z"/><path d="m195.518 193.325c0-6.803-5.535-12.337-12.338-12.337h-37.068c-6.803 0-12.337 5.535-12.337 12.337v37.068c0 6.803 5.535 12.338 12.337 12.338h37.068c6.803 0 12.338-5.535 12.338-12.338zm-14.999 34.407h-31.746v-31.746h31.746z"/><path d="m232.403 180.988c-6.803 0-12.338 5.535-12.338 12.337v37.068c0 6.803 5.535 12.338 12.338 12.338h37.068c6.803 0 12.337-5.535 12.337-12.338v-37.068c0-6.803-5.535-12.337-12.337-12.337zm34.407 46.744h-31.746v-31.746h31.746z"/><path d="m355.763 180.988h-37.069c-6.803 0-12.337 5.535-12.337 12.337v37.068c0 6.803 5.535 12.338 12.337 12.338h37.069c6.803 0 12.337-5.535 12.337-12.338v-37.068c0-6.803-5.535-12.337-12.337-12.337zm-2.662 46.744h-31.746v-31.746h31.746z"/><path d="m109.227 284.613c0-6.803-5.535-12.337-12.337-12.337h-37.069c-6.803 0-12.337 5.535-12.337 12.337v37.068c0 6.803 5.535 12.338 12.337 12.338h37.069c6.803 0 12.337-5.535 12.337-12.338zm-14.999 34.407h-31.746v-31.746h31.746z"/><path d="m195.518 284.613c0-6.803-5.535-12.337-12.338-12.337h-37.068c-6.803 0-12.337 5.535-12.337 12.337v37.068c0 6.803 5.535 12.338 12.337 12.338h37.068c6.803 0 12.338-5.535 12.338-12.338zm-14.999 34.407h-31.746v-31.746h31.746z"/><path d="m183.18 363.563h-37.068c-6.803 0-12.337 5.535-12.337 12.337v37.068c0 6.803 5.535 12.338 12.337 12.338h37.068c6.803 0 12.338-5.535 12.338-12.338v-37.068c0-6.802-5.535-12.337-12.338-12.337zm-2.661 46.745h-31.746v-31.746h31.746z"/><path d="m378.124 252.753c-38.19 0-72.572 16.605-96.315 42.97v-11.11c0-6.803-5.535-12.338-12.337-12.338h-37.068c-6.803 0-12.338 5.535-12.338 12.338v37.068c0 6.803 5.535 12.337 12.338 12.337h25.461c-3.777 9.36-6.492 19.258-7.994 29.544h-17.467c-6.803 0-12.338 5.535-12.338 12.338v37.068c0 6.803 5.535 12.337 12.338 12.337h23.413c17.756 50.44 65.873 86.695 122.307 86.695 71.475 0 129.624-58.149 129.624-129.624s-58.149-129.623-129.624-129.623zm-143.06 66.267v-31.746h31.746v28.755c-.591.988-1.169 1.986-1.734 2.991zm0 91.288v-31.746h13.497c-.037 1.267-.06 2.538-.06 3.815 0 9.587 1.056 18.932 3.04 27.931zm143.06 86.693c-63.204 0-114.625-51.421-114.625-114.625s51.421-114.625 114.625-114.625 114.625 51.421 114.625 114.625-51.42 114.625-114.625 114.625z"/><path d="m378.124 282.866c-54.87 0-99.51 44.64-99.51 99.51s44.64 99.51 99.51 99.51 99.51-44.64 99.51-99.51-44.64-99.51-99.51-99.51zm0 184.022c-46.6 0-84.512-37.912-84.512-84.512s37.912-84.512 84.512-84.512 84.512 37.912 84.512 84.512-37.912 84.512-84.512 84.512z"/><path d="m96.89 363.563h-37.069c-6.803 0-12.337 5.535-12.337 12.337v37.068c0 6.803 5.535 12.338 12.337 12.338h37.069c6.803 0 12.337-5.535 12.337-12.338v-37.068c0-6.802-5.535-12.337-12.337-12.337zm-2.662 46.745h-31.746v-31.746h31.746z"/><path d="m269.436 475.417h-221.438c-15.851 0-28.747-12.896-28.747-28.747v-402.925c0-15.851 12.896-28.747 28.747-28.747h319.589c15.851 0 28.747 12.896 28.747 28.747v184.053c0 4.142 3.358 7.499 7.499 7.499s7.499-3.358 7.499-7.499v-184.053c0-24.121-19.624-43.745-43.745-43.745h-319.589c-24.122 0-43.746 19.624-43.746 43.745v402.925c0 24.122 19.624 43.746 43.745 43.746h221.439c4.142 0 7.499-3.358 7.499-7.499s-3.357-7.5-7.499-7.5z"/></g></g></g></g></svg>