<svg id="Capa_1" enable-background="new 0 0 512 512" height="512" viewBox="0 0 512 512" width="512" xmlns="http://www.w3.org/2000/svg"><g><g><g><g><g><circle cx="368.355" cy="142.395" fill="#eab14d" r="134.895"/><circle cx="368.355" cy="142.395" fill="#f4f8f8" r="104.123"/><path d="m367.916 38.273c-10.484.044-20.596 1.643-30.127 4.565 42.417 13.019 73.336 52.412 73.533 99.118.198 47.021-30.806 86.888-73.556 99.996 9.807 3.01 20.229 4.611 31.028 4.565 57.505-.243 103.925-47.056 103.683-104.561-.243-57.505-47.056-103.925-104.561-103.683z" fill="#e7ecf1"/><circle cx="368.355" cy="142.395" fill="#f6e266" r="15.201"/></g><g><g><g><g><g><g><g><g><g><g><g><g><path d="m245.888 319.693c-6.684-.839-11.709-6.5-11.737-13.236l-.258-61.276-93.625.395.258 61.276c.028 6.736-4.949 12.44-11.625 13.335 0 0-17.288 59.086 58.742 58.765s58.245-59.259 58.245-59.259z" fill="#ffece3"/><path d="m172.706 332.335c.028 6.736 5.053 12.397 11.737 13.236 13.814 1.733 37.498 5.136 57.88 10.203 9.433-16.618 3.565-36.081 3.565-36.081-6.684-.839-11.709-6.5-11.737-13.236l-.258-61.276-61.315.259z" fill="#ffddce"/><path d="m275.448 159.512-5.663.024-.095-22.547c-.095-22.446-9.401-44.157-26.472-58.73-13.383-11.426-32.171-21.369-56.933-21.541-24.76.381-43.463 10.482-56.75 22.021-16.947 14.717-26.07 36.506-25.976 58.951l.067 15.897.028 6.65-5.663.024c-8.303.035-15.005 6.794-14.97 15.097l.07 16.66c.035 8.303 6.794 15.005 15.097 14.97l5.686-.024c.56 21.817 9.818 42.779 26.442 56.971 13.384 11.426 32.171 21.369 56.933 21.541 24.76-.381 43.463-10.482 56.75-22.021 16.504-14.332 25.584-35.372 25.961-57.192l5.686-.024c8.303-.035 15.005-6.794 14.97-15.097l-.07-16.66c-.036-8.302-6.795-15.005-15.098-14.97z" fill="#ffece3"/><path d="m290.545 174.483c-.035-8.303-6.794-15.005-15.097-14.97l-5.663.024-.095-22.547c-.095-22.446-9.401-44.156-26.472-58.73-9.102-7.771-20.707-14.853-34.988-18.644l.216 146.649c-.376 21.821-9.456 42.86-25.961 57.192-7.171 6.228-15.924 12.034-26.352 16.122 9.082 3.56 19.433 5.818 31.116 5.899 24.76-.381 43.463-10.482 56.75-22.021 16.504-14.332 25.584-35.372 25.961-57.192l5.686-.024c8.303-.035 15.005-6.794 14.97-15.097z" fill="#ffddce"/><path d="m335.373 504.5c17.545-.074 31.708-15.598 31.634-33.143l-.314-74.361c-.109-25.744-15.359-49.012-38.921-59.384-21.451-9.442-61.949-15.417-81.884-17.919l-58.339 36.831-58.649-36.338c-19.914 2.67-60.36 8.986-81.73 18.608-23.474 10.57-38.527 33.966-38.419 59.71l.314 74.361c.074 17.545 14.357 31.708 31.902 31.634z" fill="#8c9ba6"/><g><path d="m366.693 396.996c-.109-25.744-15.359-49.012-38.921-59.384-21.451-9.442-61.949-15.417-81.884-17.919l-44.658 28.194c20.991 3.16 48.644 8.36 65.098 15.603 23.562 10.372 38.812 33.64 38.921 59.384l.314 74.361c.01 2.475-.272 4.908-.798 7.265h30.609c17.545-.074 31.708-15.598 31.634-33.143z" fill="#7c8b96"/></g></g></g></g></g></g></g><path d="m218.613 51.634-65.294.275c-11.919.05-22.017 7.734-25.692 18.4-1.378 3.998-5.177 6.654-9.405 6.671-15.196.064-27.462 12.434-27.398 27.63l.242 57.372s24.141-.389 32.341 7.63c1.724 1.686 4.619.48 4.609-1.931l-.159-37.715c-.055-13.095 10.516-23.756 23.611-23.811l.285-.001c3.923-.017 7.805.572 11.519 1.725 7.066 2.193 14.379 3.495 21.777 3.463l2.93-.012c7.399-.031 14.7-1.395 21.747-3.647 3.704-1.184 7.581-1.805 11.504-1.822l.285-.001c13.095-.055 23.756 10.516 23.811 23.611l.159 37.715c.01 2.411 14.381 3.545 16.09 1.844 8.132-8.087 20.811-7.854 20.811-7.854l-.196-46.498c-.146-34.966-28.611-63.191-63.577-63.044z" fill="#aa8080"/><path d="m282.191 114.678c-.147-34.966-28.612-63.192-63.578-63.044l-10.395.044.083 56.436c.475-.143.953-.28 1.426-.431 3.704-1.184 7.581-1.805 11.504-1.822l.285-.001c13.095-.055 23.756 10.516 23.811 23.611l.159 37.715c.01 2.411 14.381 3.545 16.09 1.844 8.132-8.087 20.811-7.854 20.811-7.854z" fill="#9d6b6b"/></g><path d="m110.847 345.957 33.741 28.715c4.857 4.134 11.913 4.405 17.074.656l25.886-18.804-58.648-36.338c-3.232.433-7.006.963-11.151 1.587-11.72 1.764-15.928 16.503-6.902 24.184z" fill="#7c8b96"/><path d="m264.157 345.311-33.498 28.998c-4.822 4.175-11.876 4.505-17.068.8l-26.044-18.585 58.339-36.831c3.236.406 7.014.904 11.164 1.493 11.736 1.665 16.069 16.367 7.107 24.125z" fill="#7c8b96"/><path d="m187.548 356.524-25.886 18.804 12.354 17.2 27.368-.115 12.208-17.303z" fill="#fb636f"/></g><path d="m217.03 504.5-15.646-112.087-27.368.115-14.669 111.972z" fill="#fc8086"/></g></g></g></g></g></g></g><g><g><g><path d="m413.728 149.804-22.686-7.658c-.103-9.819-6.471-18.147-15.277-21.197l-.197-53.78c-.015-4.121-3.361-7.452-7.479-7.452-.009 0-.018 0-.028 0-4.131.015-7.467 3.376-7.452 7.506l.197 53.791c-8.847 3.121-15.166 11.511-15.124 21.465.052 12.379 10.071 22.586 22.678 22.586h.099c7.224-.031 13.65-3.457 17.784-8.752l22.699 7.662c3.896 1.315 8.151-.763 9.478-4.694 1.323-3.912-.779-8.156-4.692-9.477zm-45.331.304c-4.204.031-7.737-3.372-7.756-7.691-.018-4.268 3.421-7.738 7.69-7.756h.033c4.244 0 7.706 3.444 7.724 7.691.017 4.259-3.433 7.738-7.691 7.756z"/><path d="m268.399 243.763c26.568 26.208 62.352 41.007 99.959 41.007.202 0 .404 0 .606-.001 78.691-.331 142.116-64.282 141.784-142.984-.33-78.449-63.967-142.033-142.984-141.784-43.664.184-84.847 20.531-111.625 54.773-10.834-6.735-23.599-10.637-37.257-10.637-.1 0-.203 0-.303 0l-65.299.275c-14.77.062-27.925 9.484-32.734 23.444-.335.97-1.285 1.625-2.367 1.63-19.297.082-34.929 15.847-34.848 35.143l.225 53.42c-5.065 4.246-8.057 10.543-8.029 17.333l.07 16.661c.025 6.013 2.391 11.657 6.662 15.892 3.952 3.919 9.098 6.197 14.61 6.494 2.526 23.453 13.907 45.272 36.036 60.999l.133 31.458c.013 2.963-2.196 5.496-5.138 5.892-.001 0-.002 0-.003 0-21.893 2.935-61.893 9.332-83.815 19.204-26.139 11.77-42.951 37.899-42.83 66.566l.075 17.774c.018 4.12 3.362 7.448 7.479 7.447h.032c4.131-.018 7.465-3.38 7.447-7.511l-.075-17.774c-.096-22.766 13.255-43.516 34.014-52.864 12.13-5.462 31.234-9.876 48.465-13.067-1.017 7.174 1.64 14.29 7.299 19.106l33.744 28.718c3.977 3.384 8.88 5.094 13.798 5.093 1.894 0 3.787-.27 5.634-.779l7.044 9.808-13.433 102.541h-77.683l-.173-40.928c-.018-4.12-3.362-7.447-7.479-7.447-.01 0-.021 0-.032 0-4.131.018-7.465 3.38-7.447 7.511l.172 40.865h-19.216c-.035 0-.069 0-.104 0-13.346 0-24.233-10.83-24.29-24.189l-.091-21.629c-.018-4.12-3.362-7.447-7.479-7.447-.01 0-.021 0-.032 0-4.131.018-7.465 3.38-7.447 7.511l.091 21.629c.044 10.484 4.169 20.323 11.613 27.705 7.404 7.342 17.211 11.379 27.601 11.379h.169 294.463c21.278-.09 39.176-18.709 39.084-40.657l-.314-74.367c-.121-28.667-17.152-54.653-43.39-66.203-22.004-9.686-62.057-15.746-83.974-18.496-.001 0-.002 0-.003 0-2.945-.372-5.175-2.885-5.187-5.848l-.132-31.458c11.121-8.047 20.147-17.611 26.904-31.208zm99.428-228.804c.185-.001.368-.001.552-.001 69.2 0 127.111 55.762 127.411 126.89.297 70.425-56.455 127.665-126.889 127.963-.183.001-.359.001-.541.001-35.884 0-69.919-15.063-94.077-41.504 1.306-4.752 2.238-9.644 2.733-14.638 1.64-.102 3.238-.4 4.788-.844 21.123 25.903 53.013 41.17 86.565 41.17.155 0 .311 0 .466-.001 53.778-.227 99.764-38.74 109.346-91.575.737-4.064-1.96-7.957-6.024-8.694-4.063-.742-7.957 1.96-8.694 6.024-8.296 45.744-48.12 79.089-94.691 79.286-.136 0-.267.001-.403.001-28.734 0-56.066-12.936-74.363-34.924 2.666-3.787 4.112-8.284 4.092-13.009l-.071-16.661c-.029-6.79-3.074-13.061-8.175-17.265l-.18-42.546c-.033-7.907-1.388-15.502-3.821-22.598 17.436-28.506 48.584-46.162 82.105-46.303 47.764-.132 88.446 34.47 95.869 81.43.643 4.067 4.461 6.865 8.555 6.22 4.08-.645 6.865-4.475 6.22-8.555-8.571-54.215-55.648-94.311-110.707-94.053-35.576.15-68.827 17.39-89.604 45.73-2.967-4.57-6.442-8.777-10.351-12.541 23.97-30.634 60.821-48.839 99.889-49.003zm-249.586 69.485c7.433-.031 14.042-4.738 16.446-11.715 2.74-7.955 10.238-13.323 18.655-13.359l65.299-.275h.239c30.679 0 55.704 24.894 55.834 55.603l.168 39.734c-4.993.95-11.553 3.095-17.102 7.916-1.277.069-3.165-.024-4.836-.218l-.138-32.702c-.073-17.155-14.052-31.061-31.197-31.061-.044 0-.089 0-.133 0l-.279.001c-4.667.02-9.293.752-13.751 2.177-13.753 4.396-28.209 4.445-41.965.177-4.471-1.387-9.106-2.047-13.775-2.061l-.278.001c-17.239.073-31.133 14.082-31.061 31.324l.123 29.158c-7.093-2.966-15.743-4.063-21.99-4.453l-.211-50.126c-.048-11.071 8.877-20.074 19.952-20.121zm31.185 284.543-33.744-28.717c-2.88-2.451-2.247-5.642-1.985-6.562.261-.913 1.394-3.912 5.06-4.514 3.132-.474 5.997-.885 8.479-1.228l46.903 29.061-16.845 12.237c-.001 0-.001.001-.002.001s-.001.001-.002.002l-.03.022c-2.378 1.724-5.599 1.6-7.834-.302zm98.18-41.53c2.484.322 5.353.71 8.488 1.157 3.671.57 4.83 3.56 5.098 4.471.27.918.93 4.104-1.929 6.579l-33.501 29.001c-2.219 1.921-5.439 2.072-7.829.367l-.031-.022s-.001-.001-.001-.001-.001 0-.001-.001l-16.949-12.095zm-50.115 57.505-19.658.083-5.765-8.027 15.513-11.269 15.608 11.138zm-16.916 15.03 14.3-.06 13.556 97.11h-40.57zm178.648-2.953.314 74.367c.058 13.84-11.019 25.58-24.157 25.635h-19.244l-.176-41.945c-.018-4.12-3.362-7.447-7.479-7.447-.01 0-.021 0-.032 0-4.131.018-7.465 3.38-7.447 7.511l.176 41.882h-77.643l-14.34-102.722 6.961-9.866c1.793.478 3.628.731 5.463.731 4.978 0 9.939-1.752 13.934-5.211l33.501-29c5.618-4.864 8.215-12.002 7.138-19.167 17.257 3.046 36.398 7.298 48.574 12.657 20.835 9.171 34.361 29.809 34.457 52.575zm-132.554-90.547c.022 5.054 1.881 9.727 4.957 13.364l-44.121 27.855-44.354-27.482c3.045-3.663 4.865-8.351 4.844-13.405l-.095-22.624c12.186 5.713 25.322 8.66 39.291 8.757h.051c.039 0 .077 0 .116-.001 13.969-.215 27.079-3.273 39.216-9.088zm-39.459-28.493c-38.456-.305-74.772-28.353-75.873-71.231-.104-4.057-3.423-7.287-7.476-7.287-.01 0-.021 0-.032 0l-5.687.024c-2.017-.028-3.919-.769-5.352-2.191-1.433-1.421-2.227-3.315-2.235-5.333l-.07-16.661c-.01-2.31 1.034-4.439 2.776-5.865 8.584.13 21.151 1.826 24.904 5.497 6.426 6.284 17.358 1.782 17.319-7.31l-.159-37.718c-.038-8.89 7.114-16.265 16.173-16.302l.278-.001c3.131-.013 6.259.454 9.272 1.389 16.765 5.202 34.348 5.091 50.953-.215 3.004-.96 6.119-1.454 9.267-1.467l.279-.001h.069c8.919 0 16.195 7.238 16.233 16.166l.159 37.718c.007 1.694.608 5.877 6.013 8.112 2.615 1.081 17.437 4.368 22.831-.996 4.169-4.146 10.413-5.261 13.511-5.563 1.683 1.412 2.697 3.488 2.706 5.745l.071 16.661c.009 2.018-.769 3.919-2.191 5.352-1.421 1.433-3.315 2.227-5.334 2.235l-5.686.024c-4.068.018-7.376 3.283-7.446 7.35-.739 42.771-36.713 71.239-75.273 71.868z"/></g></g></g></g></svg>