<svg id="Capa_1" enable-background="new 0 0 512 512" height="512" viewBox="0 0 512 512" width="512" xmlns="http://www.w3.org/2000/svg"><g><g><g><g><g><g><g><g><g><g><path d="m68.487 7.5c-18.445 0-33.397 14.953-33.397 33.398v430.204c0 18.445 14.953 33.398 33.398 33.398h314.002c18.445 0 33.398-14.953 33.398-33.398v-360.616c0-6.71-2.666-13.146-7.411-17.891l-77.685-77.685c-4.745-4.745-11.18-7.411-17.891-7.411h-244.414z" fill="#f4f8f8"/><path d="m356.779 100.006c-.786 0-1.563-.037-2.336-.09v371.187c0 18.445-14.953 33.398-33.398 33.398h61.445c18.445 0 33.398-14.953 33.398-33.398v-360.617c0-3.652-.795-7.219-2.279-10.48z" fill="#e7ecf1"/><path d="m408.477 92.595-77.685-77.685c-2.163-2.163-4.679-3.888-7.411-5.131v56.829c0 18.445 14.953 33.398 33.398 33.398h56.829c-1.243-2.731-2.968-5.248-5.131-7.411z" fill="#fc8086"/></g></g></g></g></g></g></g><g><g><g><path d="m471.477 484.544-14.712 14.611c-7.421 7.371-19.487 7.079-26.544-.641l-160.51-175.61 26.796-26.613 174.509 161.706c7.674 7.109 7.883 19.177.461 26.547z" fill="#aa8080"/><g><path d="m277.855 198.6c-18.455 12.977-37.967 29.32-57.073 48.296s-35.582 38.376-48.685 56.742l63.874 64.312c18.455-12.977 37.967-29.32 57.073-48.296s35.582-38.376 48.685-56.742z" fill="#9cabb8"/></g><path d="m296.408 316.28c17.68-17.895 32.994-36.089 45.321-53.368l-63.874-64.312c-17.363 12.208-35.661 27.398-53.676 44.955z" fill="#8c9ba6"/><g><g><g><g fill="#7c8b96"><path d="m372.715 272.134c-9.439 9.374-24.69 9.322-34.064-.116l-66.189-66.643c-9.374-9.439-9.322-24.69.116-34.064 9.439-9.374 24.69-9.322 34.064.116l66.189 66.643c9.375 9.439 9.322 24.69-.116 34.064z"/><path d="m244.981 398.998c-9.439 9.374-24.69 9.322-34.064-.116l-66.189-66.643c-9.374-9.439-9.322-24.69.116-34.064 9.439-9.374 24.69-9.322 34.064.116l66.189 66.643c9.375 9.439 9.323 24.69-.116 34.064z"/></g></g></g></g></g></g></g></g></g><g><g><g><path d="m173.866 47.392h-86.153c-4.143 0-7.5 3.358-7.5 7.5s3.357 7.5 7.5 7.5h86.153c4.143 0 7.5-3.358 7.5-7.5s-3.358-7.5-7.5-7.5z"/><path d="m173.866 82h-86.153c-4.143 0-7.5 3.358-7.5 7.5s3.357 7.5 7.5 7.5h86.153c4.143 0 7.5-3.358 7.5-7.5s-3.358-7.5-7.5-7.5z"/><path d="m476.11 452.493-158.944-147.283c7.249-8.033 14.091-16.147 20.459-24.297 12.287 8.608 29.361 7.474 40.37-3.459 12.386-12.301 12.455-32.282.152-44.67l-66.188-66.643c-12.273-12.357-32.313-12.425-44.671-.152-9.691 9.625-11.821 24.026-6.37 35.753-30.315 23.193-61.228 53.62-85.557 84.97-11.463-5.448-25.933-3.666-35.806 6.14-12.385 12.301-12.457 32.282-.152 44.67l66.188 66.642c12.289 12.374 32.282 12.456 44.67.152 11.003-10.929 12.255-28.009 3.735-40.346 8.212-6.327 16.393-13.13 24.494-20.343l146.19 159.944c9.934 10.867 26.91 11.287 37.365.902l14.711-14.611c10.439-10.366 10.185-27.333-.646-37.369zm-198.251-275.861c6.505-6.46 17.027-6.394 23.458.08l66.188 66.643c6.459 6.504 6.426 16.996-.08 23.456-6.49 6.446-17.013 6.409-23.458-.08l-66.188-66.642c-6.445-6.489-6.409-17.012.08-23.457zm-7.781 36.989 56.57 56.958c-23.087 29.76-52.935 59.419-82.91 82.345l-56.57-56.957c22.495-29 52.219-58.871 82.91-82.346zm-30.387 180.054c-6.498 6.454-16.996 6.425-23.457-.08l-66.188-66.642c-6.46-6.504-6.425-16.997.08-23.457 6.498-6.454 16.996-6.425 23.457.08l66.189 66.642c6.445 6.488 6.409 17.011-.081 23.457zm226.495 85.545-14.711 14.611c-4.522 4.492-11.651 4.075-15.723-.38l-146.22-159.977c2.944-2.787 5.879-5.608 8.792-8.501 2.931-2.911 5.79-5.845 8.615-8.789l158.975 147.311c4.531 4.199 4.689 11.338.272 15.725z"/><path d="m386.746 496.65c-1.396.23-2.83.348-4.262.348h-314c-14.28 0-25.897-11.618-25.897-25.898v-430.203c0-14.279 11.617-25.897 25.897-25.897h244.412c1.01 0 2.004.101 2.98.265v51.343c0 22.551 18.347 40.897 40.897 40.897h51.343c.164.977.265 1.97.265 2.98v261.72c0 4.142 3.357 7.5 7.5 7.5s7.5-3.358 7.5-7.5v-261.72c0-8.762-3.412-16.999-9.606-23.194l-77.685-77.683c-6.194-6.196-14.431-9.608-23.194-9.608h-244.412c-22.55 0-40.897 18.347-40.897 40.897v430.202c0 22.551 18.347 40.898 40.897 40.898h314c2.248 0 4.505-.185 6.708-.549 4.086-.675 6.852-4.536 6.176-8.623-.675-4.086-4.538-6.858-8.622-6.175zm11.029-404.145h-41.002c-14.28 0-25.897-11.618-25.897-25.897v-41.001z"/></g></g></g></g></svg>