<svg id="Capa_1" enable-background="new 0 0 512 512" height="512" viewBox="0 0 512 512" width="512" xmlns="http://www.w3.org/2000/svg"><g><g><g><g><g><g><g><g><g><g><path d="m41.033 7.5c-18.445 0-33.398 14.953-33.398 33.398v430.204c0 18.445 14.953 33.398 33.398 33.398h314.002c18.445 0 33.398-14.953 33.398-33.398v-360.616c0-6.71-2.666-13.146-7.411-17.891l-77.685-77.685c-4.745-4.745-11.18-7.411-17.891-7.411h-244.413z" fill="#f4f8f8"/><path d="m329.324 100.006c-.786 0-1.564-.037-2.336-.09v371.187c0 18.445-14.953 33.398-33.398 33.398h61.445c18.445 0 33.398-14.953 33.398-33.398v-360.617c0-3.652-.795-7.219-2.279-10.48z" fill="#e7ecf1"/><path d="m381.022 92.595-77.685-77.685c-2.163-2.163-4.679-3.888-7.411-5.131v56.829c0 18.445 14.953 33.398 33.398 33.398h56.829c-1.243-2.731-2.968-5.248-5.131-7.411z" fill="#fc8086"/></g></g></g></g></g></g></g><g><g><g><path d="m378.258 240.623c13.925-12.49 33.613-34.01 33.613-55.854 0-21.477-94.248-21.477-94.248 0 0 21.844 19.689 43.364 33.613 55.854-35.027 25.99-126.107 100.909-126.107 177.236 0 60.056 62.509 86.641 139.618 86.641s139.618-26.585 139.618-86.641c0-76.328-91.081-151.246-126.107-177.236z" fill="#78d0b1"/><path d="m378.258 240.623c13.925-12.49 33.613-34.01 33.613-55.854 0-15.775-50.848-19.963-77.847-12.564 9.759 2.674 16.402 6.862 16.402 12.564 0 5.953-1.462 11.882-3.872 17.611-3.877 9.219-5.583 18.954-5.283 28.559 3.42 3.617 6.837 6.88 9.964 9.685-2.33 1.729-4.914 3.68-7.697 5.828 3.249 12.292 9.876 23.736 19.537 32.821 37.905 35.648 79.844 86.793 79.844 138.587 0 51.834-46.568 78.731-108.896 85.125 9.886 1.014 20.166 1.516 30.722 1.516 77.109 0 139.618-26.585 139.618-86.641.002-76.329-91.079-151.247-126.105-177.237z" fill="#66b49d"/><g><path d="m332.112 264.882c21.858 6.08 43.423 6.077 65.271 0 7.924-2.204 12.711-10.256 10.823-18.261l-.148-.629c-1.966-8.34-10.376-13.343-18.698-11.302-16.489 4.045-32.734 4.046-49.225 0-8.322-2.042-16.732 2.962-18.698 11.302l-.148.629c-1.889 8.005 2.899 16.057 10.823 18.261z" fill="#eab14d"/></g></g></g></g></g></g><g><g><g><path d="m146.265 47.414h-86.144c-4.142 0-7.499 3.358-7.499 7.499s3.358 7.499 7.499 7.499h86.144c4.142 0 7.499-3.358 7.499-7.499s-3.358-7.499-7.499-7.499z"/><path d="m146.265 82.018h-86.144c-4.142 0-7.499 3.358-7.499 7.499s3.358 7.499 7.499 7.499h86.144c4.142 0 7.499-3.358 7.499-7.499s-3.358-7.499-7.499-7.499z"/><path d="m382.739 366.757c-2.205-.734-4.46-1.503-6.709-2.305v-33.429c5.935 1.278 9.471 4.103 9.772 4.352 3.128 2.668 7.826 2.32 10.527-.789 2.716-3.127 2.383-7.863-.744-10.579-.431-.374-7.693-6.534-19.555-8.196v-2.512c0-4.142-3.358-7.499-7.499-7.499-4.142 0-7.499 3.358-7.499 7.499v3.055c-1.127.233-2.271.502-3.441.834-11.121 3.154-19.325 12.232-21.408 23.69-1.842 10.128 1.672 19.861 9.17 25.4 3.973 2.934 8.916 5.624 15.679 8.464v42.517c-6.075-.395-10.226-1.752-17.067-5.967-3.527-2.174-8.146-1.074-10.319 2.451-2.172 3.526-1.075 8.146 2.451 10.318 9.724 5.99 16.354 7.763 24.934 8.209v3.347c0 4.142 3.358 7.499 7.499 7.499 4.142 0 7.499-3.358 7.499-7.499v-3.931c16.778-3.188 27.366-16.545 29.457-29.708 2.534-15.953-6.395-29.777-22.747-35.221zm-21.708-8.506c-2.555-1.287-4.863-2.632-6.768-4.038-3.42-2.527-3.96-7.159-3.325-10.652.797-4.382 3.874-9.673 10.093-11.731zm29.643 41.373c-1.07 6.733-6.022 13.878-14.644 16.61v-35.912c.652.221 1.297.44 1.972.665 9.296 3.096 14.034 10.062 12.672 18.637z"/><path d="m251.357 496.975h-210.463c-14.279 0-25.895-11.616-25.895-25.895v-430.16c0-14.279 11.616-25.895 25.895-25.895h244.388c1.01 0 2.003.101 2.98.265v51.338c0 22.548 18.345 40.893 40.893 40.893h51.338c.164.977.265 1.97.265 2.98v25.492c0 4.142 3.358 7.499 7.499 7.499s7.499-3.358 7.499-7.499v-25.492c0-8.761-3.411-16.997-9.606-23.191l-77.677-77.677c-6.195-6.195-14.431-9.606-23.191-9.606h-244.388c-22.549 0-40.894 18.344-40.894 40.893v430.16c0 22.549 18.345 40.894 40.894 40.894h210.463c4.142 0 7.499-3.358 7.499-7.499s-3.358-7.5-7.499-7.5zm51.903-471.345 66.892 66.892h-40.998c-14.278 0-25.895-11.616-25.895-25.895v-40.997z"/><path d="m475.542 325.016c-15.913-21.7-36.651-43.647-61.699-65.306 4.592-9.921 1.536-23.2-8.909-29.594-1.391-.851-2.849-1.541-4.352-2.073 15.063-18.516 18.61-33.38 18.61-43.267 0-17.404-28.214-23.605-54.619-23.605-26.404 0-54.618 6.201-54.618 23.605 0 15.734 8.581 30.897 18.628 43.261-1.509.534-2.974 1.225-4.37 2.079-10.444 6.393-13.502 19.674-8.909 29.595-25.048 21.658-45.786 43.605-61.699 65.305-76.1 103.777-30.037 186.957 110.968 186.957 139.902 0 187.674-82.353 110.969-186.957zm-150.589-140.179c1.081-2.59 13.843-8.668 39.62-8.668s38.539 6.078 39.62 8.668c-.02 9.034-4.399 23.938-24.75 44.183-9.953 1.608-19.788 1.608-29.74 0-20.35-20.245-24.73-35.149-24.75-44.183zm11.253 56.898c3.666 0 24.193 7.741 54.765.24 10.156-2.502 14.059 12.946 4.226 15.681-20.607 5.731-40.639 5.731-61.245 0-8.732-2.429-6.906-15.921 2.254-15.921zm28.368 255.24c-164.796 0-172.729-110.878-38.811-226.474 18.766 9.397 63.344 7.15 77.621 0 131.585 113.582 128.219 226.474-38.81 226.474z"/></g></g></g></g></svg>