<svg id="Capa_1" enable-background="new 0 0 512 512" height="512" viewBox="0 0 512 512" width="512" xmlns="http://www.w3.org/2000/svg"><g><g><g><g><path d="m68.83 210.112h47.953v206.263h-47.953z" fill="#fbe77b"/><g fill="#ffd064"><path d="m120.345 223.176h-55.077c-7.54 0-13.653-6.113-13.653-13.653v-29.763h82.383v29.762c0 7.541-6.113 13.654-13.653 13.654z"/><path d="m120.345 394.667h-55.077c-7.54 0-13.653 6.113-13.653 13.653v29.762h82.383v-29.762c0-7.54-6.113-13.653-13.653-13.653z"/></g></g><g><path d="m395.19 210.112h47.953v206.263h-47.953z" fill="#fbe77b"/><g fill="#ffd064"><path d="m446.705 223.176h-55.078c-7.54 0-13.653-6.113-13.653-13.653v-29.763h82.383v29.762c.001 7.541-6.111 13.654-13.652 13.654z"/><path d="m446.705 394.667h-55.078c-7.54 0-13.653 6.113-13.653 13.653v29.762h82.383v-29.762c.001-7.54-6.111-13.653-13.652-13.653z"/></g></g><g><path d="m232.01 210.112h47.953v206.263h-47.953z" fill="#fbe77b"/><g fill="#ffd064"><path d="m283.525 223.176h-55.078c-7.54 0-13.653-6.113-13.653-13.653v-29.763h82.383v29.762c.001 7.541-6.112 13.654-13.652 13.654z"/><path d="m283.525 394.667h-55.078c-7.54 0-13.653 6.113-13.653 13.653v29.762h82.383v-29.762c.001-7.54-6.112-13.653-13.652-13.653z"/></g></g><g><path d="m26.643 146.162v28.37c0 8.669 7.028 15.696 15.696 15.696h427.295c8.669 0 15.696-7.027 15.696-15.696v-28.37z" fill="#fbd307"/><path d="m423.886 146.162v28.37c0 8.669-7.028 15.696-15.696 15.696h61.445c8.669 0 15.696-7.027 15.696-15.696v-28.37z" fill="#f9c301"/><path d="m17.232 154.133c-13.116-6.186-12.934-24.909.301-30.837l231.74-103.811c4.417-1.979 9.47-1.977 13.886.004l231.318 103.798c13.226 5.935 13.403 24.649.291 30.833l-.028.013c-2.264 1.068-4.736 1.621-7.239 1.621h-463.03c-2.503.001-4.975-.553-7.239-1.621z" fill="#f9c301"/><g><path d="m494.477 123.287-51.334-23.035v38.831c-.019 6.118-3.256 11.983-9.732 15.037l-.028.013c-2.264 1.068-4.736 1.621-7.239 1.621h61.357c2.503 0 4.975-.554 7.239-1.621l.028-.013c13.112-6.183 12.935-24.898-.291-30.833z" fill="#e6b700"/></g><path d="m26.643 435.24v40.135h458.687v-40.135c0-4.804-3.894-8.698-8.698-8.698h-441.292c-4.803 0-8.697 3.894-8.697 8.698z" fill="#fbd307"/><path d="m476.633 426.542h-61.445c4.804 0 8.698 3.894 8.698 8.698v40.135h61.445v-40.135c-.001-4.804-3.895-8.698-8.698-8.698z" fill="#f9c301"/><path d="m7.923 475.374v11.682c0 3.834 3.108 6.941 6.942 6.941h482.694c3.834 0 6.941-3.108 6.941-6.941v-11.682c0-8.99-7.288-16.278-16.277-16.278h-464.023c-8.989.001-16.277 7.288-16.277 16.278z" fill="#f9c301"/><path d="m488.222 459.097h-64.111c10.462 0 18.944 8.481 18.944 18.944v15.957h54.503c3.834 0 6.942-3.108 6.942-6.942v-11.682c0-8.989-7.288-16.277-16.278-16.277z" fill="#e6b700"/><circle cx="255.986" cy="95.262" fill="#fceeac" r="30.972"/></g></g></g><g><g><g><path d="m492.83 452.058v-16.815c0-8.928-7.264-16.192-16.192-16.192h-8.781v-10.728c0-10.316-7.43-18.917-17.216-20.766v-157.27c9.786-1.849 17.216-10.45 17.216-20.766v-11.801h1.782c12.787 0 23.19-10.403 23.19-23.19v-11.876c23.125-5.163 26.043-36.64 4.721-46.208l-231.324-103.8c-6.36-2.853-13.656-2.856-20.018-.006l-231.745 103.812c-19.092 8.553-19.328 35.544-.433 44.455 1.628.768 3.349 1.354 5.113 1.747v11.875c0 12.787 10.403 23.19 23.19 23.19h1.782v11.801c0 10.316 7.43 18.917 17.216 20.766v21.623c0 4.139 3.355 7.494 7.494 7.494s7.494-3.355 7.494-7.494v-21.243h32.966v156.509h-32.966v-100.23c0-4.139-3.355-7.494-7.494-7.494s-7.494 3.355-7.494 7.494v100.611c-9.786 1.85-17.216 10.451-17.216 20.766v10.728h-8.781c-8.928 0-16.192 7.264-16.192 16.192v16.91c-10.689 2.323-18.72 11.852-18.72 23.226v11.683c0 7.96 6.476 14.435 14.436 14.435h482.706c7.96 0 14.435-6.476 14.435-14.435v-11.683c.001-11.533-8.256-21.171-19.169-23.32zm-39.96-43.735v10.728h-67.398v-10.728c0-3.396 2.763-6.159 6.159-6.159h55.079c3.396 0 6.16 2.763 6.16 6.159zm-148.184 10.728v-10.728c0-10.316-7.429-18.917-17.215-20.766v-157.27c9.786-1.849 17.215-10.45 17.215-20.766v-11.801h65.798v11.801c0 10.316 7.429 18.917 17.216 20.766v101.31c0 4.139 3.355 7.494 7.494 7.494s7.494-3.355 7.494-7.494v-100.93h32.966v156.509h-32.966v-20.545c0-4.139-3.355-7.494-7.494-7.494s-7.494 3.355-7.494 7.494v20.925c-9.787 1.849-17.216 10.451-17.216 20.766v10.728h-65.798zm-82.385 0v-10.728c0-3.396 2.763-6.159 6.159-6.159h55.079c3.396 0 6.159 2.763 6.159 6.159v10.728zm-80.812 0v-10.728c0-10.316-7.429-18.917-17.216-20.766v-157.27c9.787-1.849 17.216-10.45 17.216-20.766v-11.801h65.825v11.801c0 10.316 7.43 18.917 17.216 20.766v157.27c-9.786 1.85-17.216 10.451-17.216 20.766v10.728zm148.21-221.332v11.801c0 3.396-2.763 6.159-6.159 6.159h-55.079c-3.396 0-6.159-2.763-6.159-6.159v-11.801zm-50.182 189.457v-156.509h32.966v156.509zm213.353-177.656c0 3.396-2.763 6.159-6.159 6.159h-55.079c-3.396 0-6.159-2.763-6.159-6.159v-11.801h67.398v11.801zm-432.28-79.39 231.747-103.813c2.385-1.069 5.214-1.138 7.754.002l231.324 103.8c9.294 4.17 6.348 18.137-3.908 18.137h-463.042c-1.389 0-2.787-.313-4.042-.905h-.001c-7.341-3.462-7.245-13.9.168-17.221zm13.541 44.399v-11.285h443.712v11.285c0 4.523-3.68 8.203-8.203 8.203h-427.307c-4.523 0-8.202-3.68-8.202-8.203zm24.972 34.991v-11.801h67.398v11.801c0 3.396-2.763 6.159-6.159 6.159h-55.079c-3.396 0-6.16-2.763-6.16-6.159zm0 198.803c0-3.396 2.763-6.159 6.159-6.159h55.079c3.396 0 6.159 2.763 6.159 6.159v10.728h-67.397zm-23.768 25.716h441.303c.664 0 1.204.54 1.204 1.204v16.364h-443.711v-16.364c0-.664.54-1.204 1.204-1.204zm461.677 52.47h-481.602v-11.13c0-4.843 3.941-8.784 8.784-8.784h464.034c4.843 0 8.784 3.941 8.784 8.784z"/><path d="m255.986 133.723c21.211 0 38.467-17.256 38.467-38.467s-17.257-38.466-38.467-38.466-38.466 17.256-38.466 38.466 17.255 38.467 38.466 38.467zm0-61.945c12.946 0 23.479 10.532 23.479 23.479s-10.533 23.479-23.479 23.479-23.479-10.533-23.479-23.479 10.533-23.479 23.479-23.479z"/></g></g></g></g></svg>