<svg id="Capa_1" enable-background="new 0 0 512 512" height="512" viewBox="0 0 512 512" width="512" xmlns="http://www.w3.org/2000/svg"><g><g><g><g><g><path d="m7.5 457.98c0 14.263 11.562 25.826 25.826 25.826h445.349c14.263 0 25.826-11.563 25.826-25.826v-307.757l-56.779-13.354h-393.167l-47.055 13.354z" fill="#f4f8f8"/><path d="m447.721 136.869h-4.665v321.111c0 14.263-11.563 25.826-25.826 25.826h61.445c14.263 0 25.826-11.563 25.826-25.826v-307.757z" fill="#e7ecf1"/><g><g><path d="m436.604 439.363h-77.962c-6.139 0-11.116-4.977-11.116-11.116v-77.962c0-6.139 4.977-11.116 11.116-11.116h77.962c6.139 0 11.116 4.977 11.116 11.116v77.962c0 6.139-4.976 11.116-11.116 11.116z" fill="#fbe77b"/></g><path d="m436.604 296.08h-77.962c-6.139 0-11.116-4.977-11.116-11.116v-77.962c0-6.139 4.977-11.116 11.116-11.116h77.962c6.139 0 11.116 4.977 11.116 11.116v77.962c0 6.139-4.976 11.116-11.116 11.116z" fill="#fbe77b"/></g><g><g><path d="m290.119 439.363h-77.962c-6.139 0-11.116-4.977-11.116-11.116v-77.962c0-6.139 4.977-11.116 11.116-11.116h77.962c6.139 0 11.116 4.977 11.116 11.116v77.962c0 6.139-4.977 11.116-11.116 11.116z" fill="#fbe77b"/></g><path d="m290.119 296.08h-77.962c-6.139 0-11.116-4.977-11.116-11.116v-77.962c0-6.139 4.977-11.116 11.116-11.116h77.962c6.139 0 11.116 4.977 11.116 11.116v77.962c0 6.139-4.977 11.116-11.116 11.116z" fill="#fbe77b"/></g><g><g><path d="m143.633 439.363h-77.962c-6.139 0-11.116-4.977-11.116-11.116v-77.962c0-6.139 4.977-11.116 11.116-11.116h77.962c6.139 0 11.116 4.977 11.116 11.116v77.962c0 6.139-4.977 11.116-11.116 11.116z" fill="#fbe77b"/></g><path d="m143.633 296.08h-77.962c-6.139 0-11.116-4.977-11.116-11.116v-77.962c0-6.139 4.977-11.116 11.116-11.116h77.962c6.139 0 11.116 4.977 11.116 11.116v77.962c0 6.139-4.977 11.116-11.116 11.116z" fill="#fbe77b"/></g><path d="m478.674 72.161h-445.348c-14.264 0-25.826 11.562-25.826 25.825v52.236h497v-52.236c0-14.263-11.562-25.825-25.826-25.825z" fill="#fc8086"/><path d="m478.674 72.161h-61.444c14.263 0 25.826 11.563 25.826 25.826v52.236h61.444v-52.237c0-14.263-11.562-25.825-25.826-25.825z" fill="#fb636f"/></g></g><g fill="#8c9ba6"><path d="m89.396 116.127c-14.404 0-26.08-11.677-26.08-26.08v-35.773c0-14.404 11.677-26.08 26.08-26.08 14.404 0 26.08 11.677 26.08 26.08v35.773c0 14.404-11.676 26.08-26.08 26.08z"/><path d="m200.465 116.127c-14.404 0-26.08-11.677-26.08-26.08v-35.773c0-14.404 11.677-26.08 26.08-26.08 14.404 0 26.08 11.677 26.08 26.08v35.773c.001 14.404-11.676 26.08-26.08 26.08z"/><path d="m311.535 116.127c-14.404 0-26.08-11.677-26.08-26.08v-35.773c0-14.404 11.677-26.08 26.08-26.08 14.404 0 26.08 11.677 26.08 26.08v35.773c0 14.404-11.677 26.08-26.08 26.08z"/><path d="m422.604 116.127c-14.404 0-26.08-11.677-26.08-26.08v-35.773c0-14.404 11.677-26.08 26.08-26.08 14.404 0 26.08 11.677 26.08 26.08v35.773c0 14.404-11.676 26.08-26.08 26.08z"/></g></g></g><g><g><g><path d="m129.919 223.33c-3.264-2.558-7.987-1.984-10.545 1.282l-20.606 26.307-10.273-7.593c-3.335-2.464-8.039-1.76-10.505 1.577-2.466 3.336-1.759 8.039 1.577 10.505l13.505 9.981c4.763 3.522 11.374 2.644 15.044-2.042l23.085-29.473c2.558-3.265 1.984-7.986-1.282-10.544z"/><path d="m276.398 223.33c-3.264-2.558-7.987-1.984-10.545 1.282l-20.606 26.307-10.273-7.593c-3.335-2.464-8.039-1.76-10.505 1.577-2.466 3.336-1.759 8.039 1.577 10.505l13.504 9.98c4.764 3.523 11.375 2.645 15.045-2.041l23.085-29.473c2.557-3.265 1.984-7.986-1.282-10.544z"/><path d="m422.877 223.33c-3.264-2.558-7.987-1.984-10.545 1.282l-20.606 26.308-10.273-7.593c-3.336-2.466-8.039-1.761-10.505 1.576-2.466 3.336-1.76 8.039 1.576 10.505l13.505 9.981c4.765 3.522 11.375 2.643 15.045-2.042l23.085-29.473c2.557-3.265 1.984-7.986-1.282-10.544z"/><path d="m129.919 366.606c-3.264-2.559-7.987-1.984-10.545 1.282l-20.606 26.308-10.273-7.593c-3.335-2.464-8.039-1.76-10.505 1.577-2.466 3.336-1.759 8.039 1.577 10.505l13.505 9.981c4.763 3.522 11.374 2.644 15.044-2.042l23.085-29.473c2.558-3.266 1.984-7.987-1.282-10.545z"/><path d="m436.596 331.653h-77.959c-10.271 0-18.627 8.356-18.627 18.627v20.063c0 4.148 3.363 7.511 7.511 7.511s7.511-3.363 7.511-7.511v-20.063c0-1.987 1.617-3.605 3.605-3.605h77.959c1.987 0 3.604 1.617 3.604 3.605v77.959c0 1.987-1.617 3.604-3.604 3.604h-77.959c-1.987 0-3.605-1.617-3.605-3.604v-22.78c0-4.148-3.363-7.511-7.511-7.511s-7.511 3.363-7.511 7.511v22.78c0 10.271 8.356 18.627 18.627 18.627h77.959c10.271 0 18.627-8.356 18.627-18.627v-77.959c0-10.27-8.356-18.627-18.627-18.627z"/><path d="m436.596 188.377h-77.959c-10.271 0-18.627 8.356-18.627 18.627v77.959c0 10.271 8.356 18.627 18.627 18.627h77.959c10.271 0 18.627-8.356 18.627-18.627v-77.959c0-10.271-8.356-18.627-18.627-18.627zm3.604 96.586c0 1.987-1.617 3.604-3.604 3.604h-77.959c-1.987 0-3.605-1.617-3.605-3.604v-77.959c0-1.987 1.617-3.605 3.605-3.605h77.959c1.987 0 3.604 1.617 3.604 3.605z"/><path d="m290.117 331.653h-77.959c-10.271 0-18.627 8.356-18.627 18.627v77.959c0 10.271 8.356 18.627 18.627 18.627h77.959c10.271 0 18.627-8.356 18.627-18.627v-77.959c0-10.27-8.356-18.627-18.627-18.627zm3.605 96.586c0 1.987-1.617 3.604-3.605 3.604h-77.959c-1.987 0-3.604-1.617-3.604-3.604v-77.959c0-1.987 1.617-3.605 3.604-3.605h77.959c1.987 0 3.605 1.617 3.605 3.605z"/><path d="m290.117 188.377h-77.959c-10.271 0-18.627 8.356-18.627 18.627v77.959c0 10.271 8.356 18.627 18.627 18.627h77.959c10.271 0 18.627-8.356 18.627-18.627v-77.959c0-10.271-8.356-18.627-18.627-18.627zm3.605 96.586c0 1.987-1.617 3.604-3.605 3.604h-77.959c-1.987 0-3.604-1.617-3.604-3.604v-77.959c0-1.987 1.617-3.605 3.604-3.605h77.959c1.987 0 3.605 1.617 3.605 3.605z"/><path d="m143.638 331.653h-77.958c-10.271 0-18.627 8.356-18.627 18.627v77.959c0 10.271 8.356 18.627 18.627 18.627h77.958c10.271 0 18.627-8.356 18.627-18.627v-77.959c0-10.27-8.356-18.627-18.627-18.627zm3.604 96.586c0 1.987-1.617 3.604-3.605 3.604h-77.957c-1.987 0-3.605-1.617-3.605-3.604v-77.959c0-1.987 1.617-3.605 3.605-3.605h77.958c1.987 0 3.605 1.617 3.605 3.605v77.959z"/><path d="m143.638 188.377h-77.958c-10.271 0-18.627 8.356-18.627 18.627v77.959c0 10.271 8.356 18.627 18.627 18.627h77.958c10.271 0 18.627-8.356 18.627-18.627v-77.959c0-10.271-8.356-18.627-18.627-18.627zm3.604 96.586c0 1.987-1.617 3.604-3.605 3.604h-77.957c-1.987 0-3.605-1.617-3.605-3.604v-77.959c0-1.987 1.617-3.605 3.605-3.605h77.958c1.987 0 3.605 1.617 3.605 3.605v77.959z"/><path d="m478.664 64.658h-22.478v-10.374c0-18.522-15.069-33.59-33.59-33.59-18.522 0-33.59 15.069-33.59 33.59v10.374h-43.884v-10.374c0-18.522-15.069-33.59-33.59-33.59s-33.59 15.069-33.59 33.59v10.374h-43.884v-10.374c0-18.522-15.069-33.59-33.59-33.59s-33.59 15.069-33.59 33.59v10.374h-43.884v-10.374c0-18.522-15.069-33.59-33.59-33.59s-33.59 15.069-33.59 33.59v10.374h-22.478c-18.382 0-33.336 14.954-33.336 33.336v359.977c0 18.381 14.954 33.336 33.336 33.336h445.328c18.382 0 33.336-14.954 33.336-33.336 0-11.681 0-341.1 0-359.977 0-18.382-14.954-33.336-33.336-33.336zm-74.635-10.374c0-10.238 8.329-18.568 18.568-18.568 10.238 0 18.568 8.329 18.568 18.568v35.771c0 10.238-8.329 18.568-18.568 18.568-10.238 0-18.568-8.329-18.568-18.568zm-111.064 0c0-10.238 8.329-18.568 18.568-18.568s18.567 8.33 18.567 18.568v35.771c0 10.238-8.329 18.568-18.568 18.568s-18.568-8.329-18.568-18.568v-35.771zm-111.065 0c0-10.238 8.329-18.568 18.568-18.568 10.238 0 18.568 8.329 18.568 18.568v35.771c0 10.238-8.329 18.568-18.568 18.568-10.238 0-18.568-8.329-18.568-18.568zm-111.064 0c0-10.238 8.329-18.568 18.568-18.568s18.568 8.329 18.568 18.568v35.771c0 10.238-8.329 18.568-18.568 18.568s-18.568-8.329-18.568-18.568zm407.828 422h-445.328c-10.098 0-18.313-8.215-18.313-18.313v-300.232h72.078c4.148 0 7.511-3.363 7.511-7.511s-3.363-7.511-7.511-7.511h-72.078v-44.723c0-10.098 8.216-18.313 18.313-18.313h22.477v10.375c0 18.522 15.069 33.59 33.59 33.59s33.59-15.069 33.59-33.59v-10.376h43.884v10.375c0 18.522 15.069 33.59 33.59 33.59s33.59-15.069 33.59-33.59v-10.375h43.884v10.375c0 18.522 15.069 33.59 33.59 33.59s33.59-15.069 33.59-33.59v-10.375h43.884v10.375c0 18.522 15.069 33.59 33.59 33.59 18.522 0 33.59-15.069 33.59-33.59v-10.375h22.478c10.098 0 18.313 8.216 18.313 18.313v44.723h-374.76c-4.148 0-7.511 3.363-7.511 7.511s3.363 7.511 7.511 7.511h374.76v300.232c.001 10.099-8.214 18.314-18.312 18.314z"/></g></g></g></g></svg>