<svg id="Capa_1" enable-background="new 0 0 512 512" height="512" viewBox="0 0 512 512" width="512" xmlns="http://www.w3.org/2000/svg"><g><g><g><g><g><g><g><path d="m352.59 15.096h-236.565v92.172c0 43.44 21.54 84.054 57.503 108.421l34.805 23.582-34.805 23.582c-35.963 24.367-57.503 64.98-57.503 108.421v92.172h236.565v-92.172c0-43.44-21.54-84.054-57.503-108.421l-34.805-23.582 34.805-23.582c35.963-24.367 57.503-64.98 57.503-108.421z" fill="#f4f8f8"/></g><path d="m352.59 107.268v-92.172h-61.266v92.172c0 43.44-21.54 84.054-57.503 108.421l-30.146 20.425 4.659 3.157-4.659 3.157 30.146 20.425c35.963 24.367 57.503 64.98 57.503 108.421v92.172h61.266v-92.172c0-43.44-21.54-84.054-57.503-108.421l-34.805-23.582 34.805-23.582c35.962-24.367 57.503-64.98 57.503-108.421z" fill="#e7ecf1"/><g><g><g><g><path d="m413.406 45.435h-358.198c-10.475 0-18.967-8.492-18.967-18.967 0-10.475 8.492-18.967 18.967-18.967h358.198c10.475 0 18.967 8.492 18.967 18.967.001 10.475-8.491 18.967-18.967 18.967z" fill="#aa8080"/></g></g></g></g><path d="m413.406 7.5h-42.477v18.967c0 10.475-8.492 18.967-18.967 18.967h61.445c10.475 0 18.967-8.492 18.967-18.967 0-10.475-8.492-18.967-18.968-18.967z" fill="#9d6b6b"/></g><path d="m205.416 325.195-89.392 48.015v90.236h236.566v-90.236l-89.392-48.015c-18.042-9.691-39.74-9.691-57.782 0z" fill="#ffd064"/><g><g><g><path d="m413.406 471.043h-358.198c-10.475 0-18.967-8.492-18.967-18.967 0-10.475 8.492-18.967 18.967-18.967h358.198c10.475 0 18.967 8.492 18.967 18.967.001 10.475-8.491 18.967-18.967 18.967z" fill="#aa8080"/></g></g></g></g><path d="m125.36 155.791c9.576 23.997 26.166 44.991 48.168 59.898l34.775 23.562h52.008l34.775-23.562c22.002-14.907 38.592-35.902 48.168-59.898z" fill="#ffd064"/><path d="m281.988 155.791c-9.576 23.997-26.166 44.991-48.168 59.898l-30.146 20.425 4.629 3.136h52.008l34.775-23.562c22.002-14.907 38.592-35.902 48.168-59.898h-61.266z" fill="#fbd307"/></g><g><g><path d="m459.162 379.753c-13.309.048-19.988-16.03-10.591-25.427 6.505-6.505 6.505-17.051 0-23.555l-6.704-6.704c-6.457-6.458-16.698-6.142-23.133.339-9.377 9.445-25.469 2.799-25.469-10.49 0-9.199-7.457-16.656-16.656-16.656h-8.942c-9.199 0-16.656 7.457-16.656 16.656 0 13.27-16.044 19.915-25.427 10.532-6.505-6.505-17.051-6.505-23.555 0l-6.323 6.323c-6.505 6.505-6.505 17.051 0 23.555 9.397 9.397 2.718 25.474-10.591 25.427-9.132-.033-16.597 6.985-16.597 16.118v9.48c0 9.199 7.457 16.656 16.656 16.656 13.27 0 19.915 16.044 10.532 25.427-6.505 6.505-6.505 17.051 0 23.555l6.323 6.323c6.505 6.505 17.051 6.505 23.555 0 9.383-9.383 25.427-2.738 25.427 10.532 0 9.199 7.457 16.656 16.656 16.656h8.942c9.199 0 16.656-7.457 16.656-16.656 0-13.27 16.044-19.915 25.427-10.532 6.505 6.505 17.051 6.505 23.555 0l6.323-6.323c6.505-6.505 6.505-17.051 0-23.555-9.397-9.397-2.718-25.475 10.591-25.427 9.132.033 16.597-6.985 16.597-16.118v-10.019c.001-9.132-7.464-16.15-16.596-16.117z" fill="#8c9ba6"/></g><path d="m459.162 379.753c-13.309.048-19.988-16.03-10.591-25.427 6.505-6.505 6.505-17.051 0-23.555l-6.704-6.704c-6.458-6.458-16.698-6.142-23.133.339-9.377 9.445-25.469 2.799-25.469-10.49 0-9.199-7.457-16.656-16.656-16.656h-8.942c-6.422 0-11.985 3.64-14.765 8.963 36.189 16.162 61.411 52.462 61.411 94.657s-25.223 78.495-61.411 94.657c2.78 5.324 8.343 8.964 14.765 8.964h8.942c9.199 0 16.656-7.457 16.656-16.656 0-13.27 16.044-19.915 25.427-10.532 6.505 6.505 17.051 6.505 23.555 0l6.323-6.323c6.505-6.505 6.505-17.051 0-23.555-9.397-9.397-2.718-25.475 10.591-25.427 9.132.033 16.597-6.985 16.597-16.118v-10.02c.001-9.132-7.464-16.15-16.596-16.117z" fill="#7c8b96"/><circle cx="372.139" cy="400.88" fill="#f5f5f5" r="37.989"/></g></g></g><g><g><g><path d="m459.228 372.252c-.031 0-.062 0-.092 0-.011 0-.021 0-.033 0-6.587 0-9.887-7.966-5.229-12.623 9.44-9.44 9.442-24.721 0-34.162l-6.704-6.705c-9.34-9.339-24.336-9.131-33.758.359-2.757 2.777-6.575 2.787-9.392.918v-267.104h9.386c14.594 0 26.467-11.874 26.467-26.468s-11.873-26.467-26.467-26.467h-358.198c-14.594 0-26.467 11.873-26.467 26.467s11.873 26.468 26.467 26.468h9.386v372.672h-9.386c-14.594 0-26.467 11.874-26.467 26.468s11.873 26.467 26.467 26.467h237.445l4.073 4.072c9.441 9.441 24.721 9.441 34.162 0 4.658-4.656 12.624-1.36 12.624 5.229 0 13.32 10.836 24.156 24.156 24.156h8.942c13.32 0 24.156-10.836 24.156-24.156 0-6.586 7.964-9.888 12.623-5.229 9.441 9.441 24.721 9.442 34.162 0l6.323-6.323c9.44-9.44 9.442-24.721 0-34.162-4.658-4.658-1.359-12.624 5.229-12.624h.125c13.26 0 24.032-10.369 24.032-23.618v-10.017c-.001-13.233-10.754-23.618-24.032-23.618zm-70.208-79.052c-3.63-2.183-7.875-3.441-12.41-3.441h-8.942c-11.041 0-20.369 7.449-23.24 17.583-10.553-20.348-25.914-37.675-45.135-50.698l-25.642-17.373 25.642-17.374c38.069-25.793 60.796-68.646 60.796-114.63 0-4.142-3.358-7.5-7.5-7.5s-7.5 3.358-7.5 7.5c0 14.18-2.427 28.025-7.002 41.023h-207.56c-4.575-12.998-7.002-26.843-7.002-41.023v-54.332h221.565v19.048c0 4.142 3.358 7.5 7.5 7.5s7.5-3.358 7.5-7.5v-19.048h28.93zm-92.293 25.945-6.323 6.322c-1.25 1.25-2.341 2.617-3.273 4.07l-20.383-10.949c-43.617-23.427-77.943 9.657-92.587 14.883-3.649 1.96-5.019 6.507-3.059 10.156s6.509 5.018 10.156 3.059c15.424-5.774 43.325-33.718 78.392-14.883l23.768 12.767c.468 5.69 2.904 10.978 6.987 15.06 3.248 3.248 2.044 7 1.597 8.072-.445 1.07-2.25 4.552-6.826 4.552-.041 0-.083 0-.125 0-13.259 0-24.032 10.369-24.032 23.618v9.48c0 8.478 4.394 15.945 11.021 20.257h-148.515v-47.912l26.646-14.312c3.649-1.96 5.019-6.507 3.059-10.156-1.961-3.65-6.509-5.018-10.156-3.059l-19.064 10.24c3.237-36.813 22.801-70.392 53.726-91.345l32.93-22.312h47.284l32.93 22.312c19.267 13.054 34.187 30.957 43.548 52.092-1.147-.26-2.375-.846-3.539-2.01-9.44-9.442-24.721-9.444-34.162-.002zm-38.717-87.394h-47.405l-32.869-22.271c-17.559-11.897-31.445-27.87-40.772-46.189h194.688c-9.327 18.318-23.213 34.292-40.772 46.189zm-214.269-205.284c0-6.323 5.144-11.467 11.467-11.467h358.198c6.323 0 11.467 5.144 11.467 11.467s-5.144 11.468-11.467 11.468h-358.198c-6.323 0-11.467-5.144-11.467-11.468zm35.853 26.468h28.931v54.333c0 45.984 22.728 88.837 60.796 114.63l25.641 17.374-25.641 17.373c-38.069 25.793-60.796 68.646-60.796 114.63v54.333h-28.931zm-35.853 399.14c0-6.323 5.144-11.468 11.467-11.468h236.387c-.308.512-.691 1.023-1.191 1.522-5.698 5.698-8.085 13.635-6.684 21.413h-228.512c-6.323 0-11.467-5.144-11.467-11.467zm424.518-46.186c0 4.966-4.066 8.618-9.033 8.618-.042 0-.083 0-.124 0-19.948 0-29.958 24.107-15.834 38.23 3.578 3.577 3.579 9.37 0 12.948l-6.323 6.323c-3.578 3.579-9.369 3.579-12.948 0-14.104-14.104-38.23-4.136-38.23 15.835 0 5.049-4.107 9.156-9.156 9.156h-8.942c-5.049 0-9.156-4.107-9.156-9.156 0-19.951-24.11-29.956-38.23-15.835-3.578 3.578-9.37 3.579-12.949 0l-6.323-6.322c-3.579-3.579-3.579-9.37 0-12.949 14.104-14.105 4.109-38.23-15.835-38.23-5.049 0-9.156-4.107-9.156-9.156v-9.48c0-4.967 4.067-8.618 9.034-8.618.04-.001.082 0 .124 0 9.213 0 17.13-5.276 20.673-13.787 3.555-8.538 1.7-17.904-4.839-24.444-3.602-3.601-3.55-9.398 0-12.948l6.323-6.323c3.577-3.578 9.369-3.579 12.948 0 6.526 6.527 15.877 8.388 24.406 4.854 8.527-3.532 13.824-11.46 13.824-20.69 0-5.049 4.107-9.156 9.156-9.156h8.942c5.049 0 9.156 4.107 9.156 9.156 0 19.984 24.183 29.983 38.291 15.774 3.547-3.572 9.025-3.802 12.507-.32l6.704 6.705c3.578 3.577 3.579 9.369 0 12.948-14.116 14.114-4.132 38.287 15.921 38.23h.037c4.968 0 9.034 3.651 9.034 8.618v10.019z"/><path d="m372.139 355.391c-25.083 0-45.489 20.406-45.489 45.489s20.406 45.489 45.489 45.489 45.489-20.406 45.489-45.489-20.406-45.489-45.489-45.489zm0 75.978c-16.812 0-30.489-13.677-30.489-30.489s13.677-30.489 30.489-30.489 30.489 13.677 30.489 30.489c0 16.811-13.677 30.489-30.489 30.489z"/></g></g></g></g></svg>