<svg id="Capa_1" enable-background="new 0 0 512 512" height="512" viewBox="0 0 512 512" width="512" xmlns="http://www.w3.org/2000/svg"><g><g><g><g><g><g><g fill="#f9c301"><path d="m164.507 481.09 85.237-199.895-42.819-18.258-88.589 207.757c-4.08 9.568 2.941 20.193 13.342 20.193h18.001c6.459 0 12.295-3.855 14.828-9.797z"/><path d="m393.664 470.694-88.589-207.757-42.819 18.258 85.236 199.895c2.534 5.942 8.369 9.797 14.828 9.797h18.001c10.403 0 17.423-10.625 13.343-20.193z"/></g><g><path d="m341.714 88.519h-171.428l13.741-51.417c2.52-9.43 11.063-15.99 20.824-15.99h102.298c9.761 0 18.304 6.56 20.824 15.99z" fill="#f9c301"/><path d="m477.054 384.261h-442.108c-15.158 0-27.446-12.288-27.446-27.446v-274.553c0-15.158 12.288-27.446 27.446-27.446h442.108c15.158 0 27.446 12.288 27.446 27.446v274.553c0 15.158-12.288 27.446-27.446 27.446z" fill="#f4f8f8"/><path d="m40.526 343.148v-247.219c0-4.467 3.621-8.087 8.087-8.087h414.774c4.467 0 8.087 3.621 8.087 8.087v247.219c0 4.467-3.621 8.087-8.087 8.087h-414.774c-4.467 0-8.087-3.621-8.087-8.087z" fill="#e7ecf1"/><path d="m463.387 87.842h-61.445c4.466 0 8.087 3.621 8.087 8.087v247.219c0 4.467-3.621 8.087-8.087 8.087h61.445c4.467 0 8.087-3.621 8.087-8.087v-247.219c0-4.466-3.62-8.087-8.087-8.087z" fill="#dae4ea"/></g></g></g></g><g><path d="m183.072 138.788v64.304c0 2.033 1.648 3.681 3.681 3.681h64.304c2.096 0 3.793-1.749 3.682-3.842-1.93-36.578-31.247-65.896-67.826-67.826-2.092-.11-3.841 1.587-3.841 3.683z" fill="#78d0b1"/><g><g><path d="m157.753 232.092v-66.789c0-2.789-2.369-4.995-5.151-4.798-37.798 2.68-67.509 34.631-66.598 73.318.896 38.072 31.946 69.122 70.018 70.018 19.988.471 38.162-7.247 51.443-20.019z" fill="#fc8086"/></g><path d="m224.545 232.092h-66.792l49.716 51.733c12.436-11.954 20.584-28.335 21.874-46.617.195-2.768-2.023-5.116-4.798-5.116z" fill="#ffd064"/></g></g></g></g><g><g><g><path d="m307.039 173.619h121.922c4.146 0 7.506-3.36 7.506-7.506 0-4.145-3.36-7.506-7.506-7.506h-121.922c-4.146 0-7.506 3.36-7.506 7.506s3.36 7.506 7.506 7.506z"/><path d="m307.039 209.782h121.922c4.146 0 7.506-3.36 7.506-7.506 0-4.145-3.36-7.506-7.506-7.506h-121.922c-4.146 0-7.506 3.36-7.506 7.506s3.36 7.506 7.506 7.506z"/><path d="m307.039 245.945h121.922c4.146 0 7.506-3.36 7.506-7.506s-3.36-7.506-7.506-7.506h-121.922c-4.146 0-7.506 3.36-7.506 7.506s3.36 7.506 7.506 7.506z"/><path d="m307.039 282.107h60.961c4.146 0 7.506-3.36 7.506-7.506 0-4.145-3.36-7.506-7.506-7.506h-60.961c-4.146 0-7.506 3.36-7.506 7.506 0 4.145 3.36 7.506 7.506 7.506z"/><path d="m477.049 47.315h-138.581l-3.245-12.145c-3.393-12.692-14.937-21.557-28.075-21.557h-102.296c-13.138 0-24.682 8.865-28.075 21.557l-3.245 12.145h-138.581c-19.272 0-34.951 15.679-34.951 34.951v274.546c0 19.272 15.679 34.951 34.951 34.951h108.882l-32.397 75.981c-6.182 14.491 4.446 30.643 20.245 30.643h18.001c9.483 0 18.013-5.636 21.732-14.358l16.454-38.588h136.265l16.454 38.588c3.72 8.723 12.249 14.359 21.732 14.359h18.001c15.755 0 26.443-16.11 20.246-30.643l-10.022-23.504c-1.626-3.812-6.033-5.586-9.848-3.96-3.813 1.626-5.586 6.035-3.961 9.848l10.023 23.504c1.96 4.596-1.383 9.743-6.437 9.743h-18.001c-3.458 0-6.567-2.055-7.923-5.235l-36.831-86.377h34.283l11.109 26.052c1.626 3.813 6.037 5.586 9.848 3.96 3.813-1.626 5.586-6.035 3.961-9.848l-8.598-20.164h108.882c19.272 0 34.951-15.679 34.951-34.951v-274.547c-.002-19.272-15.681-34.951-34.953-34.951zm-285.769-8.269c1.64-6.136 7.22-10.421 13.572-10.421h102.296c6.351 0 11.932 4.285 13.572 10.421l2.21 8.27h-133.859zm-33.676 439.095c-1.356 3.18-4.465 5.235-7.923 5.235h-18.001c-4.996 0-8.421-5.094-6.437-9.743l34.909-81.869h34.283zm160.127-47.712h-123.462l16.487-38.665h90.489zm179.258-73.617c0 10.995-8.945 19.94-19.94 19.94-50.174 0-397.001 0-442.098 0-10.995 0-19.94-8.945-19.94-19.94v-274.546c0-10.995 8.945-19.94 19.94-19.94h297.725c.008 0 .016.002.024.002.01 0 .02-.002.03-.002h144.319c10.995 0 19.94 8.945 19.94 19.94z"/><path d="m463.382 80.34h-414.764c-8.598 0-15.593 6.995-15.593 15.593v106.069c0 4.145 3.36 7.506 7.506 7.506s7.506-3.36 7.506-7.506v-106.069c0-.321.261-.581.581-.581h414.764c.321 0 .581.261.581.581v247.213c0 .321-.261.581-.581.581h-414.764c-.321 0-.581-.261-.581-.581v-106.058c0-4.145-3.36-7.506-7.506-7.506s-7.506 3.36-7.506 7.506v106.058c0 8.598 6.995 15.593 15.593 15.593h414.764c8.598 0 15.593-6.995 15.593-15.593v-247.213c0-8.598-6.994-15.593-15.593-15.593z"/><path d="m251.058 214.28c6.374 0 11.516-5.346 11.177-11.743-2.14-40.574-34.351-72.783-74.924-74.924-3.04-.153-6.04.951-8.248 3.046-2.22 2.107-3.495 5.071-3.495 8.132v64.303c0 6.168 5.018 11.187 11.187 11.187h64.303zm-60.479-71.336c29.61 3.418 52.906 26.714 56.325 56.324h-56.325z"/><path d="m161.34 156.295c-2.492-2.322-5.875-3.508-9.266-3.274-42.253 2.996-74.568 38.567-73.569 80.979.479 20.351 8.741 39.557 23.264 54.08s33.729 22.785 54.079 23.264c.641.015 1.28.022 1.918.022 20.519 0 39.89-7.772 54.759-22.002.048-.044.1-.083.147-.128 14.199-13.648 22.779-31.938 24.159-51.498.501-7.099-5.159-13.151-12.285-13.151h-59.284v-59.282c0-3.404-1.43-6.689-3.922-9.01zm-5.139 140.041c-16.475-.387-32.037-7.09-43.818-18.871-11.781-11.782-18.483-27.343-18.871-43.819-.787-33.414 23.919-61.589 56.738-65.383v63.829c0 1.831.72 3.772 2.093 5.201l44.214 46.008c-11.545 8.795-25.634 13.378-40.356 13.035zm51.178-23.438-13.375-13.917-18.626-19.382h46.205c-1.43 12.258-6.368 23.79-14.204 33.299z"/></g></g></g></g></svg>