<svg id="Capa_1" enable-background="new 0 0 512 512" height="512" viewBox="0 0 512 512" width="512" xmlns="http://www.w3.org/2000/svg"><g><g><g><g><g><g><g><g><g><path d="m7.5 410.262c0 12.098 9.808 21.906 21.906 21.906h377.762c12.098 0 21.906-9.808 21.906-21.906v-261.052l-47.345-14.383h-326.884l-47.345 14.383z" fill="#f4f8f8"/><path d="m381.729 134.828h-14.1v275.434c0 12.099-9.808 21.906-21.906 21.906h61.445c12.098 0 21.906-9.808 21.906-21.906v-261.052z" fill="#e7ecf1"/><path d="m407.168 82.995h-377.762c-12.099 0-21.906 9.808-21.906 21.906v44.309h421.575v-44.309c0-12.098-9.808-21.906-21.907-21.906z" fill="#fc8086"/><path d="m407.168 82.995h-61.442c12.097.001 21.904 9.809 21.904 21.906v44.309h61.445v-44.309c-.001-12.098-9.808-21.906-21.907-21.906z" fill="#fb636f"/></g></g><g fill="#7c8b96"><path d="m76.967 120.29c-12.218 0-22.122-9.904-22.122-22.122v-30.345c0-12.218 9.904-22.122 22.122-22.122 12.218 0 22.122 9.904 22.122 22.122v30.344c.001 12.218-9.904 22.123-22.122 22.123z"/><path d="m171.181 120.29c-12.218 0-22.122-9.904-22.122-22.122v-30.345c0-12.218 9.904-22.122 22.122-22.122 12.218 0 22.122 9.904 22.122 22.122v30.344c0 12.218-9.905 22.123-22.122 22.123z"/><path d="m265.394 120.29c-12.218 0-22.122-9.904-22.122-22.122v-30.345c0-12.218 9.904-22.122 22.122-22.122 12.218 0 22.122 9.904 22.122 22.122v30.344c0 12.218-9.904 22.123-22.122 22.123z"/><path d="m359.607 120.29c-12.218 0-22.122-9.904-22.122-22.122v-30.345c0-12.218 9.904-22.122 22.122-22.122 12.218 0 22.122 9.904 22.122 22.122v30.344c0 12.218-9.904 22.123-22.122 22.123z"/></g></g><g><g><g><path d="m99.507 255.41h-46.756c-3.682 0-6.667-2.985-6.667-6.667v-46.756c0-3.682 2.985-6.667 6.667-6.667h46.756c3.682 0 6.667 2.985 6.667 6.667v46.756c-.001 3.683-2.985 6.667-6.667 6.667z" fill="#fbe77b"/></g><g><path d="m194.279 255.41h-46.756c-3.682 0-6.667-2.985-6.667-6.667v-46.756c0-3.682 2.985-6.667 6.667-6.667h46.756c3.682 0 6.667 2.985 6.667 6.667v46.756c0 3.683-2.985 6.667-6.667 6.667z" fill="#fbe77b"/></g><g><path d="m289.051 255.41h-46.756c-3.682 0-6.667-2.985-6.667-6.667v-46.756c0-3.682 2.985-6.667 6.667-6.667h46.756c3.682 0 6.667 2.985 6.667 6.667v46.756c0 3.683-2.985 6.667-6.667 6.667z" fill="#fbe77b"/></g></g><g><g><path d="m99.507 374.972h-46.756c-3.682 0-6.667-2.985-6.667-6.667v-46.756c0-3.682 2.985-6.667 6.667-6.667h46.756c3.682 0 6.667 2.985 6.667 6.667v46.756c-.001 3.682-2.985 6.667-6.667 6.667z" fill="#fbe77b"/></g><g><path d="m194.279 374.972h-46.756c-3.682 0-6.667-2.985-6.667-6.667v-46.756c0-3.682 2.985-6.667 6.667-6.667h46.756c3.682 0 6.667 2.985 6.667 6.667v46.756c0 3.682-2.985 6.667-6.667 6.667z" fill="#fbe77b"/></g><g><path d="m289.051 374.972h-46.756c-3.682 0-6.667-2.985-6.667-6.667v-46.756c0-3.682 2.985-6.667 6.667-6.667h46.756c3.682 0 6.667 2.985 6.667 6.667v46.756c0 3.682-2.985 6.667-6.667 6.667z" fill="#fbe77b"/></g></g></g></g></g><g><g><g><g><g><g><g><g><g><g><g><g><g><g><g><g><g><path d="m429.581 351.985c-4.134-.519-7.243-4.021-7.26-8.188l-.16-37.903-57.912.244.16 37.903c.018 4.167-3.061 7.695-7.191 8.248 0 0-10.693 36.548 36.336 36.35 47.028-.198 36.027-36.654 36.027-36.654z" fill="#ffece3"/><path d="m447.865 252.904-3.503.015-.017-4.114-.041-9.833c-.059-13.884-5.815-27.313-16.374-36.328-8.278-7.068-19.899-13.218-35.217-13.325-15.316.236-26.884 6.484-35.103 13.621-10.483 9.103-16.126 22.581-16.067 36.465l.041 9.833.017 4.114-3.503.015c-5.136.022-9.282 4.203-9.26 9.338l.043 10.305c.022 5.136 4.203 9.282 9.338 9.26l3.517-.015c.347 13.495 6.073 26.461 16.356 35.24 8.279 7.068 19.9 13.218 35.217 13.325 15.316-.236 26.884-6.484 35.103-13.621 10.209-8.865 15.825-21.879 16.058-35.377l3.517-.015c5.136-.022 9.282-4.203 9.26-9.338l-.043-10.305c-.022-5.136-4.203-9.282-9.339-9.26z" fill="#ffece3"/><path d="m457.204 262.164c-.022-5.136-4.203-9.282-9.338-9.26l-3.503.015-.017-4.114-.041-9.833c-.059-13.884-5.815-27.313-16.375-36.328-7.744-6.611-18.414-12.418-32.297-13.228l.154 92.406c-.233 13.497-5.849 26.511-16.058 35.377-3.158 2.743-6.816 5.35-10.987 7.539 6.791 3.564 14.95 6.015 24.567 6.082 15.316-.236 26.885-6.484 35.103-13.621 10.209-8.865 15.825-21.879 16.058-35.377l3.517-.015c5.136-.022 9.282-4.203 9.26-9.338z" fill="#ffddce"/><path d="m484.932 466.299c10.853-.046 19.613-9.648 19.567-20.501l-.194-45.997c-.067-15.924-9.5-30.317-24.075-36.733-13.268-5.841-38.319-9.536-50.65-11.084l-36.086 22.782-36.277-22.477c-12.318 1.651-37.336 5.558-50.555 11.51-14.52 6.538-23.831 21.01-23.764 36.934l.194 45.997c.046 10.853 8.881 19.613 19.733 19.567z" fill="#8c9ba6"/><g><path d="m504.306 399.801c-.067-15.924-9.5-30.317-24.075-36.733-13.268-5.841-38.319-9.536-50.65-11.084l-35.154 22.194c9.028 1.809 18.033 4.105 24.359 6.89 14.575 6.416 24.008 20.809 24.075 36.733l.117 48.498h41.954c10.853-.046 19.613-9.648 19.567-20.501z" fill="#7c8b96"/></g></g></g></g></g></g></g><path d="m412.71 186.175-40.388.17c-7.373.031-13.619 4.784-15.892 11.381-.852 2.473-3.202 4.116-5.818 4.127-9.399.04-16.987 7.691-16.947 17.091l.15 35.488s14.933-.24 20.005 4.719c1.066 1.043 2.857.297 2.851-1.195l-.098-23.329c-.034-8.1 6.505-14.694 14.605-14.729l.176-.001c2.427-.01 4.828.354 7.125 1.067 4.371 1.356 8.894 2.162 13.471 2.142l1.812-.008c4.577-.019 9.093-.863 13.452-2.256 2.291-.732 4.689-1.117 7.116-1.127l.176-.001c8.1-.034 14.694 6.505 14.728 14.605l.098 23.329c.006 1.491 8.895 2.193 9.953 1.141 5.03-5.003 12.873-4.858 12.873-4.858l-.121-28.762c-.091-21.626-17.699-39.086-39.327-38.994z" fill="#aa8080"/><path d="m452.037 225.171c-.091-21.628-17.698-39.088-39.327-38.997l-17.083.072.061 36.793c3.917-.211 7.779-.998 11.525-2.195 2.291-.732 4.689-1.117 7.116-1.127l.176-.001c8.1-.034 14.694 6.505 14.729 14.605l.098 23.329c.006 1.491 8.895 2.193 9.953 1.141 5.03-5.003 12.873-4.858 12.873-4.858z" fill="#9d6b6b"/></g><path d="m337.691 363.921 16.678 22.719c4.933 6.72 14.475 7.967 20.969 2.74l18.157-14.613-36.277-22.477c-4.15.556-9.741 1.369-15.837 2.429-4.261.741-6.25 5.716-3.69 9.202z" fill="#7c8b96"/><path d="m449.201 363.452-16.529 22.905c-4.886 6.771-14.438 8.086-20.973 2.889l-18.204-14.479 36.086-22.782c4.154.521 9.75 1.286 15.853 2.295 4.268.705 6.298 5.664 3.767 9.172z" fill="#7c8b96"/><path d="m411.699 389.246-18.204-14.479-18.157 14.613c-.29.234-.593.439-.895.647l10.681 18.408 16.929-.071 10.552-18.472c-.306-.207-.613-.412-.906-.646z" fill="#fb636f"/></g><path d="m411.744 466.299-9.691-57.933-16.929.071-9.082 57.862z" fill="#fc8086"/></g></g></g></g></g></g></g></g></g></g></g></g><g><g><g><path d="m200.786 424.651h-171.37c-7.938 0-14.395-6.457-14.395-14.395v-169.777c0-4.148-3.362-7.51-7.51-7.51s-7.511 3.361-7.511 7.51v169.777c0 16.22 13.196 29.416 29.416 29.416h171.37c4.148 0 7.51-3.362 7.51-7.51 0-4.149-3.362-7.511-7.51-7.511z"/><path d="m52.758 262.921h46.754c7.817 0 14.177-6.359 14.177-14.177v-46.754c0-7.817-6.359-14.177-14.177-14.177h-46.754c-7.817 0-14.177 6.359-14.177 14.177v46.754c.001 7.817 6.36 14.177 14.177 14.177zm.844-60.087h45.066v45.066h-45.066z"/><path d="m194.282 187.813h-46.755c-7.817 0-14.177 6.359-14.177 14.177v46.754c0 7.817 6.359 14.177 14.177 14.177h46.755c7.817 0 14.177-6.359 14.177-14.177v-46.754c0-7.818-6.36-14.177-14.177-14.177zm-.844 60.087h-45.067v-45.066h45.067z"/><path d="m242.296 262.921h46.754c7.817 0 14.177-6.359 14.177-14.177v-46.754c0-7.817-6.359-14.177-14.177-14.177h-46.754c-7.817 0-14.177 6.359-14.177 14.177v46.754c.001 7.817 6.36 14.177 14.177 14.177zm.844-60.087h45.066v45.066h-45.066z"/><path d="m38.582 368.3c0 7.817 6.359 14.177 14.177 14.177h46.754c7.817 0 14.177-6.359 14.177-14.177v-46.754c0-7.817-6.359-14.177-14.177-14.177h-46.755c-7.817 0-14.177 6.359-14.177 14.177v46.754zm15.02-45.91h45.066v45.066h-45.066z"/><path d="m194.282 307.37h-46.755c-7.817 0-14.177 6.359-14.177 14.177v46.753c0 7.817 6.359 14.177 14.177 14.177h46.755c7.817 0 14.177-6.359 14.177-14.177v-46.754c0-7.817-6.36-14.176-14.177-14.176zm-.844 60.087h-45.067v-45.067h45.067z"/><path d="m511.806 399.763c-.08-18.867-11.29-35.971-28.559-43.573-9.422-4.148-23.926-7.227-36.574-9.32-.007-.001-.013-.003-.02-.005-.009-.001-.017-.001-.026-.003-6.052-1.001-11.68-1.776-16.115-2.333-.001 0-.001 0-.002 0-.389-.049-.684-.379-.686-.767l-.075-18.003c12.745-9.669 19.706-22.641 21.678-36.807 7.63-1.615 13.357-8.418 13.323-16.517l-.044-10.302c-.019-4.584-1.886-8.848-5.062-11.943l-.106-25.049c-.071-17.013-9.289-31.883-22.96-39.981 0-16.628 0-63.362 0-80.252 0-16.22-13.196-29.416-29.416-29.416h-17.928v-7.661c0-16.339-13.293-29.632-29.632-29.632s-29.632 13.293-29.632 29.632v7.661h-34.946v-7.661c0-16.339-13.293-29.632-29.632-29.632s-29.632 13.293-29.632 29.632v7.661h-34.947v-7.661c0-16.339-13.293-29.632-29.632-29.632s-29.632 13.293-29.632 29.632v7.661h-34.946v-7.661c0-16.339-13.293-29.632-29.632-29.632s-29.632 13.293-29.632 29.632v7.661h-17.923c-16.22 0-29.416 13.196-29.416 29.416v100.441c0 4.148 3.362 7.51 7.51 7.51s7.51-3.362 7.51-7.51v-48.624h406.537v22.765c-2.817-.533-5.718-.823-8.686-.823-.066 0-.134 0-.199 0 0 0 0 0-.001 0l-40.386.171c-10.033.041-19.004 6.24-22.624 15.527-13.101.539-23.567 11.394-23.51 24.612l.134 31.776c-3.148 3.122-4.979 7.4-4.961 11.984l.044 10.304c.034 8.098 5.819 14.853 13.461 16.404 2.078 14.056 9.091 27.01 21.989 36.623l.076 18.002c.002.389-.291.722-.68.773-.001 0-.002 0-.003 0-4.434.594-10.061 1.418-16.11 2.471-.004 0-.007.001-.011.001-.003 0-.006.001-.009.002-12.632 2.199-27.115 5.402-36.505 9.63-.118.053-.233.111-.35.166v-35.567c0-7.818-6.359-14.177-14.177-14.177h-46.754c-7.817 0-14.177 6.359-14.177 14.177v46.754c0 7.817 6.359 14.177 14.177 14.177h36.65c-2.333 5.702-3.587 11.896-3.56 18.283l.101 23.89h-39.596c-4.148 0-7.51 3.362-7.51 7.51s3.362 7.51 7.51 7.51h39.661l.03 7.084c.063 14.999 12.241 27.047 27.125 27.045h.117 182.1.032c15.229-.065 27.107-13.276 27.044-28.042zm-223.599-32.307h-45.067v-45.066h45.066v45.066zm56.785-299.625c0-8.057 6.554-14.611 14.611-14.611s14.611 6.554 14.611 14.611v30.343c0 8.057-6.554 14.611-14.611 14.611s-14.611-6.554-14.611-14.611zm-94.209 0c0-8.057 6.554-14.611 14.611-14.611s14.611 6.554 14.611 14.611v30.343c0 8.057-6.554 14.611-14.611 14.611s-14.611-6.554-14.611-14.611zm-94.21 0c0-8.057 6.554-14.611 14.611-14.611s14.611 6.554 14.611 14.611v30.343c0 8.057-6.554 14.611-14.611 14.611s-14.611-6.554-14.611-14.611zm-94.21 0c0-8.057 6.554-14.611 14.611-14.611s14.611 6.554 14.611 14.611v30.343c0 8.057-6.554 14.611-14.611 14.611s-14.611-6.554-14.611-14.611zm-47.342 73.874v-36.797c0-7.938 6.457-14.395 14.395-14.395h17.927v7.661c0 16.339 13.293 29.632 29.632 29.632s29.632-13.293 29.632-29.632v-7.661h34.946v7.661c0 16.339 13.293 29.632 29.632 29.632s29.632-13.293 29.632-29.632v-7.661h34.947v7.661c0 16.339 13.293 29.632 29.632 29.632s29.632-13.293 29.632-29.632v-7.661h34.946v7.661c0 16.339 13.293 29.632 29.632 29.632s29.632-13.293 29.632-29.632v-7.661h17.928c7.938 0 14.395 6.457 14.395 14.395v36.797zm335.618 67.66c5.824-.024 11.003-3.717 12.887-9.19 1.296-3.762 4.841-6.3 8.823-6.316l40.387-.171h.135c17.389 0 31.574 14.11 31.647 31.516l.094 22.292c-2.463.683-5.219 1.795-7.804 3.608l-.07-16.813c-.052-12.198-9.99-22.083-22.185-22.083-.031 0-.064 0-.096 0l-.167.001c-3.181.014-6.333.513-9.368 1.484-7.922 2.531-16.267 2.572-24.222.102-3.003-.932-6.116-1.404-9.265-1.404-.043 0-.085 0-.127 0l-.167.001c-12.229.052-22.135 10.042-22.083 22.271l.06 14.002c-2.655-.72-5.375-1.149-7.825-1.402l-.119-28.347c-.024-5.245 4.223-9.528 9.465-9.551zm-1.398 72.696c-.104-4.073-3.437-7.318-7.507-7.318-.011 0-.021 0-.032 0l-3.517.015c-.003 0-.005 0-.008 0-.983 0-1.785-.797-1.789-1.781l-.044-10.303c-.001-.256.062-.476.147-.679 5.325.246 10.754 1.318 12.074 2.528 1.757 1.717 4.069 2.625 6.423 2.625 1.209 0 2.428-.24 3.589-.73 3.415-1.446 5.613-4.779 5.598-8.493l-.099-23.327c-.017-3.946 3.18-7.17 7.135-7.187.12.009 2.347-.105 5.035.729 10.792 3.349 22.389 3.328 33.246-.14 2.615-.835 4.935-.764 5.036-.772h.031c3.931 0 7.139 3.19 7.155 7.125l.098 23.332c.006 1.268.42 5.568 5.504 7.669 1.483.614 12.419 3.572 17.256-1.238 1.356-1.348 3.382-2.048 5.036-2.388.041.146.074.298.075.468l.044 10.303c.004.987-.795 1.792-1.781 1.797l-3.517.015c-4.085.018-7.408 3.296-7.478 7.38-.228 13.155-6.017 25.393-18.771 33.875-7.67 4.907-15.415 7.578-24.912 7.74-9.427-.081-17.293-2.678-24.963-7.523-12.732-8.311-18.725-20.517-19.064-33.722zm47.999 119.57h-7.383l-5.658-9.751 9.317-7.499 9.336 7.425zm-3.789-35.727-23.377-14.484c1.179-2.228 1.852-4.753 1.841-7.415l-.041-9.602c6.724 2.556 13.865 3.872 21.378 3.924h.052c.038 0 .076 0 .115-.001 7.512-.115 14.642-1.491 21.344-4.103l.041 9.603c.011 2.662.705 5.18 1.902 7.398zm-23.837 92.876h-42.801l-.095-22.44c-.018-4.138-3.377-7.479-7.509-7.479-.011 0-.022 0-.032 0-4.148.018-7.497 3.394-7.479 7.542l.095 22.377h-9.001c-.018 0-.034 0-.052 0-6.682 0-12.11-5.393-12.138-12.088l-.194-45.995c-.055-12.943 7.535-24.739 19.337-30.052 5.15-2.32 12.451-4.333 19.991-5.999.435 1.307 1.052 2.564 1.897 3.715l16.677 22.719c3.61 4.918 8.93 8.062 14.979 8.852 2.627.343 5.24.237 7.977-.409l6.019 10.373zm1.01-75.255c-1.499 1.205-3.416 1.773-5.387 1.513-1.945-.254-3.656-1.264-4.817-2.847l-15.07-20.53c3.85-.641 7.363-1.166 10.207-1.566l24.962 15.466zm14.195 75.255 6.612-42.128h4.389l7.047 42.128zm46.477-99.004c2.846.376 6.362.872 10.217 1.479l-14.939 20.701c-1.149 1.593-2.854 2.618-4.802 2.887-2.008.272-3.927-.304-5.404-1.482l-9.927-7.895zm53.614 99.004h-9.016l-.098-23.069c-.018-4.137-3.377-7.479-7.509-7.479-.011 0-.022 0-.032 0-4.148.018-7.497 3.394-7.479 7.542l.097 23.006h-42.777l-8.2-49.021 5.936-10.392c2.659.61 5.262.732 7.99.357 6.053-.834 11.355-4.022 14.932-8.977l16.528-22.903c.837-1.159 1.444-2.424 1.869-3.736 7.556 1.602 14.875 3.553 20.045 5.829 11.845 5.215 19.535 16.947 19.59 29.889l.194 45.996c.026 6.636-5.332 12.918-12.07 12.958z"/></g></g></g></g></svg>