<svg id="Capa_1" enable-background="new 0 0 512 512" height="512" viewBox="0 0 512 512" width="512" xmlns="http://www.w3.org/2000/svg"><g><g><g><g><path d="m382.118 27.783v92.031l93.282-45.356c4.936-2.4 4.936-9.433 0-11.833l-83.826-40.759c-4.37-2.124-9.456 1.058-9.456 5.917z" fill="#fc8086"/></g><g><path d="m211.667 371.571h-131.406c-6.079 0-11.006 4.928-11.006 11.006v78.803h142.412z" fill="#f6e266"/><path d="m132.955 371.571h78.711v89.809h-78.711z" fill="#ffd064"/><path d="m337.333 286.731h-131.926c-6.079 0-11.006 4.928-11.006 11.006v163.643h142.933v-174.649z" fill="#bed8fb"/><path d="m258.101 286.731h79.233v174.649h-79.233z" fill="#9dc6fb"/><path d="m433.684 187.608h-103.132c-6.079 0-11.006 4.928-11.006 11.006v262.766h125.145v-262.766c0-6.079-4.928-11.006-11.007-11.006z" fill="#78d0b1"/><g><path d="m433.684 187.608h-50.438v273.772h61.445v-262.766c0-6.079-4.928-11.006-11.007-11.006z" fill="#66b49d"/></g></g><path d="m487.976 490.804h-463.952c-9.126 0-16.524-7.398-16.524-16.524 0-9.126 7.398-16.524 16.524-16.524h463.951c9.126 0 16.524 7.398 16.524 16.524.001 9.126-7.397 16.524-16.523 16.524z" fill="#9cabb8"/><path d="m504.5 474.28c0-9.126-7.398-16.524-16.524-16.524h-44.898v21.509c0 6.373-5.166 11.54-11.539 11.54h56.438c9.125-.001 16.523-7.399 16.523-16.525z" fill="#8c9ba6"/></g></g><g><g><path d="m487.976 450.258h-35.786v-192.964c0-4.143-3.358-7.5-7.5-7.5s-7.5 3.357-7.5 7.5v192.964h-110.145v-251.642c0-1.934 1.573-3.507 3.506-3.507h103.132c1.934 0 3.506 1.573 3.506 3.507v23.618c0 4.143 3.358 7.5 7.5 7.5s7.5-3.357 7.5-7.5v-23.618c0-10.205-8.302-18.507-18.506-18.507h-44.066v-55.601l89.062-43.303c4.887-2.377 7.922-7.229 7.922-12.662s-3.036-10.284-7.922-12.661l-83.828-40.759c-4.392-2.136-9.484-1.863-13.624.728-4.139 2.59-6.61 7.052-6.61 11.935v152.324h-44.066c-10.205 0-18.506 8.302-18.506 18.507v80.617h-106.639c-10.204 0-18.506 8.302-18.506 18.506v66.333h-106.639c-10.205 0-18.506 8.302-18.506 18.507v67.679h-37.73c-13.248-.001-24.025 10.776-24.025 24.023s10.777 24.023 24.024 24.023h463.951c13.247 0 24.024-10.776 24.024-24.023s-10.776-24.024-24.023-24.024zm-98.358-421.001 80.798 39.286-80.798 39.286v-39.286zm-312.863 353.322c0-1.934 1.573-3.507 3.506-3.507h106.639v19.872c0 4.143 3.358 7.5 7.5 7.5s7.5-3.357 7.5-7.5v-101.205c0-1.934 1.573-3.506 3.506-3.506h106.639v156.024h-110.145v-16.249c0-4.143-3.358-7.5-7.5-7.5s-7.5 3.357-7.5 7.5v16.249h-110.145zm411.221 100.727h-463.952c-4.976 0-9.024-4.048-9.024-9.023s4.048-9.024 9.024-9.024h463.951c4.976 0 9.024 4.049 9.024 9.024s-4.047 9.023-9.023 9.023z"/></g></g></g></svg>