<svg id="Capa_1" enable-background="new 0 0 512 512" height="512" viewBox="0 0 512 512" width="512" xmlns="http://www.w3.org/2000/svg"><g><g><g><g><path d="m73.465 372.333c-6.973 0-13.689 1.09-19.998 3.095.008.003.016.006.024.008-26.663 8.465-45.991 33.396-45.991 62.862 0 29.465 19.328 54.397 45.991 62.862-.008.003-.016.006-.024.008 6.309 2.005 13.025 3.095 19.998 3.095 36.432 0 65.965-29.534 65.965-65.965s-29.534-65.965-65.965-65.965z" fill="#fc8086"/><path d="m73.465 372.333c-6.973 0-13.689 1.09-19.998 3.095.008.003.016.006.024.008-3.732 1.185-7.314 2.703-10.726 4.501 20.941 11.054 35.22 33.035 35.22 58.361s-14.28 47.306-35.22 58.361c3.412 1.797 6.994 3.316 10.726 4.501-.008.003-.016.006-.024.008 6.309 2.005 13.025 3.095 19.998 3.095 36.432 0 65.965-29.534 65.965-65.965s-29.534-65.965-65.965-65.965z" fill="#fb636f"/><g><g><g><g><path d="m73.465 442.963c-21.883 0-39.66 18.207-39.997 40.799v6.99c11.096 8.474 24.957 13.51 39.997 13.51s28.901-5.037 39.997-13.51v-6.99c-.337-22.592-18.114-40.799-39.997-40.799z" fill="#fbe77b"/><path d="m77.802 443.21c-1.712 23.235-15.463 43.115-35.037 53.448 3.412 1.797 6.994 3.316 10.726 4.501-.008.003-.016.006-.024.008 6.309 2.005 13.025 3.095 19.998 3.095 15.042 0 28.9-5.045 39.997-13.521v-6.98c-.315-21.077-15.812-38.333-35.66-40.551z" fill="#ffd064"/><ellipse cx="73.465" cy="430.249" fill="#ffece3" rx="21.506" ry="22.231"/><path d="m73.465 408.018c-.93 0-1.844.068-2.743.186 4.638 9.022 7.263 19.249 7.263 30.094 0 4.79-.513 9.459-1.483 13.958 10.438-1.526 18.468-10.795 18.468-22.006.001-12.279-9.628-22.232-21.505-22.232z" fill="#ffddce"/></g></g></g></g></g></g><g><g><path d="m255.906 372.333c-6.973 0-13.689 1.09-19.998 3.095.008.003.016.006.024.008-26.663 8.465-45.991 33.396-45.991 62.862 0 29.465 19.328 54.397 45.991 62.862-.008.003-.016.006-.024.008 6.309 2.005 13.025 3.095 19.998 3.095 36.432 0 65.965-29.534 65.965-65.965s-29.534-65.965-65.965-65.965z" fill="#fc8086"/><path d="m255.906 372.333c-6.973 0-13.689 1.09-19.998 3.095.008.003.016.006.024.008-3.732 1.185-7.314 2.703-10.726 4.501 20.941 11.054 35.22 33.035 35.22 58.361s-14.28 47.306-35.22 58.361c3.412 1.797 6.994 3.316 10.726 4.501-.008.003-.016.006-.024.008 6.309 2.005 13.025 3.095 19.998 3.095 36.432 0 65.965-29.534 65.965-65.965s-29.534-65.965-65.965-65.965z" fill="#fb636f"/><g><g><g><g><path d="m255.906 442.963c-21.883 0-39.66 18.207-39.997 40.799v6.99c11.096 8.474 24.957 13.51 39.997 13.51s28.901-5.037 39.997-13.51v-6.99c-.338-22.592-18.114-40.799-39.997-40.799z" fill="#fbe77b"/><path d="m260.242 443.21c-1.712 23.235-15.463 43.115-35.037 53.448 3.412 1.797 6.994 3.316 10.726 4.501-.008.003-.016.006-.024.008 6.309 2.005 13.025 3.095 19.998 3.095 15.042 0 28.9-5.045 39.997-13.521v-6.98c-.314-21.077-15.812-38.333-35.66-40.551z" fill="#ffd064"/><ellipse cx="255.906" cy="430.249" fill="#ffece3" rx="21.506" ry="22.231"/><path d="m255.906 408.018c-.93 0-1.844.068-2.743.186 4.638 9.022 7.263 19.249 7.263 30.094 0 4.79-.513 9.459-1.483 13.958 10.438-1.526 18.468-10.795 18.468-22.006 0-12.279-9.628-22.232-21.505-22.232z" fill="#ffddce"/></g></g></g></g></g></g><g><g><path d="m438.535 372.333c-6.973 0-13.689 1.09-19.998 3.095.008.003.016.006.024.008-26.663 8.465-45.991 33.396-45.991 62.862 0 29.465 19.328 54.397 45.991 62.862-.008.003-.016.006-.024.008 6.309 2.005 13.025 3.095 19.998 3.095 36.432 0 65.965-29.534 65.965-65.965s-29.533-65.965-65.965-65.965z" fill="#fc8086"/><path d="m438.535 372.333c-6.973 0-13.689 1.09-19.998 3.095.008.003.016.006.024.008-3.732 1.185-7.314 2.703-10.726 4.501 20.941 11.054 35.22 33.035 35.22 58.361s-14.28 47.306-35.22 58.361c3.412 1.797 6.994 3.316 10.726 4.501-.008.003-.016.006-.024.008 6.309 2.005 13.025 3.095 19.998 3.095 36.432 0 65.965-29.534 65.965-65.965s-29.533-65.965-65.965-65.965z" fill="#fb636f"/><g><g><g><g><path d="m438.535 442.963c-21.883 0-39.66 18.207-39.997 40.799v6.99c11.096 8.474 24.957 13.51 39.997 13.51s28.901-5.037 39.997-13.51v-6.99c-.337-22.592-18.113-40.799-39.997-40.799z" fill="#fbe77b"/><path d="m442.872 443.21c-1.712 23.235-15.463 43.115-35.037 53.448 3.412 1.797 6.994 3.316 10.726 4.501-.008.003-.016.006-.024.008 6.309 2.005 13.025 3.095 19.998 3.095 15.042 0 28.9-5.045 39.997-13.521v-6.98c-.315-21.077-15.812-38.333-35.66-40.551z" fill="#ffd064"/><ellipse cx="438.535" cy="430.249" fill="#ffece3" rx="21.506" ry="22.231"/><path d="m438.535 408.018c-.93 0-1.844.068-2.743.186 4.638 9.022 7.263 19.249 7.263 30.094 0 4.79-.513 9.459-1.483 13.958 10.438-1.526 18.468-10.795 18.468-22.006.001-12.279-9.628-22.232-21.505-22.232z" fill="#ffddce"/></g></g></g></g></g></g><g><g><g><g><g><g><g><path d="m365.976 111.988c-16.82.06-25.26-20.257-13.385-32.133 8.22-8.22 8.22-21.548 0-29.768l-8.472-8.472c-8.161-8.161-21.103-7.761-29.234.428-11.85 11.936-32.186 3.538-32.186-13.257 0-11.625-9.424-21.049-21.049-21.049h-11.3c-11.625 0-21.049 9.424-21.049 21.049 0 16.77-20.275 25.168-32.133 13.31-8.22-8.22-21.548-8.22-29.768 0l-7.99 7.99c-8.22 8.22-8.22 21.548 0 29.768 11.876 11.875 3.435 32.193-13.385 32.133-11.541-.041-20.974 8.828-20.974 20.369v11.981c0 11.625 9.424 21.049 21.049 21.049 16.77 0 25.168 20.275 13.31 32.133-8.22 8.22-8.22 21.548 0 29.768l7.99 7.99c8.22 8.22 21.548 8.22 29.768 0 11.858-11.858 32.133-3.46 32.133 13.31 0 11.625 9.424 21.049 21.049 21.049h11.3c11.625 0 21.049-9.424 21.049-21.049 0-16.77 20.275-25.168 32.133-13.31 8.22 8.22 21.548 8.22 29.768 0l7.99-7.99c8.22-8.22 8.22-21.548 0-29.768-11.876-11.875-3.435-32.193 13.385-32.133 11.541.041 20.975-8.828 20.975-20.369v-12.662c0-11.539-9.433-20.408-20.974-20.367zm-106.442 80.994c-32.834 2.075-59.903-24.995-57.829-57.829 1.714-27.13 23.631-49.046 50.761-50.76 32.834-2.075 59.903 24.995 57.828 57.829-1.714 27.13-23.63 49.046-50.76 50.76z" fill="#8c9ba6"/></g></g></g></g></g></g><path d="m365.976 111.988c-16.819.06-25.26-20.258-13.385-32.133 8.22-8.22 8.22-21.548 0-29.768l-8.472-8.472c-8.161-8.161-21.103-7.761-29.234.428-11.851 11.936-32.186 3.538-32.186-13.257 0-11.625-9.424-21.049-21.049-21.049h-11.3c-5.948 0-11.31 2.478-15.138 6.445 52.416 17.105 90.293 66.378 90.293 124.506s-37.877 107.4-90.293 124.506c3.828 3.967 9.189 6.445 15.138 6.445h11.3c11.625 0 21.049-9.424 21.049-21.049 0-16.77 20.275-25.168 32.133-13.31 8.22 8.22 21.548 8.22 29.768 0l7.99-7.99c8.22-8.22 8.22-21.548 0-29.768-11.875-11.875-3.435-32.193 13.385-32.133 11.541.042 20.974-8.827 20.974-20.368v-12.662c.001-11.543-9.432-20.412-20.973-20.371z" fill="#7c8b96"/></g></g><g><g><g><path d="m505.545 447.258c-4.015-1-8.093 1.44-9.099 5.461-1.994 7.978-5.571 15.215-10.338 21.424-2.656-12.531-9.99-23.504-20.429-30.526 1.93-3.98 3.021-8.459 3.021-13.196 0-16.406-13.022-29.754-29.027-29.754s-29.027 13.348-29.027 29.754c0 4.737 1.091 9.216 3.021 13.196-10.414 7.005-17.738 17.943-20.41 30.436-7.581-9.867-12.102-22.2-12.102-35.576 0-32.267 26.251-58.518 58.518-58.518 25.604 0 48.645 17.101 56.032 41.586 1.196 3.968 5.382 6.211 9.351 5.017 3.968-1.197 6.214-5.384 5.017-9.351-4.467-14.804-13.757-28.109-26.163-37.466-10.819-8.161-23.397-13.063-36.734-14.404v-38.902c0-10.128-8.239-18.367-18.367-18.367h-164.417v-31c14.939-.91 26.816-13.347 26.816-28.512 0-10.137 12.189-15.181 19.351-8.015 11.141 11.141 29.268 11.139 40.407 0l7.997-7.998c11.138-11.139 11.138-29.265-.001-40.405-7.194-7.194-2.072-19.351 8.016-19.351.053.001.106 0 .158 0 7.727 0 14.933-2.941 20.299-8.288 5.231-5.212 8.112-12.174 8.112-19.601v-12.673c0-7.427-2.881-14.389-8.112-19.601-5.267-5.247-12.391-8.288-20.411-8.288-10.199 0-15.23-12.185-8.062-19.351 11.139-11.14 11.139-29.266-.001-40.406l-8.479-8.478c-5.24-5.241-12.18-8.125-19.545-8.125-.017 0-.033 0-.05 0-7.612.014-14.819 3.057-20.295 8.571-7.17 7.224-19.385 2.159-19.385-7.981 0-15.753-12.817-28.57-28.57-28.57h-11.31c-15.754 0-28.571 12.817-28.571 28.57 0 10.136-12.187 15.18-19.35 8.015-11.141-11.141-29.268-11.139-40.407 0l-7.997 7.997c-11.139 11.14-11.139 29.266 0 40.406 7.18 7.177 2.103 19.351-8.016 19.351-.051 0-.103 0-.155 0-7.728 0-14.936 2.942-20.302 8.289-5.231 5.212-8.111 12.173-8.111 19.6v11.991c0 15.754 12.817 28.571 28.571 28.571 10.136 0 15.178 12.188 8.014 19.352-11.139 11.14-11.139 29.266 0 40.405l7.997 7.997c11.139 11.139 29.266 11.141 40.407 0 7.179-7.183 19.35-2.099 19.35 8.015 0 15.101 11.777 27.494 26.628 28.497v31.015h-164.228c-10.128 0-18.367 8.239-18.367 18.367v38.893c-37.03 3.771-66.021 35.136-66.021 73.145 0 40.183 32.667 73.524 73.524 73.524 40.376 0 73.525-32.891 73.525-73.525 0-38.009-28.991-69.374-66.021-73.145v-38.893c0-1.852 1.508-3.36 3.36-3.36h164.228v42.253c-37.03 3.771-66.02 35.136-66.02 73.145 0 40.545 33.036 73.525 73.524 73.525 40.411 0 73.525-32.925 73.525-73.525 0-38.009-28.991-69.374-66.021-73.145v-42.253h164.418c1.852 0 3.36 1.508 3.36 3.36v38.893c-37.03 3.771-66.021 35.136-66.021 73.145 0 40.524 33 73.525 73.525 73.525 33.81 0 63.144-22.881 71.333-55.642 1.002-4.021-1.442-8.095-5.463-9.1zm-267.781-198.699c0-23.587-28.397-35.197-44.969-18.628-5.289 5.291-13.895 5.289-19.182 0l-7.997-7.997c-5.289-5.288-5.289-13.892 0-19.181 16.592-16.595 4.864-44.97-18.627-44.97-7.479 0-13.564-6.085-13.564-13.564v-11.991c0-3.408 1.313-6.594 3.697-8.969 2.533-2.525 5.98-3.913 9.712-3.913.052-.001.104-.001.155 0 23.459 0 35.242-28.353 18.627-44.97-5.289-5.288-5.289-13.893 0-19.181l7.997-7.997c5.287-5.29 13.893-5.291 19.182 0 16.59 16.585 44.969 4.87 44.969-18.628 0-7.479 6.085-13.563 13.564-13.563h11.31c7.479 0 13.563 6.084 13.563 13.563 0 23.507 28.447 35.27 45.042 18.555 2.643-2.661 6.078-4.131 9.672-4.138h.022c3.357 0 6.529 1.324 8.935 3.729l8.479 8.479c5.289 5.288 5.289 13.893.001 19.181-16.591 16.589-4.873 44.97 18.626 44.97h.103.055c3.729 0 7.176 1.388 9.709 3.912 2.385 2.375 3.698 5.561 3.698 8.97v12.673c0 3.409-1.313 6.595-3.698 8.97-2.532 2.525-5.978 3.912-9.71 3.912-.053 0-.105 0-.156 0-23.462 0-35.242 28.356-18.627 44.969 5.288 5.289 5.288 13.894 0 19.182l-7.997 7.997c-5.288 5.289-13.894 5.29-19.182 0-16.594-16.592-44.97-4.866-44.97 18.628 0 7.479-6.084 13.564-13.563 13.564h-11.31c-7.481-.001-13.566-6.085-13.566-13.564zm-195.998 238.535c.136-.546-2.089-20.939 16.388-31.956 4.618 3.179 10.171 5.037 16.139 5.037 5.969 0 11.521-1.858 16.139-5.037 9.885 5.894 16.19 16.794 16.388 28.9v3.057c-9.308 6.248-20.498 9.899-32.527 9.899s-23.219-3.653-32.527-9.9zm32.527-41.927c-7.731 0-14.02-6.615-14.02-14.747s6.289-14.747 14.02-14.747 14.02 6.615 14.02 14.747-6.289 14.747-14.02 14.747zm58.518-6.692c0 13.376-4.521 25.71-12.102 35.576-2.672-12.492-9.996-23.431-20.41-30.436 1.93-3.98 3.021-8.459 3.021-13.196 0-16.406-13.022-29.754-29.027-29.754s-29.027 13.348-29.027 29.754c0 4.737 1.091 9.216 3.021 13.196-10.414 7.005-17.737 17.943-20.41 30.436-7.58-9.867-12.102-22.201-12.102-35.577 0-32.267 26.251-58.518 58.518-58.518s58.518 26.252 58.518 58.519zm91.55 48.618v-3.056c.199-12.105 6.503-23.006 16.388-28.9 4.618 3.179 10.171 5.037 16.139 5.037 5.969 0 11.522-1.858 16.14-5.037 9.884 5.894 16.19 16.794 16.388 28.899v3.056c-9.308 6.248-20.499 9.9-32.528 9.9-12.028.001-23.218-3.651-32.527-9.899zm32.527-41.926c-7.731 0-14.02-6.615-14.02-14.747s6.289-14.747 14.02-14.747 14.021 6.615 14.021 14.747-6.29 14.747-14.021 14.747zm58.518-6.692c0 13.375-4.521 25.709-12.101 35.575-2.672-12.492-9.996-23.43-20.41-30.435 1.93-3.98 3.021-8.459 3.021-13.196 0-16.406-13.022-29.754-29.028-29.754s-29.027 13.348-29.027 29.754c0 4.737 1.091 9.216 3.021 13.196-10.413 7.005-17.737 17.943-20.409 30.435-7.58-9.867-12.101-22.2-12.101-35.576 0-32.267 26.251-58.518 58.517-58.518 32.266.002 58.517 26.252 58.517 58.519zm124.267-22.802c7.731 0 14.02 6.615 14.02 14.747s-6.289 14.747-14.02 14.747-14.02-6.615-14.02-14.747 6.289-14.747 14.02-14.747zm-32.527 71.421v-3.057c.198-12.105 6.503-23.005 16.388-28.9 4.618 3.179 10.171 5.037 16.139 5.037 5.969 0 11.521-1.858 16.139-5.037 9.884 5.894 16.189 16.795 16.388 28.9v3.118c-9.373 6.254-20.598 9.838-32.527 9.838-12.029 0-23.219-3.652-32.527-9.899z"/><path d="m260.993 200.393c31.004-1.959 55.861-26.816 57.82-57.819 2.356-37.29-28.432-68.208-65.839-65.839-24.979 1.578-46.412 17.955-54.601 41.722-1.35 3.918.732 8.188 4.65 9.539 3.918 1.352 8.188-.733 9.539-4.65 6.114-17.745 22.734-30.457 41.358-31.633 28.281-1.797 51.709 21.535 49.916 49.916-1.483 23.479-20.308 42.304-43.789 43.787-21.218 1.346-40.785-11.749-47.56-31.832-1.325-3.927-5.58-6.036-9.508-4.711-3.927 1.325-6.036 5.582-4.711 9.508 8.949 26.528 34.754 43.779 62.725 42.012z"/></g></g></g></g></svg>