<svg id="Capa_1" enable-background="new 0 0 512 512" height="512" viewBox="0 0 512 512" width="512" xmlns="http://www.w3.org/2000/svg"><g><g><g><g><g><path d="m378.751 463.587h91.014c6.544-5.078 10.87-12.836 11.078-21.67.296-12.566-7.527-23.319-18.585-27.447-1.888-.705-3.556-1.931-4.735-3.565-6.752-9.353-17.743-15.441-30.16-15.441-16.901 0-31.157 11.281-35.672 26.722-.935 3.197-3.388 5.669-6.566 6.67-8.101 2.552-13.978 10.11-13.978 19.055.001 6.359 2.979 12.013 7.604 15.676z" fill="#66b49d"/></g><g><path d="m133.249 463.587h-91.014c-6.544-5.078-10.87-12.836-11.078-21.67-.296-12.566 7.527-23.319 18.585-27.447 1.888-.705 3.556-1.931 4.735-3.565 6.752-9.353 17.743-15.441 30.16-15.441 16.901 0 31.157 11.281 35.672 26.722.935 3.197 3.388 5.669 6.566 6.67 8.101 2.552 13.978 10.11 13.978 19.055-.001 6.359-2.979 12.013-7.604 15.676z" fill="#78d0b1"/></g></g><g><g><g><g><g><path d="m350 87.972h-188v-55.447c0-5.493 4.453-9.946 9.946-9.946h168.108c5.493 0 9.946 4.453 9.946 9.946z" fill="#e7ecf1"/><path d="m340.054 22.579h-61.445c5.493 0 9.946 4.453 9.946 9.946v55.446h61.445v-55.446c0-5.493-4.453-9.946-9.946-9.946z" fill="#dae4ea"/><g><g><path d="m390.936 421.723h-269.872v-356.501c0-5.493 4.453-9.946 9.946-9.946h249.98c5.493 0 9.946 4.453 9.946 9.946z" fill="#f4f8f8"/></g></g><path d="m380.99 55.275h-62.182c5.493 0 9.946 4.453 9.946 9.946v356.502h62.182v-356.502c0-5.493-4.453-9.946-9.946-9.946z" fill="#e7ecf1"/></g><path d="m410.643 334.779h-309.286c-4.165 0-7.541 3.376-7.541 7.541v117.766c0 4.165 3.376 7.541 7.541 7.541h309.286c4.165 0 7.541-3.376 7.541-7.541v-117.766c0-4.165-3.376-7.541-7.541-7.541z" fill="#e7ecf1"/><path d="m410.643 334.779h-61.445c4.165 0 7.541 3.376 7.541 7.541v117.766c0 4.165-3.376 7.541-7.541 7.541h61.445c4.165 0 7.541-3.376 7.541-7.541v-117.766c0-4.165-3.376-7.541-7.541-7.541z" fill="#dae4ea"/><path d="m410.643 334.779h-40.589c4.165 0 7.541 3.376 7.541 7.541v117.766c0 4.165-3.376 7.541-7.541 7.541h40.589c4.165 0 7.541-3.376 7.541-7.541v-117.766c0-4.165-3.376-7.541-7.541-7.541z" fill="#dae4ea"/><path d="m216.875 380.107h78.25v87.521h-78.25z" fill="#bed8fb"/><g><g><g fill="#ddeafb"><path d="m179.229 125.44h-22.211c-2.219 0-4.018-1.799-4.018-4.018v-22.211c0-2.219 1.799-4.018 4.018-4.018h22.211c2.219 0 4.018 1.799 4.018 4.018v22.211c0 2.219-1.799 4.018-4.018 4.018z"/><path d="m237.813 125.44h-22.211c-2.219 0-4.018-1.799-4.018-4.018v-22.211c0-2.219 1.799-4.018 4.018-4.018h22.211c2.219 0 4.018 1.799 4.018 4.018v22.211c0 2.219-1.799 4.018-4.018 4.018z"/><path d="m296.398 125.44h-22.211c-2.219 0-4.018-1.799-4.018-4.018v-22.211c0-2.219 1.799-4.018 4.018-4.018h22.211c2.219 0 4.018 1.799 4.018 4.018v22.211c0 2.219-1.799 4.018-4.018 4.018z"/></g><path d="m354.982 125.44h-22.211c-2.219 0-4.018-1.799-4.018-4.018v-22.211c0-2.219 1.799-4.018 4.018-4.018h22.211c2.219 0 4.018 1.799 4.018 4.018v22.211c0 2.219-1.799 4.018-4.018 4.018z" fill="#bed8fb"/></g><g><g fill="#ddeafb"><path d="m179.229 209.513h-22.211c-2.219 0-4.018-1.799-4.018-4.018v-22.211c0-2.219 1.799-4.018 4.018-4.018h22.211c2.219 0 4.018 1.799 4.018 4.018v22.211c0 2.219-1.799 4.018-4.018 4.018z"/><path d="m237.813 209.513h-22.211c-2.219 0-4.018-1.799-4.018-4.018v-22.211c0-2.219 1.799-4.018 4.018-4.018h22.211c2.219 0 4.018 1.799 4.018 4.018v22.211c0 2.219-1.799 4.018-4.018 4.018z"/><path d="m296.398 209.513h-22.211c-2.219 0-4.018-1.799-4.018-4.018v-22.211c0-2.219 1.799-4.018 4.018-4.018h22.211c2.219 0 4.018 1.799 4.018 4.018v22.211c0 2.219-1.799 4.018-4.018 4.018z"/></g><path d="m354.982 209.513h-22.211c-2.219 0-4.018-1.799-4.018-4.018v-22.211c0-2.219 1.799-4.018 4.018-4.018h22.211c2.219 0 4.018 1.799 4.018 4.018v22.211c0 2.219-1.799 4.018-4.018 4.018z" fill="#bed8fb"/></g><g><g fill="#ddeafb"><path d="m179.229 293.587h-22.211c-2.219 0-4.018-1.799-4.018-4.018v-22.211c0-2.219 1.799-4.018 4.018-4.018h22.211c2.219 0 4.018 1.799 4.018 4.018v22.211c0 2.219-1.799 4.018-4.018 4.018z"/><path d="m237.813 293.587h-22.211c-2.219 0-4.018-1.799-4.018-4.018v-22.211c0-2.219 1.799-4.018 4.018-4.018h22.211c2.219 0 4.018 1.799 4.018 4.018v22.211c0 2.219-1.799 4.018-4.018 4.018z"/><path d="m296.398 293.587h-22.211c-2.219 0-4.018-1.799-4.018-4.018v-22.211c0-2.219 1.799-4.018 4.018-4.018h22.211c2.219 0 4.018 1.799 4.018 4.018v22.211c0 2.219-1.799 4.018-4.018 4.018z"/></g><path d="m354.982 293.587h-22.211c-2.219 0-4.018-1.799-4.018-4.018v-22.211c0-2.219 1.799-4.018 4.018-4.018h22.211c2.219 0 4.018 1.799 4.018 4.018v22.211c0 2.219-1.799 4.018-4.018 4.018z" fill="#bed8fb"/></g></g><path d="m310.582 395.464h-109.164c-1.987 0-3.598-1.611-3.598-3.598v-19.518c0-1.987 1.611-3.598 3.598-3.598h109.163c1.987 0 3.598 1.611 3.598 3.598v19.518c.001 1.987-1.61 3.598-3.597 3.598z" fill="#dae4ea"/></g></g><path d="m497.666 458.573h-483.332c-3.774 0-6.834 3.06-6.834 6.834v17.18c0 3.774 3.06 6.834 6.834 6.834h483.332c3.774 0 6.834-3.06 6.834-6.834v-17.18c0-3.774-3.06-6.834-6.834-6.834z" fill="#818181"/><path d="m497.666 458.573h-54.149v30.848h54.149c3.774 0 6.834-3.06 6.834-6.834v-17.18c0-3.774-3.06-6.834-6.834-6.834z" fill="#595959"/></g></g></g></g><g><g><g><path d="m354.368 392.671h25.549c4.143 0 7.5-3.357 7.5-7.5s-3.357-7.5-7.5-7.5h-25.549c-4.143 0-7.5 3.357-7.5 7.5s3.358 7.5 7.5 7.5z"/><path d="m354.368 431.367h25.549c4.143 0 7.5-3.357 7.5-7.5s-3.357-7.5-7.5-7.5h-25.549c-4.143 0-7.5 3.357-7.5 7.5s3.358 7.5 7.5 7.5z"/><path d="m157.632 377.671h-25.549c-4.143 0-7.5 3.357-7.5 7.5s3.357 7.5 7.5 7.5h25.549c4.143 0 7.5-3.357 7.5-7.5s-3.358-7.5-7.5-7.5z"/><path d="m157.632 416.367h-25.549c-4.143 0-7.5 3.357-7.5 7.5s3.357 7.5 7.5 7.5h25.549c4.143 0 7.5-3.357 7.5-7.5s-3.358-7.5-7.5-7.5z"/><path d="m497.666 451.073h-10.706c.838-2.896 1.309-5.905 1.382-8.979.361-15.353-9.066-29.277-23.459-34.65-.536-.2-.99-.53-1.278-.929-8.406-11.643-22.406-19.079-37.92-18.5v-45.695c0-8.294-6.748-15.042-15.042-15.042h-12.207v-159.422c0-4.143-3.357-7.5-7.5-7.5s-7.5 3.357-7.5 7.5v159.422h-197.78c-4.143 0-7.5 3.357-7.5 7.5s3.357 7.5 7.5 7.5l225.029.042v108.753h-108.06v-48.109h7.957c6.119 0 11.098-4.979 11.098-11.098v-19.519c0-6.12-4.979-11.099-11.098-11.099h-109.164c-6.119 0-11.098 4.979-11.098 11.099v19.519c0 6.119 4.979 11.098 11.098 11.098h7.957v48.109h-108.057l.039-108.795h49.234c4.143 0 7.5-3.357 7.5-7.5s-3.357-7.5-7.5-7.5h-22.027v-262.056c0-1.349 1.098-2.446 2.446-2.446h249.979c1.349 0 2.446 1.098 2.446 2.446v67.571c0 4.143 3.357 7.5 7.5 7.5s7.5-3.357 7.5-7.5v-67.571c0-9.62-7.826-17.446-17.446-17.446h-23.489v-15.25c0-9.62-7.826-17.446-17.446-17.446h-168.108c-9.62 0-17.446 7.826-17.446 17.446v15.25h-23.489c-9.62 0-17.446 7.826-17.446 17.446v262.057h-12.207c-8.294 0-15.042 6.748-15.042 15.042v45.696c-15.51-.579-29.512 6.854-37.92 18.499-.288.399-.742.729-1.277.93-17.724 6.616-27.239 25.794-22.078 43.629h-10.707c-7.904-.002-14.334 6.428-14.334 14.332v17.18c0 7.904 6.43 14.334 14.334 14.334h483.332c7.904 0 14.334-6.43 14.334-14.334v-17.18c0-7.904-6.43-14.334-14.334-14.334zm-328.166-418.548c0-1.349 1.098-2.446 2.446-2.446h168.107c1.349 0 2.446 1.098 2.446 2.446v15.25h-173v-15.25zm256.185 370.491c10.368-.576 19.982 4.28 25.759 12.28 2.031 2.813 4.864 4.958 8.192 6.201 8.412 3.141 13.921 11.275 13.71 20.244-.078 3.292-.946 6.464-2.532 9.332h-45.129zm-220.365-15.052v-11.715h101.36v11.715zm82.305 15v48.109h-63.25v-48.109zm-235.26 18.533c3.327-1.243 6.16-3.388 8.192-6.202 5.772-7.995 15.383-12.856 25.758-12.279v48.058h-45.129c-6.087-11.009-.797-25.106 11.179-29.577zm444.635 60.424h-482v-15.848h482z"/><path d="m190.747 99.211c0-6.351-5.167-11.518-11.519-11.518h-22.211c-6.351 0-11.518 5.167-11.518 11.518v22.211c0 6.352 5.167 11.519 11.518 11.519h22.211c6.352 0 11.519-5.167 11.519-11.519zm-15 18.729h-15.247v-15.247h15.247z"/><path d="m249.331 99.211c0-6.351-5.167-11.518-11.518-11.518h-22.211c-6.352 0-11.519 5.167-11.519 11.518v22.211c0 6.352 5.167 11.519 11.519 11.519h22.211c6.351 0 11.518-5.167 11.518-11.519zm-15 18.729h-15.247v-15.247h15.247z"/><path d="m307.916 99.211c0-6.351-5.167-11.518-11.519-11.518h-22.211c-6.351 0-11.518 5.167-11.518 11.518v22.211c0 6.352 5.167 11.519 11.518 11.519h22.211c6.352 0 11.519-5.167 11.519-11.519zm-15 18.729h-15.247v-15.247h15.247z"/><path d="m366.5 99.211c0-6.351-5.167-11.518-11.518-11.518h-22.211c-6.352 0-11.519 5.167-11.519 11.518v22.211c0 6.352 5.167 11.519 11.519 11.519h22.211c6.351 0 11.518-5.167 11.518-11.519zm-15 18.729h-15.247v-15.247h15.247z"/><path d="m190.747 183.284c0-6.351-5.167-11.518-11.519-11.518h-22.211c-6.351 0-11.518 5.167-11.518 11.518v22.212c0 6.351 5.167 11.518 11.518 11.518h22.211c6.352 0 11.519-5.167 11.519-11.518zm-15 18.73h-15.247v-15.247h15.247z"/><path d="m249.331 183.284c0-6.351-5.167-11.518-11.518-11.518h-22.211c-6.352 0-11.519 5.167-11.519 11.518v22.212c0 6.351 5.167 11.518 11.519 11.518h22.211c6.351 0 11.518-5.167 11.518-11.518zm-15 18.73h-15.247v-15.247h15.247z"/><path d="m307.916 183.284c0-6.351-5.167-11.518-11.519-11.518h-22.211c-6.351 0-11.518 5.167-11.518 11.518v22.212c0 6.351 5.167 11.518 11.518 11.518h22.211c6.352 0 11.519-5.167 11.519-11.518zm-15 18.73h-15.247v-15.247h15.247z"/><path d="m366.5 183.284c0-6.351-5.167-11.518-11.518-11.518h-22.211c-6.352 0-11.519 5.167-11.519 11.518v22.212c0 6.351 5.167 11.518 11.519 11.518h22.211c6.351 0 11.518-5.167 11.518-11.518zm-15 18.73h-15.247v-15.247h15.247z"/><path d="m190.747 289.569v-22.212c0-6.351-5.167-11.518-11.519-11.518h-22.211c-6.351 0-11.518 5.167-11.518 11.518v22.212c0 6.351 5.167 11.518 11.518 11.518h22.211c6.352 0 11.519-5.167 11.519-11.518zm-15-3.482h-15.247v-15.247h15.247z"/><path d="m237.813 255.84h-22.211c-6.352 0-11.519 5.167-11.519 11.518v22.212c0 6.351 5.167 11.518 11.519 11.518h22.211c6.351 0 11.518-5.167 11.518-11.518v-22.212c0-6.351-5.167-11.518-11.518-11.518zm-3.482 30.247h-15.247v-15.247h15.247z"/><path d="m296.397 255.84h-22.211c-6.351 0-11.518 5.167-11.518 11.518v22.212c0 6.351 5.167 11.518 11.518 11.518h22.211c6.352 0 11.519-5.167 11.519-11.518v-22.212c0-6.351-5.167-11.518-11.519-11.518zm-3.481 30.247h-15.247v-15.247h15.247z"/><path d="m354.982 255.84h-22.211c-6.352 0-11.519 5.167-11.519 11.518v22.212c0 6.351 5.167 11.518 11.519 11.518h22.211c6.351 0 11.518-5.167 11.518-11.518v-22.212c0-6.351-5.167-11.518-11.518-11.518zm-3.482 30.247h-15.247v-15.247h15.247z"/></g></g></g></g></svg>