<svg id="Capa_1" enable-background="new 0 0 512 512" height="512" viewBox="0 0 512 512" width="512" xmlns="http://www.w3.org/2000/svg"><g><g><g><g><g><g><g><g><g><g><g><g><g><g><g><g><g><g><g><g><g><path d="m108.533 333.518c4.884-.613 8.557-4.75 8.578-9.673l.189-44.78 68.42.288-.189 44.78c-.021 4.923 3.617 9.091 8.496 9.745 0 0 12.634 43.179-42.929 42.945s-42.565-43.305-42.565-43.305z" fill="#ffece3"/><path d="m86.93 216.459 4.139.017.02-4.86.049-11.617c.069-16.403 6.87-32.269 19.345-42.92 9.781-8.35 23.51-15.617 41.607-15.742 18.095.278 31.762 7.66 41.472 16.093 12.385 10.755 19.052 26.678 18.983 43.081l-.049 11.617-.02 4.86 4.139.017c6.068.026 10.966 4.965 10.94 11.033l-.051 12.175c-.026 6.068-4.965 10.966-11.033 10.94l-4.155-.018c-.41 15.943-7.175 31.262-19.324 41.634-9.781 8.35-23.51 15.617-41.607 15.742-18.095-.278-31.763-7.66-41.472-16.092-12.061-10.474-18.697-25.849-18.972-41.796l-4.155-.018c-6.068-.026-10.966-4.965-10.94-11.033l.051-12.175c.026-6.065 4.966-10.963 11.033-10.938z" fill="#ffece3"/><path d="m216.615 217.006-4.139-.017.021-4.86.049-11.617c.069-16.403-6.598-32.326-18.983-43.081-7.032-6.107-16.152-11.647-27.513-14.353l-.169 108.06c-.41 15.943-7.175 31.262-19.324 41.634-4.991 4.261-11.018 8.233-18.121 11.125 6.677 2.717 14.302 4.484 22.95 4.617 18.096-.125 31.826-7.392 41.607-15.742 12.149-10.372 18.914-25.691 19.324-41.634l4.155.017c6.068.026 11.007-4.872 11.033-10.94l.051-12.175c.025-6.069-4.873-11.008-10.941-11.034z" fill="#ffddce"/><path d="m19.922 468.672.327-78.661c.079-18.813 11.224-35.818 28.443-43.398 15.676-6.9 45.272-11.267 59.841-13.095l42.634 26.916 42.86-26.556c14.553 1.951 44.111 6.567 59.728 13.599 17.154 7.725 28.156 24.823 28.076 43.636l-.327 77.559z" fill="#ddeafb"/><g><path d="m253.754 347.478c-15.617-7.032-45.175-11.648-59.728-13.599l-39.383 24.402c13.273 2.432 27.876 5.807 37.35 10.073 17.154 7.725 28.156 24.823 28.076 43.636l-.239 56.682h61.673l.327-77.558c.08-18.814-10.921-35.912-28.076-43.636z" fill="#bed8fb"/></g></g></g></g></g></g></g><path d="m128.465 137.622 47.716.201c8.667.037 16.016 5.596 18.735 13.329 1.04 2.959 3.778 4.98 6.914 4.993 11.105.047 20.069 9.087 20.022 20.192l-.177 41.927s-17.642-.284-23.635 5.576c-1.26 1.232-3.376.35-3.368-1.412l.116-27.562c.04-9.57-7.685-17.361-17.255-17.401l-.208-.001c-2.926-.012-5.819.436-8.584 1.312-4.91 1.557-9.993 2.503-15.144 2.482l-3.352-.014c-5.151-.022-10.226-1.011-15.122-2.609-2.757-.9-5.647-1.372-8.572-1.385l-.208-.001c-9.57-.04-17.361 7.685-17.401 17.255l-.101 24.569c-.009 2.071-1.629 3.778-3.698 3.893l-6.458.359c-.979.054-1.943-.264-2.697-.89-5.92-4.911-14.13-4.76-14.13-4.76l.143-33.981c.109-25.552 20.911-46.179 46.464-46.072z" fill="#aa8080"/><path d="m201.83 156.146c-3.136-.013-5.874-2.034-6.914-4.993-2.719-7.734-10.068-13.292-18.735-13.329l-10.123-.043-.066 41.79c.922-.244 1.84-.504 2.75-.793 2.764-.876 5.658-1.325 8.584-1.312l.208.001c9.57.04 17.295 7.831 17.255 17.401l-.116 27.562c-.007 1.762 2.109 2.644 3.368 1.411 5.992-5.86 23.635-5.576 23.635-5.576l.177-41.927c.046-11.105-8.918-20.146-20.023-20.192z" fill="#9d6b6b"/></g><path d="m223.578 338.791-28.772 37.077c-5.112 6.588-14.626 7.722-21.143 2.52l-22.496-17.954 42.86-26.556c7.294.979 18.36 2.627 29.551 4.913z" fill="#bed8fb"/><path d="m78.941 338.181 28.511 37.37c5.066 6.64 14.589 7.844 21.148 2.673l22.567-17.79-42.634-26.916c-7.304.917-18.383 2.471-29.592 4.663z" fill="#bed8fb"/><path d="m151.167 360.435 21.494 17.155-11.605 17.155-20-.084-11.651-17.071z" fill="#fb636f"/></g><path d="m129.597 468.672 11.423-74.012 20.001.084 10.773 73.928z" fill="#fc8086"/></g></g></g></g></g></g><g><path d="m268.799 403.799h209.742c7.262 0 13.15-5.887 13.15-13.15v-116.074c0-7.262-5.887-13.15-13.15-13.15h-209.742c-7.262 0-13.15 5.887-13.15 13.15v116.074c.001 7.262 5.888 13.15 13.15 13.15z" fill="#f4f8f8"/><path d="m478.542 261.425h-61.445c7.262 0 13.15 5.887 13.15 13.15v116.074c0 7.262-5.887 13.15-13.15 13.15h61.445c7.262 0 13.15-5.887 13.15-13.15v-116.074c-.001-7.262-5.888-13.15-13.15-13.15z" fill="#e7ecf1"/><path d="m350.015 484.11h47.311l-9.13-89.652c-.395-3.879-3.662-6.83-7.561-6.83h-13.927c-3.899 0-7.166 2.951-7.561 6.83z" fill="#e7ecf1"/><path d="m331.551 484.11h84.239v-34.616c0-5.121-4.151-9.272-9.272-9.272h-65.696c-5.121 0-9.272 4.151-9.272 9.272v34.616z" fill="#f4f8f8"/></g></g><g><path d="m14.383 504.5h482.847c3.689 0 6.679-2.99 6.679-6.679v-25.058c0-3.689-2.99-6.679-6.679-6.679h-482.847c-3.689 0-6.679 2.99-6.679 6.679v25.058c0 3.689 2.99 6.679 6.679 6.679z" fill="#f9c301"/></g><path d="m497.23 466.084h-61.445c3.689 0 6.679 2.99 6.679 6.679v25.058c0 3.689-2.99 6.679-6.679 6.679h61.445c3.689 0 6.679-2.99 6.679-6.679v-25.058c0-3.689-2.99-6.679-6.679-6.679z" fill="#e6b700"/></g><circle cx="373.671" cy="324.008" fill="#7c8b96" r="20.86"/></g></g></g><g><g><g><circle cx="416.56" cy="95.236" fill="#f6e266" r="87.736"/></g><path d="m416.56 7.5c-10.818 0-21.175 1.963-30.743 5.543 33.29 12.458 56.992 44.555 56.992 82.193s-23.702 69.735-56.992 82.193c9.568 3.58 19.926 5.543 30.743 5.543 48.455 0 87.736-39.281 87.736-87.736s-39.28-87.736-87.736-87.736z" fill="#ffd064"/><g><circle cx="416.56" cy="95.236" fill="#f5f5f5" r="61.487"/></g></g></g></g><g><g><g><path d="m497.23 458.584h-73.94v-9.089c0-9.248-7.524-16.772-16.771-16.772h-6.887l-2.182-21.425h81.093c11.386 0 20.649-9.263 20.649-20.65v-116.073c0-11.386-9.263-20.65-20.649-20.65h-209.743c-11.386 0-20.65 9.263-20.65 20.65v62.76c-16.631-5.453-39.588-9.074-53.126-10.89h-.001c-1.141-.153-1.997-1.133-1.993-2.28l.092-21.951c1.606-1.175 3.188-2.416 4.739-3.74 11.724-10.009 19.304-24.315 21.389-40.021 3.873-.57 7.451-2.351 10.283-5.16 3.506-3.476 5.449-8.111 5.469-13.049l.051-12.173c.022-5.238-2.148-10.117-5.863-13.579l.161-38.124c.064-15.181-12.203-27.592-27.368-27.721-3.844-10.912-14.198-18.274-25.771-18.323l-47.716-.201c-.078 0-.152 0-.23 0-29.541 0-53.639 23.972-53.764 53.541l-.127 30.176c-3.744 3.43-5.955 8.291-5.978 13.529l-.051 12.174c-.039 9.237 6.739 16.943 15.598 18.339 1.952 15.721 9.412 30.092 21.051 40.201 1.539 1.337 3.111 2.591 4.707 3.78l-.092 21.951c-.005 1.147-.87 2.12-2.012 2.264h-.001c-16.125 2.024-45.61 6.49-61.927 13.672-19.907 8.763-32.829 28.479-32.921 50.23l-.047 11.083c-.018 4.141 3.326 7.513 7.468 7.531h.032c4.127 0 7.482-3.337 7.499-7.468l.047-11.082c.067-15.834 9.474-30.186 23.965-36.566 6.233-2.744 15.047-5.089 24.118-7.007l25.658 33.63c6.241 8.181 16.774 10.725 25.629 7.443l6.045 8.857-9.598 62.184h-53.381l.11-26.071c.018-4.141-3.326-7.513-7.468-7.531-.011 0-.021 0-.032 0-4.127 0-7.482 3.337-7.499 7.468l-.11 26.134h-27.726l.094-22.304c.018-4.141-3.326-7.513-7.468-7.531-.011 0-.021 0-.032 0-4.127 0-7.482 3.337-7.499 7.468l-.095 22.512c-6.909.945-12.255 6.87-12.255 14.033v25.058c0 7.818 6.361 14.179 14.179 14.179h482.847c7.819 0 14.179-6.361 14.179-14.179v-25.058c0-7.818-6.36-14.179-14.179-14.179zm-88.94-9.089v9.089h-69.24v-9.089c0-.978.795-1.772 1.772-1.772h65.696c.978-.001 1.772.794 1.772 1.772zm-58.398-38.197-2.182 21.425h-6.888c-9.248 0-16.771 7.524-16.771 16.772v9.089h-35.01l.218-47.286zm12.895 21.425 2.867-28.152c0-.004.001-.007.001-.01l.952-9.342c.005-.052.048-.091.1-.091h13.927c.052 0 .095.039.1.091l.951 9.333c.001.01.002.02.003.03l2.866 28.143h-21.767zm-99.637-158.148c0-3.115 2.535-5.65 5.65-5.65h209.742c3.115 0 5.65 2.535 5.65 5.65v116.073c0 3.115-2.535 5.65-5.65 5.65h-82.62l-.265-2.6c-.788-7.737-7.246-13.571-15.022-13.571h-13.927c-7.777 0-14.235 5.834-15.022 13.571l-.265 2.6h-82.621c-3.116 0-5.65-2.535-5.65-5.65zm5.65 136.723h5.46l-.218 47.286h-27.719l.107-25.328c.018-4.141-3.326-7.513-7.468-7.531-.011 0-.021 0-.032 0-4.127 0-7.482 3.337-7.499 7.468l-.107 25.391h-53.419l-9.035-62.002 6.046-8.938c9.046 3.502 19.594.84 25.817-7.179l25.887-33.359c7.89 1.738 15.577 3.799 21.532 6.15v37.392c-.002 11.387 9.262 20.65 20.648 20.65zm-123.772-24.122-5.482-8.032 11.591-9.138 11.429 9.122-5.479 8.099zm50.654-45.501c3.891.544 8.914 1.295 14.429 2.237l-21.23 27.358c-2.537 3.268-7.269 3.868-10.54 1.256l-14.183-11.32zm-106.18-157.949c.09-21.321 17.464-38.604 38.766-38.604h.166l47.716.201c5.252.022 9.951 3.365 11.692 8.318 2.095 5.957 7.704 9.977 13.958 10.004 6.952.029 12.583 5.709 12.554 12.661l-.146 34.692c-4.956.405-8.899 1.275-11.996 2.3l.078-18.4c.058-13.714-10.997-24.875-24.72-24.932l-.211-.001c-3.695-.008-7.354.544-10.883 1.663-9.281 2.943-19.898 2.857-29.023-.122-3.521-1.149-7.178-1.74-10.866-1.755l-.211-.001c-.037 0-.073 0-.109 0-13.482 0-24.765 10.864-24.823 24.723l-.087 21.191-1.734.097c-3.388-2.483-7.081-3.866-10.235-4.635zm8.938 66.769c-.07-4.08-3.389-7.354-7.469-7.371l-4.152-.017c-1.923-.008-3.482-1.58-3.473-3.503l.051-12.173c.003-.838.293-1.526.698-2.061 1.966.293 4.919 1.022 7.104 2.835 2.219 1.842 5.028 2.758 7.902 2.606l6.459-.358c6.019-.335 10.754-5.32 10.78-11.349l.101-24.569c.023-5.556 4.6-9.836 9.866-9.786l.213.001c2.129.009 4.24.35 6.277 1.015 12.325 4.022 26.118 3.996 38.212.161 2.012-.639 4.096-.962 6.192-.962h.089l.212.001c5.429.022 9.81 4.437 9.787 9.869l-.117 27.563c-.016 3.832 2.252 7.271 5.779 8.763 1.198.507 2.455.753 3.702.753 2.431 0 4.818-.937 6.631-2.712 1.902-1.86 9.494-3.193 15.975-3.407.462.557.8 1.297.796 2.213l-.051 12.174c-.005 1.257-.648 2.082-1.032 2.461-.381.379-1.206 1.011-2.454 1.011-.005 0-.011 0-.016 0l-4.155-.018c-4.126-.02-7.424 3.229-7.529 7.307-.365 14.21-6.45 27.377-16.696 36.123-21.768 18.584-51.479 18.635-73.292-.31-10.171-8.83-16.145-22.047-16.39-36.26zm79.647 60.213-.056 13.393c-.014 3.365.96 6.533 2.648 9.224l-29.476 18.263-29.32-18.511c1.711-2.677 2.712-5.836 2.727-9.201l.056-13.394c16.724 7.092 35.68 7.573 53.421.226zm-64.672 60.295-21.048-27.588c5.522-.896 10.55-1.604 14.444-2.115l31.382 19.812-14.236 11.223c-3.261 2.569-8.005 1.993-10.542-1.332zm34.032 31.183 7.084.03 8.214 56.368h-24.004zm348.963 94.815h-481.207v-23.417h481.207z"/><path d="m373.671 352.368c15.638 0 28.36-12.722 28.36-28.36s-12.722-28.36-28.36-28.36-28.36 12.722-28.36 28.36 12.722 28.36 28.36 28.36zm0-41.721c7.367 0 13.361 5.994 13.361 13.361s-5.993 13.361-13.361 13.361-13.361-5.994-13.361-13.361 5.993-13.361 13.361-13.361z"/><path d="m416.56 52.039c-4.142 0-7.5 3.357-7.5 7.5v33.031c0 5.605 4.56 10.166 10.169 10.166l17.967-.007c4.142-.002 7.498-3.36 7.497-7.503-.001-4.141-3.359-7.497-7.5-7.497 0 0-.002 0-.003 0l-13.131.005v-28.195c.001-4.143-3.357-7.5-7.499-7.5z"/><path d="m416.56 190.471c52.513 0 95.236-42.723 95.236-95.235 0-52.513-42.723-95.236-95.236-95.236s-95.235 42.723-95.235 95.236 42.722 95.235 95.235 95.235zm0-175.472c44.242 0 80.236 35.995 80.236 80.237s-35.994 80.236-80.236 80.236-80.236-35.994-80.236-80.236 35.994-80.237 80.236-80.237z"/><path d="m416.56 164.223c38.039 0 68.987-30.947 68.987-68.986s-30.947-68.988-68.987-68.988c-31.119 0-57.445 20.608-66.033 48.963-1.201 3.964 1.039 8.151 5.003 9.351 3.964 1.199 8.151-1.04 9.352-5.004 6.833-22.557 28.084-38.311 51.678-38.311 29.769 0 53.987 24.219 53.987 53.988 0 29.768-24.219 53.987-53.987 53.987-23.784 0-44.504-15.243-51.561-37.93-1.23-3.955-5.432-6.167-9.389-4.933-3.955 1.229-6.164 5.433-4.934 9.388 9.019 28.994 35.496 48.475 65.884 48.475z"/></g></g></g></g></svg>