<svg id="Capa_1" enable-background="new 0 0 512 512" height="512" viewBox="0 0 512 512" width="512" xmlns="http://www.w3.org/2000/svg"><g><g><g><g><g><g><g><g><path d="m7.5 401.21c0 12.568 10.189 22.757 22.757 22.757h392.428c12.568 0 22.757-10.189 22.757-22.757v-271.187l-49.183-14.242h-339.576l-49.183 14.242z" fill="#f4f8f8"/></g><path d="m396.258 115.782h-12.27v285.428c0 12.568-10.188 22.757-22.757 22.757h61.453c12.568 0 22.757-10.189 22.757-22.757v-271.187z" fill="#e7ecf1"/><g><g><g><path d="m433.275 285.071 33.808-33.806c2.597-2.598 6.051-4.028 9.724-4.028s7.127 1.43 9.724 4.028l7.821 7.821c2.597 2.596 4.028 6.05 4.028 9.723 0 3.674-1.431 7.128-4.028 9.725l-33.807 33.807z" fill="#9cabb8"/></g></g><g><g><path d="m331.665 285.071-33.808-33.806c-2.597-2.598-6.051-4.028-9.724-4.028s-7.127 1.43-9.724 4.028l-7.821 7.821c-2.597 2.596-4.028 6.05-4.028 9.723 0 3.674 1.431 7.128 4.028 9.725l33.807 33.807z" fill="#9cabb8"/></g></g></g><path d="m422.684 61.238h-392.427c-12.569 0-22.757 10.188-22.757 22.756v46.029h437.941v-46.029c0-12.568-10.189-22.756-22.757-22.756z" fill="#fc8086"/><path d="m422.684 61.238h-61.45c12.567.001 22.754 10.189 22.754 22.757v46.029h61.453v-46.03c0-12.568-10.189-22.756-22.757-22.756z" fill="#fb636f"/></g></g><g fill="#7c8b96"><path d="m79.664 99.98c-12.692 0-22.981-10.289-22.981-22.981v-31.522c0-12.692 10.289-22.981 22.981-22.981 12.692 0 22.981 10.289 22.981 22.981v31.522c0 12.692-10.289 22.981-22.981 22.981z"/><path d="m177.535 99.98c-12.692 0-22.981-10.289-22.981-22.981v-31.522c0-12.692 10.289-22.981 22.981-22.981 12.692 0 22.981 10.289 22.981 22.981v31.522c0 12.692-10.289 22.981-22.981 22.981z"/><path d="m275.406 99.98c-12.692 0-22.981-10.289-22.981-22.981v-31.522c0-12.692 10.289-22.981 22.981-22.981 12.692 0 22.981 10.289 22.981 22.981v31.522c0 12.692-10.289 22.981-22.981 22.981z"/><path d="m373.277 99.98c-12.692 0-22.981-10.289-22.981-22.981v-31.522c0-12.692 10.289-22.981 22.981-22.981 12.692 0 22.981 10.289 22.981 22.981v31.522c0 12.692-10.289 22.981-22.981 22.981z"/></g></g><g><g><g><path d="m103.079 240.346h-48.572c-3.825 0-6.926-3.101-6.926-6.926v-48.571c0-3.825 3.101-6.926 6.926-6.926h48.571c3.825 0 6.926 3.101 6.926 6.926v48.571c0 3.825-3.101 6.926-6.925 6.926z" fill="#78d0b1"/></g><g><path d="m201.53 240.346h-48.571c-3.825 0-6.926-3.101-6.926-6.926v-48.571c0-3.825 3.101-6.926 6.926-6.926h48.571c3.825 0 6.926 3.101 6.926 6.926v48.571c0 3.825-3.101 6.926-6.926 6.926z" fill="#78d0b1"/></g><g><path d="m299.982 240.346h-48.571c-3.825 0-6.926-3.101-6.926-6.926v-48.571c0-3.825 3.101-6.926 6.926-6.926h48.571c3.825 0 6.926 3.101 6.926 6.926v48.571c-.001 3.825-3.101 6.926-6.926 6.926z" fill="#78d0b1"/></g></g><g><g><path d="m103.079 364.549h-48.572c-3.825 0-6.926-3.101-6.926-6.926v-48.571c0-3.825 3.101-6.926 6.926-6.926h48.571c3.825 0 6.926 3.101 6.926 6.926v48.571c0 3.826-3.101 6.926-6.925 6.926z" fill="#78d0b1"/></g><g><path d="m201.53 364.549h-48.571c-3.825 0-6.926-3.101-6.926-6.926v-48.571c0-3.825 3.101-6.926 6.926-6.926h48.571c3.825 0 6.926 3.101 6.926 6.926v48.571c0 3.826-3.101 6.926-6.926 6.926z" fill="#78d0b1"/></g></g></g></g><g><g><path d="m361.21 202.228h42.52v54.531h-42.52z" fill="#9cabb8"/><g><g><g><g><circle cx="382.47" cy="367.475" fill="#f6e266" r="122.03"/><circle cx="382.47" cy="367.475" fill="#f4f8f8" r="90.442"/><path d="m382.47 277.033c-10.787 0-21.13 1.892-30.722 5.356 34.826 12.577 59.719 45.923 59.719 85.086s-24.894 72.508-59.719 85.086c9.592 3.464 19.936 5.356 30.722 5.356 49.95 0 90.442-40.492 90.442-90.442s-40.492-90.442-90.442-90.442z" fill="#e7ecf1"/></g><circle cx="382.47" cy="367.475" fill="#fc8086" r="15.325"/></g></g></g><path d="m405.117 221.303h-45.294c-7.822 0-14.163-6.341-14.163-14.163v-7.446c0-7.822 6.341-14.163 14.163-14.163h45.294c7.822 0 14.163 6.341 14.163 14.163v7.446c0 7.822-6.341 14.163-14.163 14.163z" fill="#aa8080"/></g></g></g></g><g><g><g><path d="m382.464 303.435c-4.149 0-7.511 3.362-7.511 7.511v34.963c-8.911 3.114-15.324 11.6-15.324 21.56 0 12.591 10.244 22.835 22.835 22.835 9.962 0 18.45-6.415 21.562-15.33l18.406-.005c4.149-.001 7.51-3.365 7.509-7.513s-3.363-7.509-7.511-7.509c-.001 0-.002 0-.002 0l-18.406.005c-2.292-6.555-7.491-11.752-14.047-14.043v-34.963c.001-4.149-3.362-7.511-7.511-7.511zm0 71.847c-4.308 0-7.813-3.504-7.813-7.813 0-4.308 3.504-7.813 7.813-7.813s7.813 3.504 7.813 7.813c0 4.308-3.504 7.813-7.813 7.813z"/><path d="m238.124 416.447h-207.857c-8.406 0-15.244-6.838-15.244-15.245v-263.661h422.899v90.029c0 4.149 3.363 7.511 7.511 7.511s7.511-3.363 7.511-7.511c0-16.399 0-126.834 0-143.567 0-16.689-13.578-30.266-30.267-30.266h-18.914v-8.249c0-16.813-13.678-30.491-30.491-30.491s-30.492 13.677-30.492 30.49v8.249h-36.883v-8.249c0-16.813-13.678-30.491-30.491-30.491-16.814 0-30.492 13.679-30.492 30.491v8.249h-36.884v-8.249c0-16.813-13.678-30.491-30.491-30.491s-30.491 13.679-30.491 30.491v8.249h-36.883v-8.249c0-16.813-13.678-30.491-30.492-30.491-16.813 0-30.491 13.679-30.491 30.491v8.249h-18.915c-16.689-.001-30.267 13.577-30.267 30.266v317.201c0 16.689 13.578 30.267 30.267 30.267h207.857c4.148 0 7.511-3.363 7.511-7.511s-3.362-7.512-7.511-7.512zm119.678-370.96c0-8.529 6.939-15.469 15.469-15.469s15.469 6.939 15.469 15.469v31.52c0 8.529-6.939 15.469-15.469 15.469s-15.469-6.939-15.469-15.469zm-82.397-15.469c8.529 0 15.469 6.939 15.469 15.469v31.52c0 8.529-6.939 15.469-15.469 15.469s-15.47-6.939-15.47-15.469v-15.741c0-.006.001-.013.001-.019 0-.007-.001-.013-.001-.019v-15.741c.001-8.53 6.941-15.469 15.47-15.469zm-113.335 15.469c0-8.529 6.939-15.469 15.469-15.469 8.529 0 15.469 6.939 15.469 15.469v31.52c0 8.529-6.939 15.469-15.469 15.469-8.529 0-15.469-6.939-15.469-15.469zm-97.867 0c0-8.529 6.939-15.469 15.469-15.469 8.529 0 15.469 6.939 15.469 15.469v15.75.01.01 15.75c0 8.529-6.939 15.469-15.469 15.469-8.529 0-15.469-6.939-15.469-15.469zm-49.18 38.515c0-8.405 6.838-15.244 15.244-15.244h18.914v8.249c0 16.813 13.678 30.491 30.492 30.491 16.813 0 30.491-13.679 30.491-30.491v-8.249h36.883v8.249c0 16.813 13.678 30.491 30.491 30.491s30.491-13.679 30.491-30.491v-8.249h36.883v8.249c0 16.813 13.678 30.491 30.492 30.491 16.813 0 30.491-13.679 30.491-30.491v-8.249h36.883v8.249c0 16.813 13.678 30.491 30.491 30.491s30.491-13.679 30.491-30.491v-8.249h18.914c8.406 0 15.245 6.838 15.245 15.244v38.516h-422.896z"/><path d="m117.522 184.852c0-7.96-6.477-14.436-14.437-14.436h-48.568c-7.96 0-14.437 6.476-14.437 14.436v48.569c0 7.96 6.477 14.436 14.437 14.436h48.568c7.96 0 14.437-6.476 14.437-14.436zm-15.022 47.983h-47.397v-47.396h47.397z"/><path d="m215.969 184.852c0-7.96-6.477-14.436-14.437-14.436h-48.568c-7.96 0-14.437 6.476-14.437 14.436v48.569c0 7.96 6.477 14.436 14.437 14.436h48.568c7.96 0 14.437-6.476 14.437-14.436zm-15.022 47.983h-47.397v-47.396h47.397z"/><path d="m103.085 294.614h-48.568c-7.96 0-14.437 6.476-14.437 14.436v48.569c0 7.96 6.477 14.436 14.437 14.436h48.568c7.96 0 14.437-6.476 14.437-14.436v-48.569c0-7.96-6.476-14.436-14.437-14.436zm-.585 62.419h-47.397v-47.396h47.397z"/><path d="m201.532 294.614h-48.568c-7.96 0-14.437 6.476-14.437 14.436v48.569c0 7.96 6.477 14.436 14.437 14.436h48.568c7.96 0 14.437-6.476 14.437-14.436v-48.569c0-7.96-6.476-14.436-14.437-14.436zm-.585 62.419h-47.397v-47.396h47.397z"/><path d="m489.255 294.241 10.399-10.398c8.307-8.311 8.309-21.758-.001-30.07l-7.82-7.82c-8.309-8.309-21.761-8.312-30.07-.001l-11.307 11.307c-11.931-7.388-25.142-12.895-39.221-16.1v-13.23c8.977-2.65 15.549-10.963 15.549-20.787v-7.445c0-11.952-9.723-21.674-21.673-21.674h-45.292c-11.951 0-21.673 9.723-21.673 21.674v7.445c0 9.824 6.573 18.138 15.55 20.787v13.23c-14.079 3.205-27.29 8.713-39.221 16.1l-10.093-10.093c5.814-1.866 10.036-7.319 10.036-13.744v-48.569c0-7.96-6.477-14.436-14.437-14.436h-48.568c-7.96 0-14.437 6.476-14.437 14.436v48.569c0 7.96 6.477 14.436 14.437 14.436h19.781l-5.915 5.915c-8.312 8.31-8.311 21.76-.001 30.072l10.397 10.397c-14.338 20.844-22.744 46.071-22.744 73.227 0 71.426 58.109 129.536 129.536 129.536s129.533-58.11 129.533-129.536c0-27.156-8.407-52.383-22.745-73.228zm-16.869-37.666c2.442-2.444 6.38-2.443 8.822.001l7.821 7.821c2.44 2.438 2.449 6.376.001 8.824l-9.064 9.064c-5.176-5.916-10.879-11.358-17.038-16.254zm-119.219-56.878c0-3.668 2.983-6.652 6.651-6.652h45.292c3.668 0 6.651 2.984 6.651 6.652v7.445c0 3.668-2.983 6.651-6.651 6.651h-45.292c-3.668 0-6.651-2.983-6.651-6.651zm15.55 29.118h27.495v9.848c-4.519-.479-9.104-.73-13.747-.73s-9.229.251-13.747.73v-9.848zm-116.72-43.376h47.397v47.396h-47.397zm23.902 87.782c-2.441-2.439-2.451-6.374 0-8.825l7.82-7.82c2.439-2.441 6.376-2.449 8.825 0l9.456 9.455c-6.158 4.895-11.862 10.337-17.038 16.254zm106.565 208.761c-63.142 0-114.513-51.371-114.513-114.513s51.371-114.513 114.513-114.513 114.513 51.371 114.513 114.513-51.37 114.513-114.513 114.513z"/><path d="m382.464 269.52c-46.739 0-87.165 33.244-96.125 79.045-.796 4.071 1.858 8.017 5.93 8.813 4.073.799 8.016-1.858 8.813-5.93 7.584-38.768 41.81-66.906 81.382-66.906 45.725 0 82.926 37.201 82.926 82.926s-37.201 82.926-82.926 82.926c-39.482 0-73.693-28.062-81.347-66.726-.806-4.07-4.756-6.715-8.827-5.91-4.07.806-6.715 4.757-5.91 8.827 9.042 45.678 49.451 78.832 96.084 78.832 54.009 0 97.949-43.939 97.949-97.949s-43.939-97.948-97.949-97.948z"/></g></g></g></g></svg>